<?xml version="1.0" encoding="utf-8"?>
<!-- Generator: Adobe Illustrator 23.0.3, SVG Export Plug-In . SVG Version: 6.00 Build 0)  -->
<svg version="1.1" id="Layer_1" xmlns="http://www.w3.org/2000/svg" xmlns:xlink="http://www.w3.org/1999/xlink" x="0px" y="0px"
	 viewBox="0 0 512 512" style="enable-background:new 0 0 512 512;" xml:space="preserve">
<style type="text/css">
	.st0{fill:#FFB531;}
	.st1{fill:#D6D6D4;}
	.st2{fill:#CCCCCA;}
	.st3{fill:#4DB7E5;}
	.st4{fill:#48ADD9;}
	.st5{fill:#419BC2;}
	.st6{fill:#B0564C;}
	.st7{fill:#A74D43;}
	.st8{fill:#964138;}
	.st9{fill:#F57E00;}
	.st10{fill:#FFA912;}
	.st11{fill:#3D4D63;}
	.st12{fill:#E0E0DE;}
</style>
<path class="st0" d="M153.6,170.6v17.1l17.1,17.1v136.5h332.8V170.6H153.6z"/>
<path class="st1" d="M477.9,375.4H8.5v-34.1h477.9L477.9,375.4z"/>
<path class="st2" d="M482.9,355.2l3.5-13.9H8.5v13.9H482.9z"/>
<path class="st0" d="M170.7,341.3H8.5v-60.2c0-5.3,1.2-10.5,3.6-15.3l25.8-51.6c2.9-5.8,8.8-9.4,15.3-9.4h117.5V341.3z"/>
<path class="st3" d="M136.5,204.8H53.2c-6.5,0-12.4,3.7-15.3,9.4l-25.8,51.6c-1.1,2.3-2,4.7-2.6,7.2h127V204.8z"/>
<path class="st4" d="M136.5,204.8H85.3L42.7,273h93.9V204.8z"/>
<path class="st5" d="M76.8,204.8h17.1V273H76.8V204.8z"/>
<path class="st6" d="M179.2,170.6c0-15.5,9.4-29.4,23.8-35.1l80.5-32.2c15.7-6.3,32.5-9.5,49.4-9.5c16.9,0,33.7,3.2,49.4,9.5
	l80.5,32.2c14.4,5.7,23.8,19.6,23.8,35.1H179.2z"/>
<path class="st7" d="M462.6,135.5l-62.4-25c-37.6,27.6-80,48-125,60.1h211.2C486.4,155.2,477,141.3,462.6,135.5z"/>
<path class="st8" d="M307.2,110.9h17.1V128h-17.1V110.9z"/>
<path class="st8" d="M341.3,128h17.1V145h-17.1V128z"/>
<path class="st8" d="M256,128h17.1V145H256V128z"/>
<path class="st8" d="M392.5,128h17.1V145h-17.1V128z"/>
<g>
	<path class="st9" d="M221.9,204.8h17.1v85.3h-17.1V204.8z"/>
	<path class="st9" d="M273.1,204.8h17.1v85.3h-17.1V204.8z"/>
	<path class="st9" d="M324.3,204.8h17.1v85.3h-17.1V204.8z"/>
	<path class="st9" d="M375.5,204.8h17.1v85.3h-17.1V204.8z"/>
	<path class="st9" d="M426.7,204.8h17.1v85.3h-17.1V204.8z"/>
</g>
<path class="st10" d="M153.6,204.8h17.1v136.5h-17.1V204.8z"/>
<path class="st2" d="M146.7,341.3H58.1c-6,10.3-8.2,22.4-6.1,34.1h100.9C154.9,363.7,152.7,351.6,146.7,341.3z"/>
<path class="st2" d="M351.5,341.3h-88.6c-6,10.3-8.2,22.4-6.1,34.1h100.9C359.7,363.7,357.5,351.6,351.5,341.3z"/>
<path class="st2" d="M453.9,341.3h-88.6c-6,10.3-8.2,22.4-6.1,34.1H460C462.1,363.7,459.9,351.6,453.9,341.3z"/>
<path class="st11" d="M136.5,366.9c0,28.3-22.9,51.2-51.2,51.2s-51.2-22.9-51.2-51.2c0-28.3,22.9-51.2,51.2-51.2
	S136.5,338.6,136.5,366.9z"/>
<path class="st12" d="M102.4,366.9c0,9.4-7.6,17.1-17.1,17.1s-17.1-7.6-17.1-17.1s7.6-17.1,17.1-17.1S102.4,357.5,102.4,366.9z"/>
<path class="st11" d="M341.3,366.9c0,28.3-22.9,51.2-51.2,51.2s-51.2-22.9-51.2-51.2c0-28.3,22.9-51.2,51.2-51.2
	S341.3,338.6,341.3,366.9z"/>
<path class="st12" d="M307.2,366.9c0,9.4-7.6,17.1-17.1,17.1s-17.1-7.6-17.1-17.1s7.6-17.1,17.1-17.1S307.2,357.5,307.2,366.9z"/>
<path class="st11" d="M443.7,366.9c0,28.3-22.9,51.2-51.2,51.2s-51.2-22.9-51.2-51.2c0-28.3,22.9-51.2,51.2-51.2
	S443.7,338.6,443.7,366.9z"/>
<path class="st12" d="M409.6,366.9c0,9.4-7.6,17.1-17.1,17.1c-9.4,0-17.1-7.6-17.1-17.1s7.6-17.1,17.1-17.1
	C402,349.8,409.6,357.5,409.6,366.9z"/>
<path d="M503.5,162.1h-9.4c-2.8-15.6-13.5-28.6-28.3-34.5l-80.5-32.2C351.6,82,314,82,280.3,95.4l-80.5,32.2
	c-14.8,5.8-25.4,18.9-28.3,34.5h-17.9c-4.7,0-8.5,3.8-8.5,8.5v17.1c0,2.3,0.9,4.4,2.5,6l2.5,2.5H53.2c-9.7,0-18.6,5.5-22.9,14.1
	L4.5,262c-0.1,0.1-0.5,1-0.5,1.2c-0.2,0.4-0.3,0.7-0.4,1c-1,2.2-1.7,4.4-2.3,6.8v0.5C0.5,274.6,0,277.8,0,281v94.4
	c0,4.7,3.8,8.5,8.5,8.5h19.6c7.6,25.2,30.9,42.4,57.2,42.4s49.5-17.2,57.2-42.4H233c6.8,22.7,26.3,39.2,49.8,42.2
	c23.5,2.9,46.5-8.3,58.6-28.6c12.1,20.4,35.1,31.6,58.6,28.7c23.5-2.9,43-19.5,49.8-42.2h28.1c3.9,0,7.3-2.7,8.3-6.5l6.9-27.7h10.4
	c4.7,0,8.5-3.8,8.5-8.5V170.6C512,165.9,508.2,162.1,503.5,162.1z M206.1,143.4l80.5-32.2c29.7-11.8,62.7-11.8,92.4,0l80.5,32.2
	c8.3,3.3,14.6,10.1,17.2,18.7H189C191.6,153.6,197.9,146.7,206.1,143.4z M93.9,213.3H128v51.2H93.9V213.3z M45.6,218
	c1.4-2.9,4.4-4.8,7.6-4.8h23.6v51.2H22.3L45.6,218z M25.6,366.9h-8.5v-17.1h11.1C26.5,355.4,25.6,361.1,25.6,366.9z M85.3,409.6
	c-23.6,0-42.7-19.1-42.7-42.7c0-23.6,19.1-42.7,42.7-42.7s42.7,19.1,42.7,42.7C128,390.4,108.9,409.5,85.3,409.6z M134.3,332.8
	c-11.1-16-29.4-25.6-48.9-25.6s-37.8,9.6-48.9,25.6H17.1v-51.2h119.5c4.7,0,8.5-3.8,8.5-8.5v-59.7h17.1v119.5H134.3z M230.4,366.9
	h-85.3c0-5.8-0.9-11.5-2.6-17.1H233C231.3,355.4,230.4,361.1,230.4,366.9z M290.1,409.6c-23.6,0-42.7-19.1-42.7-42.7
	c0-23.6,19.1-42.7,42.7-42.7s42.7,19.1,42.7,42.7C332.8,390.4,313.7,409.5,290.1,409.6z M392.5,409.6c-23.6,0-42.7-19.1-42.7-42.7
	c0-23.6,19.1-42.7,42.7-42.7s42.7,19.1,42.7,42.7C435.2,390.4,416.1,409.5,392.5,409.6z M471.2,366.9h-18.9c0-5.8-0.9-11.5-2.6-17.1
	h25.7L471.2,366.9z M494.9,332.8h-53.5c-11.1-16-29.4-25.6-48.9-25.6s-37.8,9.6-48.9,25.6h-4.5c-11.1-16-29.4-25.6-48.9-25.6
	s-37.8,9.6-48.9,25.6h-62v-128c0-2.3-0.9-4.4-2.5-6l-14.6-14.6v-5h332.8V332.8z"/>
<path d="M85.3,341.3c-14.1,0-25.6,11.5-25.6,25.6s11.5,25.6,25.6,25.6s25.6-11.5,25.6-25.6S99.5,341.3,85.3,341.3z M85.3,375.4
	c-4.7,0-8.5-3.8-8.5-8.5s3.8-8.5,8.5-8.5c4.7,0,8.5,3.8,8.5,8.5S90,375.4,85.3,375.4z"/>
<path d="M290.1,341.3c-14.1,0-25.6,11.5-25.6,25.6s11.5,25.6,25.6,25.6s25.6-11.5,25.6-25.6S304.3,341.3,290.1,341.3z M290.1,375.4
	c-4.7,0-8.5-3.8-8.5-8.5s3.8-8.5,8.5-8.5s8.5,3.8,8.5,8.5S294.8,375.4,290.1,375.4z"/>
<path d="M392.5,341.3c-14.1,0-25.6,11.5-25.6,25.6s11.5,25.6,25.6,25.6c14.1,0,25.6-11.5,25.6-25.6S406.7,341.3,392.5,341.3z
	 M392.5,375.4c-4.7,0-8.5-3.8-8.5-8.5s3.8-8.5,8.5-8.5s8.5,3.8,8.5,8.5S397.2,375.4,392.5,375.4z"/>
<path d="M307.2,110.9h17.1V128h-17.1V110.9z"/>
<path d="M341.3,128h17.1V145h-17.1V128z"/>
<path d="M256,128h17.1V145H256V128z"/>
<path d="M392.5,128h17.1V145h-17.1V128z"/>
<path d="M221.9,204.8h17.1v85.3h-17.1V204.8z"/>
<path d="M273.1,204.8h17.1v85.3h-17.1V204.8z"/>
<path d="M324.3,204.8h17.1v85.3h-17.1V204.8z"/>
<path d="M375.5,204.8h17.1v85.3h-17.1V204.8z"/>
<path d="M426.7,204.8h17.1v85.3h-17.1V204.8z"/>
</svg>
