<svg viewBox="0 0 512 512" xmlns="http://www.w3.org/2000/svg"><circle cx="256" cy="256" fill="#ffb530" r="256"/><circle cx="183.43" cy="312.9" fill="#3d4d63" r="46.71"/><circle cx="328.41" cy="318.07" fill="#3d4d63" r="41.54"/><circle cx="183.43" cy="312.9" fill="#ccccca" r="26.86"/><circle cx="328.41" cy="318.07" fill="#ccccca" r="21.69"/><path d="m234.28 323.24h26.89a5.18 5.18 0 0 0 4.66-2.86l20.69-41.38 8.88-17.83h56.5l29.48 34.4a5.17 5.17 0 0 0 3.93 1.81h10.35a10.34 10.34 0 0 0 10.34-10.38v-31a25.89 25.89 0 0 0 -25.86-25.86h-5.14v-36.21a25.9 25.9 0 0 0 -25.87-25.86h-36.23a10.34 10.34 0 0 0 -10.35 10.34v31h-22.36l15.81-39.41 4.91-12.28h37.88a5.17 5.17 0 1 0 0-10.34h-37.91a10.28 10.28 0 0 0 -9.6 6.5l-3.61 9h-137.85a25.72 25.72 0 0 0 -23.13 14.29l-20.14 40.29a5.16 5.16 0 0 0 3.37 7.33l43.22 10.82 3.67 33.1 26.58 2.79a41.38 41.38 0 0 1 41.61 41.1zm130.34-113.79h-31v-10.35h31z" fill="#ffb531"/><path d="m178.42 238.31 5 27.88s23.91 2.14 31.19 11.94h67.24l10.35-19.91 17.8-1.22v-21.69h-44.63l-9.37 18.77z" fill="#f57e00"/><path d="m330.38 194.46h37.31v18.42h-37.31z" fill="#4db7e5"/><path d="m328.41 271.52a46.55 46.55 0 1 0 46.59 46.55 46.55 46.55 0 0 0 -46.59-46.55zm0 82.75a36.21 36.21 0 1 1 36.21-36.2 36.2 36.2 0 0 1 -36.21 36.2z"/><path d="m328.41 292.21a25.86 25.86 0 1 0 25.87 25.86 25.86 25.86 0 0 0 -25.87-25.86zm0 41.37a15.52 15.52 0 1 1 15.52-15.51 15.51 15.51 0 0 1 -15.52 15.51z"/><path d="m183.59 281.86a31 31 0 1 0 31 31 31 31 0 0 0 -31-31zm0 51.72a20.69 20.69 0 1 1 20.69-20.68 20.68 20.68 0 0 1 -20.69 20.68z"/><path d="m380.14 230.14h-5.14v-36.21a25.9 25.9 0 0 0 -25.87-25.86h-36.23a10.34 10.34 0 0 0 -10.35 10.34v31h-22.36l15.81-39.41 4.91-12.28h37.88a5.17 5.17 0 1 0 0-10.34h-37.91a10.28 10.28 0 0 0 -9.6 6.5l-3.61 9h-137.85a25.72 25.72 0 0 0 -23.13 14.29l-20.14 40.29a5.16 5.16 0 0 0 3.37 7.33l43.22 10.82 3.67 33.1a51.69 51.69 0 1 0 77.47 54.51h26.89a5.18 5.18 0 0 0 4.66-2.86l20.69-41.36 8.88-17.83h56.5l29.48 34.4a5.17 5.17 0 0 0 3.93 1.81h10.35a10.34 10.34 0 0 0 10.34-10.38v-31a25.89 25.89 0 0 0 -25.86-25.86zm-15.52-20.69h-31v-10.35h31zm-51.72-31h36.2a15.58 15.58 0 0 1 14.64 10.35h-30.15a10.34 10.34 0 0 0 -10.35 10.34v10.35a10.34 10.34 0 0 0 10.35 10.34h31v10.35h-51.69zm-36.85 41.38h26.5v10.35h-30.63l.88-2.19zm-140.1-38a15.42 15.42 0 0 1 13.87-8.58h133.71l-18.94 47.37-5.12 12.78-6.57 16.5-41.42-10.35-31.65-7.9-3.27-.82-57.87-14.49zm30.75 82.17-2.85-25.7 10 2.51 2.59 20.85a65.23 65.23 0 0 0 -9.74 2.34zm16.89 90.26a41.42 41.42 0 1 1 29.35-12.26 41.37 41.37 0 0 1 -29.35 12.27zm41.41-72.4h48.5l-5.17 10.35h-37.33a56.66 56.66 0 0 0 -6-10.35zm33 31h-22.69a57 57 0 0 0 -1-10.35h28.88zm28.17-56.38-7.45 15h-64.23a51.43 51.43 0 0 0 -27.62-10.18l-2.25-17.84 24.31 6.08 45.79 11.46a5.53 5.53 0 0 0 1.28.15 5.15 5.15 0 0 0 4.8-3.25l7-17.44h34.77v10.35h-7.17a10.29 10.29 0 0 0 -9.25 5.69zm109.49 30.52h-8l-27.93-32.58a10.35 10.35 0 0 0 -7.86-3.62h-39v-10.32h67.24a15.52 15.52 0 0 1 15.55 15.52z"/><path d="m233.27 229.72a5.17 5.17 0 0 0 6.79-2.72l15.52-36.2a5.17 5.17 0 1 0 -9.5-4.08l-15.52 36.21a5.17 5.17 0 0 0 2.71 6.79z"/><path d="m209.89 223.87a5.17 5.17 0 0 0 6.8-2.71l13-30.36a5.17 5.17 0 0 0 -9.51-4.08l-13 30.36a5.17 5.17 0 0 0 2.71 6.79z"/><path d="m186.57 218a5.16 5.16 0 0 0 6.79-2.72l10.5-24.51a5.17 5.17 0 1 0 -9.51-4.08l-10.5 24.52a5.17 5.17 0 0 0 2.72 6.79z"/><path d="m178 190.83a5.18 5.18 0 0 0 -9.51-4.09l-8 18.67a5.18 5.18 0 1 0 9.51 4z"/></svg>