<svg viewBox="0 0 512 512" xmlns="http://www.w3.org/2000/svg"><g opacity=".5"><path d="m256 509a253 253 0 0 1 -178.9-431.9 253 253 0 0 1 357.8 357.8 251.37 251.37 0 0 1 -178.9 74.1z" fill="#eee"/><path d="m256 6a250.07 250.07 0 0 1 97.31 480.36 250.07 250.07 0 0 1 -194.62-460.72 248.53 248.53 0 0 1 97.31-19.64m0-6c-141.38 0-256 114.62-256 256s114.62 256 256 256 256-114.62 256-256-114.62-256-256-256z" fill="#ccc"/></g><path d="m139.03 157.72h72.41v10.34h-72.41z" fill="#419bc2"/><path d="m263.17 178.41h10.34v36.21h-10.34z" fill="#f57e00"/><path d="m211.45 250.83v-8.21l-18.11-18.1-4.1 4.1a5.17 5.17 0 0 1 -8.72-2.28 5.19 5.19 0 0 1 1.41-5l15.52-15.52a5.17 5.17 0 0 1 7.31 7.32l-4.1 4.1 10.79 10.76v-49.59h-72.45v54.76l17.66 17.66z" fill="#4db7e5"/><path d="m140.44 292.41a36.47 36.47 0 0 1 3.77-.2h160.34a36.31 36.31 0 0 1 3.76.23h.31l18.58-15.44-18.92-13.44a16.22 16.22 0 1 1 6-8.48l16.17 11.49v-41.57h-108.66v25.86a10.34 10.34 0 0 1 -10.34 10.34h-56.9a5.16 5.16 0 0 1 -3.67-1.51l-19.17-19.18a10.18 10.18 0 0 1 -3-7.29v-8.22h-10.37v49.29l21.8 18.15z" fill="#ffb531"/><path d="m129.64 333.59h-10.78a26 26 0 0 0 25.35 20.69h160.34a25.84 25.84 0 0 0 20.69-10.35h-181a15.54 15.54 0 0 1 -14.6-10.34z" fill="#3d4d63"/><path d="m356.28 333.59v-10.35h-197.44c.15.44.24.9.35 1.36.08.3.18.59.24.9a14.67 14.67 0 0 1 0 5.83c-.06.31-.16.6-.24.9s-.2.92-.35 1.36z" fill="#ffcb73"/><path d="m387.31 296.7-20.66 13.78-.03 38.62h20.69z" fill="#ffa912"/><path d="m299.38 245.66a5.17 5.17 0 1 0 5.17 5.17 5.16 5.16 0 0 0 -5.17-5.17z" fill="#ffcb73"/><path d="m322.84 310.17a25.33 25.33 0 0 0 -13.63-7.17 23.51 23.51 0 0 0 -4.66-.44h-160.34a23.62 23.62 0 0 0 -4.59.42 25.85 25.85 0 0 0 -20.71 20.27h10.73a15.51 15.51 0 0 1 14.57-10.34h181a23.92 23.92 0 0 0 -2.37-2.74z" fill="#3d4d63"/><circle cx="144.21" cy="328.41" fill="#ccccca" r="5.17"/><path d="m402.83 349.1h-5.17v-56.89h5.17a5.18 5.18 0 0 0 0-10.35h-10.44a5.56 5.56 0 0 0 -1.76.35l-.41.2c-.21.09-.41.19-.61.3l-18.76 12.51-30.09-21.34v-48.88a10.35 10.35 0 0 0 -10.35-10.35h-46.55v-36.24a10.34 10.34 0 0 0 -10.34-10.34v-5.17a15.52 15.52 0 0 0 -15.52-15.52 5.17 5.17 0 1 0 0 10.34 5.17 5.17 0 0 1 5.17 5.18v5.17a10.34 10.34 0 0 0 -10.34 10.34v36.21h-31v-56.9a10.34 10.34 0 0 0 -10.34-10.34h-72.49a10.34 10.34 0 0 0 -10.34 10.34v56.9h-10.32a10.34 10.34 0 0 0 -10.34 10.38v51.72a5.17 5.17 0 0 0 1.86 4l18.45 15.28a36.13 36.13 0 0 0 15.9 68.58h160.34a36.05 36.05 0 0 0 32.59-20.69h19.14v5.17a10.34 10.34 0 0 0 10.34 10.35h36.21a5.18 5.18 0 0 0 0-10.35zm-41.95-47.21a10.4 10.4 0 0 0 -4.6 8.63v2.38h-19a34.53 34.53 0 0 0 -7.08-10 35.45 35.45 0 0 0 -9.63-6.88l15.4-12.84 25.71 18.26zm-97.71-123.48h10.35v36.21h-10.35zm-124.17 54.76v-54.76h72.42v49.59l-10.79-10.79 4.1-4.1a5.17 5.17 0 0 0 -7.31-7.32l-15.52 15.52a5.17 5.17 0 0 0 2.28 8.72 5.14 5.14 0 0 0 5-1.41l4.1-4.1 18.11 18.1v8.21h-54.7zm0-75.45h72.42v10.35h-72.42zm-20.66 67.28h10.35v8.22a10.18 10.18 0 0 0 3 7.29l19.17 19.18a5.16 5.16 0 0 0 3.67 1.51h56.9a10.34 10.34 0 0 0 10.34-10.34v-25.86h108.64v41.55l-16.17-11.55a15.51 15.51 0 1 0 -6 8.48l18.96 13.52-18.58 15.49h-.31a36.31 36.31 0 0 0 -3.76-.23h-160.34a36.47 36.47 0 0 0 -3.77.2h-.3l-21.8-18.15zm181 31a5.17 5.17 0 1 1 5.17-5.17 5.17 5.17 0 0 1 -5.13 5.17zm-159.72 47a23.62 23.62 0 0 1 4.59-.42h160.34a23.51 23.51 0 0 1 4.66.44 25.33 25.33 0 0 1 13.63 7.18 23.92 23.92 0 0 1 2.4 2.73h-181a15.51 15.51 0 0 0 -14.57 10.34h-10.76a25.85 25.85 0 0 1 20.71-20.27zm-.62 25.41a5.18 5.18 0 1 1 5.18 5.18 5.18 5.18 0 0 1 -5.18-5.18zm165.52 25.87h-160.31a26 26 0 0 1 -25.35-20.69h10.78a15.54 15.54 0 0 0 14.57 10.34h181a25.84 25.84 0 0 1 -20.66 10.35zm29.23-20.69h-174.91c.15-.44.24-.91.35-1.36s.18-.59.24-.9a14.67 14.67 0 0 0 0-5.83c-.06-.31-.16-.6-.24-.9-.11-.46-.2-.92-.35-1.36h197.44v10.35zm32.87-23.11 20.66-13.78v52.4h-20.66z"/><path d="m237.31 245.66h15.52a5.18 5.18 0 0 0 0-10.35h-15.52a5.18 5.18 0 0 0 0 10.35z"/><path d="m237.31 261.17h15.52a5.17 5.17 0 0 0 0-10.34h-15.52a5.17 5.17 0 1 0 0 10.34z"/><path d="m201.1 281.86h15.52a5.17 5.17 0 0 0 0-10.34h-15.52a5.17 5.17 0 1 0 0 10.34z"/></svg>