<svg viewBox="0 0 512 512" xmlns="http://www.w3.org/2000/svg"><circle cx="256" cy="256" fill="#ffb530" r="256"/><circle cx="286" cy="351" fill="#ccccca" r="5"/><path d="m300.08 346h10.42a25.08 25.08 0 0 0 -24.5-20h-25v5a5 5 0 0 1 -10 0v-5h-10v5a5 5 0 0 1 -10 0v-5h-10v5a5 5 0 0 1 -10 0v-5h-10v5a5 5 0 0 1 -10 0v-5h-10v5a5 5 0 0 1 -10 0v-5h-25a25 25 0 0 0 -24.5 20h10.42a14.91 14.91 0 0 1 28.16 0h111.84a14.91 14.91 0 0 1 28.16 0z" fill="#3d4d63"/><circle cx="146" cy="351" fill="#ccccca" r="5"/><path d="m251 186a5 5 0 0 1 1.46-3.54l8.54-8.53v-17.93h-12.93l-17.07 17.07v32.93h20z" fill="#f57e00"/><path d="m201 306h30v10h-30z" fill="#3d4d63"/><path d="m286 376a25 25 0 0 0 24.5-20h-10.42a14.91 14.91 0 0 1 -28.16 0h-111.84a14.91 14.91 0 0 1 -28.16 0h-10.42a25.07 25.07 0 0 0 24.5 20h25v-5a5 5 0 0 1 10 0v5h10v-5a5 5 0 0 1 10 0v5h10v-5a5 5 0 0 1 10 0v5h10v-5a5 5 0 0 1 10 0v5h10v-5a5 5 0 0 1 10 0v5z" fill="#3d4d63"/><path d="m161 236h30v10h-30z"/><path d="m209.54 284.54a5 5 0 0 1 -3.54 1.46h-85v10h170v-15h-40a5 5 0 0 1 -3.54-1.46l-10-10a5 5 0 0 1 -1.46-3.54v-20a10 10 0 0 1 10-10h44.5a25 25 0 0 0 -24.5-20h-45v30a10 10 0 0 1 -10 10h-65a25 25 0 0 0 -24.5 20h82.43l8.53-8.54a5 5 0 0 1 7.08 7.08z" fill="#ffb531"/><path d="m376 341h10v10h-10z" fill="#ccccca"/><path d="m371 251h20v10h-20z" fill="#f57e00"/><path d="m386 136h-10a5 5 0 0 0 -5 5v10.88c.12.05.23.13.35.17a14.67 14.67 0 0 1 1.87.91c.31.17.63.31.92.5a15.33 15.33 0 0 1 2.26 1.83c.06.06.13.09.19.16a14.65 14.65 0 0 1 4.08 13.29c0 .28-.13.55-.19.82a14.45 14.45 0 0 1 -.57 1.8c-.11.28-.22.56-.34.84a15.33 15.33 0 0 1 -.92 1.69c-.13.2-.24.42-.38.62a14 14 0 0 1 -1.67 2c-.1.11-.23.2-.34.3a13.75 13.75 0 0 1 -1.67 1.38 7.61 7.61 0 0 1 -.73.47 13.73 13.73 0 0 1 -1.6.87c-.28.13-.54.26-.82.37s-.33.15-.5.22v60.88h20v-100a5 5 0 0 0 -4.94-5z" fill="#ffb531"/><path d="m246 263.93 7.07 7.07h37.93v-25h-45z" fill="#4db7e5"/><path d="m376 271h10v20h-10z" fill="#3d4d63"/><path d="m371 301h20v30h-20z" fill="#ccccca"/><path d="m316 181h10v10h-10z"/><path d="m371 166a5.07 5.07 0 0 0 -5-5h-95v10h95a5 5 0 0 0 5-5z" fill="#ffcb73"/><path d="m386 126h-10a15 15 0 0 0 -15 15v10h-90a5 5 0 0 0 -5-5h-20a5 5 0 0 0 -3.54 1.46l-20 20a5 5 0 0 0 -1.46 3.54v35a10 10 0 0 0 -10 10v30h-10v-10a10 10 0 0 0 -10-10h-30a10 10 0 0 0 -10 10v10h-5a35 35 0 0 0 -35 35v15a10 10 0 0 0 10 10h70v10h-45a35 35 0 0 0 0 70h140a35 35 0 0 0 0-70h-45v-10h50a10 10 0 0 0 10-10v-55a35 35 0 0 0 -35-35h-5v-17.93l7.07-7.07h37.93v10a10 10 0 0 0 10 10v20a10 10 0 0 0 10 10h35v30a10 10 0 0 0 5 8.61v22.78a10 10 0 0 0 -5 8.61v30a10 10 0 0 0 5 8.61v11.39a10 10 0 0 0 10 10v10a5 5 0 0 0 10 0v-10a10 10 0 0 0 10-10v-11.39a10 10 0 0 0 5-8.61v-30a10 10 0 0 0 -5-8.61v-22.78a10 10 0 0 0 5-8.61v-120a15 15 0 0 0 -15-15zm-15 15a5 5 0 0 1 5-5h10a5 5 0 0 1 5 5v100h-20v-60.85c.17-.07.32-.16.5-.22s.54-.24.82-.37a13.73 13.73 0 0 0 1.6-.87 7.61 7.61 0 0 0 .73-.47 13.75 13.75 0 0 0 1.67-1.38c.11-.1.24-.19.34-.3a14 14 0 0 0 1.67-2c.14-.2.25-.42.38-.62a15.33 15.33 0 0 0 .92-1.69c.12-.28.23-.56.34-.84a14.45 14.45 0 0 0 .57-1.8c.06-.27.15-.54.19-.82a14.65 14.65 0 0 0 -4.08-13.29c-.06-.07-.13-.1-.19-.16a15.33 15.33 0 0 0 -2.26-1.83c-.29-.19-.61-.33-.92-.5a14.67 14.67 0 0 0 -1.87-.91c-.12 0-.23-.12-.35-.17zm20 120h-20v-10h20zm0 70h-20v-30h20zm-5-40h-10v-20h10zm-225-55h30v10h-30zm125 140h-25v-5a5 5 0 0 0 -10 0v5h-10v-5a5 5 0 0 0 -10 0v5h-10v-5a5 5 0 0 0 -10 0v5h-10v-5a5 5 0 0 0 -10 0v5h-10v-5a5 5 0 0 0 -10 0v5h-25a25.07 25.07 0 0 1 -24.5-20h10.42a14.91 14.91 0 0 0 28.16 0h111.84a14.91 14.91 0 0 0 28.16 0h10.42a25 25 0 0 1 -24.5 20zm-145-25a5 5 0 1 1 5 5 5 5 0 0 1 -5-5zm140 0a5 5 0 1 1 5 5 5 5 0 0 1 -5-5zm22.68-17.65a24.58 24.58 0 0 1 6.82 12.65h-10.42a14.91 14.91 0 0 0 -28.16 0h-111.84a14.91 14.91 0 0 0 -28.16 0h-10.42a25 25 0 0 1 24.5-20h25v5a5 5 0 0 0 10 0v-5h10v5a5 5 0 0 0 10 0v-5h10v5a5 5 0 0 0 10 0v-5h10v5a5 5 0 0 0 10 0v-5h10v5a5 5 0 0 0 10 0v-5h25a24.67 24.67 0 0 1 17.68 7.35zm-72.68-17.35h-30v-10h30zm60-45h-37.93l-7.07-7.07v-17.93h45zm-.5-35h-44.5a10 10 0 0 0 -10 10v20a5 5 0 0 0 1.46 3.54l10 10a5 5 0 0 0 3.54 1.46h40v15h-170v-10h85a5 5 0 0 0 3.54-1.46l10-10a5 5 0 0 0 -7.08-7.08l-8.53 8.54h-82.43a25 25 0 0 1 24.5-20h65a10 10 0 0 0 10-10v-30h45a25 25 0 0 1 24.5 20zm-38-53.54a5 5 0 0 0 -1.5 3.54v20h-20v-32.93l17.07-17.07h12.93v17.93zm18.5-21.46h95a5.07 5.07 0 0 1 5 5 5 5 0 0 1 -5 5h-95zm55 20v10h-10v-10zm0 40v-20a10 10 0 0 0 10-10v-10h25v40zm60 130h-10v-10h10z"/></svg>