<?xml version="1.0" encoding="utf-8"?>
<!-- Generator: Adobe Illustrator 23.0.3, SVG Export Plug-In . SVG Version: 6.00 Build 0)  -->
<svg version="1.1" id="Layer_1" xmlns="http://www.w3.org/2000/svg" xmlns:xlink="http://www.w3.org/1999/xlink" x="0px" y="0px"
	 viewBox="0 0 512 512" style="enable-background:new 0 0 512 512;" xml:space="preserve">
<style type="text/css">
	.st0{fill:#F57E00;}
	.st1{fill:#FFB531;}
	.st2{fill:#FFA912;}
	.st3{fill:#FFCB73;}
	.st4{fill:#3D4D63;}
	.st5{fill:#E0E0DE;}
	.st6{fill:#CCCCCA;}
	.st7{fill:#348FD9;}
</style>
<g>
	<path class="st0" d="M84.6,167.2L50.5,90.4c-1.4-3.2-4.7-5.2-8.2-5.1L25.2,86l0.7,17.1l11.3-0.5l26.4,59.5H34.1v17.1H63l-25.6,51.2
		h-9.7v17.1h14.9c3.2,0,6.2-1.8,7.6-4.7l34.1-68.3C85.6,172.2,85.6,169.5,84.6,167.2z"/>
	<path class="st0" d="M125.2,424.1l274.7-55.4l3.4,16.7l-274.7,55.4L125.2,424.1z"/>
	<path class="st0" d="M110.9,153.6h34.1v34.1h-34.1V153.6z"/>
	<path class="st0" d="M366.9,153.6h34.1v34.1h-34.1V153.6z"/>
	<path class="st0" d="M110.9,324.3h290.1v34.1H110.9V324.3z"/>
</g>
<path class="st1" d="M25.6,76.8c9.4,0,17.1,7.6,17.1,17.1v153.6c0,9.4-7.6,17.1-17.1,17.1s-17.1-7.6-17.1-17.1V93.9
	C8.5,84.4,16.2,76.8,25.6,76.8z"/>
<path class="st2" d="M25.6,213.3c-9.4,0-17.1-7.6-17.1-17.1v51.2c0,9.4,7.6,17.1,17.1,17.1s17.1-7.6,17.1-17.1v-51.2
	C42.7,205.7,35,213.3,25.6,213.3z"/>
<path class="st1" d="M315.7,34.1H196.3l-51.2,119.5v68.3c0,37.7,30.6,68.3,68.3,68.3h85.3c37.7,0,68.3-30.6,68.3-68.3v-68.3
	L315.7,34.1z"/>
<path class="st2" d="M315.7,34.1h-51.2l51.2,119.5v68.3c0,37.7-30.6,68.3-68.3,68.3h51.2c37.7,0,68.3-30.6,68.3-68.3v-68.3
	L315.7,34.1z"/>
<path class="st3" d="M205.5,77.6l5.4-12.7l15.7,6.7l-5.4,12.7L205.5,77.6z"/>
<path class="st3" d="M185.3,124.6L200,90.5l15.7,6.7L201,131.4L185.3,124.6z"/>
<path class="st1" d="M76.8,119.5h34.1v298.7H76.8V119.5z"/>
<path class="st1" d="M401.1,119.5h34.1v298.7h-34.1V119.5z"/>
<path class="st1" d="M503.5,290.1h-68.3V119.5h42.7l25.6,34.1V290.1z"/>
<path class="st4" d="M153.6,418.1c0,33-26.7,59.7-59.7,59.7s-59.7-26.7-59.7-59.7s26.7-59.7,59.7-59.7S153.6,385.1,153.6,418.1z"/>
<path class="st5" d="M119.5,418.1c0,14.1-11.5,25.6-25.6,25.6s-25.6-11.5-25.6-25.6c0-14.1,11.5-25.6,25.6-25.6
	S119.5,404,119.5,418.1z"/>
<path class="st6" d="M102.4,418.1c0,4.7-3.8,8.5-8.5,8.5c-4.7,0-8.5-3.8-8.5-8.5s3.8-8.5,8.5-8.5
	C98.6,409.6,102.4,413.4,102.4,418.1z"/>
<path class="st4" d="M477.9,418.1c0,33-26.7,59.7-59.7,59.7s-59.7-26.7-59.7-59.7s26.7-59.7,59.7-59.7S477.9,385.1,477.9,418.1z"/>
<path class="st5" d="M443.7,418.1c0,14.1-11.5,25.6-25.6,25.6c-14.1,0-25.6-11.5-25.6-25.6c0-14.1,11.5-25.6,25.6-25.6
	C432.3,392.5,443.7,404,443.7,418.1z"/>
<path class="st3" d="M145.1,153.6h221.9v34.1H145.1V153.6z"/>
<path class="st0" d="M435.2,290.1h34.1v34.1h-34.1V290.1z"/>
<path class="st7" d="M460.8,162.1h17.1v17.1h-17.1V162.1z"/>
<path class="st7" d="M460.8,196.3h17.1v17.1h-17.1V196.3z"/>
<path class="st2" d="M435.2,119.5h17.1v170.7h-17.1V119.5z"/>
<path class="st6" d="M426.7,418.1c0,4.7-3.8,8.5-8.5,8.5c-4.7,0-8.5-3.8-8.5-8.5s3.8-8.5,8.5-8.5
	C422.8,409.6,426.7,413.4,426.7,418.1z"/>
<path class="st2" d="M145.1,187.7h221.9v17.1H145.1V187.7z"/>
<path d="M205.5,77.6l5.4-12.7l15.7,6.7l-5.4,12.7L205.5,77.6z"/>
<path d="M185.3,124.6L200,90.5l15.7,6.7L201,131.4L185.3,124.6z"/>
<path d="M484.7,114.3c-1.6-2.1-4.1-3.4-6.8-3.4h-76.8c-4.7,0-8.5,3.8-8.5,8.5v25.6h-20l-49-114.3c-1.3-3.1-4.4-5.2-7.8-5.2H196.3
	c-3.4,0-6.5,2-7.8,5.2l-49,114.3h-20v-25.6c0-4.7-3.8-8.5-8.5-8.5H76.8c-4.7,0-8.5,3.8-8.5,8.5v11L51,91.5
	C49.7,77.9,38,67.7,24.4,68.3C10.7,68.9,0,80.2,0,93.9v153.6c0,14.1,11.5,25.6,25.6,25.6s25.6-11.5,25.6-25.6v-6.5l17.1-34.1v148.1
	c-30,12.1-47.4,43.5-41.7,75.4c5.7,31.8,32.9,55.3,65.3,56.2s60.8-21,68.3-52.4l193.7-38.7c-12.5,35.2,5.5,73.9,40.5,86.9
	c35,13,73.9-4.5,87.4-39.3c13.5-34.8-3.5-74-38.1-88v-22.1h25.6c4.7,0,8.5-3.8,8.5-8.5v-25.6h25.6c4.7,0,8.5-3.8,8.5-8.5V153.6
	c0-1.8-0.6-3.6-1.7-5.1L484.7,114.3z M34.1,247.5c0,4.7-3.8,8.5-8.5,8.5s-8.5-3.8-8.5-8.5V93.9c0-4.7,3.8-8.5,8.5-8.5
	s8.5,3.8,8.5,8.5V247.5z M51.2,202.8v-23.6H63L51.2,202.8z M51.2,162.1v-28.1l12.5,28.1H51.2z M409.6,324.3V128h17.1v222.5
	c-5.7-0.8-11.4-0.8-17.1,0V324.3z M375.5,162.1h17.1v17.1h-17.1V162.1z M201.9,42.7h108.2L354,145.1H158L201.9,42.7z M153.6,162.1
	h204.8v17.1H153.6V162.1z M153.6,196.3h204.8v25.6c0,33-26.8,59.7-59.7,59.7h-85.3c-33,0-59.7-26.8-59.7-59.7V196.3z M119.5,162.1
	h17.1v17.1h-17.1V162.1z M119.5,196.3h17.1v25.6c0,42.4,34.4,76.8,76.8,76.8h85.3c42.4,0,76.8-34.4,76.8-76.8v-25.6h17.1v119.5
	H119.5V196.3z M119.5,332.8h273.1v17.1H119.5V332.8z M85.3,128h17.1v222.5c-5.7-0.8-11.4-0.8-17.1,0V128z M93.9,469.3
	c-28.3,0-51.2-22.9-51.2-51.2s22.9-51.2,51.2-51.2s51.2,22.9,51.2,51.2C145,446.4,122.1,469.3,93.9,469.3z M162,416.3
	c-0.5-19-8.9-36.8-23.2-49.3h234.3c-3.1,2.7-5.9,5.6-8.4,8.8L162,416.3z M469.3,418.1c0,28.3-22.9,51.2-51.2,51.2
	c-28.3,0-51.2-22.9-51.2-51.2s22.9-51.2,51.2-51.2C446.4,367,469.3,389.9,469.3,418.1z M460.8,315.7h-17.1v-17.1h17.1V315.7z
	 M494.9,281.6h-51.2V128h29.9l21.3,28.4V281.6z"/>
<path d="M93.9,392.5c-14.1,0-25.6,11.5-25.6,25.6c0,14.1,11.5,25.6,25.6,25.6s25.6-11.5,25.6-25.6C119.5,404,108,392.5,93.9,392.5z
	 M93.9,426.7c-4.7,0-8.5-3.8-8.5-8.5s3.8-8.5,8.5-8.5c4.7,0,8.5,3.8,8.5,8.5S98.6,426.7,93.9,426.7z"/>
<path d="M392.5,418.1c0,14.1,11.5,25.6,25.6,25.6c14.1,0,25.6-11.5,25.6-25.6c0-14.1-11.5-25.6-25.6-25.6
	C404,392.5,392.5,404,392.5,418.1z M426.7,418.1c0,4.7-3.8,8.5-8.5,8.5c-4.7,0-8.5-3.8-8.5-8.5s3.8-8.5,8.5-8.5
	C422.8,409.6,426.7,413.4,426.7,418.1z"/>
<path d="M460.8,162.1h17.1v17.1h-17.1V162.1z"/>
<path d="M460.8,196.3h17.1v17.1h-17.1V196.3z"/>
</svg>
