<svg viewBox="0 0 512 512" xmlns="http://www.w3.org/2000/svg"><circle cx="256" cy="256" fill="#ffb530" r="256"/><path d="m302.77 328.92v-7.44h-163.71v5.91a37.19 37.19 0 0 1 44 22.16h16.79v-4.68a14 14 0 0 1 14-14h37.42a14 14 0 0 1 14 14v4.68h16.79a37.56 37.56 0 0 1 20.71-20.63z" fill="#f57e00"/><circle cx="148.42" cy="363.58" fill="#2e3e51" r="28.06" transform="matrix(.92387953 -.38268343 .38268343 .92387953 -127.84 84.47)"/><path d="m251.32 340.19h-4.67v9.36h9.35v-4.68a4.69 4.69 0 0 0 -4.68-4.68z" fill="#f57e00"/><path d="m227.94 340.19h9.35v9.35h-9.35z" fill="#f57e00"/><circle cx="316.81" cy="363.58" fill="#2e3e51" r="28.06" transform="matrix(.92387953 -.38268343 .38268343 .92387953 -115.02 148.91)"/><path d="m180.3 232.61h3.2l40.69-54.26 7.49 5.62-36.49 48.64h11.57l66.55-97.61a8.1 8.1 0 0 0 1.4-4.54v-2a8.07 8.07 0 0 0 -14.26-5.17l-85.4 102.48a14.06 14.06 0 0 1 5.25 6.84z" fill="#ffa912"/><path d="m185.51 358.9a36.3 36.3 0 0 1 .33 4.68 38 38 0 0 1 -.32 4.68h94.19a34.38 34.38 0 0 1 0-9.36z" fill="#f7a116"/><path d="m213.9 340.19a4.68 4.68 0 0 0 -4.67 4.68v4.68h9.35v-9.36z" fill="#f57e00"/><path d="m372.94 162.45h9.35v37.42h-9.35z" fill="#ffb531"/><path d="m326.16 170 8.72 8.6c.23.23.41.52.64.77v-17h-9.36z" fill="#ffb531"/><path d="m316.1 198.17a8.52 8.52 0 0 0 5.1 1.7h1.12a8.51 8.51 0 0 0 6-14.57l-46.67-46.06c-.2.34-.37.7-.6 1l-14.25 20.91z" fill="#ffa912"/><circle cx="167.13" cy="237.29" fill="#d6d6d4" r="4.68"/><path d="m148.42 249.15v7.32a23.29 23.29 0 0 1 4.68-.47h61.9l-8.42-14h-26.28a13.94 13.94 0 0 1 -25.08 2.65z" fill="#d6d6d4"/><g fill="#ffb531"><path d="m139.06 302.77v9.36h163.71v-8.44c0-.31-.09-.61-.11-.92h-23.27v-9.35h18.78a15 15 0 0 0 -1.89-1.57l-41.64-26.5h-101.54a14 14 0 0 0 -13.17 9.36h69.3v9.35h-70.17v9.36h70.17v9.35z"/><path d="m326.16 209.23h56.13v9.35h-56.13z"/><path d="m326.16 143.74h56.13v9.35h-56.13z"/><path d="m344.87 162.45h18.71v37.42h-18.71z"/></g><path d="m111 363.58a37.4 37.4 0 0 0 72.08 14h99.06a37.41 37.41 0 1 0 34.67-51.45 36.05 36.05 0 0 0 -4.68.33v-22.8a23.27 23.27 0 0 0 -10.83-19.66l-43.94-28h-31.45l-11.13-18.55 46.73-68.53 49 36.73a17.84 17.84 0 0 0 6.33 3v10h-9.36v9.36h93.52v-9.36h-9.35v-74.91h9.35v-9.35h-93.55v9.35h9.36v17.07l-32.75-32.31v-.08a17.42 17.42 0 0 0 -30.8-11.15l-88.52 106.23a14 14 0 0 0 -11.37 11.11l-14.31 9.53v16.54h.15a23.29 23.29 0 0 0 -9.5 18.71v51.45h.64a37.43 37.43 0 0 0 -19.35 32.74zm60.81-126.29a4.68 4.68 0 1 1 -4.68-4.68 4.69 4.69 0 0 1 4.68 4.68zm210.48-84.19h-56.13v-9.36h56.13zm-46.77 9.35v17c-.23-.25-.41-.54-.64-.77l-8.72-8.6v-7.59zm28.06 0v37.42h-18.71v-37.42zm18.71 37.42h-9.35v-37.42h9.35zm-56.13 9.36h56.13v9.35h-56.13zm-59.38-48 14.22-20.96c.23-.33.4-.69.6-1l46.7 46.03a8.51 8.51 0 0 1 -6 14.57h-1.1a8.52 8.52 0 0 1 -5.1-1.7zm-60 71.43h-11.59l36.49-48.66-7.49-5.62-40.69 54.23h-3.2a14.06 14.06 0 0 0 -5.25-6.88l85.4-102.48a8.07 8.07 0 0 1 14.26 5.17v2a8.1 8.1 0 0 1 -1.4 4.54zm8.22 23.34h-61.9a23.29 23.29 0 0 0 -4.68.47v-7.32l6.8-4.53a13.94 13.94 0 0 0 25.08-2.62h26.28zm87.77 56.13h-163.71v-9.36h70.17v-9.35h-70.17v-9.36h70.17v-9.35h-69.3a14 14 0 0 1 13.17-9.36h101.54l41.64 26.5a15 15 0 0 1 1.89 1.57h-18.78v9.35h23.27c0 .31.11.61.11.92zm-14 51.45a28.07 28.07 0 1 1 28.07 28.07 28.09 28.09 0 0 1 -28.1-28.07zm-102.9 0a36.3 36.3 0 0 0 -.33-4.68h94.2a34.38 34.38 0 0 0 0 9.36h-94.22a38 38 0 0 0 .32-4.68zm60.81-14v-9.36h4.67a4.69 4.69 0 0 1 4.68 4.68v4.68zm-18.71 0v-9.36h9.35v9.36zm-18.71 0v-4.68a4.68 4.68 0 0 1 4.67-4.68h4.68v9.36zm-26.15 0a37.19 37.19 0 0 0 -44-22.16v-5.91h163.66v7.44a37.56 37.56 0 0 0 -20.63 20.63h-16.79v-4.68a14 14 0 0 0 -14-14h-37.45a14 14 0 0 0 -14 14v4.68zm-62.73 14a28.07 28.07 0 1 1 28.07 28.07 28.09 28.09 0 0 1 -28.1-28.07z"/><path d="m134.39 363.58a14 14 0 1 0 14-14 14 14 0 0 0 -14 14zm9.35 0a4.68 4.68 0 1 1 4.68 4.68 4.69 4.69 0 0 1 -4.68-4.68z"/><path d="m302.77 363.58a14 14 0 1 0 14-14 14 14 0 0 0 -14 14zm9.36 0a4.68 4.68 0 1 1 4.68 4.68 4.69 4.69 0 0 1 -4.68-4.68z"/><path d="m218.58 274.71h9.35v9.35h-9.35z"/><path d="m218.58 293.42h9.35v9.35h-9.35z"/></svg>