<svg viewBox="0 0 512 512" xmlns="http://www.w3.org/2000/svg"><circle cx="256" cy="256" fill="#ffb530" r="256"/><path d="m354 279.31h18.66l17.69-110.56a78.67 78.67 0 0 0 1-12.26 33.31 33.31 0 0 0 -3.51-14.83l-7.19-14.39a12 12 0 0 0 -22.65 4.64z" fill="#ffb531"/><path d="m354 326v-51.35a9.33 9.33 0 0 1 18.66 0l4.67 3.49a35 35 0 0 1 -3 58l-6.33 3.86h-23.35z" fill="#ffb531"/><path d="m354 274.65a9.33 9.33 0 1 0 9.33-9.33 9.33 9.33 0 0 0 -9.33 9.33z" fill="#f7a116"/><path d="m247.4 192.08 102.12-44.68a13.17 13.17 0 0 1 11.56 23.65l-85.54 46.34a37.34 37.34 0 0 0 -19.54 32.83v75.78h-70l24.5-91a65.32 65.32 0 0 1 36.9-42.92z" fill="#ffa912"/><path d="m211.26 232.65h49.21a37.18 37.18 0 0 0 -4.47 17.57v75.78h-70l24.5-91c.23-.84.5-1.58.76-2.35z" fill="#f7a116"/><path d="m312 344.64h-168a23.34 23.34 0 0 0 0 46.67h168a23.34 23.34 0 0 0 0-46.67z" fill="#2e3e51"/><path d="m288.66 368a23.33 23.33 0 1 0 23.34-23.36 23.33 23.33 0 0 0 -23.34 23.36z" fill="#3d4d63"/><path d="m302.66 368a9.33 9.33 0 1 0 9.33-9.34 9.33 9.33 0 0 0 -9.33 9.34z" fill="#22303d"/><path d="m120.67 368a23.33 23.33 0 1 0 23.33-23.36 23.33 23.33 0 0 0 -23.33 23.36z" fill="#3d4d63"/><path d="m134.67 368a9.33 9.33 0 1 0 9.33-9.34 9.33 9.33 0 0 0 -9.33 9.34z" fill="#22303d"/><g fill="#3d4d63"><path d="m218.66 363.31h-9.33v9.33h9.33z"/><path d="m246.66 363.31h-9.33v9.33h9.33z"/><path d="m190.66 363.31h-9.33v9.33h9.33z"/><path d="m274.66 363.31h-9.34v9.33h9.34z"/></g><path d="m218.66 372.64h-9.33v9.36h9.33z" fill="#22303d"/><path d="m246.66 372.64h-9.33v9.36h9.33z" fill="#22303d"/><path d="m190.66 372.64h-9.33v9.36h9.33z" fill="#22303d"/><path d="m274.66 372.64h-9.34v9.36h9.34z" fill="#22303d"/><path d="m274.66 326h-93.33v18.66h93.33z" fill="#ffa912"/><path d="m162.66 274.65h144.66v51.35h-158.66v-37.35z" fill="#ffb531"/><path d="m176.66 288.65h-9.33v14h9.33z" fill="#e8770c"/><path d="m195.33 288.65h-9.33v14h9.33z" fill="#e8770c"/><path d="m232.66 307.31h74.66v-37.31l-18.66-28h-56z" fill="#4db7e5"/><path d="m274.66 307.31v-14l-28-28h-14v42z" fill="#419bc2"/><path d="m172 256h32.66a9.33 9.33 0 0 1 9.33 9.34v9.33h-51.33v-9.33a9.34 9.34 0 0 1 9.34-9.34z" fill="#d6d6d4"/><path d="m116 368a28 28 0 0 1 28-28h168a28 28 0 1 1 0 56h-168a28 28 0 0 1 -28-28zm28-18.67a18.67 18.67 0 1 0 0 37.33h168a18.67 18.67 0 0 0 0-37.33z" fill="#4c5d72"/><path d="m274.66 326h-93.33v9.33h93.33z" fill="#f7a116"/><path d="m302.66 368a9.33 9.33 0 1 0 9.33-9.34 9.33 9.33 0 0 0 -9.33 9.34z"/><path d="m116 368a28 28 0 0 0 28 28h168a28 28 0 1 0 0-56h-32.68v-9.33h28a4.67 4.67 0 0 0 4.68-4.67v-56a4.7 4.7 0 0 0 -.79-2.59l-18.66-28a4.68 4.68 0 0 0 -3.88-2.07h-25.3a32.61 32.61 0 0 1 14.4-15.83l74.23-40.23-2.49 91.39a13.13 13.13 0 0 0 -.18 2v49.93l-8.55 12.81a4.66 4.66 0 0 0 3.88 7.25h23.34a4.56 4.56 0 0 0 2.38-.65l6.35-3.78a39.68 39.68 0 0 0 3.4-65.79l-1.76-1.31 16.58-103.65a79.3 79.3 0 0 0 1-13 37.67 37.67 0 0 0 -4-16.91l-7.22-14.39a16.61 16.61 0 0 0 -31.44 6.44l-.29 10.07a18.24 18.24 0 0 0 -5.39 1.4l-102.08 44.74a69.69 69.69 0 0 0 -39.53 45.89l-4.72 17.6h-29.28a14 14 0 0 0 -14 14v7.4l-12.63 12.63a4.64 4.64 0 0 0 -1.37 3.3v37.35a4.67 4.67 0 0 0 4.66 4.67h28v9.33h-32.66a28 28 0 0 0 -28 28zm93.33-98h-42v-4.66a4.67 4.67 0 0 1 4.67-4.67h32.66a4.67 4.67 0 0 1 4.67 4.67zm161.27-7.27c-.38-.23-.78-.41-1.17-.6s-.62-.31-.93-.44a13.87 13.87 0 0 0 -1.66-.52c-.28-.07-.55-.17-.85-.23a13.29 13.29 0 0 0 -2.67-.27 13 13 0 0 0 -2.64.27 10 10 0 0 0 -1 .28 4.42 4.42 0 0 0 -.52.14l2.33-85.19 1.87-1a17.82 17.82 0 0 0 -1-31.83l.32-11.28a7.21 7.21 0 0 1 2.26-4.7 7.45 7.45 0 0 1 11.54 2l7.18 14.35a28.53 28.53 0 0 1 3 12.76 71.08 71.08 0 0 1 -.93 11.47zm-11.6 10.39a4.79 4.79 0 0 1 .81-1.4 5.08 5.08 0 0 1 .5-.54 4.52 4.52 0 0 1 .82-.55 3.91 3.91 0 0 1 .57-.31 4.48 4.48 0 0 1 1.66-.34 4.67 4.67 0 1 1 -4.56 5.23v-1.3a4.22 4.22 0 0 1 .16-.77zm-5.59 62.19 4.5-6.74a4.69 4.69 0 0 0 .78-2.59v-38.19a13.61 13.61 0 0 0 15.18-4 4.56 4.56 0 0 0 1.82-.89 30.3 30.3 0 0 1 -3.73 49.33l-5.22 3.11zm-100-98h-20.75a4.67 4.67 0 0 0 -4.66 4.69v28h-9.33v-4.66a14 14 0 0 0 -8.07-12.65l4.4-16.54a60.42 60.42 0 0 1 34.28-39.77l102.1-44.71a8.51 8.51 0 0 1 7.47 15.27l-85.55 46.35a41.87 41.87 0 0 0 -19.9 24.03zm49.26 65.33h-23.35v-9.34a4.67 4.67 0 0 0 -1.32-3.3l-28-28a4.65 4.65 0 0 0 -3.3-1.37h-9.33v-14h48.83l16.5 24.73v31.27zm-57.94-32.64 25.27 25.25v7.4h-32.67v-32.65zm-91.4 51.33v-30.75l11.26-11.27h63.41v28a4.67 4.67 0 0 0 4.67 4.67h70v9.33zm116.67 9.32v9.35h-84v-9.33zm23.32 37.35a18.67 18.67 0 1 1 18.68 18.64 18.67 18.67 0 0 1 -18.68-18.64zm-128.51-18.69h126.36a27.84 27.84 0 0 0 0 37.33h-126.36a27.84 27.84 0 0 0 0-37.33zm-39.48 18.69a18.67 18.67 0 1 1 18.67 18.64 18.67 18.67 0 0 1 -18.67-18.64z"/><path d="m134.67 368a9.33 9.33 0 1 0 9.33-9.34 9.33 9.33 0 0 0 -9.33 9.34z"/><path d="m218.66 363.31h-9.33v9.33h9.33z"/><path d="m246.66 363.31h-9.33v9.33h9.33z"/><path d="m190.66 363.31h-9.33v9.33h9.33z"/><path d="m274.66 363.31h-9.34v9.33h9.34z"/><path d="m176.66 288.65h-9.33v14h9.33z"/><path d="m195.33 288.65h-9.33v14h9.33z"/></svg>