<?xml version="1.0" encoding="utf-8"?>
<!-- Generator: Adobe Illustrator 23.0.3, SVG Export Plug-In . SVG Version: 6.00 Build 0)  -->
<svg version="1.1" id="Layer_1" xmlns="http://www.w3.org/2000/svg" xmlns:xlink="http://www.w3.org/1999/xlink" x="0px" y="0px"
	 viewBox="0 0 512 512" style="enable-background:new 0 0 512 512;" xml:space="preserve">
<style type="text/css">
	.st0{fill:#FFB531;}
	.st1{fill:#F7A116;}
	.st2{fill:#FFA912;}
	.st3{fill:#2E3E51;}
	.st4{fill:#3D4D63;}
	.st5{fill:#22303D;}
	.st6{fill:#E8770C;}
	.st7{fill:#4DB7E5;}
	.st8{fill:#419BC2;}
	.st9{fill:#D6D6D4;}
	.st10{fill:#4C5D72;}
</style>
<path class="st0" d="M76.8,298.6H42.7L10.3,96.4C9.1,89,8.5,81.5,8.5,74c0-9.4,2.2-18.7,6.4-27.1l13.2-26.3
	c3.7-7.4,11.3-12.1,19.6-12.1c11.6,0,21.1,9,21.8,20.6L76.8,298.6z"/>
<path class="st0" d="M76.8,384v-93.9c0-9.4-7.6-17.1-17.1-17.1c-9.4,0-17.1,7.6-17.1,17.1l-8.5,6.4C18,308.6,8.5,327.5,8.5,347.7
	c0,22.5,11.8,43.3,31.1,54.9l11.6,7h42.7L76.8,384z"/>
<path class="st1" d="M76.8,290.1c0,9.4-7.6,17.1-17.1,17.1c-9.4,0-17.1-7.6-17.1-17.1c0-9.4,7.6-17.1,17.1-17.1
	C69.2,273,76.8,280.7,76.8,290.1z"/>
<path class="st2" d="M271.7,139.1L85,57.4c-7.5-3.3-16-2.6-22.9,1.9c-6.8,4.5-10.9,12-10.9,20.2c0,8.8,4.9,17,12.6,21.2l156.4,84.7
	c22,11.9,35.8,35,35.8,60V384h128l-44.8-166.5C329.8,182.5,305,153.6,271.7,139.1z"/>
<path class="st1" d="M337.8,213.3h-90c5.3,9.9,8.1,20.9,8.2,32.1V384h128l-44.8-166.5C338.8,216,338.3,214.7,337.8,213.3z"/>
<path class="st3" d="M153.6,418.1h307.2c23.6,0,42.7,19.1,42.7,42.7c0,23.6-19.1,42.7-42.7,42.7H153.6c-23.6,0-42.7-19.1-42.7-42.7
	C110.9,437.2,130,418.1,153.6,418.1z"/>
<path class="st4" d="M196.3,460.8c0,23.6-19.1,42.7-42.7,42.7c-23.6,0-42.7-19.1-42.7-42.7c0-23.6,19.1-42.7,42.7-42.7
	C177.2,418.1,196.3,437.2,196.3,460.8z"/>
<path class="st5" d="M170.7,460.8c0,9.4-7.6,17.1-17.1,17.1c-9.4,0-17.1-7.6-17.1-17.1s7.6-17.1,17.1-17.1
	C163,443.7,170.7,451.4,170.7,460.8z"/>
<path class="st4" d="M503.5,460.8c0,23.6-19.1,42.7-42.7,42.7c-23.6,0-42.7-19.1-42.7-42.7c0-23.6,19.1-42.7,42.7-42.7
	C484.4,418.1,503.5,437.2,503.5,460.8z"/>
<path class="st5" d="M477.9,460.8c0,9.4-7.6,17.1-17.1,17.1c-9.4,0-17.1-7.6-17.1-17.1s7.6-17.1,17.1-17.1
	C470.3,443.7,477.9,451.4,477.9,460.8z"/>
<g>
	<path class="st4" d="M324.3,452.2h17.1v17.1h-17.1V452.2z"/>
	<path class="st4" d="M273.1,452.2h17.1v17.1h-17.1V452.2z"/>
	<path class="st4" d="M375.5,452.2h17.1v17.1h-17.1V452.2z"/>
	<path class="st4" d="M221.9,452.2h17.1v17.1h-17.1V452.2z"/>
</g>
<path class="st5" d="M324.3,469.3h17.1v17.1h-17.1V469.3z"/>
<path class="st5" d="M273.1,469.3h17.1v17.1h-17.1V469.3z"/>
<path class="st5" d="M375.5,469.3h17.1v17.1h-17.1V469.3z"/>
<path class="st5" d="M221.9,469.3h17.1v17.1h-17.1V469.3z"/>
<path class="st2" d="M221.9,384h170.7v34.1H221.9V384z"/>
<path class="st0" d="M426.7,290.1H162.1V384h290.2v-68.3L426.7,290.1z"/>
<path class="st6" d="M401.1,315.7h17.1v25.6h-17.1V315.7z"/>
<path class="st6" d="M367,315.7H384v25.6H367V315.7z"/>
<path class="st7" d="M298.7,349.8H162.1v-68.3l34.1-51.2h102.4V349.8z"/>
<path class="st8" d="M221.9,349.8v-25.6l51.2-51.2h25.6v76.8H221.9z"/>
<path class="st9" d="M409.6,256h-59.7c-9.4,0-17.1,7.6-17.1,17.1v17.1h93.9V273C426.7,263.6,419.1,256,409.6,256z"/>
<path class="st10" d="M460.8,512H153.6c-28.3,0-51.2-22.9-51.2-51.2c0-28.3,22.9-51.2,51.2-51.2h307.2c28.3,0,51.2,22.9,51.2,51.2
	C512,489.1,489.1,512,460.8,512z M153.6,426.6c-18.9,0-34.1,15.3-34.1,34.1c0,18.9,15.3,34.1,34.1,34.1h307.2
	c18.9,0,34.1-15.3,34.1-34.1c0-18.9-15.3-34.1-34.1-34.1H153.6z"/>
<path class="st1" d="M221.9,384h170.7V401H221.9V384z"/>
<path d="M170.7,460.8c0,9.4-7.6,17.1-17.1,17.1c-9.4,0-17.1-7.6-17.1-17.1s7.6-17.1,17.1-17.1C163,443.7,170.7,451.4,170.7,460.8z"
	/>
<path d="M460.8,409.6h-59.7v-17.1h51.2c4.7,0,8.5-3.8,8.5-8.5v-68.3c0-2.3-0.9-4.4-2.5-6l-23.1-23.1V273c0-14.1-11.5-25.6-25.6-25.6
	h-53.5l-8.6-32.2c-10.1-37.5-36.7-68.4-72.3-83.9L88.4,49.5c-3.1-1.4-6.5-2.2-9.9-2.6L78,28.5C77.1,14.8,67.2,3.4,53.7,0.6
	C40.3-2.2,26.6,4.5,20.5,16.8L7.3,43.1C2.5,52.7,0,63.3,0,74c0,7.9,0.6,15.9,1.9,23.7l30.3,189.6l-3.2,2.4
	C9.7,304.2-1.2,327.4,0,351.5c1.3,24.1,14.4,46.1,35.2,58.5l11.6,6.9c1.3,0.8,2.8,1.2,4.4,1.2h42.7c3.2,0,6-1.7,7.5-4.5
	c1.5-2.8,1.3-6.1-0.4-8.8l-15.6-23.4v-91.3c0-1.2-0.1-2.4-0.3-3.6l-4.6-167.1l135.8,73.5c11.8,6.4,21.1,16.6,26.3,28.9h-46.3
	c-2.9,0-5.5,1.4-7.1,3.8L155,276.8c-0.9,1.4-1.4,3.1-1.4,4.7V384c0,4.7,3.8,8.5,8.5,8.5h51.2v17.1h-59.7
	c-28.3,0-51.2,22.9-51.2,51.2c0,28.3,22.9,51.2,51.2,51.2h307.2c28.3,0,51.2-22.9,51.2-51.2C512,432.5,489.1,409.6,460.8,409.6z
	 M341.4,273c0-4.7,3.8-8.5,8.5-8.5h59.7c4.7,0,8.5,3.8,8.5,8.5v8.5h-76.8V273z M18.8,95c-1.1-6.9-1.7-14-1.7-21
	c0-8.1,1.9-16.1,5.5-23.3l13.1-26.2c2-3.7,5.5-6.3,9.6-7c4.1-0.7,8.3,0.5,11.5,3.2c2.4,2.3,3.9,5.3,4.1,8.6l0.6,20.6
	C50.3,55.1,43,66.1,42.7,78.5c-0.4,12.3,6.2,23.8,17.1,29.7l3.4,1.8l4.3,155.8c-0.3-0.1-0.6-0.2-1-0.3c-0.6-0.2-1.3-0.4-1.9-0.5
	c-1.6-0.3-3.2-0.5-4.8-0.5c-1.6,0-3.3,0.2-4.9,0.5c-0.5,0.1-1,0.3-1.6,0.4c-1,0.3-2,0.6-3,0.9c-0.6,0.2-1.1,0.5-1.7,0.8
	c-0.7,0.4-1.5,0.7-2.1,1.1L18.8,95z M67.7,287.3c0.1,0.5,0.2,0.9,0.3,1.4l0.1,2.4c-0.5,4.2-4.1,7.5-8.3,7.5c-4.7,0-8.5-3.8-8.5-8.5
	c0-4.7,3.8-8.5,8.5-8.5c1,0,2.1,0.2,3,0.6c0.4,0.2,0.7,0.4,1,0.6c0.5,0.3,1,0.6,1.5,1c0.3,0.3,0.6,0.6,0.9,1
	C66.8,285.5,67.3,286.4,67.7,287.3L67.7,287.3z M53.5,401l-9.6-5.7c-15.4-9.3-25.4-25.4-26.7-43.3c-1.4-17.9,6.1-35.4,19.9-46.9
	c1,0.8,2.1,1.3,3.3,1.6c6.8,8.1,17.9,11,27.8,7.4V384c0,1.7,0.5,3.3,1.4,4.7l8.2,12.3H53.5z M224.3,177.9L67.9,93.1
	c-7.2-4-10.1-13-6.4-20.4c3.6-7.4,12.5-10.7,20.1-7.5l186.7,81.8c30.9,13.4,54,40.2,62.7,72.7l8.1,30.2c-9,4.2-14.7,13.2-14.8,23.1
	v8.5h-17.1v-51.2c0-4.7-3.8-8.5-8.5-8.5h-37.9C254.7,203,241.7,187.3,224.3,177.9z M170.7,290.1v-6l30.2-45.2h89.3v25.6h-17.1
	c-2.3,0-4.4,0.9-6,2.5l-51.2,51.2c-1.6,1.6-2.5,3.8-2.5,6v17.1h-42.7V290.1z M290.2,281.6v59.7h-59.7v-13.5l46.2-46.2H290.2z
	 M170.7,375.4v-17.1h128c4.7,0,8.5-3.8,8.5-8.5v-51.2h116l20.6,20.6v56.2H170.7z M384,392.5v17.1H230.4v-17.1H384z M153.6,494.9
	c-18.9,0-34.1-15.3-34.1-34.1c0-18.9,15.3-34.1,34.1-34.1c18.9,0,34.1,15.3,34.1,34.1C187.7,479.6,172.5,494.9,153.6,494.9z
	 M422.8,494.9H191.7c17.5-19.4,17.5-48.9,0-68.3h231.1C405.3,446,405.3,475.5,422.8,494.9z M460.8,494.9
	c-18.9,0-34.1-15.3-34.1-34.1c0-18.9,15.3-34.1,34.1-34.1c18.9,0,34.1,15.3,34.1,34.1C495,479.6,479.7,494.9,460.8,494.9z"/>
<path d="M477.9,460.8c0,9.4-7.6,17.1-17.1,17.1c-9.4,0-17.1-7.6-17.1-17.1s7.6-17.1,17.1-17.1C470.3,443.7,477.9,451.4,477.9,460.8z
	"/>
<path d="M324.3,452.2h17.1v17.1h-17.1V452.2z"/>
<path d="M273.1,452.2h17.1v17.1h-17.1V452.2z"/>
<path d="M375.5,452.2h17.1v17.1h-17.1V452.2z"/>
<path d="M221.9,452.2h17.1v17.1h-17.1V452.2z"/>
<path d="M401.1,315.7h17.1v25.6h-17.1V315.7z"/>
<path d="M367,315.7H384v25.6H367V315.7z"/>
</svg>
