<svg viewBox="0 0 512 512" xmlns="http://www.w3.org/2000/svg"><circle cx="256" cy="256" fill="#ffb530" r="256"/><path d="m167.53 205.76a45.51 45.51 0 1 0 45.5 45.5 45.5 45.5 0 0 0 -45.5-45.5z" fill="#ccccca" stroke="#000" stroke-miterlimit="10" stroke-width="10"/><path d="m167.53 235.28a16 16 0 1 0 16 16 16 16 0 0 0 -16-16z" fill="#fff" stroke="#000" stroke-miterlimit="10" stroke-width="10"/><rect fill="#ccccca" height="18.73" rx="4.82" width="36.89" x="269.82" y="314.72"/><path d="m338.79 319.83a31.36 31.36 0 0 1 9.7-18.73h-102.28a31.47 31.47 0 0 1 9.7 18.73h5.4v-.29a13.35 13.35 0 0 1 13.34-13.33h27.24a13.35 13.35 0 0 1 13.33 13.33v.29z" fill="#9b9b9b"/><path d="m415.11 292.3v4.54a.3.3 0 0 0 .28.29h4.82v-5.13h-4.82a.29.29 0 0 0 -.28.3z" fill="#ffb531"/><circle cx="369.99" cy="324.08" fill="#3d4d63" r="22.98" transform="matrix(.38268343 -.92387953 .92387953 .38268343 -71.01 541.89)"/><path d="m374.53 260.24a17.9 17.9 0 0 1 -17.88-17.88v-22.7a4.26 4.26 0 0 1 4.26-4.26h41.65l-.29-.73a14 14 0 0 0 -13-8.91h-37.44a4.83 4.83 0 0 0 -4.83 4.82v82h23a31.54 31.54 0 0 1 31.21 27.28 3.48 3.48 0 0 1 .57 0h18.16a.28.28 0 0 0 .28-.29v-13.9h-4.82a8.81 8.81 0 0 1 -8.8-8.8v-4.57a8.8 8.8 0 0 1 8.8-8.79h4.82v-22.2l-.41-1.07z" fill="#ffb531"/><circle cx="224.71" cy="324.08" fill="#3d4d63" r="22.98" transform="matrix(.38268343 -.92387953 .92387953 .38268343 -160.7 407.66)"/><path d="m203.2 301.1h-11.47a31.71 31.71 0 0 1 5.73 7.2 32 32 0 0 1 5.74-7.2z" fill="#9b9b9b"/><path d="m374.53 251.73h42l-10.7-27.81h-40.67v18.44a9.39 9.39 0 0 0 9.37 9.37z" fill="#4db7e5"/><path d="m319.76 292.59h18.73v-82c0-.09 0-.19 0-.28h-18.73z" fill="#f57e00"/><path d="m217.52 292.59h93.73v-100.17a.28.28 0 0 0 -.28-.28h-93.45a.28.28 0 0 0 -.28.28v99.88a.29.29 0 0 0 .28.29z" fill="#2accf2"/><circle cx="170.22" cy="324.08" fill="#3d4d63" r="22.98" transform="matrix(.9870804 -.16022575 .16022575 .9870804 -49.71 31.45)"/><g fill="#ccccca" stroke="#000" stroke-miterlimit="10" stroke-width="5"><path d="m170.22 314.08a10 10 0 1 0 10 10 10 10 0 0 0 -10-10z"/><path d="m224.7 314.08a10 10 0 1 0 10 10 10 10 0 0 0 -10-10z"/><path d="m370 314.08a10 10 0 1 0 10 10 10 10 0 0 0 -10-10z"/></g><path d="m420.21 297.13h-4.82a.3.3 0 0 1 -.28-.29v-4.54a.29.29 0 0 1 .28-.28h4.82zm-3.68-45.4h-42a9.39 9.39 0 0 1 -9.37-9.37v-18.44h40.67zm-78-41.43v.28 82h-18.77v-82.28zm-199.77 82a8.8 8.8 0 0 0 8.79 8.8h1.2a31.48 31.48 0 1 0 48.74 38.76 31.48 31.48 0 0 0 58.45-11.52h5.4v.28a13.34 13.34 0 0 0 13.31 13.38h27.24a13.33 13.33 0 0 0 13.33-13.34v-.28h23.57a31.49 31.49 0 0 0 62.41 0 5.1 5.1 0 0 0 .57 0h18.16a8.8 8.8 0 0 0 8.8-8.8v-59s0-.07 0-.1a2.44 2.44 0 0 0 0-.27 1.1 1.1 0 0 1 0-.18 1.7 1.7 0 0 0 0-.22 1.89 1.89 0 0 0 0-.23 1 1 0 0 0 0-.17l-.09-.26v-.1l-18.22-47.38a22.43 22.43 0 0 0 -20.92-14.37h-37.67a13.29 13.29 0 0 0 -10 4.54h-8.44v-26.48a17.88 17.88 0 0 0 -5.23-12.64l-5-5a4.38 4.38 0 0 0 -5.84-.41 4.25 4.25 0 0 0 -.31 6.3l5.09 5.09a9.35 9.35 0 0 1 2.74 6.62v26.42h-5.11l-8.51.12v90.69h-163.7a.29.29 0 0 1 -.28-.29v-53.17a4.26 4.26 0 0 0 -4.26-4.26 4.27 4.27 0 0 0 -4.27 4.26zm64.47 8.8a32 32 0 0 0 -5.74 7.2 31.71 31.71 0 0 0 -5.73-7.2zm-33 46a23 23 0 1 1 23-23 23 23 0 0 1 -23.01 22.97zm54.49 0a23 23 0 1 1 23-23 23 23 0 0 1 -23.01 22.97zm82-18.45a4.83 4.83 0 0 1 -4.82 4.83h-27.25a4.84 4.84 0 0 1 -4.83-4.83v-9.08a4.83 4.83 0 0 1 4.83-4.82h27.24a4.82 4.82 0 0 1 4.82 4.82zm-4.82-22.41h-27.25a13.35 13.35 0 0 0 -13.34 13.33v.29h-5.4a31.47 31.47 0 0 0 -9.7-18.73h102.28a31.36 31.36 0 0 0 -9.7 18.73h-23.57v-.29a13.35 13.35 0 0 0 -13.33-13.36zm68.1 40.83a23 23 0 1 1 23-23 23 23 0 0 1 -23 23zm49.94-27.24h-18.17a3.48 3.48 0 0 0 -.57 0 31.54 31.54 0 0 0 -31.2-27.24h-23v-82a4.83 4.83 0 0 1 4.83-4.82h37.47a14 14 0 0 1 13 8.91l.29.73h-41.68a4.26 4.26 0 0 0 -4.26 4.26v22.7a17.9 17.9 0 0 0 17.88 17.88h45.27l.41 1.07v22.2h-4.82a8.8 8.8 0 0 0 -8.8 8.79v4.54a8.81 8.81 0 0 0 8.8 8.8h4.82v13.9a.28.28 0 0 1 -.28.28z"/><path d="m279.19 319.83a4.27 4.27 0 1 0 3 1.25 4.24 4.24 0 0 0 -3-1.25z"/><path d="m231.14 228.46h66.21a4.26 4.26 0 0 0 0-8.52h-66.21a4.26 4.26 0 0 0 0 8.52z"/><path d="m231.14 264.78h66.21a4.26 4.26 0 0 0 0-8.51h-66.21a4.26 4.26 0 0 0 0 8.51z"/><path d="m217.24 292.87v-100.73a4.26 4.26 0 1 0 -8.51 0v100.73a4.26 4.26 0 1 0 8.51 0z"/><path d="m319.76 292.87v-100.73a4.26 4.26 0 1 0 -8.51 0v100.73a4.26 4.26 0 1 0 8.51 0z"/><path d="m213 196.39h102.51a4.26 4.26 0 0 0 0-8.51h-102.51a4.26 4.26 0 0 0 0 8.51z"/><path d="m117.39 287h8.53v18.55l8.53-2.78v-15.77h4.26a8.53 8.53 0 0 0 8.53-8.53v-29.82a4.27 4.27 0 1 0 -8.53 0v4.26h-46.91v-4.26a4.26 4.26 0 1 0 -8.52 0v8.53a.09.09 0 0 0 0 .07 4.45 4.45 0 0 0 .28 1.45 3.59 3.59 0 0 0 .17.34 4.59 4.59 0 0 0 .24.5l10.32 15.46 5.08 7.6.42.62a8.59 8.59 0 0 0 7.11 3.8h10.49z"/><path d="m106.87 278.48-11.36-17.04h43.2v17.06z" fill="#ffcb73"/></svg>