<?xml version="1.0" encoding="utf-8"?>
<!-- Generator: Adobe Illustrator 23.0.3, SVG Export Plug-In . SVG Version: 6.00 Build 0)  -->
<svg version="1.1" id="Layer_1" xmlns="http://www.w3.org/2000/svg" xmlns:xlink="http://www.w3.org/1999/xlink" x="0px" y="0px"
	 viewBox="0 0 512 512" style="enable-background:new 0 0 512 512;" xml:space="preserve">
<style type="text/css">
	.st0{fill:#F7A116;}
	.st1{fill:#D6D6D4;}
	.st2{fill:#FFB531;}
	.st3{fill:#F57E00;}
	.st4{fill:#3D4D63;}
	.st5{fill:#4DB7E5;}
	.st6{fill:#419BC2;}
</style>
<path class="st0" d="M486,394.8H243v-86.8h260.3v43.4L486,394.8z"/>
<path class="st1" d="M243,342.8c0,57.5-46.6,104.1-104.1,104.1S34.7,400.3,34.7,342.8s46.6-104.1,104.1-104.1S243,285.3,243,342.8z"
	/>
<path class="st0" d="M216.9,342.8c0,43.1-35,78.1-78.1,78.1s-78.1-35-78.1-78.1s35-78.1,78.1-78.1S216.9,299.6,216.9,342.8z"/>
<path class="st2" d="M277.7,394.8H52.1L8.7,360.1v-52.1H243l34.7,34.7V394.8z"/>
<g>
	<path class="st3" d="M130.2,334.1h17.4c4.8,0,8.7,3.9,8.7,8.7v17.4c0,4.8-3.9,8.7-8.7,8.7h-17.4c-4.8,0-8.7-3.9-8.7-8.7v-17.4
		C121.5,338,125.4,334.1,130.2,334.1z"/>
	<path class="st3" d="M34.7,334.1h17.4v17.4H34.7V334.1z"/>
	<path class="st3" d="M216.9,334.1h17.4v17.4h-17.4V334.1z"/>
</g>
<path class="st2" d="M453.6,230.7l-132.5-44.2h-60.7v121.5h216.9v-44.4C477.3,248.7,467.7,235.5,453.6,230.7z"/>
<path class="st4" d="M468.6,360.1c0,43.1-35,78.1-78.1,78.1s-78.1-35-78.1-78.1s35-78.1,78.1-78.1S468.6,317,468.6,360.1z"/>
<path class="st2" d="M321.1,99.8c0-9.6-7.8-17.4-17.4-17.4h-97.9c-8.6,0-15.9,6.3-17.2,14.8l-3.1,20h135.5V99.8z"/>
<path class="st5" d="M185.6,117.2l-12,78.1l86.8,78.1h60.7V117.2H185.6z"/>
<path class="st6" d="M251.7,117.2H269V256h-17.4V117.2z"/>
<path class="st3" d="M381.8,238.6h17.4V256h-17.4V238.6z"/>
<path class="st3" d="M347.1,238.6h17.4V256h-17.4V238.6z"/>
<path class="st1" d="M416.5,360.1c0,14.4-11.7,26-26,26c-14.4,0-26-11.7-26-26s11.7-26,26-26C404.9,334.1,416.5,345.8,416.5,360.1z"
	/>
<path class="st1" d="M208.3,56.4h17.4v26h-17.4V56.4z"/>
<path class="st6" d="M260.3,273.4h60.7v-60.7l-88,36.2L260.3,273.4z"/>
<path d="M243,299.4h-0.1c-17.5-42-58.5-69.4-104-69.4s-86.6,27.4-104,69.4H8.7c-4.8,0-8.7,3.9-8.7,8.7v52.1c0,2.6,1.2,5.1,3.3,6.8
	l36,28.8c18.8,35.4,55,58.2,95.1,59.8c40.1,1.6,78-18.2,99.6-52h81.6c15.4,26.8,44.1,43.4,75,43.4s59.6-16.5,75-43.4H486
	c3.6,0,6.7-2.2,8.1-5.5l17.4-43.4c0.4-1,0.6-2.1,0.6-3.2v-43.4c0-4.8-3.9-8.7-8.7-8.7H486v-35.8c0-18.7-12-35.3-29.7-41.1
	l-126.5-42.2V99.8c0-14.4-11.7-26-26-26h-78.1V56.4h-17.4v17.4h-2.5c-12.9-0.1-23.8,9.3-25.7,22.1l-3,20l-12,78.1
	c-0.4,2.9,0.6,5.8,2.8,7.8l83.9,75.5v22.2H243z M138.8,247.3c35.8,0,68.6,20.1,84.9,52.1H53.9C70.2,267.5,103,247.4,138.8,247.3z
	 M138.8,438.2c-28.4,0-55.4-12.7-73.4-34.7h146.9C194.2,425.4,167.3,438.1,138.8,438.2z M303.7,360.1c0,8.8,1.3,17.6,4,26h-21.4
	v-43.4c0-2.3-0.9-4.5-2.5-6.1l-19.9-19.9h51.5C307.8,329.9,303.7,344.9,303.7,360.1z M390.5,429.6c-38.3,0-69.4-31.1-69.4-69.4
	s31.1-69.4,69.4-69.4s69.4,31.1,69.4,69.4C459.9,398.5,428.8,429.5,390.5,429.6z M477.3,316.7h17.4v33l-14.6,36.4h-6.8
	c7.3-23.2,4.5-48.4-7.7-69.4H477.3z M329.8,273.4v-74.7l121,40.4c10.6,3.5,17.8,13.4,17.8,24.6v35.8h-16.2
	c-16.3-16.6-38.6-26-61.9-26c-23.3,0-45.6,9.4-61.9,26H269V282h52.1C325.9,282,329.8,278.1,329.8,273.4z M312.4,206.7L269,224.1
	v-98.3h43.4V206.7z M197.2,98.5c0.6-4.2,4.3-7.4,8.6-7.4h97.9c4.8,0,8.7,3.9,8.7,8.7v8.7H195.7L197.2,98.5z M182.8,191.9l10.2-66.1
	h58.6V231l-17.6,7L182.8,191.9z M248.5,251l63.9-25.6v39.3h-48.7L248.5,251z M269,346.4v39.8H55.1L17.4,356v-39.2h222L269,346.4z"/>
<path d="M130.2,334.1h17.4c4.8,0,8.7,3.9,8.7,8.7v17.4c0,4.8-3.9,8.7-8.7,8.7h-17.4c-4.8,0-8.7-3.9-8.7-8.7v-17.4
	C121.5,338,125.4,334.1,130.2,334.1z"/>
<path d="M34.7,334.1h17.4v17.4H34.7V334.1z"/>
<path d="M216.9,334.1h17.4v17.4h-17.4V334.1z"/>
<path d="M381.8,238.6h17.4V256h-17.4V238.6z"/>
<path d="M347.1,238.6h17.4V256h-17.4V238.6z"/>
<path d="M390.5,325.4c-19.2,0-34.7,15.5-34.7,34.7s15.5,34.7,34.7,34.7s34.7-15.5,34.7-34.7S409.7,325.4,390.5,325.4z M390.5,377.5
	c-9.6,0-17.4-7.8-17.4-17.4s7.8-17.4,17.4-17.4s17.4,7.8,17.4,17.4S400.1,377.5,390.5,377.5z"/>
</svg>
