<svg viewBox="0 0 512 512" xmlns="http://www.w3.org/2000/svg"><circle cx="256" cy="256" fill="#ffb530" r="256"/><circle cx="151.52" cy="305.7" fill="#3d4d63" r="12.81"/><path d="m127.08 231.54a6.6 6.6 0 0 1 6.58-6.21h5.82v-7h-31.48a.39.39 0 0 0 -.39.39v12.42a.38.38 0 0 0 .39.39z" fill="#f57e00"/><circle cx="188.79" cy="305.7" fill="#3d4d63" r="12.81"/><path d="m347 299.87h1.48v-19.41h-228a.4.4 0 0 0 -.39.39v7.33a.39.39 0 0 0 .31.38 6 6 0 0 1 .94.27l9.62 3.68a24.43 24.43 0 0 1 39.22-2.63 24.44 24.44 0 0 1 42.39 10h7.69v-.39a12.05 12.05 0 0 1 12-12h10.17a12.05 12.05 0 0 1 12 12v.39h6.6a5.47 5.47 0 0 1 1.07.11 24.44 24.44 0 0 1 42.41-10.1 24.44 24.44 0 0 1 42.39 10z" fill="#ccccca"/><path d="m178.34 199.16a6.64 6.64 0 0 0 -6.54-5.67h-20.67v31.84h31z" fill="#4db7e5"/><circle cx="285.94" cy="305.7" fill="#3d4d63" r="12.81"/><rect fill="#ccccca" height="13.2" rx=".39" width="10.95" x="231.89" y="299.1"/><circle cx="323.21" cy="305.7" fill="#3d4d63" r="12.81"/><path d="m163.56 261.82h13.2v6.99h-13.2z"/><path d="m390.15 199.7h-200l1 7h199a3.5 3.5 0 0 0 0-7z" fill="#ccccca"/><g fill="#ffb531"><path d="m138.71 250.18h50.47v-13.18h-50.47z"/><path d="m404.35 299.48v-19h-19a18.27 18.27 0 0 1 -18.25-18.25v-25.23h-7v62.89h43.9a.38.38 0 0 0 .35-.41z"/><path d="m341.46 249.4h6.99v19.41h-6.99z"/></g><path d="m385.33 268.81h17.13l-7.73-27.05a6.63 6.63 0 0 0 -6.35-4.78h-9.65v25.23a6.61 6.61 0 0 0 6.6 6.6z" fill="#4db7e5"/><path d="m329.81 249.4h-62.51a.4.4 0 0 0 -.39.39v19h62.9z" fill="#ffb531"/><path d="m151.52 299.87a5.82 5.82 0 1 0 4.12 1.71 5.85 5.85 0 0 0 -4.12-1.71z"/><path d="m188.79 299.87a5.82 5.82 0 1 0 5.83 5.83 5.84 5.84 0 0 0 -5.83-5.83z"/><path d="m285.94 299.87a5.84 5.84 0 1 0 4.11 1.71 5.83 5.83 0 0 0 -4.11-1.71z"/><path d="m323.21 299.87a5.84 5.84 0 1 0 4.11 1.71 5.85 5.85 0 0 0 -4.11-1.71z"/><path d="m416 273.9v-.18a4.29 4.29 0 0 0 -.13-.6s0-.05 0-.08l-9.85-34.48a18.25 18.25 0 0 0 -17.55-13.23h-34.2a5.83 5.83 0 0 0 -5.83 5.82v6.6h-7.19a11.9 11.9 0 0 0 -3.32-6.32l-4.22-4.22a6 6 0 0 0 -8-.56 5.82 5.82 0 0 0 -.43 8.62l2.48 2.48h-60.46a12 12 0 0 0 -12 12v19h-66.9v-7h5.83a6.6 6.6 0 0 0 6.6-6.6v-7.64l76-29.24h116.8a10.7 10.7 0 0 0 10.71-10.71v-8.87a10.7 10.7 0 0 0 -10.71-10.7h-208.17a18.25 18.25 0 0 0 -13.66-6.22h-26.49a5.83 5.83 0 0 0 -5.83 5.83v19h-31.48a12 12 0 0 0 -12 12v12.42a12 12 0 0 0 12 12h19v12.98a5.82 5.82 0 0 0 5.82 5.82h19v7h-31.36a12 12 0 0 0 -12 12v7.33a12.08 12.08 0 0 0 9.12 11.68l9.62 3.67c-.06.72-.1 1.44-.1 2.17a24.44 24.44 0 0 0 43.1 15.81 24.43 24.43 0 0 0 42.39-10h7.69v.39a12 12 0 0 0 12 12h10.17a12 12 0 0 0 12-12v-.39h6.6a6.36 6.36 0 0 0 1.07-.1 24.43 24.43 0 0 0 42.41 10.09 24.43 24.43 0 0 0 42.39-10h57a12 12 0 0 0 12-12v-24.83a6 6 0 0 0 .08-.74zm-149-24.11a.4.4 0 0 1 .39-.39h62.51v19.41h-62.9zm-66.17-14.69v-3.17a6.61 6.61 0 0 0 -6.6-6.6h-.39l-1-7h51.55zm192.81-31.9a3.49 3.49 0 0 1 -3.49 3.49h-199l-1-7h200a3.5 3.5 0 0 1 3.49 3.51zm-242.51-9.71h20.67a6.64 6.64 0 0 1 6.54 5.67l3.74 26.17h-31zm-24 38h-19.13a.38.38 0 0 1 -.39-.39v-12.37a.39.39 0 0 1 .39-.39h31.44v7h-5.82a6.6 6.6 0 0 0 -6.54 6.2zm11.63 18.64v-13.13h50.47v13.2zm38 11.64v7h-13.2v-7zm-25.24 56.69a12.82 12.82 0 1 1 12.81-12.81 12.83 12.83 0 0 1 -12.81 12.86zm37.27 0a12.82 12.82 0 1 1 12.81-12.76 12.83 12.83 0 0 1 -12.81 12.81zm54.05-6.6a.41.41 0 0 1 -.39.39h-10.17a.41.41 0 0 1 -.39-.39v-12.38a.41.41 0 0 1 .39-.38h10.17a.41.41 0 0 1 .39.38zm43.1 6.6a12.82 12.82 0 1 1 12.81-12.81 12.83 12.83 0 0 1 -12.81 12.86zm37.27 0a12.82 12.82 0 1 1 12.79-12.76 12.82 12.82 0 0 1 -12.79 12.81zm25.23-18.64h-1.44a24.44 24.44 0 0 0 -42.39-10 24.44 24.44 0 0 0 -42.45 10.18 5.47 5.47 0 0 0 -1.07-.11h-6.6v-.39a12.05 12.05 0 0 0 -12-12h-10.21a12.05 12.05 0 0 0 -12 12v.39h-7.69a24.44 24.44 0 0 0 -42.39-10 24.43 24.43 0 0 0 -39.22 2.63l-9.62-3.68a6 6 0 0 0 -.94-.27.39.39 0 0 1 -.31-.38v-7.33a.4.4 0 0 1 .39-.39h228zm0-31.06h-7v-19.36h7zm30.29-31.76h9.65a6.63 6.63 0 0 1 6.35 4.78l7.73 27.05h-17.13a6.61 6.61 0 0 1 -6.6-6.6zm25.62 62.5a.38.38 0 0 1 -.39.39h-43.87v-62.89h7v25.23a18.27 18.27 0 0 0 18.25 18.25h19z"/></svg>