<svg id="icons" xmlns="http://www.w3.org/2000/svg" viewBox="0 0 76 76"><defs><style>.cls-1{fill:rgb(85, 185, 250);}</style></defs><title>icon-group</title><g id="icon-group"><path class="cls-1" d="M44.14,41.44H49.5a1,1,0,0,0,1-1V35.06a1,1,0,0,0-1-1H47.83V28a1,1,0,0,0-1-1h-9.9V25.52a1,1,0,0,0-1-1H26.5a1,1,0,0,0-1,1v5.05a1,1,0,0,0,1,1h9.4a1,1,0,0,0,1-1V29.06H45.8v5H44.14a1,1,0,0,0-1,1v1.67H41.36V35.06a1,1,0,0,0-1-1H35a1,1,0,0,0-1,1v1.67H32.88V35.06a1,1,0,0,0-1-1H26.5a1,1,0,0,0-1,1v5.36a1,1,0,0,0,1,1h1.67V47.8a1,1,0,0,0,1,1h2.51v1.66a1,1,0,0,0,1,1h6.67a1,1,0,0,0,1-1V48.82h2.72v1.66a1,1,0,0,0,1,1H49.5a1,1,0,0,0,1-1V45.12a1,1,0,0,0-1-1H44.14a1,1,0,0,0-1,1v1.67H40.4V45.12a1,1,0,0,0-1-1H32.71a1,1,0,0,0-1,1v1.67H30.2V41.44h1.66a1,1,0,0,0,1-1V38.76H34v1.66a1,1,0,0,0,1,1h5.37a1,1,0,0,0,1-1V38.76h1.76v1.66A1,1,0,0,0,44.14,41.44ZM30.85,36.07v3.34H27.51V36.07Zm8.48,0v3.34H36V36.07ZM27.51,29.55v-3h7.38v3Zm17.64,9.86V36.07h3.34v3.34Zm-6.78,6.72v3.34H33.72V46.13Zm6.78,3.34V46.13h3.34v3.34Z"/></g></svg>