<svg id="icons" xmlns="http://www.w3.org/2000/svg" viewBox="0 0 76 76"><defs><style>.cls-1{fill:white;}</style></defs><title>icon-broadcast</title><g id="icon-broadcast"><path class="cls-1" d="M47.24,28.33A13.07,13.07,0,0,0,28.65,46.7a1.43,1.43,0,0,0,1,.43h0a1.43,1.43,0,0,0,1-.41,1.41,1.41,0,0,0,0-2,10.24,10.24,0,1,1,14.66,0,1.42,1.42,0,0,0,1,2.41,1.43,1.43,0,0,0,1-.43,13.06,13.06,0,0,0-.11-18.37Z"/><path class="cls-1" d="M45.75,40.3a8,8,0,0,0,.45-2.67,8.2,8.2,0,0,0-16.4,0,8,8,0,0,0,.45,2.67,1.39,1.39,0,1,0,2.63-.9,5.31,5.31,0,0,1-.3-1.77,5.42,5.42,0,0,1,10.84,0,5.31,5.31,0,0,1-.3,1.77,1.35,1.35,0,0,0,.07,1.06,1.42,1.42,0,0,0,.79.71,1.47,1.47,0,0,0,.46.07,1.33,1.33,0,0,0,.61-.14A1.35,1.35,0,0,0,45.75,40.3Z"/><path class="cls-1" d="M43.86,50,40.52,38.87A3,3,0,0,0,41,37.24a3,3,0,1,0-6,0,3,3,0,0,0,.49,1.63L32.14,50A1.18,1.18,0,0,0,32.32,51a1.21,1.21,0,0,0,1,.48h9.44a1.21,1.21,0,0,0,1-.48A1.18,1.18,0,0,0,43.86,50Zm-5.42-9.75,2.68,8.9H34.88l2.68-8.9A3.24,3.24,0,0,0,38.44,40.21ZM38,36.62a.62.62,0,1,1-.62.62A.62.62,0,0,1,38,36.62Z"/></g></svg>