<svg id="icons" xmlns="http://www.w3.org/2000/svg" viewBox="0 0 76 76"><defs><style>.cls-1{fill:rgb(85, 185, 250);}</style></defs><title>icon-sound</title><g id="icon-sound"><path class="cls-1" d="M38,51.5a3,3,0,0,0,3-2.77H35A3,3,0,0,0,38,51.5Z"/><path class="cls-1" d="M36.79,27.58l-.21,0a7.24,7.24,0,0,0-5.8,7.08v5.46l-3,4.38a1.2,1.2,0,0,0-.07,1.26,1.21,1.21,0,0,0,1.08.66H47.19a1.21,1.21,0,0,0,1.08-.66,1.2,1.2,0,0,0-.07-1.26l-3-4.38V34.7a7.24,7.24,0,0,0-5.8-7.08l-.21,0V25.71a1.21,1.21,0,0,0-2.42,0ZM38,29.87l.93.19a4.73,4.73,0,0,1,3.81,4.64v6.23l2.07,3H31.19l2.07-3V34.7a4.73,4.73,0,0,1,3.81-4.64Z"/></g></svg>