<svg id="icons" xmlns="http://www.w3.org/2000/svg" viewBox="0 0 76 76"><defs><style>.cls-1{fill:rgb(125, 125, 125);}</style></defs><title>icon-modify</title><g id="icon-modify"><path class="cls-1" d="M39.93,56h-3.7c-1,0-1.42-.85-1.76-1.54-.19-.39-.43-.94-.73-1.61L33,51.13l-.91-.37-1.71.75-1.65.68c-.72.27-1.62.6-2.35-.11L23.77,49.5c-.73-.72-.4-1.62-.14-2.34.15-.41.37-1,.66-1.65s.53-1.27.72-1.7L24.66,43l-1.75-.65c-.69-.27-1.25-.49-1.66-.67-.68-.3-1.6-.7-1.6-1.75V36.26c0-1,.87-1.43,1.57-1.75.41-.19,1-.43,1.65-.71l1.77-.71.35-.85c-.2-.42-.48-1-.75-1.65s-.53-1.21-.69-1.62c-.27-.69-.64-1.63.12-2.37L26.29,24c.71-.69,1.61-.38,2.33-.13.42.14,1,.36,1.68.64s1.33.54,1.77.72L33,24.9c.16-.44.4-1.07.66-1.7s.5-1.23.68-1.63c.3-.66.72-1.57,1.75-1.57h3.71c1,0,1.42.85,1.75,1.54.19.39.43.94.73,1.62L43,24.88l.9.36,1.72-.75,1.65-.68c.72-.27,1.62-.6,2.35.11l2.63,2.57c.73.72.4,1.62.14,2.35-.15.41-.37,1-.65,1.65L51,32.2l.36.85,1.74.64c.69.27,1.25.49,1.66.67.68.3,1.61.7,1.6,1.75v3.63c0,1-.87,1.42-1.57,1.75-.4.19-1,.43-1.65.71s-1.32.54-1.77.71l-.35.85c.2.43.48,1,.75,1.65s.54,1.21.69,1.62c.27.69.64,1.63-.11,2.37L49.7,52c-.71.68-1.56.39-2.32.12-.42-.14-1-.36-1.68-.64s-1.32-.54-1.77-.72l-.91.37c-.16.44-.4,1.06-.66,1.69s-.5,1.23-.68,1.63C41.38,55.09,41,56,39.93,56Zm-2.87-2.94h2c.36-.82,1-2.31,1.42-3.59l.23-.6L44,47.56l.56.24c1.31.56,2.87,1.19,3.73,1.49l1.4-1.37c-.34-.83-1-2.27-1.58-3.49l-.28-.6,1.35-3.2.58-.23c1.32-.51,2.86-1.13,3.7-1.51V37c-.84-.35-2.36-.92-3.67-1.39l-.61-.21-1.35-3.21.26-.58c.56-1.27,1.19-2.76,1.51-3.61l-1.41-1.37c-.85.33-2.35,1-3.63,1.56l-.57.27-3.23-1.31-.23-.58c-.52-1.29-1.16-2.8-1.55-3.61h-2c-.36.82-.94,2.31-1.42,3.59l-.22.6-3.23,1.31-.56-.24c-1.32-.56-2.87-1.18-3.73-1.49l-1.41,1.37c.34.84,1,2.28,1.58,3.5l.28.59-1.35,3.21-.58.22c-1.33.51-2.86,1.13-3.7,1.51V39c.84.35,2.36.93,3.67,1.39l.61.22,1.35,3.2-.26.58c-.56,1.27-1.18,2.76-1.51,3.6l1.41,1.38c.85-.33,2.35-1,3.62-1.56l.58-.27,3.23,1.31.23.58C36,50.74,36.67,52.25,37.06,53.06Zm16.36-17ZM25.73,28.69h0Z"/><path class="cls-1" d="M38,44.64A6.64,6.64,0,1,1,44.64,38,6.65,6.65,0,0,1,38,44.64ZM38,34.3A3.7,3.7,0,1,0,41.7,38,3.7,3.7,0,0,0,38,34.3Z"/></g></svg>