<svg id="icons" xmlns="http://www.w3.org/2000/svg" viewBox="0 0 80 80"><defs><style>.cls-1{fill:rgb(164, 161, 161);}.cls-2{fill:#fff;}</style></defs><title>icon-volume-up</title><g id="icon-volume-up"><circle class="cls-1" cx="40" cy="40" r="40"/><g id="icon"><path class="cls-2" d="M34.06,25.52,25,31H19.88c-3.29,0-3,2.68-3,6v6c0,3.31-.32,6,3,6H25l9.09,5.51c2,1.22,3.94.23,3.94-2.19V27.7C38,25.29,36.05,24.31,34.06,25.52Z"/><path class="cls-2" d="M48.83,29.92a2.84,2.84,0,0,0-4,0A3.35,3.35,0,0,0,44,32.19a2.19,2.19,0,0,0,.83,1.73,8.24,8.24,0,0,1,0,12,2.82,2.82,0,0,0,0,4,2.85,2.85,0,0,0,4,0,14.09,14.09,0,0,0,0-20Z"/><path class="cls-2" d="M59,29.92a2.84,2.84,0,0,0-4,0,3.35,3.35,0,0,0-.83,2.27A2.19,2.19,0,0,0,55,33.92a8.24,8.24,0,0,1,0,12,2.83,2.83,0,0,0,4,4,14.09,14.09,0,0,0,0-20Z"/></g></g></svg>