<?xml version="1.0" encoding="iso-8859-1"?>
<!-- Generator: Adobe Illustrator 19.0.0, SVG Export Plug-In . SVG Version: 6.00 Build 0)  -->
<svg version="1.1" id="Layer_1" xmlns="http://www.w3.org/2000/svg" xmlns:xlink="http://www.w3.org/1999/xlink" x="0px" y="0px"
	 viewBox="0 0 512.001 512.001" style="enable-background:new 0 0 512.001 512.001;" xml:space="preserve">
<path style="fill:#90BAE1;" d="M268.456,37.795l-46.192,37.398L106.3,169.028H19.327C8.649,169.028,0,177.677,0,188.355v135.291
	c0,10.678,8.649,19.327,19.327,19.327H106.3l115.964,93.834l46.192,37.398c8.456,6.513,20.593,4.928,27.107-3.527
	c2.59-3.363,4.001-7.499,4.01-11.741V53.064c-0.029-10.678-8.697-19.308-19.376-19.279
	C275.955,33.795,271.819,35.205,268.456,37.795z"/>
<path style="fill:#B0D3F0;" d="M299.573,53.064v405.874c-0.029,10.678-8.697,19.308-19.376,19.279
	c-4.252-0.01-8.378-1.421-11.741-4.01l-46.192-37.398V75.194l46.192-37.398c8.456-6.513,20.593-4.928,27.107,3.527
	C298.153,44.685,299.564,48.812,299.573,53.064z"/>
<g>
	<path style="fill:#4482C3;" d="M389.832,442.799c-5.334,0.029-9.683-4.271-9.712-9.615c-0.019-3.807,2.194-7.267,5.653-8.842
		c92.114-42.394,132.431-151.439,90.036-243.553c-18.313-39.795-50.241-71.724-90.036-90.036c-4.861-2.242-6.977-7.992-4.735-12.853
		s7.992-6.977,12.853-4.735c101.807,46.878,146.337,167.404,99.458,269.21c-20.236,43.95-55.508,79.223-99.458,99.458
		C392.625,442.442,391.243,442.78,389.832,442.799z"/>
	<path style="fill:#4482C3;" d="M373.694,407.72c-5.334,0.029-9.683-4.271-9.712-9.615c-0.019-3.807,2.194-7.267,5.653-8.842
		c72.719-33.485,104.522-119.578,71.038-192.297c-14.457-31.388-39.65-56.59-71.038-71.038c-4.861-2.242-6.977-7.992-4.735-12.853
		c2.242-4.861,7.992-6.977,12.853-4.735c82.402,37.969,118.428,135.552,80.46,217.954c-16.38,35.553-44.917,64.08-80.46,80.46
		C376.487,407.363,375.105,407.701,373.694,407.72z"/>
	<path style="fill:#4482C3;" d="M357.555,372.641c-5.334,0.029-9.683-4.271-9.712-9.615c-0.019-3.807,2.194-7.267,5.653-8.842
		c53.372-24.459,76.807-87.553,52.348-140.925c-10.611-23.164-29.194-41.737-52.348-52.348c-4.861-2.242-6.977-7.992-4.735-12.853
		c2.242-4.861,7.992-6.977,12.853-4.735c63.007,29.059,90.52,103.691,61.471,166.688c-12.524,27.155-34.316,48.946-61.471,61.471
		C360.368,372.158,358.976,372.554,357.555,372.641z"/>
</g>
<g>
</g>
<g>
</g>
<g>
</g>
<g>
</g>
<g>
</g>
<g>
</g>
<g>
</g>
<g>
</g>
<g>
</g>
<g>
</g>
<g>
</g>
<g>
</g>
<g>
</g>
<g>
</g>
<g>
</g>
</svg>
