<?xml version="1.0" encoding="iso-8859-1"?>
<!-- Generator: Adobe Illustrator 19.0.0, SVG Export Plug-In . SVG Version: 6.00 Build 0)  -->
<svg version="1.1" id="Layer_1" xmlns="http://www.w3.org/2000/svg" xmlns:xlink="http://www.w3.org/1999/xlink" x="0px" y="0px"
	 viewBox="0 0 509 509" style="enable-background:new 0 0 509 509;" xml:space="preserve">
<circle style="fill:#6EB1E1;" cx="254.5" cy="254.5" r="254.5"/>
<rect x="201.9" y="234.2" style="fill:#F8B517;" width="55.7" height="67.5"/>
<rect x="184.409" y="227.099" transform="matrix(-0.9704 0.2416 -0.2416 -0.9704 466.7547 428.4687)" style="fill:#414753;" width="45.401" height="31.501"/>
<rect x="54.6" y="304.2" style="fill:#646B79;" width="415.1" height="46.1"/>
<path style="fill:#F0582F;" d="M203.6,187l-4.2,4.6l18.8,87.2l5.8,2.5c9.6,4.1,19.4,7.2,29.2,9.4l-26.8-124.2
	C218.3,172.4,210.7,179.3,203.6,187z"/>
<path style="fill:#F1F3F7;" d="M431.9,127.8c-23.6-7.1-48.1-8.4-71.7-3.9l32.4,150.3c23.4-5.6,45.1-16.9,63.7-33.1l29.5-25.7
	l-16.5-76.5L431.9,127.8z"/>
<path style="fill:#DDDEE6;" d="M226.4,166.4l26.8,124.2c15.4,3.3,31.1,4.2,46.6,2.7l-32-148.6C253,149.7,239.1,157,226.4,166.4z"/>
<path style="fill:#FCFCFD;" d="M357,124.5l-73.2,15.8c-5.4,1.2-10.7,2.6-16,4.4l32,148.6c5.5-0.5,10.9-1.4,16.4-2.6l73.2-15.8
	c1.1-0.2,2.2-0.5,3.2-0.8l-32.4-150.3C359.1,124.1,358,124.3,357,124.5z"/>
<polygon style="fill:#F8B517;" points="443.4,304.2 479.1,240.5 448.9,122.8 427.5,124.7 457,234.2 372.6,304.2 "/>
<path style="fill:#FBD303;" d="M154.2,195.1v117.4H98.9c-20.9,0-37.8,16.9-37.8,37.8l0,0H21.3v-61.9c0-10.3,2.4-20.5,7.1-29.8
	l26.3-51.7c3.7-7.3,11.2-11.9,19.4-11.9h80.1V195.1z"/>
<path style="fill:#F8B517;" d="M24.2,269.2c-1.9,6.2-2.9,12.7-2.9,19.3v61.9h39.8c0-20.9,16.9-37.8,37.8-37.8h55.3v-43.3h-130V269.2
	z"/>
<path style="fill:#EA9F07;" d="M32.3,328.5h-1.8v-59l0.1-0.2l27.8-58c1.1-2.2,3.4-3.7,5.8-3.7h37.9c3.6,0,6.5,2.9,6.5,6.5v75.4h-1.9
	v-75.4c0-2.6-2.1-4.6-4.6-4.6H64.2c-1.8,0-3.4,1-4.2,2.6l-27.7,57.8C32.3,269.9,32.3,328.5,32.3,328.5z"/>
<path style="fill:#414753;" d="M100.7,213.5H64.1c-1,0-1.9,0.6-2.4,1.5L45,251.2c-0.8,1.7,0.5,3.7,2.4,3.7h53.3
	c1.4,0,2.6-1.2,2.6-2.6v-36.2C103.3,214.7,102.2,213.5,100.7,213.5z"/>
<rect x="82.7" y="274.1" style="fill:#494A4F;" width="14.5" height="6.8"/>
<circle style="fill:#414753;" cx="97.7" cy="353.5" r="34.3"/>
<circle style="fill:#333842;" cx="97.7" cy="353.5" r="25"/>
<circle style="fill:#F1F3F7;" cx="97.7" cy="353.5" r="19.6"/>
<circle style="fill:#DDDEE6;" cx="97.7" cy="353.5" r="11.3"/>
<g>
	<circle style="fill:#BDBDBE;" cx="97.7" cy="338" r="1.8"/>
	<circle style="fill:#BDBDBE;" cx="97.7" cy="369" r="1.8"/>
	<circle style="fill:#BDBDBE;" cx="113.2" cy="353.5" r="1.8"/>
	<circle style="fill:#BDBDBE;" cx="82.2" cy="353.5" r="1.8"/>
	<circle style="fill:#BDBDBE;" cx="108.7" cy="342.5" r="1.8"/>
	<circle style="fill:#BDBDBE;" cx="86.8" cy="364.4" r="1.8"/>
	<circle style="fill:#BDBDBE;" cx="108.7" cy="364.4" r="1.8"/>
	<circle style="fill:#BDBDBE;" cx="86.8" cy="342.5" r="1.8"/>
</g>
<circle style="fill:#414753;" cx="326.7" cy="353.5" r="34.3"/>
<circle style="fill:#333842;" cx="326.7" cy="353.5" r="25"/>
<circle style="fill:#F1F3F7;" cx="326.7" cy="353.5" r="19.6"/>
<circle style="fill:#DDDEE6;" cx="326.7" cy="353.5" r="7.7"/>
<g>
	<circle style="fill:#BDBDBE;" cx="326.7" cy="339.6" r="1.6"/>
	<circle style="fill:#BDBDBE;" cx="326.7" cy="367.4" r="1.6"/>
	<circle style="fill:#BDBDBE;" cx="340.6" cy="353.5" r="1.6"/>
	<circle style="fill:#BDBDBE;" cx="312.8" cy="353.5" r="1.6"/>
	<circle style="fill:#BDBDBE;" cx="336.5" cy="343.7" r="1.6"/>
	<circle style="fill:#BDBDBE;" cx="316.9" cy="363.3" r="1.6"/>
	<circle style="fill:#BDBDBE;" cx="336.5" cy="363.3" r="1.6"/>
	<circle style="fill:#BDBDBE;" cx="316.9" cy="343.7" r="1.6"/>
</g>
<circle style="fill:#414753;" cx="412.1" cy="353.5" r="34.3"/>
<circle style="fill:#333842;" cx="412.1" cy="353.5" r="25"/>
<circle style="fill:#F1F3F7;" cx="412.1" cy="353.5" r="19.6"/>
<circle style="fill:#DDDEE6;" cx="412.1" cy="353.5" r="7.7"/>
<g>
	<circle style="fill:#BDBDBE;" cx="412.1" cy="339.6" r="1.6"/>
	<circle style="fill:#BDBDBE;" cx="412.1" cy="367.4" r="1.6"/>
	<circle style="fill:#BDBDBE;" cx="426" cy="353.5" r="1.6"/>
	<circle style="fill:#BDBDBE;" cx="398.2" cy="353.5" r="1.6"/>
	<circle style="fill:#BDBDBE;" cx="421.9" cy="343.7" r="1.6"/>
	<circle style="fill:#BDBDBE;" cx="402.3" cy="363.3" r="1.6"/>
	<circle style="fill:#BDBDBE;" cx="421.9" cy="363.3" r="1.6"/>
	<circle style="fill:#BDBDBE;" cx="402.3" cy="343.7" r="1.6"/>
</g>
<rect x="154.2" y="296" style="fill:#393D47;" width="333.5" height="16.4"/>
<g>
	<rect x="159.9" y="195.1" style="fill:#F1F3F7;" width="17.1" height="91.6"/>
	<path style="fill:#F1F3F7;" d="M175.2,204.6h-13.6V193c0-17.6,14.3-31.9,31.9-31.9v13.6c-10.1,0-18.3,8.2-18.3,18.3L175.2,204.6
		L175.2,204.6z"/>
	<path style="fill:#F1F3F7;" d="M152.7,311h-5.1v-13.6h5.1c5,0,9-4,9-9v-7.6h13.6v7.6C175.2,300.9,165.1,311,152.7,311z"/>
	<rect x="144.9" y="318.7" style="fill:#F1F3F7;" width="84.4" height="34.8"/>
</g>
<g>
	<rect x="161.3" y="318.7" style="fill:#BDBDBE;" width="5.4" height="34.8"/>
	<rect x="207.6" y="318.7" style="fill:#BDBDBE;" width="5.4" height="34.8"/>
</g>
<rect x="239.4" y="318.7" style="fill:#414753;" width="48.5" height="42.5"/>
<path style="fill:#393D47;" d="M99.7,287.1c-22.9,0-41.4,18.5-41.4,41.4h-37v21.8h39.8c0-20.9,16.9-37.8,37.8-37.8h55.3v-25.4H99.7z
	"/>
<g>
	<rect x="154.2" y="207.7" style="fill:#414753;" width="23.9" height="4.2"/>
	<rect x="154.2" y="270" style="fill:#414753;" width="23.9" height="4.2"/>
	<path style="fill:#414753;" d="M140,213.5h-18.5c-2.7,0-4.9,2.4-4.9,5.3v30.8c0,2.9,2.2,5.3,4.9,5.3H140c2.7,0,4.9-2.4,4.9-5.3
		v-30.8C144.9,215.9,142.7,213.5,140,213.5z"/>
</g>
<g>
</g>
<g>
</g>
<g>
</g>
<g>
</g>
<g>
</g>
<g>
</g>
<g>
</g>
<g>
</g>
<g>
</g>
<g>
</g>
<g>
</g>
<g>
</g>
<g>
</g>
<g>
</g>
<g>
</g>
</svg>
