<svg id="icons" xmlns="http://www.w3.org/2000/svg" viewBox="0 0 140 140"><defs><style>.cls-1{fill:#f37373;}.cls-2{fill:#344364;}.cls-3{fill:#566281;}.cls-4{fill:#2e313a;}.cls-5{fill:#edf0f1;}.cls-6{fill:#f8b2b0;}.cls-7{fill:#fff;}</style></defs><title>icon-pa-round</title><g id="icon-pa-round"><circle class="cls-1" cx="70" cy="70" r="70"/><g id="icon"><g id="grip"><path class="cls-2" d="M40.92,100.44v.88a4.75,4.75,0,1,0,9.49,0V67.2l-9.49-.59v33.83Z"/><path class="cls-3" d="M46.34,99.08A1.35,1.35,0,0,0,45,97.73H40.92v2.71H45a1.36,1.36,0,0,0,1.36-1.36"/><path class="cls-3" d="M46.34,93.66A1.36,1.36,0,0,0,45,92.3H40.92V95H45a1.36,1.36,0,0,0,1.36-1.36"/><path class="cls-3" d="M46.34,88.24A1.36,1.36,0,0,0,45,86.88H40.92v2.71H45a1.35,1.35,0,0,0,1.36-1.35"/><path class="cls-3" d="M46.34,82.81A1.35,1.35,0,0,0,45,81.46H40.92v2.71H45a1.36,1.36,0,0,0,1.36-1.36"/></g><path class="cls-4" d="M37.25,72H33a3,3,0,0,1-3-3V61.41a3,3,0,0,1,3-3h4.25Z"/><path class="cls-3" d="M57.19,77.59,39,76.49a3.79,3.79,0,0,1-3.52-3.78V57.61a3.29,3.29,0,0,1,3.06-3.28l18.64-1.14v24.4Z"/><path class="cls-5" d="M84.23,36,60.18,48.87a5.68,5.68,0,0,0-3,5V76.8a5.66,5.66,0,0,0,3.13,5.07l23.91,12Z"/><path class="cls-6" d="M96.44,58.41H90.08V72h6.36a5.44,5.44,0,0,0,5.42-5.43V63.83a5.44,5.44,0,0,0-5.42-5.42"/><path class="cls-7" d="M105.92,74.68a1.28,1.28,0,0,1-.78-.26,1.36,1.36,0,0,1-.32-1.89,12.65,12.65,0,0,0,2.46-7.31,13.14,13.14,0,0,0-2.46-7.39A1.36,1.36,0,0,1,107,56.27a16,16,0,0,1,3,8.88,15.48,15.48,0,0,1-3,9,1.37,1.37,0,0,1-1.11.57"/><path class="cls-3" d="M86.73,34.61,84.23,36V93.86l2.64,1.32a5.67,5.67,0,0,0,8.21-5.07V39.61a5.68,5.68,0,0,0-8.35-5"/><path class="cls-7" d="M71.89,49.67a1.35,1.35,0,0,0-1.82-.61l-6,3a5.4,5.4,0,0,0-2.86,4.77v2.95a1.36,1.36,0,0,0,2.72,0V56.81a2.67,2.67,0,0,1,1.38-2.36l6-3a1.36,1.36,0,0,0,.61-1.82"/><path class="cls-7" d="M62.54,62.48a1.35,1.35,0,0,0-1.36,1.35v2.71a1.36,1.36,0,0,0,2.72,0V63.83a1.35,1.35,0,0,0-1.36-1.35"/></g></g></svg>