<svg height="512pt" viewBox="0 0 512 512" width="512pt" xmlns="http://www.w3.org/2000/svg" xmlns:xlink="http://www.w3.org/1999/xlink"><linearGradient id="linear0" gradientUnits="userSpaceOnUse" x1="0" x2="512" y1="256" y2="256"><stop offset="0" stop-color="#80d8ff"/><stop offset="1" stop-color="#ea80fc"/></linearGradient><path d="m217 256v157.332031c0 11.046875-8.953125 20-20 20s-20-8.953125-20-20v-157.332031c0-11.046875 8.953125-20 20-20s20 8.953125 20 20zm98-20c-11.046875 0-20 8.953125-20 20v157.332031c0 11.046875 8.953125 20 20 20s20-8.953125 20-20v-157.332031c0-11.046875-8.953125-20-20-20zm155.671875-41.46875-37.492187 299.949219c-1.25 10.007812-9.757813 17.519531-19.847657 17.519531h-314.664062c-10.085938 0-18.597657-7.511719-19.847657-17.519531l-37.492187-299.949219c-23.941406-7.640625-41.328125-30.089844-41.328125-56.53125 0-32.71875 26.617188-59.332031 59.332031-59.332031h98v-18.667969c0-33.085938 26.917969-60 60-60h77.332031c33.085938 0 60 26.914062 60 60v18.667969h98c32.71875 0 59.335938 26.613281 59.335938 59.332031 0 26.441406-17.386719 48.890625-41.328125 56.53125zm-273.339844-115.863281h117.332031v-18.667969c0-11.027344-8.96875-20-20-20h-77.332031c-11.027343 0-20 8.972656-20 20zm-157.332031 59.332031c0 10.660156 8.671875 19.332031 19.332031 19.332031h393.335938c10.660156 0 19.332031-8.671875 19.332031-19.332031s-8.671875-19.332031-19.332031-19.332031h-393.335938c-10.660156 0-19.332031 8.671875-19.332031 19.332031zm390.011719 59.332031h-348.023438l34.332031 274.667969h279.355469zm0 0" fill="url(#linear0)"/></svg>