<svg xmlns="http://www.w3.org/2000/svg" viewBox="0 0 764 508"><defs><style>.cls-1{fill:#75eac0;}.cls-2,.cls-8{fill:#ccccca;}.cls-3{fill:#ffb531;}.cls-4{fill:#3d4d63;}.cls-5{fill:#f7f2eb;}.cls-6{fill:#4db7e5;}.cls-7{fill:#d8d6d4;}.cls-8{stroke:#000;stroke-width:5px;}.cls-10,.cls-8{stroke-miterlimit:10;}.cls-9{fill:#00a650;}.cls-10{fill:#fff;stroke:#fff;stroke-width:1.5px;}</style></defs><title>exv-01-moi-on</title><g id="Equipments"><rect class="cls-1" width="764" height="508" rx="100"/><path d="M351.34,420.17H331.65V433.5h23.11v8.24H321.4V392h33.29v8.31h-23v11.86h19.69Z"/><path d="M378.58,409.13,387.91,392H399.7l-14.49,24.68,14.87,25.09H388.15l-9.57-17.43L369,441.74H357.08L372,416.65,357.46,392h11.79Z"/><path d="M424.11,429.4,435.39,392H446.8l-17.32,49.77h-10.7L401.52,392H412.9Z"/><g id="icon-mobile_production-unit"><rect class="cls-2" x="331.14" y="287.5" width="55.33" height="28.09" rx="7.24"/><path class="cls-2" d="M434.59,295.17a47.21,47.21,0,0,1,14.55-28.1H295.72a47.21,47.21,0,0,1,14.55,28.1h8.1v-.43a20,20,0,0,1,20-20h40.86a20,20,0,0,1,20,20v.43Z"/><path class="cls-3" d="M549.07,253.88v6.81a.45.45,0,0,0,.43.43h7.23v-7.67H549.5A.45.45,0,0,0,549.07,253.88Z"/><circle class="cls-4" cx="481.39" cy="301.55" r="34.48" transform="translate(18.58 630.9) rotate(-67.5)"/><path class="cls-5" d="M488.2,205.78A26.84,26.84,0,0,1,461.39,179V144.92a6.39,6.39,0,0,1,6.38-6.39h62.48l-.43-1.1a21,21,0,0,0-19.46-13.37H454.15a7.24,7.24,0,0,0-7.23,7.24v123h34.47a47.3,47.3,0,0,1,46.81,40.92,6.22,6.22,0,0,1,.86-.06h27.25a.43.43,0,0,0,.42-.43V273.88H549.5a13.2,13.2,0,0,1-13.2-13.19v-6.81a13.21,13.21,0,0,1,13.2-13.2h7.23V207.39l-.62-1.61Z"/><circle class="cls-4" cx="263.47" cy="301.55" r="34.48" transform="translate(-115.95 429.56) rotate(-67.5)"/><path class="cls-6" d="M488.2,193h63l-16-41.71h-61V179A14.06,14.06,0,0,0,488.2,193Z"/><path class="cls-7" d="M406.06,254.31h28.09v-123c0-.15,0-.29,0-.43h-28.1Z"/><path class="cls-5" d="M207.71,254.31H403.29V118.1a.44.44,0,0,0-.45-.42H207.71a.43.43,0,0,0-.44.42V253.88A.44.44,0,0,0,207.71,254.31Z"/><path class="cls-8" d="M263.47,286.55a15,15,0,1,0,15,15A15,15,0,0,0,263.47,286.55Z"/><path class="cls-8" d="M481.39,286.55a15,15,0,1,0,15,15A15,15,0,0,0,481.39,286.55Z"/><path d="M222.61,325.22a47.22,47.22,0,0,0,87.66-17.28h8.1v.42a20,20,0,0,0,20,20h40.86a20,20,0,0,0,20-20v-.42h35.34a47.23,47.23,0,0,0,93.61-.07,6.23,6.23,0,0,0,.86.07h27.25a13.21,13.21,0,0,0,13.19-13.2V206.21c0-.05,0-.1,0-.15s0-.27,0-.41l0-.27c0-.11,0-.22-.05-.34s0-.22-.07-.33-.05-.18-.07-.26-.08-.26-.13-.39,0-.1,0-.14l-27.33-71.07a33.82,33.82,0,0,0-31.38-21.56H454.15a20,20,0,0,0-15,6.81H416.06a13.21,13.21,0,0,0-13.2-13.19H207.7a13.21,13.21,0,0,0-13.2,13.19V253.88a13.2,13.2,0,0,0,13.19,13.19h23.52S203.73,290.08,222.61,325.22Zm334.12-64.1H549.5a.45.45,0,0,1-.43-.43v-6.81a.45.45,0,0,1,.43-.43h7.23ZM551.2,193h-63a14.06,14.06,0,0,1-14-14V151.3h61Zm-117-62.14c0,.14,0,.28,0,.43v123H416.06V130.87ZM207.69,254.31a.43.43,0,0,1-.42-.43V118.1a.42.42,0,0,1,.42-.42H402.86a.42.42,0,0,1,.43.42V254.31ZM263.47,336a34.48,34.48,0,1,1,34.47-34.48A34.52,34.52,0,0,1,263.47,336Zm123-27.67a7.25,7.25,0,0,1-7.24,7.24H338.38a7.25,7.25,0,0,1-7.24-7.24V294.74a7.25,7.25,0,0,1,7.24-7.24h40.86a7.25,7.25,0,0,1,7.24,7.24Zm-7.24-33.62H338.38a20,20,0,0,0-20,20v.43h-8.1a47.21,47.21,0,0,0-14.55-28.1H449.14a47.21,47.21,0,0,0-14.55,28.1H399.25v-.43A20,20,0,0,0,379.24,274.74ZM481.39,336a34.48,34.48,0,1,1,34.48-34.48A34.51,34.51,0,0,1,481.39,336Zm74.92-40.86H529.06a6.22,6.22,0,0,0-.86.06,47.3,47.3,0,0,0-46.81-40.92H446.92v-123a7.24,7.24,0,0,1,7.23-7.24h56.21a21,21,0,0,1,19.46,13.37l.43,1.1H467.77a6.39,6.39,0,0,0-6.38,6.39V179a26.84,26.84,0,0,0,26.81,26.81h67.91l.62,1.61v33.29H549.5a13.21,13.21,0,0,0-13.2,13.2v6.81a13.2,13.2,0,0,0,13.2,13.19h7.23v20.86A.43.43,0,0,1,556.31,295.17Z"/><path d="M345.19,295.17A6.38,6.38,0,1,0,349.7,297,6.38,6.38,0,0,0,345.19,295.17Z"/><path d="M228.13,170.11h154.3a6.39,6.39,0,1,0,0-12.77H228.13a6.39,6.39,0,1,0,0,12.77Z"/><path d="M228.13,212.59h154.3a6.39,6.39,0,1,0,0-12.77H228.13a6.39,6.39,0,1,0,0,12.77Z"/></g><g id="moi"><circle class="cls-9" cx="684" cy="80" r="80"/><g id="eagle"><path class="cls-10" d="M685.43,116.15a2,2,0,0,0-3.45,1.43v7.09a2,2,0,1,0,4,0v-7.09A2,2,0,0,0,685.43,116.15Z"/><path class="cls-10" d="M696.33,119.91l-2.84-6.73a2,2,0,0,0-1.87-1.23,2,2,0,0,0-.78.16,2,2,0,0,0-1.07,2.65l2.84,6.72a2,2,0,1,0,3.72-1.57Z"/><path class="cls-10" d="M678.25,113.21a2,2,0,0,0-1.09-1.1h0a2,2,0,0,0-.79-.16,2.06,2.06,0,0,0-.76.15,2,2,0,0,0-1.1,1.08l-2.84,6.73a2,2,0,0,0,0,1.55,2,2,0,0,0,1.09,1.1,2,2,0,0,0,2.64-1.08l2.84-6.72A2,2,0,0,0,678.25,113.21Z"/><path class="cls-10" d="M725,98.79a2,2,0,0,0-.85-1.28h0a2,2,0,0,0-1.13-.34,2.56,2.56,0,0,0-.39,0,2,2,0,0,0-1.29.86l-7.11,10.62a2,2,0,0,0,.55,2.8,2.07,2.07,0,0,0,2.81-.55l7.11-10.62A2,2,0,0,0,725,98.79Z"/><path class="cls-10" d="M708.81,123a2,2,0,0,0-.86-1.29h0a2,2,0,0,0-1.12-.34,1.81,1.81,0,0,0-.4,0,2,2,0,0,0-1.28.86l-1.47,2.19a2,2,0,0,0,.56,2.8,2.06,2.06,0,0,0,2.8-.55l1.47-2.19A2,2,0,0,0,708.81,123Z"/><path class="cls-10" d="M662.85,122.31a2,2,0,0,0-1.68-.89,2,2,0,0,0-1.12.34,2,2,0,0,0-.55,2.8l1.46,2.19a2.07,2.07,0,0,0,2.8.55,2,2,0,0,0,.56-2.8Z"/><path class="cls-10" d="M654.89,108.62c-1.11-2.45-3.09-3.62-4.83-4.65-2-1.16-3.55-2.09-4.09-4.76a2,2,0,0,0-2-1.62,1.87,1.87,0,0,0-.4,0A2,2,0,0,0,642,100c.9,4.44,3.85,6.17,6,7.44,1.46.87,2.62,1.55,3.2,2.83a2,2,0,1,0,3.68-1.66Z"/><path class="cls-10" d="M737.34,51.19a2,2,0,0,0,0-1.55h0a2,2,0,0,0-1.07-1.1,2,2,0,0,0-1.55,0l-26.05,10.4a2.06,2.06,0,0,0-1.23,2.26A15.83,15.83,0,0,1,701,76.55l-1.54,1.09-.71-1.75a2,2,0,0,0-1.88-1.27h-5.24l.11-1.6a48.78,48.78,0,0,1,.75-5.19c1.18-6.55,1.62-11.75-4.39-14.28-5.62-2.37-9,.94-10.2,2.48l-.4.5-.64.07c-2,.2-5.5,1.11-6.68,4.93A2,2,0,1,0,674,62.72c.68-2.23,3.73-2.22,4.45-2.1a2.09,2.09,0,0,0,2-1.19c1.18-2.44,3.43-3.25,6-2.16,3.34,1.4,3,4.34,2,9.84a47.28,47.28,0,0,0-.82,6.09l-.07,1.42h-7.65l-.13-1.35a14.69,14.69,0,0,1,.41-5.07,2,2,0,0,0-1.3-2.56,2,2,0,0,0-1.54.13,2,2,0,0,0-1,1.18,17.88,17.88,0,0,0-.65,6.08l.1,1.59h-4.66a2,2,0,0,0-1.87,1.27l-.71,1.75L667,76.55a15.78,15.78,0,0,1-6.49-15.35,2,2,0,0,0-1.23-2.28l-26.05-10.4a2,2,0,0,0-1.55,0,2,2,0,0,0-1.07,1.1,2,2,0,0,0,1.12,2.63l24.57,9.82,0,1a20.12,20.12,0,0,0,12,18.81l.85.4V95a20.56,20.56,0,0,0,.77,5.93l.36,1.21-1.13.56c-3.93,2-5.4,4.76-6.58,7-1.34,2.53-2.14,4.06-5.87,4.66a2,2,0,0,0-1.32.82,2,2,0,0,0-.35,1.5,2,2,0,0,0,2.34,1.67c5.69-.92,7.4-4.16,8.77-6.76,1.16-2.2,2.25-4.27,5.68-5.67l.8-.33.69.53a15.58,15.58,0,0,0,5.13,2.36c1.86.57,3.2,1,3.73,2.15A2,2,0,0,0,684,111.8a2,2,0,0,0,1.83-1.18c.54-1.17,1.88-1.58,3.74-2.15a15.37,15.37,0,0,0,5.13-2.36l.69-.53.8.33c3.42,1.4,4.52,3.47,5.67,5.66,1.38,2.61,3.09,5.85,8.81,6.77a1.66,1.66,0,0,0,.32,0,2,2,0,0,0,1.64-3.21,2.08,2.08,0,0,0-1.32-.81c-3.73-.6-4.54-2.13-5.87-4.67a14.31,14.31,0,0,0-6.58-7l-1.13-.56.36-1.21a20.56,20.56,0,0,0,.77-5.93V82.33l.85-.41a20.11,20.11,0,0,0,12-18.8l0-1,24.57-9.81A2.06,2.06,0,0,0,737.34,51.19ZM694.81,95c0,7.13-2.43,8.39-6.43,9.61h0a15.62,15.62,0,0,0-3.61,1.44l-.77.47-.78-.47a15.28,15.28,0,0,0-3.6-1.44c-4-1.23-6.44-2.49-6.44-9.62V88.52h15a2,2,0,0,0,0-4h-15V78.66h21.63Z"/><path class="cls-10" d="M663.77,85.52a2,2,0,0,0-1.65-.85,2,2,0,0,0-1.17.38h0L651.22,92a2,2,0,0,0-.47,2.81,2.08,2.08,0,0,0,2.82.48l9.73-6.92A2,2,0,0,0,663.77,85.52Z"/><path class="cls-10" d="M658.92,81a2,2,0,0,0,0-1.55,2,2,0,0,0-1.12-1.06,2.06,2.06,0,0,0-.73-.14,2,2,0,0,0-.82.18h0L645.1,83.37A2,2,0,0,0,644,84.49a2,2,0,0,0,0,1.55,2.06,2.06,0,0,0,2.67,1l11.11-4.93A2,2,0,0,0,658.92,81Z"/><path class="cls-10" d="M652.81,74.79a2,2,0,0,0-.64-3.93,2,2,0,0,0-.64.1l-9.61,3.23A2,2,0,0,0,643.21,78Z"/><path class="cls-10" d="M632.09,60.59a2,2,0,0,0,1.2,2.59l13.53,5a2,2,0,0,0,1.39-3.79l-13.53-5a1.86,1.86,0,0,0-.69-.12A2,2,0,0,0,632.09,60.59Z"/><path class="cls-10" d="M662.23,94.11l-3.48,4.21a2,2,0,0,0,.27,2.84,2.07,2.07,0,0,0,2.85-.27l3.47-4.2a2,2,0,1,0-3.11-2.58Z"/><path class="cls-10" d="M704.7,88.34l9.73,6.92a2.08,2.08,0,0,0,2.82-.48,2,2,0,0,0-.48-2.82L707,85a2,2,0,0,0-1.16-.37,2,2,0,0,0-1.18,3.67Z"/><path class="cls-10" d="M710.14,82.13l11.12,4.93a2,2,0,0,0,2.66-1,2,2,0,0,0,0-1.55,2,2,0,0,0-1.06-1.12l-11.12-4.93a2,2,0,0,0-2.66,1,2,2,0,0,0,0,1.55A2,2,0,0,0,710.14,82.13Z"/><path class="cls-10" d="M713.91,72.23a2,2,0,0,0,1.28,2.56l9.6,3.23a2,2,0,1,0,1.29-3.83L716.47,71a2,2,0,0,0-2.56,1.27Z"/><path class="cls-10" d="M718.59,66.94a2,2,0,0,0,2.59,1.2l13.53-5a2,2,0,0,0-1.39-3.79l-13.53,5A2,2,0,0,0,718.59,66.94Z"/><path class="cls-10" d="M705.77,94.11a2,2,0,0,0-3.12,2.58l3.48,4.2a2,2,0,0,0,2.84.28,2,2,0,0,0,.27-2.85Z"/></g></g></g></svg>