<svg xmlns="http://www.w3.org/2000/svg" viewBox="0 0 768 512"><defs><style>.cls-1{fill:#f9aeaa;}.cls-2{fill:#3d4d63;}.cls-3{fill:#ccccca;}.cls-4{fill:#ffb531;}.cls-5{fill:#f57e00;}.cls-6{fill:#4db7e5;}.cls-7{fill:#00a650;}.cls-8{fill:#fff;stroke:#fff;stroke-miterlimit:10;stroke-width:1.5px;}.cls-9{fill:#fc0006;}</style></defs><title>dt-01-moi-on-off</title><g id="Equipments"><g id="base"><ellipse class="cls-1" cx="384" cy="256" rx="382" ry="254"/></g><g id="icon-dump_truck"><circle id="color" class="cls-2" cx="293.29" cy="287.12" r="58.39"/><circle id="color-2" data-name="color" class="cls-2" cx="474.52" cy="293.58" r="51.92"/><circle id="color-3" data-name="color" class="cls-3" cx="293.29" cy="287.12" r="33.58"/><circle id="color-4" data-name="color" class="cls-3" cx="474.52" cy="293.58" r="27.12"/><path id="color-5" data-name="color" class="cls-4" d="M356.85,300.05h33.62a6.47,6.47,0,0,0,5.82-3.57l25.86-51.73,11.1-22.29h70.62l36.85,43a6.46,6.46,0,0,0,4.92,2.25h12.93a12.92,12.92,0,0,0,12.93-12.93V216a32.37,32.37,0,0,0-32.33-32.33h-6.46V138.41a32.37,32.37,0,0,0-32.33-32.32H455.12A12.93,12.93,0,0,0,442.19,119v38.79H414.24L434,108.5l6.13-15.34h47.35a6.47,6.47,0,0,0,0-12.94H440.1a12.89,12.89,0,0,0-12,8.13l-4.5,11.27H251.28a32.14,32.14,0,0,0-28.91,17.87l-25.19,50.36A6.46,6.46,0,0,0,201.4,177l54,13.52,4.6,41.38,33.22,3.49a51.73,51.73,0,0,1,52,51.35ZM519.78,157.81H481V144.88h38.8Z"/><path id="color-6" data-name="color" class="cls-5" d="M287,193.88l6.27,34.85s29.89,2.68,39,14.94h84.05l12.93-24.9,22.23-1.52V190.14H395.71L384,213.6Z"/><rect id="color-7" data-name="color" class="cls-6" x="476.98" y="139.07" width="46.64" height="23.03"/><path d="M474.52,235.4a58.19,58.19,0,1,0,58.19,58.18A58.18,58.18,0,0,0,474.52,235.4Zm0,103.44a45.26,45.26,0,1,1,45.26-45.26A45.26,45.26,0,0,1,474.52,338.84Z"/><path d="M474.52,261.26a32.33,32.33,0,1,0,32.33,32.32A32.32,32.32,0,0,0,474.52,261.26Zm0,51.72a19.4,19.4,0,1,1,19.39-19.4A19.4,19.4,0,0,1,474.52,313Z"/><path d="M293.49,248.33a38.79,38.79,0,1,0,38.79,38.79A38.8,38.8,0,0,0,293.49,248.33Zm0,64.65a25.86,25.86,0,1,1,25.86-25.86A25.86,25.86,0,0,1,293.49,313Z"/><path d="M539.17,183.67h-6.46V138.41a32.37,32.37,0,0,0-32.33-32.32H455.12A12.93,12.93,0,0,0,442.19,119v38.79H414.24L434,108.5l6.13-15.34h47.35a6.47,6.47,0,0,0,0-12.94H440.1a12.89,12.89,0,0,0-12,8.13l-4.5,11.27H251.28a32.14,32.14,0,0,0-28.91,17.87l-25.19,50.36A6.46,6.46,0,0,0,201.4,177l54,13.52,4.6,41.38a64.62,64.62,0,1,0,96.83,68.14h33.62a6.47,6.47,0,0,0,5.82-3.57l25.86-51.73,11.1-22.29h70.62l36.85,43a6.46,6.46,0,0,0,4.92,2.25h12.93a12.92,12.92,0,0,0,12.93-12.93V216A32.37,32.37,0,0,0,539.17,183.67Zm-19.39-25.86H481V144.88h38.8ZM455.12,119h45.26A19.44,19.44,0,0,1,518.67,132H481a12.93,12.93,0,0,0-12.93,12.93v12.93A12.93,12.93,0,0,0,481,170.74h38.8v12.93H455.12Zm-46.05,51.72h33.12v12.93H403.9l1.1-2.74ZM233.93,123.27a19.29,19.29,0,0,1,17.35-10.72H418.42l-23.68,59.21-6.4,16-8.22,20.63-51.77-12.93-39.57-9.88-4.08-1-72.34-18.1ZM272.37,226l-3.56-32.14L281.35,197l3.23,26.07A80.08,80.08,0,0,0,272.37,226Zm21.12,112.82a51.78,51.78,0,1,1,36.68-15.29A51.73,51.73,0,0,1,293.49,338.84Zm51.72-90.51h60.63l-6.47,12.93H352.7a71.66,71.66,0,0,0-7.46-12.93Zm41.23,38.79h-28.3a71,71,0,0,0-1.29-12.93H393Zm35.21-70.47-9.32,18.75H332.12a64.32,64.32,0,0,0-34.53-12.73l-2.81-22.29L325.17,208l57.23,14.3a6.15,6.15,0,0,0,1.6.19,6.46,6.46,0,0,0,6-4.06l8.71-21.8h43.47v12.93h-8.94a12.87,12.87,0,0,0-11.56,7.12Zm136.92,38.14h-10L513.7,214.06a13,13,0,0,0-9.83-4.53H455.12V196.6h84a19.41,19.41,0,0,1,19.4,19.4Z"/><path d="M355.59,183.15a6.46,6.46,0,0,0,8.49-3.4l19.4-45.25a6.47,6.47,0,1,0-11.89-5.1L352.2,174.66A6.46,6.46,0,0,0,355.59,183.15Z"/><path d="M326.36,175.84a6.47,6.47,0,0,0,8.5-3.39l16.29-37.95a6.47,6.47,0,0,0-11.88-5.11l-16.3,38A6.47,6.47,0,0,0,326.36,175.84Z"/><path d="M297.22,168.54a6.46,6.46,0,0,0,8.49-3.4l13.11-30.64a6.46,6.46,0,1,0-11.88-5.1l-13.13,30.65A6.47,6.47,0,0,0,297.22,168.54Z"/><path d="M286.5,134.54a6.47,6.47,0,0,0-11.89-5.11l-10,23.34a6.47,6.47,0,1,0,11.89,5Z"/></g><path d="M346.52,453.74V404h15.31a23.24,23.24,0,0,1,11.74,3,20.57,20.57,0,0,1,8.09,8.41,26,26,0,0,1,2.9,12.39V430a26,26,0,0,1-2.85,12.34,20.42,20.42,0,0,1-8,8.37,23.41,23.41,0,0,1-11.72,3Zm10.26-41.46V445.5h5q6,0,9.2-3.93c2.11-2.62,3.2-6.37,3.24-11.24V427.7q0-7.59-3.14-11.51t-9.2-3.91Z"/><path d="M426.57,412.28H411.33v41.46H401.07V412.28H386V404h40.54Z"/><g id="moi"><circle class="cls-7" cx="686" cy="82" r="80"/><g id="eagle"><path class="cls-8" d="M687.43,118.15a2,2,0,0,0-3.45,1.43v7.09a2,2,0,1,0,4,0v-7.09A2,2,0,0,0,687.43,118.15Z"/><path class="cls-8" d="M698.33,121.91l-2.84-6.73a2,2,0,0,0-1.87-1.23,2,2,0,0,0-.78.16,2,2,0,0,0-1.07,2.65l2.84,6.72a2,2,0,1,0,3.72-1.57Z"/><path class="cls-8" d="M680.25,115.21a2,2,0,0,0-1.09-1.1h0a2,2,0,0,0-.79-.16,2.06,2.06,0,0,0-.76.15,2,2,0,0,0-1.1,1.08l-2.84,6.73a2,2,0,0,0,0,1.55,2,2,0,0,0,1.09,1.1,2,2,0,0,0,2.64-1.08l2.84-6.72A2,2,0,0,0,680.25,115.21Z"/><path class="cls-8" d="M727,100.79a2,2,0,0,0-.85-1.28h0a2,2,0,0,0-1.13-.34,2.56,2.56,0,0,0-.39,0,2,2,0,0,0-1.29.86l-7.11,10.62a2,2,0,0,0,.55,2.8,2.07,2.07,0,0,0,2.81-.55l7.11-10.62A2,2,0,0,0,727,100.79Z"/><path class="cls-8" d="M710.81,125a2,2,0,0,0-.86-1.29h0a2,2,0,0,0-1.12-.34,1.81,1.81,0,0,0-.4,0,2,2,0,0,0-1.28.86l-1.47,2.19a2,2,0,0,0,.56,2.8,2.06,2.06,0,0,0,2.8-.55l1.47-2.19A2,2,0,0,0,710.81,125Z"/><path class="cls-8" d="M664.85,124.31a2,2,0,0,0-1.68-.89,2,2,0,0,0-1.12.34,2,2,0,0,0-.55,2.8l1.46,2.19a2.07,2.07,0,0,0,2.8.55,2,2,0,0,0,.56-2.8Z"/><path class="cls-8" d="M656.89,110.62c-1.11-2.45-3.09-3.62-4.83-4.65-2-1.16-3.55-2.09-4.09-4.76a2,2,0,0,0-2-1.62,1.87,1.87,0,0,0-.4,0A2,2,0,0,0,644,102c.9,4.44,3.85,6.17,6,7.44,1.46.87,2.62,1.55,3.2,2.83a2,2,0,1,0,3.68-1.66Z"/><path class="cls-8" d="M739.34,53.19a2,2,0,0,0,0-1.55h0a2,2,0,0,0-1.07-1.1,2,2,0,0,0-1.55,0l-26.05,10.4a2.06,2.06,0,0,0-1.23,2.26A15.83,15.83,0,0,1,703,78.55l-1.54,1.09-.71-1.75a2,2,0,0,0-1.88-1.27h-5.24l.11-1.6a48.78,48.78,0,0,1,.75-5.19c1.18-6.55,1.62-11.75-4.39-14.28-5.62-2.37-9,.94-10.2,2.48l-.4.5-.64.07c-2,.2-5.5,1.11-6.68,4.93A2,2,0,1,0,676,64.72c.68-2.23,3.73-2.22,4.45-2.1a2.09,2.09,0,0,0,2-1.19c1.18-2.44,3.43-3.25,6-2.16,3.34,1.4,3,4.34,2,9.84a47.28,47.28,0,0,0-.82,6.09l-.07,1.42h-7.65l-.13-1.35a14.69,14.69,0,0,1,.41-5.07,2,2,0,0,0-1.3-2.56,2,2,0,0,0-1.54.13,2,2,0,0,0-1,1.18,17.88,17.88,0,0,0-.65,6.08l.1,1.59h-4.66a2,2,0,0,0-1.87,1.27l-.71,1.75L669,78.55a15.78,15.78,0,0,1-6.49-15.35,2,2,0,0,0-1.23-2.28l-26.05-10.4a2,2,0,0,0-1.55,0,2,2,0,0,0-1.07,1.1,2,2,0,0,0,1.12,2.63l24.57,9.82,0,1a20.12,20.12,0,0,0,12,18.81l.85.4V97a20.56,20.56,0,0,0,.77,5.93l.36,1.21-1.13.56c-3.93,2-5.4,4.76-6.58,7-1.34,2.53-2.14,4.06-5.87,4.66a2,2,0,0,0-1.32.82,2,2,0,0,0-.35,1.5,2,2,0,0,0,2.34,1.67c5.69-.92,7.4-4.16,8.77-6.76,1.16-2.2,2.25-4.27,5.68-5.67l.8-.33.69.53a15.58,15.58,0,0,0,5.13,2.36c1.86.57,3.2,1,3.73,2.15A2,2,0,0,0,686,113.8a2,2,0,0,0,1.83-1.18c.54-1.17,1.88-1.58,3.74-2.15a15.37,15.37,0,0,0,5.13-2.36l.69-.53.8.33c3.42,1.4,4.52,3.47,5.67,5.66,1.38,2.61,3.09,5.85,8.81,6.77a1.66,1.66,0,0,0,.32,0,2,2,0,0,0,1.64-3.21,2.08,2.08,0,0,0-1.32-.81c-3.73-.6-4.54-2.13-5.87-4.67a14.31,14.31,0,0,0-6.58-7l-1.13-.56.36-1.21a20.56,20.56,0,0,0,.77-5.93V84.33l.85-.41a20.11,20.11,0,0,0,12-18.8l0-1,24.57-9.81A2.06,2.06,0,0,0,739.34,53.19ZM696.81,97c0,7.13-2.43,8.39-6.43,9.61h0a15.62,15.62,0,0,0-3.61,1.44l-.77.47-.78-.47a15.28,15.28,0,0,0-3.6-1.44c-4-1.23-6.44-2.49-6.44-9.62V90.52h15a2,2,0,0,0,0-4h-15V80.66h21.63Z"/><path class="cls-8" d="M665.77,87.52a2,2,0,0,0-1.65-.85,2,2,0,0,0-1.17.38h0L653.22,94a2,2,0,0,0-.47,2.81,2.08,2.08,0,0,0,2.82.48l9.73-6.92A2,2,0,0,0,665.77,87.52Z"/><path class="cls-8" d="M660.92,83a2,2,0,0,0,0-1.55,2,2,0,0,0-1.12-1.06,2.06,2.06,0,0,0-.73-.14,2,2,0,0,0-.82.18h0L647.1,85.37A2,2,0,0,0,646,86.49a2,2,0,0,0,0,1.55,2.06,2.06,0,0,0,2.67,1l11.11-4.93A2,2,0,0,0,660.92,83Z"/><path class="cls-8" d="M654.81,76.79a2,2,0,0,0-.64-3.93,2,2,0,0,0-.64.1l-9.61,3.23A2,2,0,0,0,645.21,80Z"/><path class="cls-8" d="M634.09,62.59a2,2,0,0,0,1.2,2.59l13.53,5a2,2,0,0,0,1.39-3.79l-13.53-5a1.86,1.86,0,0,0-.69-.12A2,2,0,0,0,634.09,62.59Z"/><path class="cls-8" d="M664.23,96.11l-3.48,4.21a2,2,0,0,0,.27,2.84,2.07,2.07,0,0,0,2.85-.27l3.47-4.2a2,2,0,1,0-3.11-2.58Z"/><path class="cls-8" d="M706.7,90.34l9.73,6.92a2.08,2.08,0,0,0,2.82-.48,2,2,0,0,0-.48-2.82L709,87a2,2,0,0,0-1.16-.37,2,2,0,0,0-1.18,3.67Z"/><path class="cls-8" d="M712.14,84.13l11.12,4.93a2,2,0,0,0,2.66-1,2,2,0,0,0,0-1.55,2,2,0,0,0-1.06-1.12l-11.12-4.93a2,2,0,0,0-2.66,1,2,2,0,0,0,0,1.55A2,2,0,0,0,712.14,84.13Z"/><path class="cls-8" d="M715.91,74.23a2,2,0,0,0,1.28,2.56l9.6,3.23a2,2,0,1,0,1.29-3.83L718.47,73a2,2,0,0,0-2.56,1.27Z"/><path class="cls-8" d="M720.59,68.94a2,2,0,0,0,2.59,1.2l13.53-5a2,2,0,0,0-1.39-3.79l-13.53,5A2,2,0,0,0,720.59,68.94Z"/><path class="cls-8" d="M707.77,96.11a2,2,0,0,0-3.12,2.58l3.48,4.2a2,2,0,0,0,2.84.28,2,2,0,0,0,.27-2.85Z"/></g></g><g id="moi-2" data-name="moi"><circle class="cls-9" cx="686" cy="430" r="80"/></g></g></svg>