<svg xmlns="http://www.w3.org/2000/svg" viewBox="0 0 768 512"><defs><style>.cls-1{fill:#94dced;}.cls-2{fill:#3d4d63;}.cls-3,.cls-4,.cls-9{fill:#ccccca;}.cls-10,.cls-3,.cls-9{stroke:#000;stroke-miterlimit:10;}.cls-3{stroke-width:5px;}.cls-5{fill:#bcbcbc;}.cls-10,.cls-6{fill:#fff;}.cls-7{fill:#4db7e5;}.cls-8{fill:#ffa912;}.cls-10,.cls-9{stroke-width:10px;}.cls-11{fill:#ffb531;}.cls-12{fill:#c7cbc7;}</style></defs><title>cc-01-activate</title><g id="Equipments"><rect class="cls-1" x="2" y="2" width="764" height="508" rx="100"/><path d="M179.24,125.31q-.59,8-5.93,12.64t-14.1,4.62q-9.57,0-15.05-6.45t-5.49-17.68v-3a29.74,29.74,0,0,1,2.53-12.64,18.81,18.81,0,0,1,7.23-8.39,20.22,20.22,0,0,1,10.92-2.93q8.61,0,13.88,4.62t6.08,13H169.06c-.26-3.21-1.15-5.54-2.69-7s-3.88-2.17-7-2.17q-5.13,0-7.67,3.68t-2.62,11.39v3.76q0,8.07,2.44,11.8t7.71,3.72q4.75,0,7.09-2.17t2.69-6.71Z"/><path d="M225,125.31q-.58,8-5.93,12.64T205,142.57q-9.57,0-15-6.45t-5.49-17.68v-3A29.74,29.74,0,0,1,187,102.75a18.93,18.93,0,0,1,7.23-8.39,20.22,20.22,0,0,1,10.92-2.93q8.61,0,13.88,4.62t6.08,13H214.86q-.37-4.81-2.69-7c-1.54-1.44-3.88-2.17-7-2.17q-5.13,0-7.67,3.68t-2.62,11.39v3.76q0,8.07,2.44,11.8t7.71,3.72c3.17,0,5.53-.72,7.1-2.17s2.45-3.68,2.68-6.71Z"/><circle class="cls-2" cx="177.82" cy="415.4" r="28.23" transform="translate(-274.01 420.72) rotate(-67.5)"/><path class="cls-3" d="M177.81,405.4a10,10,0,1,0,10,10A10,10,0,0,0,177.81,405.4Z"/><circle class="cls-2" cx="363.22" cy="415.4" r="28.23" transform="translate(-159.56 592.01) rotate(-67.5)"/><path class="cls-3" d="M363.22,405.4a10,10,0,1,0,10,10A10,10,0,0,0,363.22,405.4Z"/><path class="cls-4" d="M221.93,402.43v-6.62H206.3a34.47,34.47,0,0,1,3.56,6.62Z"/><path class="cls-5" d="M212.11,411.08a31.33,31.33,0,0,1,0,8.65H328.92a32.12,32.12,0,0,1,0-8.65Z"/><path class="cls-4" d="M152.11,392.29a34.5,34.5,0,0,1,45.64-5.13h24.43v-15H241l-.74-4.08-.53-2.38a3.58,3.58,0,0,0-3-2.19h-84.6Z"/><path class="cls-5" d="M91.6,411.08v8.65h51.92a31.33,31.33,0,0,1,0-8.65Z"/><path class="cls-4" d="M415.11,402.43V380.81h-25a1,1,0,0,1-1-1v-24a1,1,0,0,1,1-1h15l-13-8.64h-62.6a1,1,0,0,1-1-1V307.37H320v95.06h11.19a34.57,34.57,0,0,1,64.1,0Z"/><rect class="cls-4" x="464.55" y="384.73" width="112" height="22.4"/><polygon class="cls-4" points="311.33 402.43 311.33 380.81 251 380.81 254.94 402.43 311.33 402.43"/><path class="cls-6" d="M142.83,402.43V378.51h-30.6a3.58,3.58,0,0,0-3,2.19l-.53,2.38-3.51,19.35Z"/><polygon class="cls-4" points="231.22 402.43 246.53 402.43 242.6 380.81 231.22 380.81 231.22 402.43"/><rect class="cls-6" x="500.4" y="204.55" width="22.4" height="12.4" transform="translate(114.21 595.76) rotate(-66.48)"/><rect class="cls-4" x="410.91" y="302.25" width="112" height="22.4" transform="translate(-6.82 616.5) rotate(-66.48)"/><rect class="cls-6" x="486.99" y="235.36" width="22.4" height="12.4" transform="translate(77.9 601.98) rotate(-66.48)"/><rect class="cls-6" x="507.07" y="163.47" width="44.8" height="12.4" transform="translate(162.62 587.46) rotate(-66.48)"/><path class="cls-7" d="M337.27,331.45v6.12h51l-6.24-14.35-.53-2.38a3.58,3.58,0,0,0-3-2.19H337.27Z"/><path class="cls-6" d="M453.35,380.83l-28.66-12.47-.93-.4v34.47h7.68a1,1,0,0,1,1,1v16.33h21.12a5.43,5.43,0,0,1-.18-1.4v-37.5Z"/><path class="cls-5" d="M413.31,419.73h10.45v-8.65H397.52a32.12,32.12,0,0,1,0,8.65Z"/><rect class="cls-8" x="397.81" y="363.51" width="17.3" height="8.65"/><rect x="328.62" y="354.86" width="17.3" height="8.65"/><rect x="354.57" y="354.86" width="8.65" height="8.65"/><path d="M465.19,373.53,514,261.41l-4.59-2,.28-.64,48.88-112.32-31.9-13.89L477.77,244.89l-.28.64-4.59-2L424,355.86a5.61,5.61,0,0,0-2.48-.47L397.42,339.3l-8.33-25.75a4.31,4.31,0,0,0-4.25-3.55H354.57l-25.95-11.86H311.33v74h-61.9l-2.5-13.75a4.33,4.33,0,0,0-4.25-3.55H143.07v15H106.26a4.35,4.35,0,0,0-4.25,3.55l-5.28,29H83.92a1,1,0,0,0-1,1v24a1,1,0,0,0,1,1h61.85a34.56,34.56,0,0,0,64.09,0H331.17a34.57,34.57,0,0,0,64.1,0h18v.13h51.24v-8.78h-.18a5.9,5.9,0,0,0,.18-1.4H587v-44.8Zm67.54-226.87,11.36,5-4.46,10.27-11.37-4.95Zm-8.94,20.54,11.37,5-8.94,20.54-11.37-4.95ZM510.38,198l11.37,5-8.94,20.54-11.37-4.95ZM497,228.82l11.37,5L499.4,254.3,488,249.36ZM454.83,369.26l-20.54-8.93L479,257.63l20.54,8.94ZM337.27,331.45v-12.8h41.21a3.58,3.58,0,0,1,3,2.19l.53,2.38,6.24,14.35h-51Zm-25.94,49.36v21.62H254.94L251,380.81Zm-64.8,21.62H231.22V380.81H242.6Zm-94.42-38.92h84.6a3.58,3.58,0,0,1,3,2.19l.53,2.38.74,4.08H222.18v15H197.75a34.5,34.5,0,0,0-45.64,5.13h0Zm50.35,27.65-.2-.2Zm-2.21-2.05-.19-.17Zm-49.86,5.26-.34.45Zm-1.34,1.88c-.24.35-.47.71-.69,1.07C148.58,397,148.81,396.6,149.05,396.25Zm-1.15,1.84c-.34.58-.66,1.16-1,1.76C147.24,399.25,147.56,398.66,147.9,398.09Zm-1.19,2.23c-.33.69-.65,1.38-.94,2.1C146.06,401.7,146.38,401,146.71,400.32Zm-38.06-17.24.53-2.38a3.58,3.58,0,0,1,3-2.19h30.6v23.92H105.14Zm34.87,36.65H91.6v-8.65h51.92A31.33,31.33,0,0,0,143.52,419.73Zm34.3,21.62c-18.28,0-32.15-18.9-23.12-38.23a22.59,22.59,0,0,1,10.84-10.83c19.32-9,38.22,4.84,38.22,23.11A26,26,0,0,1,177.82,441.35Zm28.48-45.54h15.63v6.62H209.86A34.47,34.47,0,0,0,206.3,395.81Zm122.62,23.92H212.11a31.33,31.33,0,0,0,0-8.65H328.92A32.12,32.12,0,0,0,328.92,419.73Zm34.3,21.62c-18.28,0-32.14-18.9-23.11-38.23a22.52,22.52,0,0,1,10.83-10.83c19.32-9,38.22,4.84,38.22,23.11A26,26,0,0,1,363.22,441.35Zm0-60.54a34.56,34.56,0,0,0-32.05,21.62H320V307.37h8.64v37.88a1,1,0,0,0,1,1h62.6l13,8.64h-15a1,1,0,0,0-1,1v24a1,1,0,0,0,1,1h25v21.62H395.27A34.56,34.56,0,0,0,363.22,380.81Zm51.89-17.3v8.65h-17.3v-8.65Zm-17.59,56.22a32.12,32.12,0,0,0,0-8.65h26.24v8.65H397.52Zm34.89,0V403.4a1,1,0,0,0-1-1h-7.68V368l.93.4,28.66,12.47v37.5a5.43,5.43,0,0,0,.18,1.4Zm32.14-12.6v-22.4h112v22.4Z"/><path class="cls-9" d="M190.76,294.39a35.73,35.73,0,1,0,35.73,35.72A35.73,35.73,0,0,0,190.76,294.39Z"/><path class="cls-10" d="M190.76,317.56a12.55,12.55,0,1,0,12.55,12.55A12.55,12.55,0,0,0,190.76,317.56Z"/><rect class="cls-11" x="620.92" y="131.95" width="9.35" height="17.42"/><path class="cls-11" d="M574.14,141.78V132c.24-.24,9.13.25,9.36,0v17.42h-9.36Z"/><rect class="cls-11" x="574.14" y="113.24" width="56.13" height="9.35"/><rect class="cls-11" x="574.14" y="158.73" width="56.13" height="9.35"/><rect class="cls-11" x="592.85" y="131.95" width="18.71" height="17.42"/><path d="M564.79,151v17.07H558a2.58,2.58,0,0,0-2.58,2.58v4.2a2.58,2.58,0,0,0,2.58,2.57H646.4a2.57,2.57,0,0,0,2.58-2.57v-4.2a2.57,2.57,0,0,0-2.58-2.58h-6.77V113.24h6.77a2.57,2.57,0,0,0,2.58-2.58v-4.19a2.57,2.57,0,0,0-2.58-2.58H558a2.58,2.58,0,0,0-2.58,2.58v4.19a2.58,2.58,0,0,0,2.58,2.58h6.78V151Zm65.48,17.07H574.14v-9.35h56.13Zm-56.13-18.71V132c.24-.24,9.13.25,9.36,0v17.42Zm18.71,0V132h18.71v17.42Zm37.42,0h-9.35V132h9.35Zm-56.13-36.13h56.13v9.36H574.14Z"/><rect class="cls-11" x="632.56" y="387.22" width="9.35" height="17.42"/><path class="cls-11" d="M585.78,397.05v-9.83c.24-.24,9.13.25,9.36,0v17.43h-9.36Z"/><rect class="cls-11" x="585.78" y="368.51" width="56.13" height="9.35"/><rect class="cls-11" x="585.78" y="413.99" width="56.13" height="9.35"/><rect class="cls-11" x="604.49" y="387.22" width="18.71" height="17.42"/><path d="M576.43,406.28v17.07h-6.78a2.58,2.58,0,0,0-2.58,2.57v4.2a2.58,2.58,0,0,0,2.58,2.58H658a2.57,2.57,0,0,0,2.58-2.58v-4.2a2.57,2.57,0,0,0-2.58-2.57h-6.77V368.51H658a2.58,2.58,0,0,0,2.58-2.58v-4.2a2.58,2.58,0,0,0-2.58-2.58H569.65a2.59,2.59,0,0,0-2.58,2.58v4.2a2.59,2.59,0,0,0,2.58,2.58h6.78v37.77Zm65.48,17.07H585.78V414h56.13Zm-56.13-18.71V387.22c.24-.24,9.13.25,9.36,0v17.43Zm18.71,0V387.22H623.2v17.42Zm37.42,0h-9.35V387.22h9.35Zm-56.13-36.13h56.13v9.35H585.78Z"/><path d="M668.75,106.68V71h-9.66v35.69h-4.82v33.79h5.07a10.81,10.81,0,0,1-10.87,10.86h-8.69V161h8.69a20.29,20.29,0,0,0,20.28-20.52h4.83V106.68Z"/><path class="cls-12" d="M667.54,133.23V113.92H660.3v19.31Z"/><path d="M597.38,78l-5.7,3.75h-3V79.51a7.13,7.13,0,0,0-7.13-7.12h-3.75a7.12,7.12,0,0,0-7.12,7.12v2.25H565V97.89h5.63v7.5h6.75v-7.5h4.5v7.5h6.75v-7.5h5.18l5.59-3.75h32.35V78Z"/><polygon class="cls-12" points="570.27 92.64 570.27 87.01 572.15 87.01 587.15 87.01 593.25 87.01 598.96 83.26 626.52 83.26 626.52 88.89 597.83 88.89 592.23 92.64 587.15 92.64 572.15 92.64 570.27 92.64"/><path class="cls-12" d="M575.9,79.51a1.87,1.87,0,0,1,1.87-1.87h3.75a1.88,1.88,0,0,1,1.88,1.87v3.75h-7.5Z"/><path d="M680.22,361V325.26h-9.65V361h-4.83v33.8h5.07A10.82,10.82,0,0,1,660,405.61h-8.69v9.65H660a20.29,20.29,0,0,0,20.27-20.51h4.83V361Z"/><path class="cls-12" d="M679,387.5V368.19h-7.24V387.5Z"/><path d="M608.86,332.29l-5.7,3.75h-3v-2.25a7.14,7.14,0,0,0-7.13-7.13h-3.75a7.13,7.13,0,0,0-7.12,7.13V336h-5.63v16.12h5.63v7.5h6.75v-7.5h4.5v7.5h6.75v-7.5h5.18l5.6-3.75h32.34V332.29Z"/><polygon class="cls-12" points="581.74 346.91 581.74 341.29 583.62 341.29 598.62 341.29 604.73 341.29 610.43 337.54 637.99 337.54 637.99 343.16 609.31 343.16 603.71 346.91 598.62 346.91 583.62 346.91 581.74 346.91"/><path class="cls-12" d="M587.37,333.79a1.88,1.88,0,0,1,1.87-1.88H593a1.88,1.88,0,0,1,1.88,1.88v3.75h-7.5Z"/><polygon points="526.58 122.6 526.58 132.72 526.65 132.56 558.55 146.45 553.29 158.54 570.27 158.54 570.27 122.6 526.58 122.6"/><circle class="cls-11" cx="544.1" cy="136.87" r="5.7"/></g></svg>