<svg id="Devices" xmlns="http://www.w3.org/2000/svg" viewBox="0 0 512 512"><defs><style>.cls-1{fill:#2eaacc;}.cls-2{fill:#edeff2;}.cls-3{fill:#bcbfc4;}.cls-4{fill:#9e9e9e;}.cls-5{fill:#dce1ea;}.cls-6{fill:#bec3d1;}.cls-7{fill:#4ad3cc;}.cls-8{fill:#9196a9;}</style></defs><title>dv3-ipcam-mobile-activate</title><g id="ipcam-trolleycam-active"><g id="base"><circle class="cls-1" cx="256" cy="256" r="256"/></g><g id="base_sq_" data-name="base(sq)"><rect class="cls-1" width="512" height="512" rx="120"/></g><g id="ipcam"><g id="color"><path class="cls-2" d="M236.47,200.12a5.86,5.86,0,1,0,0,11.72h39.06a5.86,5.86,0,1,0,0-11.72Z"/><circle class="cls-2" cx="318.5" cy="370.82" r="5.86"/><circle class="cls-2" cx="193.5" cy="370.82" r="5.86"/><rect class="cls-3" x="168.11" y="341.53" width="175.78" height="11.72"/><path class="cls-3" d="M289.2,270.43v59.38h11.72V272.38a2,2,0,0,0-1.95-1.95Z"/><path class="cls-3" d="M211.08,272.38v57.43H222.8V270.43H213A2,2,0,0,0,211.08,272.38Z"/><path class="cls-2" d="M267.72,247H244.28a2,2,0,0,0-1.95,2v9.76h27.34V249A2,2,0,0,0,267.72,247Z"/><rect class="cls-4" x="234.52" y="293.87" width="42.97" height="35.94"/><rect class="cls-2" x="234.52" y="270.43" width="42.97" height="11.72"/></g><path d="M349.75,329.81h-5.86V256.76a56.71,56.71,0,0,0-51.72-56.42,17.59,17.59,0,0,0-16.64-11.94H236.47a17.61,17.61,0,0,0-16.65,11.94,56.71,56.71,0,0,0-51.71,56.42v73.05h-5.86a5.86,5.86,0,0,0-5.86,5.86V359.1a5.86,5.86,0,0,0,5.86,5.86h14.68a17.58,17.58,0,1,0,33.14,0h91.86a17.58,17.58,0,1,0,33.14,0h14.68a5.86,5.86,0,0,0,5.86-5.86V335.67a5.86,5.86,0,0,0-5.86-5.86ZM236.47,200.12h39.06a5.86,5.86,0,1,1,0,11.72H236.47a5.86,5.86,0,1,1,0-11.72Zm-56.64,56.64A45,45,0,0,1,220,212.09a17.6,17.6,0,0,0,16.48,11.47h39.06A17.6,17.6,0,0,0,292,212.09a45,45,0,0,1,40.16,44.67v73.05H312.64V272.38A13.67,13.67,0,0,0,299,258.71H281.39V249a13.69,13.69,0,0,0-13.67-13.68H244.28A13.69,13.69,0,0,0,230.61,249v9.76H213a13.67,13.67,0,0,0-13.67,13.67v57.43H179.83Zm121.09,15.62v57.43H289.2V270.43H299A2,2,0,0,1,300.92,272.38Zm-66.4,9.77V270.43h43v11.72Zm43,11.72v35.94h-43V293.87Zm-35.15-35.16V249a2,2,0,0,1,1.95-2h23.44a2,2,0,0,1,1.95,2v9.76ZM222.8,270.43v59.38H211.08V272.38a2,2,0,0,1,1.95-1.95ZM193.5,376.68a5.86,5.86,0,1,1,5.86-5.86A5.87,5.87,0,0,1,193.5,376.68Zm125,0a5.86,5.86,0,1,1,5.86-5.86A5.87,5.87,0,0,1,318.5,376.68Zm25.39-23.44H168.11V341.52H343.89Z"/><path class="cls-5" d="M348.4,220.4A92.4,92.4,0,1,1,256,128,92.4,92.4,0,0,1,348.4,220.4Z"/><path class="cls-6" d="M316.72,150.88A92.31,92.31,0,0,1,186.48,281.12,92.32,92.32,0,1,0,316.72,150.88Z"/><path class="cls-7" d="M330.8,220.4A35.12,35.12,0,0,0,344.2,248a92.79,92.79,0,0,0,0-55.2A35.12,35.12,0,0,0,330.8,220.4Z"/><circle class="cls-7" cx="256" cy="220.4" r="57.2"/><path class="cls-7" d="M167.8,248a35.12,35.12,0,0,0,0-55.2A92.79,92.79,0,0,0,167.8,248Z"/><path class="cls-7" d="M348,212.19c-.14-1.61-.32-3.21-.55-4.79-.07-.55-.14-1.1-.23-1.64q-.47-3-1.13-5.89c-.13-.6-.3-1.18-.44-1.76-.33-1.36-.7-2.7-1.1-4-.12-.42-.25-.83-.38-1.24a36,36,0,0,0-5.61,5.56,89.19,89.19,0,0,1-2.88,39.76A35.55,35.55,0,0,0,344.2,248c.09-.3.16-.61.25-.91.7-2.32,1.3-4.66,1.81-7,.19-.88.35-1.76.51-2.64.36-2,.66-3.93.88-5.93.11-.87.22-1.71.3-2.57.26-2.81.44-5.64.44-8.51,0-2.15-.1-4.27-.25-6.38C348.11,213.4,348.06,212.8,348,212.19Z"/><path class="cls-5" d="M282.4,220.4A26.4,26.4,0,1,1,256,194,26.4,26.4,0,0,1,282.4,220.4Z"/><path class="cls-6" d="M272.32,199.68a26.37,26.37,0,0,1-37,37,26.38,26.38,0,1,0,37-37Z"/><path class="cls-8" d="M264.8,220.4a8.8,8.8,0,1,1-8.8-8.8A8.8,8.8,0,0,1,264.8,220.4Z"/><path d="M317.6,220.4A61.6,61.6,0,1,0,256,282,61.6,61.6,0,0,0,317.6,220.4Zm-114.4,0A52.8,52.8,0,1,1,256,273.2,52.8,52.8,0,0,1,203.2,220.4Z"/><path d="M286.8,220.4A30.8,30.8,0,1,0,256,251.2,30.8,30.8,0,0,0,286.8,220.4Zm-52.8,0a22,22,0,1,1,22,22A22,22,0,0,1,234,220.4Z"/><path d="M219.52,223.52a4.44,4.44,0,0,0,0-6.24,4.39,4.39,0,0,0-4.79-.93,4.61,4.61,0,0,0-1.45.93,4.41,4.41,0,0,0,6.24,6.24Z"/><path d="M222.47,234a4.39,4.39,0,0,0-3.34,0,5.13,5.13,0,0,0-1.45.93,4.44,4.44,0,0,0,0,6.24,4.92,4.92,0,0,0,1.45.93,4.13,4.13,0,0,0,3.34,0,4.35,4.35,0,0,0,1.45-7.17A4.61,4.61,0,0,0,222.47,234Z"/><path d="M220.8,207.2a4.54,4.54,0,0,0,1.67-.35,4.8,4.8,0,0,0,1.45-.93,4.44,4.44,0,0,0,0-6.24,5,5,0,0,0-1.45-.93,4.46,4.46,0,0,0-4.79.93,5.13,5.13,0,0,0-.93,1.45,4.58,4.58,0,0,0-.35,1.67,4.52,4.52,0,0,0,1.28,3.12A4.61,4.61,0,0,0,220.8,207.2Z"/><path d="M293.93,216.35a5.13,5.13,0,0,0-1.45.93,4.44,4.44,0,0,0,0,6.24,4.92,4.92,0,0,0,1.45.93,4.35,4.35,0,0,0,4.79-.93,6.74,6.74,0,0,0,.53-.7,2.36,2.36,0,0,0,.4-.75,2.72,2.72,0,0,0,.26-.79,6.4,6.4,0,0,0,.09-.88,4.61,4.61,0,0,0-1.28-3.12A4.39,4.39,0,0,0,293.93,216.35Z"/><path d="M288.08,234.88a4.4,4.4,0,1,0,6.24,0A4.61,4.61,0,0,0,288.08,234.88Z"/><path d="M291.2,207.2a4.61,4.61,0,0,0,3.12-1.28,6.74,6.74,0,0,0,.53-.7,2.36,2.36,0,0,0,.4-.75,2.72,2.72,0,0,0,.26-.79,6.4,6.4,0,0,0,.09-.88,4.4,4.4,0,1,0-4.4,4.4Z"/><path d="M269.2,220.4A13.2,13.2,0,1,0,256,233.6,13.2,13.2,0,0,0,269.2,220.4Zm-17.6,0a4.4,4.4,0,1,1,4.4,4.4A4.4,4.4,0,0,1,251.6,220.4Z"/><path d="M252.88,148.72A4.61,4.61,0,0,0,256,150a4.54,4.54,0,0,0,1.67-.35,4.8,4.8,0,0,0,1.45-.93,5,5,0,0,0,.93-1.45,4.35,4.35,0,0,0-.93-4.79,5,5,0,0,0-1.45-.93,4.46,4.46,0,0,0-4.79.93,4.61,4.61,0,0,0-1.28,3.12,4.54,4.54,0,0,0,.35,1.67A5,5,0,0,0,252.88,148.72Z"/><path d="M342.11,202.29c.07.34.13.68.2,1,.51,2.6.93,5.22,1.2,7.89,0,.24,0,.47.06.7.27,2.8.44,5.63.44,8.5a85,85,0,0,1-.44,8.5c0,.23,0,.46-.06.7-.27,2.67-.69,5.28-1.2,7.89-.07.34-.13.68-.2,1s-.18.65-.26,1a30.72,30.72,0,0,1,0-38.18C341.93,201.64,342,202,342.11,202.29ZM169.89,238.51c-.07-.34-.13-.68-.19-1-.52-2.6-.93-5.22-1.21-7.89,0-.24,0-.47-.06-.7-.27-2.78-.43-5.63-.43-8.5a85,85,0,0,1,.44-8.5,5.67,5.67,0,0,1,.06-.7c.28-2.67.69-5.28,1.2-7.89.07-.34.13-.68.2-1s.18-.65.26-1a30.72,30.72,0,0,1,0,38.18C170.07,239.16,170,238.84,169.89,238.51ZM173,249.29a39.36,39.36,0,0,0,0-57.78,87.87,87.87,0,0,1,166.06,0,39.36,39.36,0,0,0,0,57.78,87.87,87.87,0,0,1-166.06,0ZM273.6,315.57a97.12,97.12,0,0,0,74.77-66.2l0-.05c.05-.14.07-.27.11-.41.59-1.9,1.1-3.83,1.57-5.78.14-.58.28-1.18.41-1.75.44-2.07.88-4.15,1.2-6.26,0-.09,0-.19,0-.29.31-2.05.53-4.12.71-6.21.05-.55.09-1.1.13-1.65.14-2.17.24-4.37.24-6.57s-.1-4.4-.24-6.55c0-.55-.08-1.1-.13-1.65-.18-2.09-.4-4.16-.71-6.21a2.58,2.58,0,0,0,0-.29c-.33-2.11-.74-4.19-1.2-6.26-.13-.59-.27-1.18-.41-1.76-.47-1.94-1-3.87-1.57-5.77,0-.14-.06-.27-.11-.41l0-.05a96.8,96.8,0,0,0-184.74,0l0,0c0,.14-.07.28-.11.41q-.87,2.85-1.57,5.78c-.14.59-.28,1.18-.41,1.76-.44,2.06-.88,4.14-1.2,6.25a2.85,2.85,0,0,1,0,.29c-.31,2.05-.53,4.12-.71,6.21,0,.55-.09,1.1-.12,1.66-.15,2.16-.25,4.36-.25,6.56s.1,4.4.25,6.55c0,.55.08,1.1.12,1.65.18,2.09.4,4.16.71,6.22a2.66,2.66,0,0,0,0,.28c.33,2.11.74,4.19,1.2,6.26.13.59.27,1.19.41,1.76.47,1.94,1,3.87,1.57,5.77l.11.41,0,0a97.11,97.11,0,0,0,74.77,66.22c2.54.51,8.8,1.21,8.8,1.21,2.9.27,5.83.42,8.8.42s5.9-.15,8.8-.42A77.44,77.44,0,0,0,273.6,315.57Z"/></g></g></svg>