<svg id="Devices" xmlns="http://www.w3.org/2000/svg" xmlns:xlink="http://www.w3.org/1999/xlink" viewBox="0 0 512 512"><defs><style>.cls-1{opacity:0.5;}.cls-2{fill:none;}.cls-3{fill:#eee;}.cls-4{fill:#ccc;}.cls-5{fill:#fff;}.cls-6,.cls-7{opacity:0.1;}.cls-6{fill:url(#linear-gradient);}.cls-8{fill:url(#linear-gradient-2);}.cls-9{opacity:0.3;}</style><linearGradient id="linear-gradient" x1="121" y1="256" x2="391" y2="256" gradientUnits="userSpaceOnUse"><stop offset="0" stop-color="#fff"/><stop offset="0.15" stop-color="#b6b5b6"/><stop offset="0.85" stop-color="#9c9a9b"/><stop offset="1"/></linearGradient><linearGradient id="linear-gradient-2" x1="221" y1="255.27" x2="291" y2="255.27" gradientUnits="userSpaceOnUse"><stop offset="0" stop-color="#598eca"/><stop offset="1" stop-color="#3468b1"/></linearGradient></defs><title>dv1-b5_scanner-default</title><g id="scanner1-active"><g id="base" class="cls-1"><circle class="cls-2" cx="256" cy="256" r="256"/></g><g id="base_sq_" data-name="base(sq)"><rect class="cls-3" x="3" y="3" width="506" height="506" rx="117"/><path class="cls-4" d="M392,6A114,114,0,0,1,506,120V392A114,114,0,0,1,392,506H120A114,114,0,0,1,6,392V120A114,114,0,0,1,120,6H392m0-6H120A120,120,0,0,0,0,120V392A120,120,0,0,0,120,512H392A120,120,0,0,0,512,392V120A120,120,0,0,0,392,0Z"/></g><g id="hub-body"><path id="base-2" data-name="base" class="cls-5" d="M391,182.39V329.61A61.58,61.58,0,0,1,329.61,391H182.39A61.58,61.58,0,0,1,121,329.61V182.39A61.58,61.58,0,0,1,182.39,121H329.61A61.58,61.58,0,0,1,391,182.39Z"/><path id="effect" class="cls-6" d="M329.61,121H182.39A61.58,61.58,0,0,0,121,182.39V329.61A61.58,61.58,0,0,0,182.39,391H329.61A61.58,61.58,0,0,0,391,329.61V182.39A61.58,61.58,0,0,0,329.61,121ZM386,326.88A59.29,59.29,0,0,1,326.88,386H185.12A59.29,59.29,0,0,1,126,326.88V185.12A59.29,59.29,0,0,1,185.12,126H326.88A59.29,59.29,0,0,1,386,185.12Z"/><g id="line" class="cls-7"><path d="M329.61,123A59.45,59.45,0,0,1,389,182.39V329.61A59.45,59.45,0,0,1,329.61,389H182.39A59.45,59.45,0,0,1,123,329.61V182.39A59.45,59.45,0,0,1,182.39,123H329.61m0-2H182.39A61.58,61.58,0,0,0,121,182.39V329.61A61.58,61.58,0,0,0,182.39,391H329.61A61.58,61.58,0,0,0,391,329.61V182.39A61.58,61.58,0,0,0,329.61,121Z"/></g><path class="cls-8" d="M256,227.26a28,28,0,1,1-28,28,28,28,0,0,1,28-28m0-7a35,35,0,1,0,35,35,35,35,0,0,0-35-35Z"/><path class="cls-9" d="M259.41,181.69V196.4a2.58,2.58,0,0,1-2.65,2.64h-1.52a2.58,2.58,0,0,1-2.65-2.64V181.69a2.59,2.59,0,0,1,2.65-2.65h1.9A3.26,3.26,0,0,1,259.41,181.69Z"/></g></g></svg>