<svg xmlns="http://www.w3.org/2000/svg" viewBox="0 0 640 512"><defs><style>.cls-1{fill:#ad7cdd;}.cls-2{fill:#ffce33;}.cls-3{fill:#ffb531;}</style></defs><title>gtp-01-activate</title><g id="Equipments"><g id="base"><ellipse class="cls-1" cx="320" cy="256" rx="318" ry="254"/></g><path d="M295.75,437.45a17.87,17.87,0,0,1-7.83,5.15,33,33,0,0,1-11.21,1.82,22.2,22.2,0,0,1-11.33-2.82,18.79,18.79,0,0,1-7.52-8.18,29,29,0,0,1-2.72-12.61v-3.39a30.48,30.48,0,0,1,2.52-12.9,18.57,18.57,0,0,1,7.24-8.34A20.86,20.86,0,0,1,276,393.29q8.85,0,13.85,4.22t5.91,12.29h-10c-.46-2.85-1.47-4.93-3-6.26a9.65,9.65,0,0,0-6.44-2,9.08,9.08,0,0,0-8,3.93q-2.74,3.94-2.77,11.69v3.18q0,7.83,3,11.83t8.72,4q5.78,0,8.24-2.46v-8.58h-9.34v-7.56h19.59Z"/><path d="M341.52,402.28H326.27v41.46H316V402.28H301V394h40.54Z"/><path d="M357.62,426.21v17.53H347.36V394h19.42a22.45,22.45,0,0,1,9.86,2.06,15.14,15.14,0,0,1,6.54,5.82,16.24,16.24,0,0,1,2.29,8.6q0,7.32-5,11.53t-13.86,4.23Zm0-8.31h9.16A9,9,0,0,0,373,416a7,7,0,0,0,2.14-5.47,8.18,8.18,0,0,0-2.16-5.91,8,8,0,0,0-5.95-2.33h-9.39Z"/><g id="colors"><polygon class="cls-2" points="371.27 240.84 393.28 262.85 418.68 262.85 440.69 240.84 440.69 140.02 371.27 140.02 371.27 240.84"/><polygon class="cls-3" points="285.82 240.84 307.83 262.85 333.24 262.85 355.25 240.84 355.25 140.02 285.82 140.02 285.82 240.84"/><rect class="cls-3" x="199.31" y="140.02" width="70.49" height="80.1"/></g><path d="M425.32,278.87l31.39-31.39V124H183.29V236.15h35.24V312H191.3a8,8,0,0,0-8,8h0a8,8,0,0,0,8,8H448.7a8,8,0,0,0,8-8h0a8,8,0,0,0-8-8H414V278.87ZM371.27,140h69.42V240.84l-22,22h-25.4l-22-22Zm-85.45,0h69.43V240.84l-22,22H307.83l-22-22Zm-86.51,80.11V140H269.8v80.11ZM234.56,312V236.15H269.8v11.33l31.39,31.39h11.33V312Zm94,0V278.87h11.33l23.39-23.38,23.38,23.38H398V312Z"/><rect x="215.33" y="156.04" width="38.45" height="16.02"/><rect x="215.33" y="188.08" width="38.45" height="16.02"/></g></svg>