<svg xmlns="http://www.w3.org/2000/svg" viewBox="0 0 512 512"><defs><style>.cls-1{fill:#efec86;}.cls-2{fill:#ffb531;}.cls-3{fill:#f7a116;}.cls-4{fill:#ffa912;}.cls-5{fill:#2e3e51;}.cls-6{fill:#3d4d63;}.cls-7{fill:#22303d;}.cls-8{fill:#e8770c;}.cls-9{fill:#4db7e5;}.cls-10{fill:#419bc2;}.cls-11{fill:#d6d6d4;}.cls-12{fill:#4c5d72;}.cls-13{fill:#00a650;}.cls-14{fill:#fff;stroke:#fff;stroke-miterlimit:10;stroke-width:1.5px;}</style></defs><title>ex-c-01-moi-on-on</title><g id="Equipments"><g id="base"><circle class="cls-1" cx="256" cy="256" r="254"/></g><g id="icon-excavator_crawler_" data-name="icon-excavator(crawler)"><path class="cls-2" d="M354,219.31h18.66l17.69-110.56a78.67,78.67,0,0,0,1-12.26,33.31,33.31,0,0,0-3.51-14.83l-7.19-14.39A12,12,0,0,0,358,71.91Z"/><path class="cls-2" d="M354,266V214.65a9.33,9.33,0,0,1,18.66,0l4.67,3.49a35,35,0,0,1-3,58L368,280H344.65Z"/><path class="cls-3" d="M354,214.65a9.33,9.33,0,1,0,9.33-9.33A9.33,9.33,0,0,0,354,214.65Z"/><path class="cls-4" d="M247.4,132.08,349.52,87.4a13.17,13.17,0,0,1,11.56,23.65l-85.54,46.34A37.34,37.34,0,0,0,256,190.22V266H186l24.5-91A65.32,65.32,0,0,1,247.4,132.08Z"/><path class="cls-3" d="M211.26,172.65h49.21A37.18,37.18,0,0,0,256,190.22V266H186l24.5-91C210.73,174.16,211,173.42,211.26,172.65Z"/><path class="cls-5" d="M312,284.64H144a23.34,23.34,0,0,0,0,46.67H312a23.34,23.34,0,0,0,0-46.67Z"/><path class="cls-6" d="M288.66,308A23.33,23.33,0,1,0,312,284.64,23.33,23.33,0,0,0,288.66,308Z"/><path class="cls-7" d="M302.66,308a9.33,9.33,0,1,0,9.33-9.34A9.33,9.33,0,0,0,302.66,308Z"/><path class="cls-6" d="M120.67,308A23.33,23.33,0,1,0,144,284.64,23.33,23.33,0,0,0,120.67,308Z"/><path class="cls-7" d="M134.67,308a9.33,9.33,0,1,0,9.33-9.34A9.33,9.33,0,0,0,134.67,308Z"/><path class="cls-6" d="M218.66,303.31h-9.33v9.33h9.33Z"/><path class="cls-6" d="M246.66,303.31h-9.33v9.33h9.33Z"/><path class="cls-6" d="M190.66,303.31h-9.33v9.33h9.33Z"/><path class="cls-6" d="M274.66,303.31h-9.34v9.33h9.34Z"/><path class="cls-7" d="M218.66,312.64h-9.33V322h9.33Z"/><path class="cls-7" d="M246.66,312.64h-9.33V322h9.33Z"/><path class="cls-7" d="M190.66,312.64h-9.33V322h9.33Z"/><path class="cls-7" d="M274.66,312.64h-9.34V322h9.34Z"/><path class="cls-4" d="M274.66,266H181.33v18.66h93.33Z"/><path class="cls-2" d="M162.66,214.65H307.32V266H148.66V228.65Z"/><path class="cls-8" d="M176.66,228.65h-9.33v14h9.33Z"/><path class="cls-8" d="M195.33,228.65H186v14h9.33Z"/><path class="cls-9" d="M232.66,247.31h74.66V210l-18.66-28h-56Z"/><path class="cls-10" d="M274.66,247.31v-14l-28-28h-14v42Z"/><path class="cls-11" d="M172,196h32.66a9.33,9.33,0,0,1,9.33,9.34v9.33H162.66v-9.33A9.34,9.34,0,0,1,172,196Z"/><path class="cls-12" d="M116,308a28,28,0,0,1,28-28H312a28,28,0,1,1,0,56H144A28,28,0,0,1,116,308Zm28-18.67a18.67,18.67,0,1,0,0,37.33H312a18.67,18.67,0,0,0,0-37.33Z"/><path class="cls-3" d="M274.66,266H181.33v9.33h93.33Z"/><path d="M302.66,308a9.33,9.33,0,1,0,9.33-9.34A9.33,9.33,0,0,0,302.66,308Z"/><path d="M116,308a28,28,0,0,0,28,28H312a28,28,0,1,0,0-56H279.32v-9.33h28A4.67,4.67,0,0,0,312,266V210a4.7,4.7,0,0,0-.79-2.59l-18.66-28a4.68,4.68,0,0,0-3.88-2.07h-25.3a32.61,32.61,0,0,1,14.4-15.83L352,121.28l-2.49,91.39a13.13,13.13,0,0,0-.18,2v49.93l-8.55,12.81a4.66,4.66,0,0,0,3.88,7.25H368a4.56,4.56,0,0,0,2.38-.65l6.35-3.78a39.68,39.68,0,0,0,3.4-65.79l-1.76-1.31,16.58-103.65a79.3,79.3,0,0,0,1-13,37.67,37.67,0,0,0-4-16.91L384.78,65.2a16.61,16.61,0,0,0-31.44,6.44l-.29,10.07a18.24,18.24,0,0,0-5.39,1.4L245.53,127.83A69.69,69.69,0,0,0,206,173.72l-4.72,17.6H172a14,14,0,0,0-14,14v7.4l-12.63,12.63a4.64,4.64,0,0,0-1.37,3.3V266a4.67,4.67,0,0,0,4.66,4.67h28V280H144A28,28,0,0,0,116,308Zm93.33-98h-42v-4.66a4.67,4.67,0,0,1,4.67-4.67h32.66a4.67,4.67,0,0,1,4.67,4.67Zm161.27-7.27c-.38-.23-.78-.41-1.17-.6s-.62-.31-.93-.44a13.87,13.87,0,0,0-1.66-.52c-.28-.07-.55-.17-.85-.23a13.29,13.29,0,0,0-2.67-.27,13,13,0,0,0-2.64.27,10,10,0,0,0-1,.28,4.42,4.42,0,0,0-.52.14l2.33-85.19,1.87-1a17.82,17.82,0,0,0-1-31.83L362.66,72a7.21,7.21,0,0,1,2.26-4.7,7.45,7.45,0,0,1,11.54,2l7.18,14.35a28.53,28.53,0,0,1,3,12.76,71.08,71.08,0,0,1-.93,11.47ZM359,213.12a4.79,4.79,0,0,1,.81-1.4,5.08,5.08,0,0,1,.5-.54,4.52,4.52,0,0,1,.82-.55,3.91,3.91,0,0,1,.57-.31,4.48,4.48,0,0,1,1.66-.34,4.67,4.67,0,1,1-4.56,5.23l0-1.3a4.22,4.22,0,0,1,.16-.77Zm-5.59,62.19,4.5-6.74a4.69,4.69,0,0,0,.78-2.59V227.79a13.61,13.61,0,0,0,15.18-4,4.56,4.56,0,0,0,1.82-.89,30.3,30.3,0,0,1-3.73,49.33l-5.22,3.11Zm-100-98H232.66A4.67,4.67,0,0,0,228,182v28h-9.33v-4.66a14,14,0,0,0-8.07-12.65L215,176.15a60.42,60.42,0,0,1,34.28-39.77L351.4,91.67a8.51,8.51,0,0,1,7.47,15.27l-85.55,46.35A41.87,41.87,0,0,0,253.4,177.32Zm49.26,65.33H279.32v-9.34A4.67,4.67,0,0,0,278,230l-28-28a4.65,4.65,0,0,0-3.3-1.37h-9.33v-14h48.83l16.5,24.73v31.27ZM244.73,210,270,235.25v7.4H237.33V210Zm-91.4,51.33V230.58l11.26-11.27H228v28a4.67,4.67,0,0,0,4.67,4.67h70v9.33ZM270,270.65V280H186v-9.33ZM293.32,308A18.67,18.67,0,1,1,312,326.64,18.67,18.67,0,0,1,293.32,308ZM164.81,289.31H291.17a27.84,27.84,0,0,0,0,37.33H164.81A27.84,27.84,0,0,0,164.81,289.31ZM125.33,308A18.67,18.67,0,1,1,144,326.64,18.67,18.67,0,0,1,125.33,308Z"/><path d="M134.67,308a9.33,9.33,0,1,0,9.33-9.34A9.33,9.33,0,0,0,134.67,308Z"/><path d="M218.66,303.31h-9.33v9.33h9.33Z"/><path d="M246.66,303.31h-9.33v9.33h9.33Z"/><path d="M190.66,303.31h-9.33v9.33h9.33Z"/><path d="M274.66,303.31h-9.34v9.33h9.34Z"/><path d="M176.66,228.65h-9.33v14h9.33Z"/><path d="M195.33,228.65H186v14h9.33Z"/></g><path d="M214.66,414.17H195V427.5h23.11v8.24H184.72V386H218v8.31H195v11.86h19.69Z"/><path d="M241.9,403.13,251.23,386H263l-14.49,24.68,14.87,25.09H251.47l-9.57-17.43-9.57,17.43H220.4l14.87-25.09L220.78,386h11.79Z"/><path d="M281.79,418.41H262.55v-8h19.24Z"/><path d="M329.44,419.16q-.58,8-5.94,12.65t-14.09,4.61q-9.57,0-15.06-6.44t-5.49-17.69v-3a30,30,0,0,1,2.53-12.65,19,19,0,0,1,7.23-8.39,20.33,20.33,0,0,1,10.92-2.92q8.61,0,13.88,4.62t6.08,12.95H319.25c-.25-3.21-1.15-5.54-2.68-7s-3.88-2.17-7-2.17c-3.42,0-6,1.22-7.67,3.67s-2.57,6.25-2.62,11.4v3.76q0,8.07,2.45,11.79t7.71,3.73c3.16,0,5.53-.72,7.09-2.17s2.45-3.69,2.68-6.72Z"/><g id="moi"><circle class="cls-13" cx="430" cy="82" r="80"/><g id="eagle"><path class="cls-14" d="M431.43,118.15a2,2,0,0,0-3.45,1.43v7.09a2,2,0,1,0,4,0v-7.09A2,2,0,0,0,431.43,118.15Z"/><path class="cls-14" d="M442.33,121.91l-2.84-6.73a2,2,0,0,0-1.87-1.23,2,2,0,0,0-.78.16,2,2,0,0,0-1.07,2.65l2.84,6.72a2,2,0,1,0,3.72-1.57Z"/><path class="cls-14" d="M424.25,115.21a2,2,0,0,0-1.09-1.1h0a2,2,0,0,0-.79-.16,2.06,2.06,0,0,0-.76.15,2,2,0,0,0-1.1,1.08l-2.84,6.73a2,2,0,0,0,0,1.55,2,2,0,0,0,1.09,1.1,2,2,0,0,0,2.64-1.08l2.84-6.72A2,2,0,0,0,424.25,115.21Z"/><path class="cls-14" d="M471,100.79a2,2,0,0,0-.85-1.28h0a2,2,0,0,0-1.13-.34,2.56,2.56,0,0,0-.39,0,2,2,0,0,0-1.29.86l-7.11,10.62a2,2,0,0,0,.55,2.8,2.07,2.07,0,0,0,2.81-.55l7.11-10.62A2,2,0,0,0,471,100.79Z"/><path class="cls-14" d="M454.81,125a2,2,0,0,0-.86-1.29h0a2,2,0,0,0-1.12-.34,1.81,1.81,0,0,0-.4,0,2,2,0,0,0-1.28.86l-1.47,2.19a2,2,0,0,0,.56,2.8,2.06,2.06,0,0,0,2.8-.55l1.47-2.19A2,2,0,0,0,454.81,125Z"/><path class="cls-14" d="M408.85,124.31a2,2,0,0,0-1.68-.89,2,2,0,0,0-1.12.34,2,2,0,0,0-.55,2.8l1.46,2.19a2.07,2.07,0,0,0,2.8.55,2,2,0,0,0,.56-2.8Z"/><path class="cls-14" d="M400.89,110.62c-1.11-2.45-3.09-3.62-4.83-4.65-2-1.16-3.55-2.09-4.09-4.76a2,2,0,0,0-2-1.62,1.87,1.87,0,0,0-.4,0A2,2,0,0,0,388,102c.9,4.44,3.85,6.17,6,7.44,1.46.87,2.62,1.55,3.2,2.83a2,2,0,1,0,3.68-1.66Z"/><path class="cls-14" d="M483.34,53.19a2,2,0,0,0,0-1.55h0a2,2,0,0,0-1.07-1.1,2,2,0,0,0-1.55,0l-26.05,10.4a2.06,2.06,0,0,0-1.23,2.26A15.83,15.83,0,0,1,447,78.55l-1.54,1.09-.71-1.75a2,2,0,0,0-1.88-1.27h-5.24l.11-1.6a48.78,48.78,0,0,1,.75-5.19c1.18-6.55,1.62-11.75-4.39-14.28-5.62-2.37-9,.94-10.2,2.48l-.4.5-.64.07c-2,.2-5.5,1.11-6.68,4.93A2,2,0,1,0,420,64.72c.68-2.23,3.73-2.22,4.45-2.1a2.09,2.09,0,0,0,2-1.19c1.18-2.44,3.43-3.25,6-2.16,3.34,1.4,3,4.34,2,9.84a47.28,47.28,0,0,0-.82,6.09l-.07,1.42h-7.65l-.13-1.35a14.69,14.69,0,0,1,.41-5.07,2,2,0,0,0-1.3-2.56,2,2,0,0,0-1.54.13,2,2,0,0,0-1,1.18,17.88,17.88,0,0,0-.65,6.08l.1,1.59h-4.66a2,2,0,0,0-1.87,1.27l-.71,1.75L413,78.55a15.78,15.78,0,0,1-6.49-15.35,2,2,0,0,0-1.23-2.28l-26.05-10.4a2,2,0,0,0-1.55,0,2,2,0,0,0-1.07,1.1,2,2,0,0,0,1.12,2.63l24.57,9.82,0,1a20.12,20.12,0,0,0,12,18.81l.85.4V97a20.56,20.56,0,0,0,.77,5.93l.36,1.21-1.13.56c-3.93,2-5.4,4.76-6.58,7-1.34,2.53-2.14,4.06-5.87,4.66a2,2,0,0,0-1.32.82,2,2,0,0,0-.35,1.5,2,2,0,0,0,2.34,1.67c5.69-.92,7.4-4.16,8.77-6.76,1.16-2.2,2.25-4.27,5.68-5.67l.8-.33.69.53a15.58,15.58,0,0,0,5.13,2.36c1.86.57,3.2,1,3.73,2.15A2,2,0,0,0,430,113.8a2,2,0,0,0,1.83-1.18c.54-1.17,1.88-1.58,3.74-2.15a15.37,15.37,0,0,0,5.13-2.36l.69-.53.8.33c3.42,1.4,4.52,3.47,5.67,5.66,1.38,2.61,3.09,5.85,8.81,6.77a1.66,1.66,0,0,0,.32,0,2,2,0,0,0,1.64-3.21,2.08,2.08,0,0,0-1.32-.81c-3.73-.6-4.54-2.13-5.87-4.67a14.31,14.31,0,0,0-6.58-7l-1.13-.56.36-1.21a20.56,20.56,0,0,0,.77-5.93V84.33l.85-.41a20.11,20.11,0,0,0,12-18.8l0-1,24.57-9.81A2.06,2.06,0,0,0,483.34,53.19ZM440.81,97c0,7.13-2.43,8.39-6.43,9.61h0a15.62,15.62,0,0,0-3.61,1.44l-.77.47-.78-.47a15.28,15.28,0,0,0-3.6-1.44c-4-1.23-6.44-2.49-6.44-9.62V90.52h14.95a2,2,0,0,0,0-4H419.18V80.66h21.63Z"/><path class="cls-14" d="M409.77,87.52a2,2,0,0,0-1.65-.85,2,2,0,0,0-1.17.38h0L397.22,94a2,2,0,0,0-.47,2.81,2.08,2.08,0,0,0,2.82.48l9.73-6.92A2,2,0,0,0,409.77,87.52Z"/><path class="cls-14" d="M404.92,83a2,2,0,0,0,0-1.55,2,2,0,0,0-1.12-1.06,2.06,2.06,0,0,0-.73-.14,2,2,0,0,0-.82.18h0L391.1,85.37A2,2,0,0,0,390,86.49a2,2,0,0,0,0,1.55,2.06,2.06,0,0,0,2.67,1l11.11-4.93A2,2,0,0,0,404.92,83Z"/><path class="cls-14" d="M398.81,76.79a2,2,0,0,0-.64-3.93,2,2,0,0,0-.64.1l-9.61,3.23A2,2,0,0,0,389.21,80Z"/><path class="cls-14" d="M378.09,62.59a2,2,0,0,0,1.2,2.59l13.53,5a2,2,0,1,0,1.39-3.79l-13.53-5a1.86,1.86,0,0,0-.69-.12A2,2,0,0,0,378.09,62.59Z"/><path class="cls-14" d="M408.23,96.11l-3.48,4.21a2,2,0,0,0,.27,2.84,2.07,2.07,0,0,0,2.85-.27l3.47-4.2a2,2,0,1,0-3.11-2.58Z"/><path class="cls-14" d="M450.7,90.34l9.73,6.92a2.08,2.08,0,0,0,2.82-.48,2,2,0,0,0-.48-2.82L453,87a2,2,0,0,0-1.16-.37,2,2,0,0,0-1.18,3.67Z"/><path class="cls-14" d="M456.14,84.13l11.12,4.93a2,2,0,0,0,2.66-1,2,2,0,0,0,0-1.55,2,2,0,0,0-1.06-1.12l-11.12-4.93a2,2,0,0,0-2.66,1,2,2,0,0,0,0,1.55A2,2,0,0,0,456.14,84.13Z"/><path class="cls-14" d="M459.91,74.23a2,2,0,0,0,1.28,2.56l9.6,3.23a2,2,0,1,0,1.29-3.83L462.47,73a2,2,0,0,0-2.56,1.27Z"/><path class="cls-14" d="M464.59,68.94a2,2,0,0,0,2.59,1.2l13.53-5a2,2,0,1,0-1.39-3.79l-13.53,5A2,2,0,0,0,464.59,68.94Z"/><path class="cls-14" d="M451.77,96.11a2,2,0,0,0-3.12,2.58l3.48,4.2a2,2,0,0,0,2.84.28,2,2,0,0,0,.27-2.85Z"/></g></g><g id="moi-2" data-name="moi"><circle class="cls-13" cx="430" cy="430" r="80"/></g></g></svg>