<svg viewBox="0 0 512 512" xmlns="http://www.w3.org/2000/svg" xmlns:xlink="http://www.w3.org/1999/xlink"><linearGradient id="a" gradientUnits="userSpaceOnUse" x1="121" x2="391" y1="256" y2="256"><stop offset="0" stop-color="#fff"/><stop offset=".15" stop-color="#b6b5b6"/><stop offset=".85" stop-color="#9c9a9b"/><stop offset="1"/></linearGradient><linearGradient id="b" gradientUnits="userSpaceOnUse" x1="221" x2="291" y1="255.27" y2="255.27"><stop offset="0" stop-color="#598eca"/><stop offset="1" stop-color="#3468b1"/></linearGradient><circle cx="256" cy="256" fill="#20a6fc" r="256"/><path d="m391 182.39v147.22a61.58 61.58 0 0 1 -61.39 61.39h-147.22a61.58 61.58 0 0 1 -61.39-61.39v-147.22a61.58 61.58 0 0 1 61.39-61.39h147.22a61.58 61.58 0 0 1 61.39 61.39z" fill="#fff"/><path d="m329.61 121h-147.22a61.58 61.58 0 0 0 -61.39 61.39v147.22a61.58 61.58 0 0 0 61.39 61.39h147.22a61.58 61.58 0 0 0 61.39-61.39v-147.22a61.58 61.58 0 0 0 -61.39-61.39zm56.39 205.88a59.29 59.29 0 0 1 -59.12 59.12h-141.76a59.29 59.29 0 0 1 -59.12-59.12v-141.76a59.29 59.29 0 0 1 59.12-59.12h141.76a59.29 59.29 0 0 1 59.12 59.12z" fill="url(#a)" opacity=".1"/><path d="m329.61 123a59.45 59.45 0 0 1 59.39 59.39v147.22a59.45 59.45 0 0 1 -59.39 59.39h-147.22a59.45 59.45 0 0 1 -59.39-59.39v-147.22a59.45 59.45 0 0 1 59.39-59.39zm0-2h-147.22a61.58 61.58 0 0 0 -61.39 61.39v147.22a61.58 61.58 0 0 0 61.39 61.39h147.22a61.58 61.58 0 0 0 61.39-61.39v-147.22a61.58 61.58 0 0 0 -61.39-61.39z" opacity=".1"/><path d="m256 227.26a28 28 0 1 1 -28 28 28 28 0 0 1 28-28m0-7a35 35 0 1 0 35 35 35 35 0 0 0 -35-35z" fill="url(#b)"/><path d="m259.41 181.69v14.71a2.58 2.58 0 0 1 -2.65 2.64h-1.52a2.58 2.58 0 0 1 -2.65-2.64v-14.71a2.59 2.59 0 0 1 2.65-2.65h1.9a3.26 3.26 0 0 1 2.27 2.65z" opacity=".3"/></svg>