<svg xmlns="http://www.w3.org/2000/svg" viewBox="0 0 640 512"><defs><style>.cls-1{fill:#8b2dc1;}.cls-2{fill:#ffb531;}.cls-3{fill:#ccccca;}.cls-4{fill:#4db7e5;}.cls-5{fill:#3d4d63;}.cls-6{fill:#00a650;}.cls-7{fill:#fff;stroke:#fff;stroke-miterlimit:10;stroke-width:1.5px;}</style></defs><title>mp-01-moi-on</title><g id="Equipments"><g id="base"><ellipse class="cls-1" cx="320" cy="256" rx="318" ry="254"/></g><g id="icon-mai_pump"><path class="cls-2" d="M314.49,212.09,351,221.2l12.79-32,20.7-51.75H235.62a16.14,16.14,0,0,0-14.55,9h0L202.28,184l13.89,3.48,97.19,24.23A8.7,8.7,0,0,1,314.49,212.09Z"/><polygon class="cls-3" points="449.73 268.85 318.27 236.07 318.13 236.61 314.47 251.3 445.94 284.08 449.73 268.85"/><path class="cls-4" d="M188.42,194.5l-21.22-5.29-8.11,32.54,140.12,34.94,8-32.1-116.7-29.18A6.88,6.88,0,0,1,188.42,194.5Z"/><path d="M493.62,280.62a10,10,0,0,0-6.23-4.61l-24-6,.17-.67a10.66,10.66,0,0,0-7.75-12.91l-94.62-23.59a6.35,6.35,0,0,0,.42-.87l12.5-31.25h0l4.66-11.64h0L406.37,120h41.86a6.95,6.95,0,0,0,0-13.89H405.57a12.63,12.63,0,0,0-11.81,8L390,123.54H235.58a30.27,30.27,0,0,0-26.94,16.7L188.46,180.6l-20.76-5.18a10.62,10.62,0,0,0-12.9,7.76l-9.56,38.34a10.39,10.39,0,0,0,7.56,12.58L299,270.54a10.24,10.24,0,0,0,7.86-1.17,10.24,10.24,0,0,0,4.26-5L445.7,297.93h0a10.37,10.37,0,0,0,12.58-7.56l.23-.93,24.26,6.05a10,10,0,0,0,2.42.3,9.93,9.93,0,0,0,9.58-7.5A10.06,10.06,0,0,0,493.62,280.62ZM202.28,184l18.79-37.58h0a16.14,16.14,0,0,1,14.55-9H384.44l-20.7,51.75L351,221.2l-36.46-9.11a8.7,8.7,0,0,0-1.13-.35l-97.19-24.23Zm96.93,72.66L159.09,221.75l8.11-32.54,21.22,5.29a6.88,6.88,0,0,0,2.09.91l116.7,29.18ZM449,284.83h0Zm-3-.75L314.47,251.3l3.66-14.69.14-.54,131.46,32.78Z"/><circle id="color" class="cls-5" cx="232.5" cy="286.54" r="35.13"/><circle id="color-2" data-name="color" class="cls-3" cx="232.5" cy="286.54" r="18.35"/><path d="M232.5,247.17a39.38,39.38,0,1,0,39.37,39.37A39.38,39.38,0,0,0,232.5,247.17Zm0,70a30.63,30.63,0,1,1,30.62-30.63A30.63,30.63,0,0,1,232.5,317.17Z"/><path d="M232.5,264.67a21.88,21.88,0,1,0,21.87,21.87A21.87,21.87,0,0,0,232.5,264.67Zm0,35a13.13,13.13,0,1,1,13.12-13.13A13.13,13.13,0,0,1,232.5,299.67Z"/><circle id="color-3" data-name="color" class="cls-5" cx="346.12" cy="286.54" r="35.13"/><circle id="color-4" data-name="color" class="cls-3" cx="346.12" cy="286.54" r="18.35"/><path d="M346.12,247.17a39.38,39.38,0,1,0,39.38,39.37A39.37,39.37,0,0,0,346.12,247.17Zm0,70a30.63,30.63,0,1,1,30.63-30.63A30.62,30.62,0,0,1,346.12,317.17Z"/><path d="M346.12,264.67A21.88,21.88,0,1,0,368,286.54,21.87,21.87,0,0,0,346.12,264.67Zm0,35a13.13,13.13,0,1,1,13.13-13.13A13.12,13.12,0,0,1,346.12,299.67Z"/></g><path d="M284.61,394l12.78,36.1L310.11,394h13.46v49.77H313.28v-13.6l1-23.48-13.43,37.08h-7l-13.4-37.05,1,23.45v13.6H271.21V394Z"/><path d="M342.78,426.21v17.53H332.53V394h19.41A22.42,22.42,0,0,1,361.8,396a15.11,15.11,0,0,1,6.55,5.82,16.34,16.34,0,0,1,2.29,8.6q0,7.32-5,11.53t-13.86,4.23Zm0-8.31h9.16q4.06,0,6.2-1.91a7,7,0,0,0,2.14-5.47,8.25,8.25,0,0,0-2.15-5.92,8.09,8.09,0,0,0-5.95-2.32h-9.4Z"/><g id="moi"><circle class="cls-6" cx="558" cy="82" r="80"/><g id="eagle"><path class="cls-7" d="M559.43,118.15a2,2,0,0,0-3.45,1.43v7.09a2,2,0,1,0,4,0v-7.09A2,2,0,0,0,559.43,118.15Z"/><path class="cls-7" d="M570.33,121.91l-2.84-6.73a2,2,0,0,0-1.87-1.23,2,2,0,0,0-.78.16,2,2,0,0,0-1.07,2.65l2.84,6.72a2,2,0,1,0,3.72-1.57Z"/><path class="cls-7" d="M552.25,115.21a2,2,0,0,0-1.09-1.1h0a2,2,0,0,0-.79-.16,2.06,2.06,0,0,0-.76.15,2,2,0,0,0-1.1,1.08l-2.84,6.73a2,2,0,0,0,0,1.55,2,2,0,0,0,1.09,1.1,2,2,0,0,0,2.64-1.08l2.84-6.72A2,2,0,0,0,552.25,115.21Z"/><path class="cls-7" d="M599,100.79a2,2,0,0,0-.85-1.28h0a2,2,0,0,0-1.13-.34,2.56,2.56,0,0,0-.39,0,2,2,0,0,0-1.29.86l-7.11,10.62a2,2,0,0,0,.55,2.8,2.07,2.07,0,0,0,2.81-.55l7.11-10.62A2,2,0,0,0,599,100.79Z"/><path class="cls-7" d="M582.81,125a2,2,0,0,0-.86-1.29h0a2,2,0,0,0-1.12-.34,1.81,1.81,0,0,0-.4,0,2,2,0,0,0-1.28.86l-1.47,2.19a2,2,0,0,0,.56,2.8,2.06,2.06,0,0,0,2.8-.55l1.47-2.19A2,2,0,0,0,582.81,125Z"/><path class="cls-7" d="M536.85,124.31a2,2,0,0,0-1.68-.89,2,2,0,0,0-1.12.34,2,2,0,0,0-.55,2.8l1.46,2.19a2.07,2.07,0,0,0,2.8.55,2,2,0,0,0,.56-2.8Z"/><path class="cls-7" d="M528.89,110.62c-1.11-2.45-3.09-3.62-4.83-4.65-2-1.16-3.55-2.09-4.09-4.76a2,2,0,0,0-2-1.62,1.87,1.87,0,0,0-.4,0A2,2,0,0,0,516,102c.9,4.44,3.85,6.17,6,7.44,1.46.87,2.62,1.55,3.2,2.83a2,2,0,1,0,3.68-1.66Z"/><path class="cls-7" d="M611.34,53.19a2,2,0,0,0,0-1.55h0a2,2,0,0,0-1.07-1.1,2,2,0,0,0-1.55,0l-26.05,10.4a2.06,2.06,0,0,0-1.23,2.26A15.83,15.83,0,0,1,575,78.55l-1.54,1.09-.71-1.75a2,2,0,0,0-1.88-1.27h-5.24l.11-1.6a48.78,48.78,0,0,1,.75-5.19c1.18-6.55,1.62-11.75-4.39-14.28-5.62-2.37-9,.94-10.2,2.48l-.4.5-.64.07c-2,.2-5.5,1.11-6.68,4.93A2,2,0,1,0,548,64.72c.68-2.23,3.73-2.22,4.45-2.1a2.09,2.09,0,0,0,2-1.19c1.18-2.44,3.43-3.25,6-2.16,3.34,1.4,3,4.34,2,9.84a47.28,47.28,0,0,0-.82,6.09l-.07,1.42h-7.65l-.13-1.35a14.69,14.69,0,0,1,.41-5.07,2,2,0,0,0-1.3-2.56,2,2,0,0,0-1.54.13,2,2,0,0,0-1,1.18,17.88,17.88,0,0,0-.65,6.08l.1,1.59h-4.66a2,2,0,0,0-1.87,1.27l-.71,1.75L541,78.55a15.78,15.78,0,0,1-6.49-15.35,2,2,0,0,0-1.23-2.28l-26.05-10.4a2,2,0,0,0-1.55,0,2,2,0,0,0-1.07,1.1,2,2,0,0,0,1.12,2.63l24.57,9.82,0,1a20.12,20.12,0,0,0,12,18.81l.85.4V97a20.56,20.56,0,0,0,.77,5.93l.36,1.21-1.13.56c-3.93,2-5.4,4.76-6.58,7-1.34,2.53-2.14,4.06-5.87,4.66a2,2,0,0,0-1.32.82,2,2,0,0,0-.35,1.5,2,2,0,0,0,2.34,1.67c5.69-.92,7.4-4.16,8.77-6.76,1.16-2.2,2.25-4.27,5.68-5.67l.8-.33.69.53a15.58,15.58,0,0,0,5.13,2.36c1.86.57,3.2,1,3.73,2.15A2,2,0,0,0,558,113.8a2,2,0,0,0,1.83-1.18c.54-1.17,1.88-1.58,3.74-2.15a15.37,15.37,0,0,0,5.13-2.36l.69-.53.8.33c3.42,1.4,4.52,3.47,5.67,5.66,1.38,2.61,3.09,5.85,8.81,6.77a1.66,1.66,0,0,0,.32,0,2,2,0,0,0,1.64-3.21,2.08,2.08,0,0,0-1.32-.81c-3.73-.6-4.54-2.13-5.87-4.67a14.31,14.31,0,0,0-6.58-7l-1.13-.56.36-1.21a20.56,20.56,0,0,0,.77-5.93V84.33l.85-.41a20.11,20.11,0,0,0,12-18.8l0-1,24.57-9.81A2.06,2.06,0,0,0,611.34,53.19ZM568.81,97c0,7.13-2.43,8.39-6.43,9.61h0a15.62,15.62,0,0,0-3.61,1.44l-.77.47-.78-.47a15.28,15.28,0,0,0-3.6-1.44c-4-1.23-6.44-2.49-6.44-9.62V90.52h15a2,2,0,0,0,0-4h-15V80.66h21.63Z"/><path class="cls-7" d="M537.77,87.52a2,2,0,0,0-1.65-.85,2,2,0,0,0-1.17.38h0L525.22,94a2,2,0,0,0-.47,2.81,2.08,2.08,0,0,0,2.82.48l9.73-6.92A2,2,0,0,0,537.77,87.52Z"/><path class="cls-7" d="M532.92,83a2,2,0,0,0,0-1.55,2,2,0,0,0-1.12-1.06,2.06,2.06,0,0,0-.73-.14,2,2,0,0,0-.82.18h0L519.1,85.37A2,2,0,0,0,518,86.49a2,2,0,0,0,0,1.55,2.06,2.06,0,0,0,2.67,1l11.11-4.93A2,2,0,0,0,532.92,83Z"/><path class="cls-7" d="M526.81,76.79a2,2,0,0,0-.64-3.93,2,2,0,0,0-.64.1l-9.61,3.23A2,2,0,0,0,517.21,80Z"/><path class="cls-7" d="M506.09,62.59a2,2,0,0,0,1.2,2.59l13.53,5a2,2,0,0,0,1.39-3.79l-13.53-5a1.86,1.86,0,0,0-.69-.12A2,2,0,0,0,506.09,62.59Z"/><path class="cls-7" d="M536.23,96.11l-3.48,4.21a2,2,0,0,0,.27,2.84,2.07,2.07,0,0,0,2.85-.27l3.47-4.2a2,2,0,1,0-3.11-2.58Z"/><path class="cls-7" d="M578.7,90.34l9.73,6.92a2.08,2.08,0,0,0,2.82-.48,2,2,0,0,0-.48-2.82L581,87a2,2,0,0,0-1.16-.37,2,2,0,0,0-1.18,3.67Z"/><path class="cls-7" d="M584.14,84.13l11.12,4.93a2,2,0,0,0,2.66-1,2,2,0,0,0,0-1.55,2,2,0,0,0-1.06-1.12l-11.12-4.93a2,2,0,0,0-2.66,1,2,2,0,0,0,0,1.55A2,2,0,0,0,584.14,84.13Z"/><path class="cls-7" d="M587.91,74.23a2,2,0,0,0,1.28,2.56l9.6,3.23a2,2,0,1,0,1.29-3.83L590.47,73a2,2,0,0,0-2.56,1.27Z"/><path class="cls-7" d="M592.59,68.94a2,2,0,0,0,2.59,1.2l13.53-5a2,2,0,0,0-1.39-3.79l-13.53,5A2,2,0,0,0,592.59,68.94Z"/><path class="cls-7" d="M579.77,96.11a2,2,0,0,0-3.12,2.58l3.48,4.2a2,2,0,0,0,2.84.28,2,2,0,0,0,.27-2.85Z"/></g></g></g></svg>