<svg viewBox="0 0 512 512" xmlns="http://www.w3.org/2000/svg"><g opacity=".5"><path d="m256 509a253 253 0 0 1 -178.9-431.9 253 253 0 0 1 357.8 357.8 251.37 251.37 0 0 1 -178.9 74.1z" fill="#eee"/><path d="m256 6a250.07 250.07 0 0 1 97.31 480.36 250.07 250.07 0 0 1 -194.62-460.72 248.53 248.53 0 0 1 97.31-19.64m0-6c-141.38 0-256 114.62-256 256s114.62 256 256 256 256-114.62 256-256-114.62-256-256-256z" fill="#ccc"/></g><path d="m307.9 221.31h-103.81l-7.03 14.07h117.88z" fill="#ccccca"/><path d="m192.72 249.44h14.06v112.5h-14.06z" fill="#f57e00"/><g fill="#ffb531"><path d="m171.16 333.81h7.5v-84.37h-7.5a21.12 21.12 0 0 0 -21.1 21.09v42.19a21.12 21.12 0 0 0 21.1 21.09z"/><circle cx="284.12" cy="172.09" r="7.03"/><path d="m340.84 249.44h-7.5v84.37h7.5a21.12 21.12 0 0 0 21.1-21.09v-42.19a21.12 21.12 0 0 0 -21.1-21.09z"/></g><path d="m220.84 150.06h14.06v57.19h-14.06z" fill="#ccccca"/><path d="m220.84 249.44h70.31v84.38h-70.31z" fill="#ffb531"/><path d="m305.22 249.44h14.06v112.5h-14.06z" fill="#f57e00"/><path d="m361.47 242.09v-77h-28.13v14.06h14.07v56.85a34.68 34.68 0 0 0 -6.57-.62h-10.18l-14.06-28.13h-67.6v-28.13h15.27a21.09 21.09 0 1 0 0-14.06h-15.27v-29.06h-42.22v71.25h-11.38l-14.06 28.13h-10.18a35.19 35.19 0 0 0 -35.16 35.15v42.19a35.2 35.2 0 0 0 35.16 35.16h7.5v14.06h-14.07v14.06h70.32v-14.06h-14.07v-14.06h70.32v14.06h-14.07v14.06h70.32v-14.06h-14.07v-14.06h7.5a35.2 35.2 0 0 0 35.16-35.16v-42.19a35.1 35.1 0 0 0 -14.53-28.44zm-77.35-77a7 7 0 1 1 -7 7 7 7 0 0 1 7-7.03zm-63.28-15h14.07v57.19h-14.07zm-16.74 71.22h103.8l7 14.07h-117.84zm-32.94 112.5a21.12 21.12 0 0 1 -21.1-21.09v-42.19a21.12 21.12 0 0 1 21.1-21.09h7.5v84.37zm21.56 28.13v-112.5h14.06v112.5zm28.12-28.13v-84.37h70.32v84.37zm84.38 28.13v-112.5h14.06v112.5zm56.72-49.22a21.12 21.12 0 0 1 -21.1 21.09h-7.5v-84.37h7.5a21.12 21.12 0 0 1 21.1 21.09z"/><path d="m234.91 263.5h42.18v14.06h-42.18z"/><path d="m234.91 291.62h42.18v14.07h-42.18z"/></svg>