<svg xmlns="http://www.w3.org/2000/svg" viewBox="0 0 512 512"><defs><style>.cls-1{fill:#d279e8;}.cls-2{fill:#ffb531;}.cls-3{fill:#4db7e5;}.cls-4{fill:#7c8388;}.cls-5{fill:#deecf1;}.cls-6{fill:#ccccca;stroke:#000;stroke-width:10px;}.cls-6,.cls-8{stroke-miterlimit:10;}.cls-7{fill:#00a650;}.cls-8{fill:#fff;stroke:#fff;stroke-width:1.5px;}</style></defs><title>bus-moi-on</title><g id="Equipments"><circle id="base" class="cls-1" cx="256" cy="256" r="254"/><g id="icon-bus"><path class="cls-2" d="M388.89,160.63a92.12,92.12,0,0,0-73.83-36.92H117A12.31,12.31,0,0,0,104.65,136v141.5A12.31,12.31,0,0,0,117,289.83H395a12.31,12.31,0,0,0,12.31-12.31V234.46Z"/><path class="cls-3" d="M407.35,216v18.46H352V160.63H388.9A91.89,91.89,0,0,1,407.35,216Z"/><path class="cls-4" d="M366.74,289.83a18.46,18.46,0,1,1-18.45-18.46A18.46,18.46,0,0,1,366.74,289.83Z"/><path class="cls-5" d="M256,197.54h55.37v92.29H256Z"/><path class="cls-6" d="M256,160.63h55.37v36.91H256Z"/><path class="cls-4" d="M221.55,289.83a18.46,18.46,0,1,1-18.46-18.46A18.47,18.47,0,0,1,221.55,289.83Z"/><path class="cls-4" d="M166.18,289.83a18.46,18.46,0,1,1-18.46-18.46A18.47,18.47,0,0,1,166.18,289.83Z"/><path class="cls-3" d="M104.65,160.63v73.83H215.39V160.63Z"/><path d="M203.71,117.56H117A18.48,18.48,0,0,0,98.5,136v141.5A18.48,18.48,0,0,0,117,296h6.93a24.61,24.61,0,0,0,47.66,0h7.71a24.61,24.61,0,0,0,47.66,0h97.53a24.62,24.62,0,0,0,47.67,0H395a18.48,18.48,0,0,0,18.46-18.46V216a98.44,98.44,0,0,0-98.44-98.44H203.71Zm55.37,12.31h56a85.34,85.34,0,0,1,60.31,24.61H352a6.15,6.15,0,0,0-6.16,6.15v73.83a6.15,6.15,0,0,0,6.16,6.15H401.2v36.91a6.16,6.16,0,0,1-6.16,6.16H372.12a24.62,24.62,0,0,0-47.67,0h-6.93v-123a6.15,6.15,0,0,0-6.15-6.15H256a6.15,6.15,0,0,0-6.15,6.15V283.68H226.92a24.61,24.61,0,0,0-47.66,0h-7.71a24.61,24.61,0,0,0-47.66,0H117a6.16,6.16,0,0,1-6.16-6.16V240.61H215.39a6.15,6.15,0,0,0,6.16-6.15V160.63a6.15,6.15,0,0,0-6.16-6.15H110.8V136a6.16,6.16,0,0,1,6.16-6.15H259.08ZM209.24,228.3H166.18V166.78h43.06Zm-55.37-61.52V228.3H110.8V166.78Zm151.35,0v24.61H262.15V166.78ZM147.72,302.13a12.31,12.31,0,1,1,12.3-12.3A12.32,12.32,0,0,1,147.72,302.13Zm55.37,0a12.31,12.31,0,1,1,12.3-12.3A12.32,12.32,0,0,1,203.09,302.13Zm59.06-98.43h43.07v80H262.15Zm86.14,98.43a12.31,12.31,0,1,1,12.3-12.3A12.32,12.32,0,0,1,348.29,302.13ZM401.2,228.3H358.13V166.78h27.62A85.34,85.34,0,0,1,401.2,216Z"/></g><path d="M193.55,433V383.26H211q9.06,0,13.74,3.47t4.69,10.17a11.24,11.24,0,0,1-1.88,6.44,10.92,10.92,0,0,1-5.23,4.09,10.55,10.55,0,0,1,6,3.86,11.43,11.43,0,0,1,2.21,7.11q0,7.19-4.58,10.87T212.9,433Zm10.26-28.92h7.58q7.77-.14,7.76-6.18,0-3.39-2-4.87c-1.31-1-3.38-1.49-6.21-1.49h-7.17Zm0,7.25v13.43h8.78a8.49,8.49,0,0,0,5.66-1.72,5.93,5.93,0,0,0,2-4.77q0-6.84-7.07-6.94Z"/><path d="M275.89,383.26V416q0,8.18-5.11,12.92t-14,4.75q-8.72,0-13.84-4.61t-5.23-12.68V383.26H248v32.85q0,4.89,2.34,7.13a9,9,0,0,0,6.48,2.24q8.64,0,8.78-9.1V383.26Z"/><path d="M310.11,420a5.27,5.27,0,0,0-2.06-4.46,26.88,26.88,0,0,0-7.38-3.28,52,52,0,0,1-8.44-3.4q-8.48-4.57-8.48-12.34A12,12,0,0,1,286,389.3a14.76,14.76,0,0,1,6.52-4.94,24.53,24.53,0,0,1,9.56-1.78,22.33,22.33,0,0,1,9.5,1.93,15.21,15.21,0,0,1,6.48,5.45,14.35,14.35,0,0,1,2.3,8H310.14a6.71,6.71,0,0,0-2.15-5.31,8.83,8.83,0,0,0-6.05-1.9,9.46,9.46,0,0,0-5.85,1.59,5,5,0,0,0-2.08,4.19,4.79,4.79,0,0,0,2.44,4.06,27.5,27.5,0,0,0,7.2,3.08q8.75,2.63,12.74,6.53a13,13,0,0,1,4,9.7A12,12,0,0,1,315.51,430q-4.89,3.68-13.16,3.67a25.42,25.42,0,0,1-10.46-2.1,16.56,16.56,0,0,1-7.2-5.76,14.76,14.76,0,0,1-2.48-8.48H292.5q0,8.25,9.85,8.24a9.47,9.47,0,0,0,5.7-1.49A4.83,4.83,0,0,0,310.11,420Z"/><g id="moi"><circle class="cls-7" cx="430" cy="82" r="80"/><g id="eagle"><path class="cls-8" d="M431.43,118.15a2,2,0,0,0-3.45,1.43v7.09a2,2,0,1,0,4,0v-7.09A2,2,0,0,0,431.43,118.15Z"/><path class="cls-8" d="M442.33,121.91l-2.84-6.73a2,2,0,0,0-1.87-1.23,2,2,0,0,0-.78.16,2,2,0,0,0-1.07,2.65l2.84,6.72a2,2,0,1,0,3.72-1.57Z"/><path class="cls-8" d="M424.25,115.21a2,2,0,0,0-1.09-1.1h0a2,2,0,0,0-.79-.16,2.06,2.06,0,0,0-.76.15,2,2,0,0,0-1.1,1.08l-2.84,6.73a2,2,0,0,0,0,1.55,2,2,0,0,0,1.09,1.1,2,2,0,0,0,2.64-1.08l2.84-6.72A2,2,0,0,0,424.25,115.21Z"/><path class="cls-8" d="M471,100.79a2,2,0,0,0-.85-1.28h0a2,2,0,0,0-1.13-.34,2.56,2.56,0,0,0-.39,0,2,2,0,0,0-1.29.86l-7.11,10.62a2,2,0,0,0,.55,2.8,2.07,2.07,0,0,0,2.81-.55l7.11-10.62A2,2,0,0,0,471,100.79Z"/><path class="cls-8" d="M454.81,125a2,2,0,0,0-.86-1.29h0a2,2,0,0,0-1.12-.34,1.81,1.81,0,0,0-.4,0,2,2,0,0,0-1.28.86l-1.47,2.19a2,2,0,0,0,.56,2.8,2.06,2.06,0,0,0,2.8-.55l1.47-2.19A2,2,0,0,0,454.81,125Z"/><path class="cls-8" d="M408.85,124.31a2,2,0,0,0-1.68-.89,2,2,0,0,0-1.12.34,2,2,0,0,0-.55,2.8l1.46,2.19a2.07,2.07,0,0,0,2.8.55,2,2,0,0,0,.56-2.8Z"/><path class="cls-8" d="M400.89,110.62c-1.11-2.45-3.09-3.62-4.83-4.65-2-1.16-3.55-2.09-4.09-4.76a2,2,0,0,0-2-1.62,1.87,1.87,0,0,0-.4,0A2,2,0,0,0,388,102c.9,4.44,3.85,6.17,6,7.44,1.46.87,2.62,1.55,3.2,2.83a2,2,0,1,0,3.68-1.66Z"/><path class="cls-8" d="M483.34,53.19a2,2,0,0,0,0-1.55h0a2,2,0,0,0-1.07-1.1,2,2,0,0,0-1.55,0l-26.05,10.4a2.06,2.06,0,0,0-1.23,2.26A15.83,15.83,0,0,1,447,78.55l-1.54,1.09-.71-1.75a2,2,0,0,0-1.88-1.27h-5.24l.11-1.6a48.78,48.78,0,0,1,.75-5.19c1.18-6.55,1.62-11.75-4.39-14.28-5.62-2.37-9,.94-10.2,2.48l-.4.5-.64.07c-2,.2-5.5,1.11-6.68,4.93A2,2,0,1,0,420,64.72c.68-2.23,3.73-2.22,4.45-2.1a2.09,2.09,0,0,0,2-1.19c1.18-2.44,3.43-3.25,6-2.16,3.34,1.4,3,4.34,2,9.84a47.28,47.28,0,0,0-.82,6.09l-.07,1.42h-7.65l-.13-1.35a14.69,14.69,0,0,1,.41-5.07,2,2,0,0,0-1.3-2.56,2,2,0,0,0-1.54.13,2,2,0,0,0-1,1.18,17.88,17.88,0,0,0-.65,6.08l.1,1.59h-4.66a2,2,0,0,0-1.87,1.27l-.71,1.75L413,78.55a15.78,15.78,0,0,1-6.49-15.35,2,2,0,0,0-1.23-2.28l-26.05-10.4a2,2,0,0,0-1.55,0,2,2,0,0,0-1.07,1.1,2,2,0,0,0,1.12,2.63l24.57,9.82,0,1a20.12,20.12,0,0,0,12,18.81l.85.4V97a20.56,20.56,0,0,0,.77,5.93l.36,1.21-1.13.56c-3.93,2-5.4,4.76-6.58,7-1.34,2.53-2.14,4.06-5.87,4.66a2,2,0,0,0-1.32.82,2,2,0,0,0-.35,1.5,2,2,0,0,0,2.34,1.67c5.69-.92,7.4-4.16,8.77-6.76,1.16-2.2,2.25-4.27,5.68-5.67l.8-.33.69.53a15.58,15.58,0,0,0,5.13,2.36c1.86.57,3.2,1,3.73,2.15A2,2,0,0,0,430,113.8a2,2,0,0,0,1.83-1.18c.54-1.17,1.88-1.58,3.74-2.15a15.37,15.37,0,0,0,5.13-2.36l.69-.53.8.33c3.42,1.4,4.52,3.47,5.67,5.66,1.38,2.61,3.09,5.85,8.81,6.77a1.66,1.66,0,0,0,.32,0,2,2,0,0,0,1.64-3.21,2.08,2.08,0,0,0-1.32-.81c-3.73-.6-4.54-2.13-5.87-4.67a14.31,14.31,0,0,0-6.58-7l-1.13-.56.36-1.21a20.56,20.56,0,0,0,.77-5.93V84.33l.85-.41a20.11,20.11,0,0,0,12-18.8l0-1,24.57-9.81A2.06,2.06,0,0,0,483.34,53.19ZM440.81,97c0,7.13-2.43,8.39-6.43,9.61h0a15.62,15.62,0,0,0-3.61,1.44l-.77.47-.78-.47a15.28,15.28,0,0,0-3.6-1.44c-4-1.23-6.44-2.49-6.44-9.62V90.52h14.95a2,2,0,0,0,0-4H419.18V80.66h21.63Z"/><path class="cls-8" d="M409.77,87.52a2,2,0,0,0-1.65-.85,2,2,0,0,0-1.17.38h0L397.22,94a2,2,0,0,0-.47,2.81,2.08,2.08,0,0,0,2.82.48l9.73-6.92A2,2,0,0,0,409.77,87.52Z"/><path class="cls-8" d="M404.92,83a2,2,0,0,0,0-1.55,2,2,0,0,0-1.12-1.06,2.06,2.06,0,0,0-.73-.14,2,2,0,0,0-.82.18h0L391.1,85.37A2,2,0,0,0,390,86.49a2,2,0,0,0,0,1.55,2.06,2.06,0,0,0,2.67,1l11.11-4.93A2,2,0,0,0,404.92,83Z"/><path class="cls-8" d="M398.81,76.79a2,2,0,0,0-.64-3.93,2,2,0,0,0-.64.1l-9.61,3.23A2,2,0,0,0,389.21,80Z"/><path class="cls-8" d="M378.09,62.59a2,2,0,0,0,1.2,2.59l13.53,5a2,2,0,1,0,1.39-3.79l-13.53-5a1.86,1.86,0,0,0-.69-.12A2,2,0,0,0,378.09,62.59Z"/><path class="cls-8" d="M408.23,96.11l-3.48,4.21a2,2,0,0,0,.27,2.84,2.07,2.07,0,0,0,2.85-.27l3.47-4.2a2,2,0,1,0-3.11-2.58Z"/><path class="cls-8" d="M450.7,90.34l9.73,6.92a2.08,2.08,0,0,0,2.82-.48,2,2,0,0,0-.48-2.82L453,87a2,2,0,0,0-1.16-.37,2,2,0,0,0-1.18,3.67Z"/><path class="cls-8" d="M456.14,84.13l11.12,4.93a2,2,0,0,0,2.66-1,2,2,0,0,0,0-1.55,2,2,0,0,0-1.06-1.12l-11.12-4.93a2,2,0,0,0-2.66,1,2,2,0,0,0,0,1.55A2,2,0,0,0,456.14,84.13Z"/><path class="cls-8" d="M459.91,74.23a2,2,0,0,0,1.28,2.56l9.6,3.23a2,2,0,1,0,1.29-3.83L462.47,73a2,2,0,0,0-2.56,1.27Z"/><path class="cls-8" d="M464.59,68.94a2,2,0,0,0,2.59,1.2l13.53-5a2,2,0,1,0-1.39-3.79l-13.53,5A2,2,0,0,0,464.59,68.94Z"/><path class="cls-8" d="M451.77,96.11a2,2,0,0,0-3.12,2.58l3.48,4.2a2,2,0,0,0,2.84.28,2,2,0,0,0,.27-2.85Z"/></g></g></g></svg>