<svg xmlns="http://www.w3.org/2000/svg" viewBox="0 0 512 512"><defs><style>.cls-1{fill:#f2eb00;}.cls-2{fill:#d6d6d4;}.cls-3{fill:#ffb531;}.cls-4{fill:#f7a116;}.cls-5{fill:#ffa912;}.cls-6{fill:#e8770c;}.cls-7{fill:#4db7e5;}.cls-8{fill:#419bc2;}.cls-9{fill:#4c5d72;}.cls-10{fill:#3d4d63;}.cls-11{fill:#ccccca;}.cls-12{fill:#00a650;}.cls-13{fill:#fff;stroke:#fff;stroke-miterlimit:10;stroke-width:1.5px;}</style></defs><title>ex-t-01-moi-on-on</title><g id="Equipments"><g id="base"><circle class="cls-1" cx="256" cy="256" r="254"/></g><g id="icon-excavator_wheel_" data-name="icon-excavator(wheel)"><rect class="cls-2" x="178.22" y="279.98" width="73.88" height="30.33"/><rect x="178.22" y="300.98" width="73.88" height="9.33"/><path class="cls-3" d="M341.15,214.65h18.67l17.69-110.57a78.67,78.67,0,0,0,1-12.26A33.31,33.31,0,0,0,375,77L367.79,62.6a12,12,0,0,0-22.63,4.64Z"/><path class="cls-3" d="M341.15,261.31V210a9.34,9.34,0,0,1,18.67,0l4.67,3.5a35,35,0,0,1-3,58l-6.34,3.81H331.82Z"/><path class="cls-4" d="M341.15,210a9.34,9.34,0,1,0,9.34-9.33A9.34,9.34,0,0,0,341.15,210Z"/><path class="cls-5" d="M234.57,127.41,336.69,82.73a13.18,13.18,0,0,1,11.56,23.66l-85.54,46.33a37.34,37.34,0,0,0-19.55,32.83v75.76h-70l24.51-91A65.34,65.34,0,0,1,234.57,127.41Z"/><path class="cls-4" d="M198.43,168h49.21a37.21,37.21,0,0,0-4.48,17.57v75.76h-70l24.51-91C197.9,169.5,198.19,168.75,198.43,168Z"/><path class="cls-5" d="M261.83,261.31H168.5V280h93.33Z"/><path class="cls-3" d="M149.83,210H294.49v51.33H135.83V224Z"/><path class="cls-6" d="M163.83,224H154.5v14h9.33Z"/><path class="cls-6" d="M182.5,224h-9.34v14h9.34Z"/><path class="cls-7" d="M219.83,242.64h74.66V205.31l-18.67-28h-56Z"/><path class="cls-8" d="M261.83,242.64v-14l-28-28h-14v42Z"/><path class="cls-2" d="M159.17,191.31h32.66a9.34,9.34,0,0,1,9.33,9.34V210H149.83v-9.33A9.34,9.34,0,0,1,159.17,191.31Z"/><path class="cls-9" d="M163.83,275.31H266.49m0,9.33H163.83"/><path class="cls-4" d="M261.83,261.31H168.5v9.33h93.33Z"/><path d="M266.49,275.31h0V266h28a4.67,4.67,0,0,0,4.67-4.67v-56a4.78,4.78,0,0,0-.79-2.59l-18.66-28a4.7,4.7,0,0,0-3.89-2.07H250.53a32.61,32.61,0,0,1,14.4-15.83l74.23-40.2L336.67,208a11,11,0,0,0-.18,2v49.93l-8.55,12.81a4.66,4.66,0,0,0,3.88,7.26h23.33a4.76,4.76,0,0,0,2.39-.65l6.35-3.78a39.69,39.69,0,0,0,3.4-65.8l-1.76-1.31,16.58-103.65a80.43,80.43,0,0,0,1-13,37.87,37.87,0,0,0-4-16.91L372,60.53A16.62,16.62,0,0,0,340.51,67L340.22,77a18.38,18.38,0,0,0-5.4,1.4L232.7,123.16a69.66,69.66,0,0,0-39.54,45.89l-4.72,17.6H159.17a14,14,0,0,0-14,14v7.4l-12.64,12.63a4.67,4.67,0,0,0-1.36,3.3v37.33a4.66,4.66,0,0,0,4.66,4.67h28v9.33h0v9.33H266.49Zm-70-70h-42v-4.66a4.67,4.67,0,0,1,4.67-4.67h32.66a4.67,4.67,0,0,1,4.67,4.67ZM357.76,198a12.72,12.72,0,0,0-1.16-.6c-.32-.15-.62-.31-.93-.44a16.75,16.75,0,0,0-1.66-.52c-.28-.07-.56-.17-.85-.23a15,15,0,0,0-2.67-.27,13,13,0,0,0-2.64.27,9.39,9.39,0,0,0-1,.28,4.42,4.42,0,0,0-.52.14l2.33-85.19,1.87-1a17.82,17.82,0,0,0-1-31.83l.32-11.28a7.16,7.16,0,0,1,2.26-4.7,7.45,7.45,0,0,1,11.54,2l7.18,14.35a28.53,28.53,0,0,1,3,12.76,72.24,72.24,0,0,1-.93,11.47Zm-11.64,10.41a5.45,5.45,0,0,1,1.32-1.94,4.52,4.52,0,0,1,.82-.55,4.4,4.4,0,0,1,.56-.31,4.57,4.57,0,0,1,1.67-.34,4.67,4.67,0,1,1-4.56,5.23l0-1.29a5.12,5.12,0,0,1,.15-.78Zm-5.58,62.19L345,263.9a4.62,4.62,0,0,0,.79-2.59V223.12a13.61,13.61,0,0,0,15.18-4,4.56,4.56,0,0,0,1.82-.89,30.3,30.3,0,0,1-3.73,49.33l-5.22,3.11Zm-100-98H219.83a4.67,4.67,0,0,0-4.67,4.67v28h-9.33v-4.66A14,14,0,0,0,197.76,188l4.43-16.52a60.42,60.42,0,0,1,34.28-39.77L338.57,87A8.51,8.51,0,0,1,346,102.27l-85.55,46.35A41.87,41.87,0,0,0,240.57,172.65ZM289.82,238H266.49v-9.33a4.64,4.64,0,0,0-1.37-3.3l-28-28a4.63,4.63,0,0,0-3.29-1.37h-9.34V182h48.84l16.49,24.73V238ZM231.9,205.31l25.26,25.27V238H224.49V205.31Zm-91.4,51.33V225.91l11.26-11.26h63.4v28a4.67,4.67,0,0,0,4.67,4.67h70v9.33ZM257.16,266v9.33h-84V266Z"/><path d="M163.83,224H154.5v14h9.33Z"/><path d="M182.5,224h-9.34v14h9.34Z"/><g id="wheel"><circle id="color" class="cls-10" cx="163.83" cy="305.64" r="31.23"/><circle id="color-2" data-name="color" class="cls-11" cx="163.83" cy="305.64" r="16.31"/><path d="M163.83,270.64a35,35,0,1,0,35,35A35,35,0,0,0,163.83,270.64Zm0,62.23a27.23,27.23,0,1,1,27.22-27.23A27.23,27.23,0,0,1,163.83,332.87Z"/><path d="M163.83,286.2a19.45,19.45,0,1,0,19.45,19.44A19.44,19.44,0,0,0,163.83,286.2Zm0,31.11a11.67,11.67,0,1,1,11.67-11.67A11.67,11.67,0,0,1,163.83,317.31Z"/></g><g id="wheel-2" data-name="wheel"><circle id="color-3" data-name="color" class="cls-10" cx="266.49" cy="305.64" r="31.23"/><circle id="color-4" data-name="color" class="cls-11" cx="266.49" cy="305.64" r="16.31"/><path d="M266.49,270.64a35,35,0,1,0,35,35A35,35,0,0,0,266.49,270.64Zm0,62.23a27.23,27.23,0,1,1,27.22-27.23A27.23,27.23,0,0,1,266.49,332.87Z"/><path d="M266.49,286.2a19.45,19.45,0,1,0,19.45,19.44A19.44,19.44,0,0,0,266.49,286.2Zm0,31.11a11.67,11.67,0,1,1,11.67-11.67A11.66,11.66,0,0,1,266.49,317.31Z"/></g></g><path d="M216.93,414.17H197.24V427.5h23.11v8.24H187V386h33.29v8.31h-23v11.86h19.69Z"/><path d="M244.17,403.13,253.5,386h11.8l-14.5,24.68,14.87,25.09H253.74l-9.57-17.43-9.57,17.43H222.67l14.87-25.09L223.05,386h11.79Z"/><path d="M284.06,418.41H264.82v-8h19.24Z"/><path d="M330.1,394.28H314.86v41.46H304.6V394.28h-15V386H330.1Z"/><g id="moi"><circle class="cls-12" cx="430" cy="82" r="80"/><g id="eagle"><path class="cls-13" d="M431.43,118.15a2,2,0,0,0-3.45,1.43v7.09a2,2,0,1,0,4,0v-7.09A2,2,0,0,0,431.43,118.15Z"/><path class="cls-13" d="M442.33,121.91l-2.84-6.73a2,2,0,0,0-1.87-1.23,2,2,0,0,0-.78.16,2,2,0,0,0-1.07,2.65l2.84,6.72a2,2,0,1,0,3.72-1.57Z"/><path class="cls-13" d="M424.25,115.21a2,2,0,0,0-1.09-1.1h0a2,2,0,0,0-.79-.16,2.06,2.06,0,0,0-.76.15,2,2,0,0,0-1.1,1.08l-2.84,6.73a2,2,0,0,0,0,1.55,2,2,0,0,0,1.09,1.1,2,2,0,0,0,2.64-1.08l2.84-6.72A2,2,0,0,0,424.25,115.21Z"/><path class="cls-13" d="M471,100.79a2,2,0,0,0-.85-1.28h0a2,2,0,0,0-1.13-.34,2.56,2.56,0,0,0-.39,0,2,2,0,0,0-1.29.86l-7.11,10.62a2,2,0,0,0,.55,2.8,2.07,2.07,0,0,0,2.81-.55l7.11-10.62A2,2,0,0,0,471,100.79Z"/><path class="cls-13" d="M454.81,125a2,2,0,0,0-.86-1.29h0a2,2,0,0,0-1.12-.34,1.81,1.81,0,0,0-.4,0,2,2,0,0,0-1.28.86l-1.47,2.19a2,2,0,0,0,.56,2.8,2.06,2.06,0,0,0,2.8-.55l1.47-2.19A2,2,0,0,0,454.81,125Z"/><path class="cls-13" d="M408.85,124.31a2,2,0,0,0-1.68-.89,2,2,0,0,0-1.12.34,2,2,0,0,0-.55,2.8l1.46,2.19a2.07,2.07,0,0,0,2.8.55,2,2,0,0,0,.56-2.8Z"/><path class="cls-13" d="M400.89,110.62c-1.11-2.45-3.09-3.62-4.83-4.65-2-1.16-3.55-2.09-4.09-4.76a2,2,0,0,0-2-1.62,1.87,1.87,0,0,0-.4,0A2,2,0,0,0,388,102c.9,4.44,3.85,6.17,6,7.44,1.46.87,2.62,1.55,3.2,2.83a2,2,0,1,0,3.68-1.66Z"/><path class="cls-13" d="M483.34,53.19a2,2,0,0,0,0-1.55h0a2,2,0,0,0-1.07-1.1,2,2,0,0,0-1.55,0l-26.05,10.4a2.06,2.06,0,0,0-1.23,2.26A15.83,15.83,0,0,1,447,78.55l-1.54,1.09-.71-1.75a2,2,0,0,0-1.88-1.27h-5.24l.11-1.6a48.78,48.78,0,0,1,.75-5.19c1.18-6.55,1.62-11.75-4.39-14.28-5.62-2.37-9,.94-10.2,2.48l-.4.5-.64.07c-2,.2-5.5,1.11-6.68,4.93A2,2,0,1,0,420,64.72c.68-2.23,3.73-2.22,4.45-2.1a2.09,2.09,0,0,0,2-1.19c1.18-2.44,3.43-3.25,6-2.16,3.34,1.4,3,4.34,2,9.84a47.28,47.28,0,0,0-.82,6.09l-.07,1.42h-7.65l-.13-1.35a14.69,14.69,0,0,1,.41-5.07,2,2,0,0,0-1.3-2.56,2,2,0,0,0-1.54.13,2,2,0,0,0-1,1.18,17.88,17.88,0,0,0-.65,6.08l.1,1.59h-4.66a2,2,0,0,0-1.87,1.27l-.71,1.75L413,78.55a15.78,15.78,0,0,1-6.49-15.35,2,2,0,0,0-1.23-2.28l-26.05-10.4a2,2,0,0,0-1.55,0,2,2,0,0,0-1.07,1.1,2,2,0,0,0,1.12,2.63l24.57,9.82,0,1a20.12,20.12,0,0,0,12,18.81l.85.4V97a20.56,20.56,0,0,0,.77,5.93l.36,1.21-1.13.56c-3.93,2-5.4,4.76-6.58,7-1.34,2.53-2.14,4.06-5.87,4.66a2,2,0,0,0-1.32.82,2,2,0,0,0-.35,1.5,2,2,0,0,0,2.34,1.67c5.69-.92,7.4-4.16,8.77-6.76,1.16-2.2,2.25-4.27,5.68-5.67l.8-.33.69.53a15.58,15.58,0,0,0,5.13,2.36c1.86.57,3.2,1,3.73,2.15A2,2,0,0,0,430,113.8a2,2,0,0,0,1.83-1.18c.54-1.17,1.88-1.58,3.74-2.15a15.37,15.37,0,0,0,5.13-2.36l.69-.53.8.33c3.42,1.4,4.52,3.47,5.67,5.66,1.38,2.61,3.09,5.85,8.81,6.77a1.66,1.66,0,0,0,.32,0,2,2,0,0,0,1.64-3.21,2.08,2.08,0,0,0-1.32-.81c-3.73-.6-4.54-2.13-5.87-4.67a14.31,14.31,0,0,0-6.58-7l-1.13-.56.36-1.21a20.56,20.56,0,0,0,.77-5.93V84.33l.85-.41a20.11,20.11,0,0,0,12-18.8l0-1,24.57-9.81A2.06,2.06,0,0,0,483.34,53.19ZM440.81,97c0,7.13-2.43,8.39-6.43,9.61h0a15.62,15.62,0,0,0-3.61,1.44l-.77.47-.78-.47a15.28,15.28,0,0,0-3.6-1.44c-4-1.23-6.44-2.49-6.44-9.62V90.52h14.95a2,2,0,0,0,0-4H419.18V80.66h21.63Z"/><path class="cls-13" d="M409.77,87.52a2,2,0,0,0-1.65-.85,2,2,0,0,0-1.17.38h0L397.22,94a2,2,0,0,0-.47,2.81,2.08,2.08,0,0,0,2.82.48l9.73-6.92A2,2,0,0,0,409.77,87.52Z"/><path class="cls-13" d="M404.92,83a2,2,0,0,0,0-1.55,2,2,0,0,0-1.12-1.06,2.06,2.06,0,0,0-.73-.14,2,2,0,0,0-.82.18h0L391.1,85.37A2,2,0,0,0,390,86.49a2,2,0,0,0,0,1.55,2.06,2.06,0,0,0,2.67,1l11.11-4.93A2,2,0,0,0,404.92,83Z"/><path class="cls-13" d="M398.81,76.79a2,2,0,0,0-.64-3.93,2,2,0,0,0-.64.1l-9.61,3.23A2,2,0,0,0,389.21,80Z"/><path class="cls-13" d="M378.09,62.59a2,2,0,0,0,1.2,2.59l13.53,5a2,2,0,1,0,1.39-3.79l-13.53-5a1.86,1.86,0,0,0-.69-.12A2,2,0,0,0,378.09,62.59Z"/><path class="cls-13" d="M408.23,96.11l-3.48,4.21a2,2,0,0,0,.27,2.84,2.07,2.07,0,0,0,2.85-.27l3.47-4.2a2,2,0,1,0-3.11-2.58Z"/><path class="cls-13" d="M450.7,90.34l9.73,6.92a2.08,2.08,0,0,0,2.82-.48,2,2,0,0,0-.48-2.82L453,87a2,2,0,0,0-1.16-.37,2,2,0,0,0-1.18,3.67Z"/><path class="cls-13" d="M456.14,84.13l11.12,4.93a2,2,0,0,0,2.66-1,2,2,0,0,0,0-1.55,2,2,0,0,0-1.06-1.12l-11.12-4.93a2,2,0,0,0-2.66,1,2,2,0,0,0,0,1.55A2,2,0,0,0,456.14,84.13Z"/><path class="cls-13" d="M459.91,74.23a2,2,0,0,0,1.28,2.56l9.6,3.23a2,2,0,1,0,1.29-3.83L462.47,73a2,2,0,0,0-2.56,1.27Z"/><path class="cls-13" d="M464.59,68.94a2,2,0,0,0,2.59,1.2l13.53-5a2,2,0,1,0-1.39-3.79l-13.53,5A2,2,0,0,0,464.59,68.94Z"/><path class="cls-13" d="M451.77,96.11a2,2,0,0,0-3.12,2.58l3.48,4.2a2,2,0,0,0,2.84.28,2,2,0,0,0,.27-2.85Z"/></g></g><g id="moi-2" data-name="moi"><circle class="cls-12" cx="430" cy="430" r="80"/></g></g></svg>