<svg viewBox="0 0 512 512" xmlns="http://www.w3.org/2000/svg"><g opacity=".5"><path d="m256 509a253 253 0 0 1 -178.9-431.9 253 253 0 0 1 357.8 357.8 251.37 251.37 0 0 1 -178.9 74.1z" fill="#eee"/><path d="m256 6a250.07 250.07 0 0 1 97.31 480.36 250.07 250.07 0 0 1 -194.62-460.72 248.53 248.53 0 0 1 97.31-19.64m0-6c-141.38 0-256 114.62-256 256s114.62 256 256 256 256-114.62 256-256-114.62-256-256-256z" fill="#ccc"/></g><circle cx="151.52" cy="339.86" fill="#3d4d63" r="12.81"/><path d="m127.08 265.71a6.61 6.61 0 0 1 6.58-6.22h5.82v-7h-31.48a.38.38 0 0 0 -.39.38v12.43a.39.39 0 0 0 .39.39z" fill="#f57e00"/><circle cx="188.79" cy="339.86" fill="#3d4d63" r="12.81"/><path d="m347 334h1.48v-19.37h-228a.39.39 0 0 0 -.39.38v7.34a.39.39 0 0 0 .31.38 5.06 5.06 0 0 1 .94.27l9.62 3.67a24.42 24.42 0 0 1 39.22-2.62 24.43 24.43 0 0 1 42.39 10h7.69v-.39a12 12 0 0 1 12-12h10.17a12 12 0 0 1 12 12v.34h6.6a6.36 6.36 0 0 1 1.07.1 24.43 24.43 0 0 1 42.41-10.09 24.43 24.43 0 0 1 42.49 9.99z" fill="#ccccca"/><path d="m178.34 233.33a6.64 6.64 0 0 0 -6.54-5.67h-20.67v31.83h31z" fill="#4db7e5"/><circle cx="285.94" cy="339.86" fill="#3d4d63" r="12.81"/><rect fill="#ccccca" height="13.2" rx=".39" width="10.95" x="231.89" y="333.26"/><circle cx="323.21" cy="339.86" fill="#3d4d63" r="12.81"/><path d="m163.56 295.99h13.2v6.99h-13.2z"/><path d="m390.15 233.87h-200l1 7h199a3.5 3.5 0 0 0 0-7z" fill="#ccccca"/><path d="m138.71 284.34h50.47v-13.2h-50.47z" fill="#ffb531"/><path d="m127.08 197.37a6.6 6.6 0 0 1 6.58-6.21h5.82v-7h-31.48a.39.39 0 0 0 -.39.39v12.45a.38.38 0 0 0 .39.38z" fill="#f57e00"/><path d="m178.34 165a6.63 6.63 0 0 0 -6.54-5.66h-20.67v31.83h31z" fill="#4db7e5"/><path d="m390.15 165.54h-200l1 7h199a3.5 3.5 0 0 0 0-7z" fill="#ccccca"/><g fill="#ffb531"><path d="m138.71 216h50.47v-13.2h-50.47z"/><path d="m404.35 333.65v-19h-19a18.27 18.27 0 0 1 -18.25-18.25v-25.26h-7v62.86h43.9a.39.39 0 0 0 .35-.35z"/><path d="m341.46 283.57h6.99v19.41h-6.99z"/></g><path d="m385.33 303h17.13l-7.73-27.05a6.64 6.64 0 0 0 -6.35-4.79h-9.65v25.24a6.61 6.61 0 0 0 6.6 6.6z" fill="#4db7e5"/><path d="m329.81 283.57h-62.51a.39.39 0 0 0 -.39.38v19h62.9z" fill="#ffb531"/><path d="m151.52 334a5.82 5.82 0 1 0 4.12 1.71 5.85 5.85 0 0 0 -4.12-1.71z"/><path d="m188.79 334a5.83 5.83 0 1 0 4.12 9.94 5.83 5.83 0 0 0 -4.12-9.94z"/><path d="m285.94 334a5.84 5.84 0 1 0 4.11 1.71 5.83 5.83 0 0 0 -4.11-1.71z"/><path d="m323.21 334a5.84 5.84 0 1 0 4.11 1.71 5.85 5.85 0 0 0 -4.11-1.71z"/><path d="m416 308.07v-.18a4.29 4.29 0 0 0 -.13-.6s0-.06 0-.09l-9.85-34.47a18.25 18.25 0 0 0 -17.55-13.23h-34.2a5.82 5.82 0 0 0 -5.83 5.82v6.6h-7.19a11.93 11.93 0 0 0 -3.32-6.33l-4.22-4.21a6 6 0 0 0 -8-.56 5.82 5.82 0 0 0 -.43 8.62l2.48 2.48h-60.46a12 12 0 0 0 -12 12v19h-66.9v-7h5.83a6.6 6.6 0 0 0 6.6-6.6v-7.65l76-29.23h116.8a10.71 10.71 0 0 0 10.71-10.71v-8.87a10.71 10.71 0 0 0 -10.71-10.71h-208.17a18.27 18.27 0 0 0 -13.66-6.15h-26.49a5.83 5.83 0 0 0 -5.83 5.82v19h-31.48a12 12 0 0 0 -12 12v12.43a12 12 0 0 0 12 12h19v12.82a5.83 5.83 0 0 0 5.82 5.82h19v7h-31.36a12 12 0 0 0 -12 12v7.33a12.08 12.08 0 0 0 9.08 11.78l9.62 3.68c-.06.71-.1 1.43-.1 2.16a24.45 24.45 0 0 0 43.1 15.82 24.44 24.44 0 0 0 42.39-10h7.69v.38a12 12 0 0 0 12 12h10.17a12 12 0 0 0 12-12v-.38h6.6a5.47 5.47 0 0 0 1.07-.11 24.44 24.44 0 0 0 42.41 10.1 24.44 24.44 0 0 0 42.39-10h57a12 12 0 0 0 12-12v-24.85a5.84 5.84 0 0 0 .12-.73zm-149.09-24.07a.39.39 0 0 1 .39-.38h62.51v19.38h-62.9zm-66.08-14.69v-3.21a6.61 6.61 0 0 0 -6.6-6.6h-.39l-1-7h51.55zm192.81-31.9a3.5 3.5 0 0 1 -3.49 3.5h-199l-1-7h200a3.49 3.49 0 0 1 3.49 3.45zm-242.51-9.7h20.67a6.64 6.64 0 0 1 6.54 5.67l3.74 26.17h-31zm-24 38h-19.13a.39.39 0 0 1 -.39-.39v-12.43a.38.38 0 0 1 .39-.38h31.44v7h-5.82a6.6 6.6 0 0 0 -6.54 6.2zm11.63 18.63v-13.2h50.47v13.2zm38 11.65v7h-13.2v-7zm-25.24 56.69a12.82 12.82 0 1 1 12.81-12.82 12.83 12.83 0 0 1 -12.81 12.82zm37.27 0a12.82 12.82 0 1 1 12.81-12.82 12.83 12.83 0 0 1 -12.81 12.82zm54.05-6.61a.41.41 0 0 1 -.39.39h-10.17a.41.41 0 0 1 -.39-.39v-12.42a.41.41 0 0 1 .39-.39h10.17a.41.41 0 0 1 .39.39zm43.1 6.61a12.82 12.82 0 1 1 12.81-12.82 12.83 12.83 0 0 1 -12.81 12.82zm37.27 0a12.82 12.82 0 1 1 12.79-12.82 12.82 12.82 0 0 1 -12.79 12.82zm25.23-18.68h-1.44a24.43 24.43 0 0 0 -42.39-10 24.43 24.43 0 0 0 -42.41 10.09 6.36 6.36 0 0 0 -1.07-.1h-6.6v-.39a12 12 0 0 0 -12-12h-10.25a12 12 0 0 0 -12 12v.4h-7.69a24.43 24.43 0 0 0 -42.39-10 24.42 24.42 0 0 0 -39.22 2.62l-9.66-3.62a5.06 5.06 0 0 0 -.94-.27.39.39 0 0 1 -.31-.38v-7.35a.39.39 0 0 1 .39-.38h228zm0-31.06h-7v-19.37h7zm30.29-31.84h9.65a6.64 6.64 0 0 1 6.35 4.79l7.73 27.11h-17.13a6.61 6.61 0 0 1 -6.6-6.6zm25.62 62.51a.39.39 0 0 1 -.39.39h-43.87v-62.9h7v25.24a18.27 18.27 0 0 0 18.25 18.25h19z"/><path d="m188.4 227.66h5.83a6.61 6.61 0 0 0 6.6-6.6v-7.65l76-29.24h116.8a10.7 10.7 0 0 0 10.71-10.7v-8.87a10.7 10.7 0 0 0 -10.71-10.71h-208.17a18.27 18.27 0 0 0 -13.66-6.21h-26.49a5.83 5.83 0 0 0 -5.83 5.82v19h-31.48a12 12 0 0 0 -12 12v12.5a12 12 0 0 0 12 12h19v12.81a5.83 5.83 0 0 0 5.82 5.83h55.58zm12.43-26.73v-3.17a6.61 6.61 0 0 0 -6.6-6.6h-.39l-1-7h51.55zm192.81-31.93a3.5 3.5 0 0 1 -3.49 3.5h-199l-1-7h200a3.49 3.49 0 0 1 3.49 3.5zm-242.51-9.7h20.67a6.63 6.63 0 0 1 6.54 5.66l3.74 26.17h-31zm-24 38h-19.13a.39.39 0 0 1 -.39-.39v-12.35a.39.39 0 0 1 .39-.39h31.44v7h-5.82a6.61 6.61 0 0 0 -6.54 6.21zm11.58 18.7v-13.2h50.47v13.2z"/></svg>