<svg xmlns="http://www.w3.org/2000/svg" viewBox="0 0 768 512"><defs><style>.cls-1{fill:#f7887f;}.cls-2{fill:#ffb531;}.cls-3{fill:#419bc2;}.cls-4{fill:#4db7e5;}.cls-5{fill:#ccccca;}.cls-6{fill:#f57e00;}.cls-7{fill:#3d4d63;}.cls-8{fill:#00a650;}.cls-9{fill:#fff;stroke:#fff;stroke-miterlimit:10;stroke-width:1.5px;}</style></defs><title>wld-01-moi-on-on</title><g id="Equipments"><g id="base"><ellipse class="cls-1" cx="385" cy="256" rx="382" ry="253.34"/></g><g id="icon-wheel_loader"><g id="color"><path class="cls-2" d="M184.57,250.12H202a56.06,56.06,0,0,1,24.82-6,54.5,54.5,0,0,1,42.24,20.26V228.48l-20.6-20.6a12,12,0,0,1-3.54-8.54v-9.57H184.57Z"/><rect class="cls-3" x="256.98" y="111.33" width="84.48" height="12.07"/><path class="cls-4" d="M341.47,220v-9.57l-21.13-21.12L315.56,194a6,6,0,1,1-8.53-8.53l18.1-18.11a6,6,0,0,1,8.53,8.54l-4.78,4.78,12.59,12.59V135.46H257v63.88L277.59,220h63.88Z"/><polygon class="cls-5" points="507.5 256.15 486.29 276.75 486.29 310.46 486.29 322.53 591.47 322.53 566.47 256.15 507.5 256.15"/><rect class="cls-6" x="281.12" y="232.02" width="24.14" height="12.07"/><path class="cls-7" d="M269.05,298.39a42.24,42.24,0,1,0-42.24,42.25A42.24,42.24,0,0,0,269.05,298.39Z"/><rect class="cls-5" x="208.71" y="135.46" width="12.07" height="42.24"/><path class="cls-7" d="M389.74,340.64A36.06,36.06,0,1,0,354,299.24a28.19,28.19,0,0,0-.43,5.19A36.22,36.22,0,0,0,389.74,340.64Z"/><path class="cls-2" d="M395.78,189.77v18.11h33.31a12,12,0,0,1,9.42,4.53l11.58,14.48V200.73a18,18,0,0,1-11-11Z"/><path class="cls-6" d="M395.78,220V232h21.3a12,12,0,0,1,9.27,4.34l47.87,57.44V276.38L429.08,220Z"/><rect class="cls-6" x="281.12" y="280.29" width="24.14" height="12.07"/><rect class="cls-6" x="281.12" y="256.15" width="24.14" height="12.07"/><circle class="cls-5" cx="456.12" cy="183.74" r="6.03"/><path class="cls-2" d="M343.07,292.28a47.07,47.07,0,0,1,5.59-13.09l.11-.18A48.49,48.49,0,0,1,383,256.68a4,4,0,0,1,.69-.15V189.77H353.53V220A12.07,12.07,0,0,1,341.47,232H317.33v60.34h25.74Z"/></g><path class="cls-5" d="M371.64,304.43a18.1,18.1,0,1,0,18.1-18.1A18.1,18.1,0,0,0,371.64,304.43Z"/><path class="cls-5" d="M226.81,274.26A24.14,24.14,0,1,0,251,298.39,24.13,24.13,0,0,0,226.81,274.26Z"/><path d="M371.64,304.43a18.1,18.1,0,1,0,18.1-18.1A18.1,18.1,0,0,0,371.64,304.43Zm24.14,0a6,6,0,1,1-6-6A6,6,0,0,1,395.78,304.43Z"/><path d="M226.81,274.26A24.14,24.14,0,1,0,251,298.39,24.13,24.13,0,0,0,226.81,274.26Zm0,36.2a12.07,12.07,0,1,1,12.07-12.07A12.07,12.07,0,0,1,226.81,310.46Z"/><path d="M202.67,213.91h18.11a6,6,0,0,0,0-12.07H202.67a6,6,0,0,0,0,12.07Z"/><path d="M220.78,232a6,6,0,0,0,0-12.07H202.67a6,6,0,0,0,0,12.07Z"/><path d="M597.12,326.54h0l-.1-.23c0-.06,0-.11-.07-.17l-30.27-70a6,6,0,0,0-.24-12H504.4c-.14,0-.24.07-.38.08a8,8,0,0,0-2.16.52,6,6,0,0,0-1.71,1.15l-19.39,19.38L462.16,242V200.73a18.06,18.06,0,1,0-23-23h-85.6V111.33a12.06,12.06,0,0,0-12.06-12.07H257a12.07,12.07,0,0,0-12.07,12.07v66.38H232.84V135.46a12.07,12.07,0,0,0-12.06-12.07v-6a18.1,18.1,0,0,0-18.11-18.1,6,6,0,0,0,0,12.07,6,6,0,0,1,6,6v6a12.07,12.07,0,0,0-12.07,12.07v42.25H184.57a12.06,12.06,0,0,0-12.07,12.06v60.35a12.07,12.07,0,0,0,12.07,12.07h1.91a54.25,54.25,0,1,0,94.28,42.24h60.71a48.27,48.27,0,1,0,54.31-47.86V244.08h21.3l57.14,68.57v9.88a12.07,12.07,0,0,0,12.07,12.07H591.47a6,6,0,0,0,6-6A5.9,5.9,0,0,0,597.12,326.54ZM257,111.33h84.49v12.06H257Zm-48.27,24.13h12.07v42.25H208.71Zm18.1,205.18a42.25,42.25,0,1,1,42.24-42.25A42.24,42.24,0,0,1,226.81,340.64Zm42.24-76.3a54.5,54.5,0,0,0-42.24-20.26,56.06,56.06,0,0,0-24.82,6H184.57V189.77h60.34v9.57a12,12,0,0,0,3.54,8.54l20.6,20.6Zm36.21,28H281.12V280.29h24.14Zm0-24.14H281.12V256.15h24.14Zm0-24.14H281.12V232h24.14ZM277.58,220,257,199.34V135.46h84.49v57.85l-12.59-12.59,4.78-4.78a6,6,0,0,0-8.53-8.54L307,185.51a6,6,0,1,0,8.53,8.53l4.78-4.78,21.13,21.12V220H277.58Zm71.08,59.24a47.07,47.07,0,0,0-5.59,13.09v.09H317.33V232h24.14A12.07,12.07,0,0,0,353.53,220V189.77h30.18v66.76a4,4,0,0,0-.69.15A48.49,48.49,0,0,0,348.77,279ZM426,304.43a36.21,36.21,0,1,1-72.42,0,28.19,28.19,0,0,1,.43-5.19,36.21,36.21,0,0,1,72,5.19Zm30.17-126.72a6,6,0,1,1-6,6A6,6,0,0,1,456.12,177.71Zm-60.34,12.06h43.35a18,18,0,0,0,11,11v26.16l-11.58-14.48a12,12,0,0,0-9.42-4.53H395.78Zm78.44,104-47.87-57.44a12,12,0,0,0-9.27-4.34h-21.3V220h33.3l45.14,56.43Zm24.14,28.73H486.29V276.76l21.21-20.61h46.08l28.69,66.38H498.36Z"/></g><path d="M355.9,439.38,362.6,404h10.22l-11,49.77H351.45l-8.1-33.29-8.1,33.29H324.93l-11-49.77h10.22l6.73,35.35L339.05,404h8.68Z"/><path d="M388.61,445.5h21.77v8.24h-32V404h10.26Z"/><path d="M416.26,453.74V404h15.31a23.24,23.24,0,0,1,11.74,3,20.54,20.54,0,0,1,8.08,8.41,25.87,25.87,0,0,1,2.91,12.39V430a26.06,26.06,0,0,1-2.85,12.34,20.49,20.49,0,0,1-8.05,8.37,23.47,23.47,0,0,1-11.73,3Zm10.25-41.46V445.5h5q6,0,9.19-3.93t3.25-11.24V427.7q0-7.59-3.15-11.51t-9.19-3.91Z"/><g id="moi"><circle class="cls-8" cx="687" cy="82.66" r="80"/><g id="eagle"><path class="cls-9" d="M688.43,118.81a2,2,0,0,0-3.45,1.43v7.09a2,2,0,1,0,4,0v-7.09A2,2,0,0,0,688.43,118.81Z"/><path class="cls-9" d="M699.33,122.57l-2.84-6.73a2,2,0,0,0-1.87-1.23,2,2,0,0,0-.78.16,2,2,0,0,0-1.07,2.65l2.84,6.73a2,2,0,0,0,3.72-1.58Z"/><path class="cls-9" d="M681.25,115.87a2,2,0,0,0-1.09-1.1h0a2.14,2.14,0,0,0-.79-.16,2.06,2.06,0,0,0-.76.15,2,2,0,0,0-1.1,1.09l-2.84,6.73a2,2,0,0,0,1.08,2.64,2,2,0,0,0,2.64-1.07l2.84-6.73A2,2,0,0,0,681.25,115.87Z"/><path class="cls-9" d="M728,101.46a2,2,0,0,0-.85-1.29h0a2.08,2.08,0,0,0-1.13-.34,1.72,1.72,0,0,0-.39,0,2,2,0,0,0-1.29.86l-7.11,10.62a2,2,0,0,0-.3,1.51,2,2,0,0,0,.85,1.29,2.07,2.07,0,0,0,2.81-.56L727.74,103A2,2,0,0,0,728,101.46Z"/><path class="cls-9" d="M711.81,125.7a2,2,0,0,0-.86-1.28h0a2,2,0,0,0-1.12-.35,2.71,2.71,0,0,0-.4,0,2,2,0,0,0-1.28.86l-1.47,2.19a2,2,0,0,0,.56,2.8,2.06,2.06,0,0,0,2.8-.55l1.47-2.19A2,2,0,0,0,711.81,125.7Z"/><path class="cls-9" d="M665.85,125a2,2,0,0,0-1.68-.89,2,2,0,0,0-1.12.34,2,2,0,0,0-.55,2.8l1.46,2.19a2.06,2.06,0,0,0,2.8.55,2,2,0,0,0,.56-2.8Z"/><path class="cls-9" d="M657.89,111.28c-1.11-2.45-3.09-3.61-4.83-4.64-2-1.17-3.55-2.1-4.09-4.77a2,2,0,0,0-2-1.62,1.87,1.87,0,0,0-.4,0,2,2,0,0,0-1.58,2.38c.9,4.44,3.85,6.18,6,7.45,1.46.86,2.62,1.55,3.2,2.82a2,2,0,1,0,3.68-1.66Z"/><path class="cls-9" d="M740.34,53.85a2,2,0,0,0,0-1.54h0a2,2,0,0,0-1.07-1.11,2,2,0,0,0-1.55,0L711.68,61.59a2,2,0,0,0-1.23,2.25A15.83,15.83,0,0,1,704,79.21l-1.54,1.09-.71-1.75a2,2,0,0,0-1.88-1.26h-5.24l.11-1.6a48.59,48.59,0,0,1,.75-5.2c1.18-6.54,1.62-11.75-4.39-14.28-5.62-2.36-9,.95-10.2,2.48l-.4.51-.64.06c-2,.2-5.5,1.11-6.68,4.94A2,2,0,0,0,677,65.39c.68-2.23,3.73-2.23,4.45-2.1a2.1,2.1,0,0,0,2-1.2c1.18-2.44,3.43-3.25,6-2.16,3.34,1.41,3,4.34,2,9.84a47.52,47.52,0,0,0-.82,6.09l-.07,1.43h-7.65l-.13-1.36a14.69,14.69,0,0,1,.41-5.07,2,2,0,0,0-2.84-2.43,2,2,0,0,0-1,1.18,18,18,0,0,0-.65,6.08l.1,1.6h-4.66a2,2,0,0,0-1.87,1.26l-.71,1.75L670,79.21a15.78,15.78,0,0,1-6.49-15.35,2,2,0,0,0-1.23-2.27L636.27,51.18a2,2,0,0,0-1.55,0,2,2,0,0,0,0,3.73l24.57,9.82,0,1a20.11,20.11,0,0,0,12,18.8l.85.41V97.65a20.51,20.51,0,0,0,.77,5.93l.36,1.21-1.13.57c-3.93,2-5.4,4.75-6.58,7-1.34,2.53-2.14,4.06-5.87,4.67a2,2,0,0,0-1.32.81,2,2,0,0,0-.35,1.5,2,2,0,0,0,2.34,1.67c5.69-.92,7.4-4.16,8.77-6.76,1.16-2.2,2.25-4.27,5.68-5.67l.8-.33.69.54a15.34,15.34,0,0,0,5.13,2.35c1.86.57,3.2,1,3.73,2.15a2,2,0,0,0,1.84,1.18,2,2,0,0,0,1.83-1.18c.54-1.17,1.88-1.58,3.74-2.15a15.34,15.34,0,0,0,5.13-2.35l.69-.54.8.33c3.42,1.4,4.52,3.47,5.67,5.66,1.38,2.61,3.09,5.85,8.81,6.78l.32,0a2,2,0,0,0,.32-4c-3.73-.61-4.54-2.14-5.87-4.67a14.23,14.23,0,0,0-6.58-7l-1.13-.57.36-1.21a20.51,20.51,0,0,0,.77-5.93V85l.85-.4a20.12,20.12,0,0,0,12-18.81l0-1,24.57-9.82A2,2,0,0,0,740.34,53.85Zm-42.53,43.8c0,7.13-2.43,8.39-6.43,9.62h0a15.67,15.67,0,0,0-3.61,1.45l-.77.46-.78-.46a15.78,15.78,0,0,0-3.6-1.45c-4-1.23-6.44-2.49-6.44-9.62V91.18h15a2,2,0,0,0,0-4h-15V81.32h21.63Z"/><path class="cls-9" d="M666.77,88.18a2,2,0,0,0-1.65-.84,2.05,2.05,0,0,0-1.17.37h0l-9.73,6.92a2,2,0,0,0-.47,2.82,2.08,2.08,0,0,0,2.82.47L666.3,91A2,2,0,0,0,666.77,88.18Z"/><path class="cls-9" d="M661.92,83.67a2,2,0,0,0-1.16-2.61,2.06,2.06,0,0,0-.73-.14,2,2,0,0,0-.82.18h0L648.1,86A2,2,0,0,0,647,87.16a2,2,0,0,0,0,1.54,2.07,2.07,0,0,0,2.67,1l11.11-4.94A2,2,0,0,0,661.92,83.67Z"/><path class="cls-9" d="M655.81,77.46a2,2,0,0,0-.64-3.94,2,2,0,0,0-.64.11l-9.61,3.22a2,2,0,0,0,1.29,3.83Z"/><path class="cls-9" d="M635.09,63.25a2,2,0,0,0,1.2,2.6l13.53,5a2.06,2.06,0,0,0,2.59-1.2,2,2,0,0,0-1.2-2.6l-13.53-5a2.09,2.09,0,0,0-.69-.12A2,2,0,0,0,635.09,63.25Z"/><path class="cls-9" d="M665.23,96.78l-3.48,4.2a2,2,0,0,0,.27,2.85,2.07,2.07,0,0,0,2.85-.27l3.47-4.21a2,2,0,0,0-3.11-2.57Z"/><path class="cls-9" d="M707.7,91l9.73,6.92a2.07,2.07,0,0,0,2.82-.48,2,2,0,0,0-.48-2.81L710,87.71a2,2,0,0,0-1.16-.37A2,2,0,0,0,707.7,91Z"/><path class="cls-9" d="M713.14,84.79l11.12,4.94a2,2,0,0,0,2.66-1,2,2,0,0,0,0-1.55A2,2,0,0,0,725.9,86L714.78,81.1a2,2,0,0,0-2.66,1,2,2,0,0,0,1,2.66Z"/><path class="cls-9" d="M716.91,74.9a2,2,0,0,0,1.28,2.56l9.6,3.22a2,2,0,1,0,1.29-3.83l-9.61-3.22a2,2,0,0,0-2.56,1.27Z"/><path class="cls-9" d="M721.59,69.61a2,2,0,0,0,2.59,1.2l13.53-5a2,2,0,0,0-1.39-3.79l-13.53,5A2,2,0,0,0,721.59,69.61Z"/><path class="cls-9" d="M708.77,96.78a2,2,0,0,0-3.12,2.57l3.48,4.21a2,2,0,0,0,1.56.73,2,2,0,0,0,1.28-.46,2,2,0,0,0,.27-2.85Z"/></g></g><g id="moi-2" data-name="moi"><circle class="cls-8" cx="687" cy="429.34" r="80"/></g></g></svg>