<svg id="Devices" xmlns="http://www.w3.org/2000/svg" viewBox="0 0 512 512"><defs><style>.cls-1{opacity:0.5;}.cls-2{fill:#eee;}.cls-3{fill:#ccc;}.cls-4{fill:#9196a9;}.cls-5{fill:#dce1ea;}.cls-6{fill:#bec3d1;}.cls-7{fill:#6df7a5;}</style></defs><title>dv3-ipcam-fixed-default</title><g id="ipcam-fixed-deactive"><g id="base" class="cls-1"><path class="cls-2" d="M256,509A253,253,0,0,1,77.1,77.1,253,253,0,0,1,434.9,434.9,251.37,251.37,0,0,1,256,509Z"/><path class="cls-3" d="M256,6a250.07,250.07,0,0,1,97.31,480.36A250.07,250.07,0,0,1,158.69,25.64,248.53,248.53,0,0,1,256,6m0-6C114.62,0,0,114.62,0,256S114.62,512,256,512,512,397.38,512,256,397.39,0,256,0Z"/></g><g id="ipcam"><path class="cls-4" d="M242.8,304.4h26.4v44H242.8Z"/><path class="cls-5" d="M185.6,357.2H326.4a13.2,13.2,0,1,1,0,26.4H185.6a13.2,13.2,0,1,1,0-26.4Z"/><path class="cls-5" d="M348.4,220.8A92.4,92.4,0,1,1,256,128.4,92.4,92.4,0,0,1,348.4,220.8Z"/><path class="cls-6" d="M316.72,151.28A92.31,92.31,0,0,1,186.48,281.52,92.32,92.32,0,1,0,316.72,151.28Z"/><g id="point_color" data-name="point color"><rect class="cls-7" x="234" y="339.6" width="44" height="22"/><path class="cls-7" d="M330.8,220.8a35.12,35.12,0,0,0,13.4,27.6,92.79,92.79,0,0,0,0-55.2A35.12,35.12,0,0,0,330.8,220.8Z"/><circle class="cls-7" cx="256" cy="220.8" r="57.2"/><path class="cls-7" d="M167.8,248.4a35.12,35.12,0,0,0,0-55.2A92.79,92.79,0,0,0,167.8,248.4Z"/><path class="cls-7" d="M348,212.59c-.14-1.61-.32-3.21-.55-4.79-.07-.55-.14-1.1-.23-1.64q-.47-3-1.13-5.89c-.13-.6-.3-1.18-.44-1.76-.33-1.36-.7-2.7-1.1-4-.12-.42-.25-.83-.38-1.24a36,36,0,0,0-5.61,5.56,89.19,89.19,0,0,1-2.88,39.76,35.55,35.55,0,0,0,8.52,9.84c.09-.3.16-.61.25-.91.7-2.32,1.3-4.66,1.81-7,.19-.88.35-1.76.51-2.64.36-2,.66-3.93.88-5.93.11-.87.22-1.71.3-2.57.26-2.81.44-5.64.44-8.51,0-2.15-.1-4.27-.25-6.38C348.11,213.8,348.06,213.2,348,212.59Z"/></g><path class="cls-6" d="M327.47,357.31a13.14,13.14,0,0,1-9.87,21.89H176.8c-.37,0-.7-.08-1.06-.11a13.1,13.1,0,0,0,9.86,4.51H326.4a13.17,13.17,0,0,0,1.07-26.29Z"/><path class="cls-5" d="M282.4,220.8A26.4,26.4,0,1,1,256,194.4,26.4,26.4,0,0,1,282.4,220.8Z"/><path class="cls-6" d="M272.32,200.08a26.37,26.37,0,0,1-37,37,26.38,26.38,0,1,0,37-37Z"/><path class="cls-4" d="M264.8,220.8A8.8,8.8,0,1,1,256,212,8.8,8.8,0,0,1,264.8,220.8Z"/><path d="M317.6,220.8A61.6,61.6,0,1,0,256,282.4,61.6,61.6,0,0,0,317.6,220.8Zm-114.4,0A52.8,52.8,0,1,1,256,273.6,52.8,52.8,0,0,1,203.2,220.8Z"/><path d="M286.8,220.8A30.8,30.8,0,1,0,256,251.6,30.8,30.8,0,0,0,286.8,220.8Zm-52.8,0a22,22,0,1,1,22,22A22,22,0,0,1,234,220.8Z"/><path d="M219.52,223.92a4.44,4.44,0,0,0,0-6.24,4.39,4.39,0,0,0-4.79-.93,4.61,4.61,0,0,0-1.45.93,4.41,4.41,0,1,0,6.24,6.24Z"/><path d="M222.47,234.35a4.39,4.39,0,0,0-3.34,0,5.13,5.13,0,0,0-1.45.93,4.44,4.44,0,0,0,0,6.24,4.92,4.92,0,0,0,1.45.93,4.13,4.13,0,0,0,3.34,0,4.35,4.35,0,0,0,1.45-7.17A4.61,4.61,0,0,0,222.47,234.35Z"/><path d="M220.8,207.6a4.54,4.54,0,0,0,1.67-.35,4.8,4.8,0,0,0,1.45-.93,4.44,4.44,0,0,0,0-6.24,5,5,0,0,0-1.45-.93,4.46,4.46,0,0,0-4.79.93,5.13,5.13,0,0,0-.93,1.45,4.58,4.58,0,0,0-.35,1.67,4.52,4.52,0,0,0,1.28,3.12A4.61,4.61,0,0,0,220.8,207.6Z"/><path d="M293.93,216.75a5.13,5.13,0,0,0-1.45.93,4.44,4.44,0,0,0,0,6.24,4.92,4.92,0,0,0,1.45.93,4.35,4.35,0,0,0,4.79-.93,6.74,6.74,0,0,0,.53-.7,2.36,2.36,0,0,0,.4-.75,2.72,2.72,0,0,0,.26-.79,6.4,6.4,0,0,0,.09-.88,4.61,4.61,0,0,0-1.28-3.12A4.39,4.39,0,0,0,293.93,216.75Z"/><path d="M288.08,235.28a4.4,4.4,0,1,0,6.24,0A4.61,4.61,0,0,0,288.08,235.28Z"/><path d="M291.2,207.6a4.61,4.61,0,0,0,3.12-1.28,6.74,6.74,0,0,0,.53-.7,2.36,2.36,0,0,0,.4-.75,2.72,2.72,0,0,0,.26-.79,6.4,6.4,0,0,0,.09-.88,4.4,4.4,0,1,0-4.4,4.4Z"/><path d="M269.2,220.8A13.2,13.2,0,1,0,256,234,13.2,13.2,0,0,0,269.2,220.8Zm-17.6,0a4.4,4.4,0,1,1,4.4,4.4A4.4,4.4,0,0,1,251.6,220.8Z"/><path d="M252.88,149.12A4.61,4.61,0,0,0,256,150.4a4.54,4.54,0,0,0,1.67-.35,4.8,4.8,0,0,0,1.45-.93,5,5,0,0,0,.93-1.45,4.35,4.35,0,0,0-.93-4.79,5,5,0,0,0-1.45-.93,4.46,4.46,0,0,0-4.79.93A4.61,4.61,0,0,0,251.6,146a4.54,4.54,0,0,0,.35,1.67A5,5,0,0,0,252.88,149.12Z"/><path d="M348.37,249.77l0-.05c.05-.14.07-.27.11-.41.59-1.9,1.1-3.83,1.57-5.78.14-.58.28-1.18.41-1.75.44-2.07.88-4.15,1.2-6.26,0-.09,0-.19,0-.29.31-2,.53-4.12.71-6.21.05-.55.09-1.1.13-1.65.14-2.17.24-4.37.24-6.57s-.1-4.4-.24-6.55c0-.55-.08-1.1-.13-1.65-.18-2.09-.4-4.16-.71-6.21a2.58,2.58,0,0,0,0-.29c-.33-2.11-.74-4.19-1.2-6.26-.13-.59-.27-1.18-.41-1.76-.47-1.94-1-3.87-1.57-5.77,0-.14-.06-.27-.11-.41l0-.05a96.8,96.8,0,0,0-184.74,0l0,0c0,.14-.07.28-.11.41q-.87,2.85-1.57,5.78c-.14.59-.28,1.18-.41,1.76-.44,2.06-.88,4.14-1.2,6.25a2.85,2.85,0,0,1,0,.29c-.31,2-.53,4.12-.71,6.21,0,.55-.09,1.1-.12,1.66-.15,2.16-.25,4.36-.25,6.56s.1,4.4.25,6.55c0,.55.08,1.1.12,1.65.18,2.09.4,4.16.71,6.22a2.66,2.66,0,0,0,0,.28c.33,2.11.74,4.19,1.2,6.26.13.59.27,1.19.41,1.76.47,1.94,1,3.87,1.57,5.77l.11.41,0,.05A97.11,97.11,0,0,0,238.4,316V335.2H234a4.4,4.4,0,0,0-4.4,4.4v13.2h-44a17.6,17.6,0,0,0,0,35.2H326.4a17.6,17.6,0,1,0,0-35.2h-44V339.6a4.4,4.4,0,0,0-4.4-4.4h-4.4V316A97.12,97.12,0,0,0,348.37,249.77Zm-6.26-47.08c.07.34.13.68.2,1,.51,2.6.93,5.22,1.2,7.89,0,.24,0,.47.06.7.27,2.8.44,5.63.44,8.5a85,85,0,0,1-.44,8.5c0,.23,0,.46-.06.7-.27,2.67-.69,5.28-1.2,7.89-.07.34-.13.68-.2,1s-.18.65-.26,1a30.72,30.72,0,0,1,0-38.18C341.93,202,342,202.36,342.11,202.69ZM169.89,238.91c-.07-.34-.13-.68-.19-1-.52-2.6-.93-5.22-1.21-7.89,0-.24,0-.47-.06-.7-.27-2.78-.43-5.63-.43-8.5a85,85,0,0,1,.44-8.5,5.67,5.67,0,0,1,.06-.7c.28-2.67.69-5.28,1.2-7.89.07-.34.13-.68.2-1s.18-.65.26-1a30.72,30.72,0,0,1,0,38.18C170.07,239.56,170,239.24,169.89,238.91ZM173,249.69a39.36,39.36,0,0,0,0-57.78,87.87,87.87,0,0,1,166.06,0,39.36,39.36,0,0,0,0,57.78,87.87,87.87,0,0,1-166.06,0ZM335.2,370.4a8.8,8.8,0,0,1-8.8,8.8H185.6a8.8,8.8,0,1,1,0-17.6H326.4A8.8,8.8,0,0,1,335.2,370.4Zm-96.8-17.6V344h35.2v8.8Zm26.4-17.6H247.2v-18c2.9.27,5.83.42,8.8.42s5.9-.15,8.8-.42Z"/></g></g></svg>