<svg xmlns="http://www.w3.org/2000/svg" viewBox="0 0 768 512"><defs><style>.cls-1{fill:#f9aeaa;}.cls-2{fill:#3d4d63;}.cls-3{fill:#ccccca;}.cls-4{fill:#ffb531;}.cls-5{fill:#f57e00;}.cls-6{fill:#4db7e5;}</style></defs><title>dt-01-activate</title><g id="Equipments"><g id="base"><ellipse class="cls-1" cx="384" cy="256" rx="382" ry="254"/></g><g id="icon-dump_truck"><circle id="color" class="cls-2" cx="293.29" cy="287.12" r="58.39"/><circle id="color-2" data-name="color" class="cls-2" cx="474.52" cy="293.58" r="51.92"/><circle id="color-3" data-name="color" class="cls-3" cx="293.29" cy="287.12" r="33.58"/><circle id="color-4" data-name="color" class="cls-3" cx="474.52" cy="293.58" r="27.12"/><path id="color-5" data-name="color" class="cls-4" d="M356.85,300.05h33.62a6.47,6.47,0,0,0,5.82-3.57l25.86-51.73,11.1-22.29h70.62l36.85,43a6.46,6.46,0,0,0,4.92,2.25h12.93a12.92,12.92,0,0,0,12.93-12.93V216a32.37,32.37,0,0,0-32.33-32.33h-6.46V138.41a32.37,32.37,0,0,0-32.33-32.32H455.12A12.93,12.93,0,0,0,442.19,119v38.79H414.24L434,108.5l6.13-15.34h47.35a6.47,6.47,0,0,0,0-12.94H440.1a12.89,12.89,0,0,0-12,8.13l-4.5,11.27H251.28a32.14,32.14,0,0,0-28.91,17.87l-25.19,50.36A6.46,6.46,0,0,0,201.4,177l54,13.52,4.6,41.38,33.22,3.49a51.73,51.73,0,0,1,52,51.35ZM519.78,157.81H481V144.88h38.8Z"/><path id="color-6" data-name="color" class="cls-5" d="M287,193.88l6.27,34.85s29.89,2.68,39,14.94h84.05l12.93-24.9,22.23-1.52V190.14H395.71L384,213.6Z"/><rect id="color-7" data-name="color" class="cls-6" x="476.98" y="139.07" width="46.64" height="23.03"/><path d="M474.52,235.4a58.19,58.19,0,1,0,58.19,58.18A58.18,58.18,0,0,0,474.52,235.4Zm0,103.44a45.26,45.26,0,1,1,45.26-45.26A45.26,45.26,0,0,1,474.52,338.84Z"/><path d="M474.52,261.26a32.33,32.33,0,1,0,32.33,32.32A32.32,32.32,0,0,0,474.52,261.26Zm0,51.72a19.4,19.4,0,1,1,19.39-19.4A19.4,19.4,0,0,1,474.52,313Z"/><path d="M293.49,248.33a38.79,38.79,0,1,0,38.79,38.79A38.8,38.8,0,0,0,293.49,248.33Zm0,64.65a25.86,25.86,0,1,1,25.86-25.86A25.86,25.86,0,0,1,293.49,313Z"/><path d="M539.17,183.67h-6.46V138.41a32.37,32.37,0,0,0-32.33-32.32H455.12A12.93,12.93,0,0,0,442.19,119v38.79H414.24L434,108.5l6.13-15.34h47.35a6.47,6.47,0,0,0,0-12.94H440.1a12.89,12.89,0,0,0-12,8.13l-4.5,11.27H251.28a32.14,32.14,0,0,0-28.91,17.87l-25.19,50.36A6.46,6.46,0,0,0,201.4,177l54,13.52,4.6,41.38a64.62,64.62,0,1,0,96.83,68.14h33.62a6.47,6.47,0,0,0,5.82-3.57l25.86-51.73,11.1-22.29h70.62l36.85,43a6.46,6.46,0,0,0,4.92,2.25h12.93a12.92,12.92,0,0,0,12.93-12.93V216A32.37,32.37,0,0,0,539.17,183.67Zm-19.39-25.86H481V144.88h38.8ZM455.12,119h45.26A19.44,19.44,0,0,1,518.67,132H481a12.93,12.93,0,0,0-12.93,12.93v12.93A12.93,12.93,0,0,0,481,170.74h38.8v12.93H455.12Zm-46.05,51.72h33.12v12.93H403.9l1.1-2.74ZM233.93,123.27a19.29,19.29,0,0,1,17.35-10.72H418.42l-23.68,59.21-6.4,16-8.22,20.63-51.77-12.93-39.57-9.88-4.08-1-72.34-18.1ZM272.37,226l-3.56-32.14L281.35,197l3.23,26.07A80.08,80.08,0,0,0,272.37,226Zm21.12,112.82a51.78,51.78,0,1,1,36.68-15.29A51.73,51.73,0,0,1,293.49,338.84Zm51.72-90.51h60.63l-6.47,12.93H352.7a71.66,71.66,0,0,0-7.46-12.93Zm41.23,38.79h-28.3a71,71,0,0,0-1.29-12.93H393Zm35.21-70.47-9.32,18.75H332.12a64.32,64.32,0,0,0-34.53-12.73l-2.81-22.29L325.17,208l57.23,14.3a6.15,6.15,0,0,0,1.6.19,6.46,6.46,0,0,0,6-4.06l8.71-21.8h43.47v12.93h-8.94a12.87,12.87,0,0,0-11.56,7.12Zm136.92,38.14h-10L513.7,214.06a13,13,0,0,0-9.83-4.53H455.12V196.6h84a19.41,19.41,0,0,1,19.4,19.4Z"/><path d="M355.59,183.15a6.46,6.46,0,0,0,8.49-3.4l19.4-45.25a6.47,6.47,0,1,0-11.89-5.1L352.2,174.66A6.46,6.46,0,0,0,355.59,183.15Z"/><path d="M326.36,175.84a6.47,6.47,0,0,0,8.5-3.39l16.29-37.95a6.47,6.47,0,0,0-11.88-5.11l-16.3,38A6.47,6.47,0,0,0,326.36,175.84Z"/><path d="M297.22,168.54a6.46,6.46,0,0,0,8.49-3.4l13.11-30.64a6.46,6.46,0,1,0-11.88-5.1l-13.13,30.65A6.47,6.47,0,0,0,297.22,168.54Z"/><path d="M286.5,134.54a6.47,6.47,0,0,0-11.89-5.11l-10,23.34a6.47,6.47,0,1,0,11.89,5Z"/></g><path d="M346.52,453.74V404h15.31a23.24,23.24,0,0,1,11.74,3,20.57,20.57,0,0,1,8.09,8.41,26,26,0,0,1,2.9,12.39V430a26,26,0,0,1-2.85,12.34,20.42,20.42,0,0,1-8,8.37,23.41,23.41,0,0,1-11.72,3Zm10.26-41.46V445.5h5q6,0,9.2-3.93c2.11-2.62,3.2-6.37,3.24-11.24V427.7q0-7.59-3.14-11.51t-9.2-3.91Z"/><path d="M426.57,412.28H411.33v41.46H401.07V412.28H386V404h40.54Z"/></g></svg>