<svg xmlns="http://www.w3.org/2000/svg" viewBox="0 0 764 508"><defs><style>.cls-1{fill:#caabef;}.cls-2{fill:#ea8500;}.cls-3{fill:#f7f2eb;}.cls-4{fill:#b3b3b3;}.cls-5{fill:#4db7e5;}.cls-6{fill:#d8d6d4;}.cls-7{fill:#3d4d63;}.cls-8{fill:#051c1b;}</style></defs><title>mx-01-activate</title><g id="Equipments"><rect class="cls-1" width="764" height="508" rx="100"/><path d="M346.66,392l12.78,36.1L372.16,392h13.46v49.77H375.33v-13.6l1-23.48-13.43,37.08h-7l-13.4-37.05,1,23.45v13.6H333.26V392Z"/><path d="M413,409.13,422.3,392h11.79L419.6,416.65l14.87,25.09H422.54L413,424.31l-9.57,17.43H391.47l14.87-25.09L391.84,392h11.8Z"/><g id="icon-mixer"><path class="cls-2" d="M438.63,268.29V139a4.51,4.51,0,0,1,4.51-4.51h17.79V268.29Z"/><path class="cls-3" d="M161.44,96.1,147,138.18c-2.47,7.18-1.6,15,2.33,20.73l21.1,30.88c45.65,66.86,125,94.18,202.14,69.6L408.16,248c6.64-2.11,12.12-7.72,14.59-14.9l14.49-42.08c2.47-7.18,1.6-15-2.33-20.72l-21.09-30.89c-45.66-66.86-125-94.17-202.15-69.59L176,81.2C169.4,83.32,163.91,88.92,161.44,96.1Z"/><path class="cls-3" d="M610.45,276.87H460.93V102A11.07,11.07,0,0,1,472,90.94h81.89a11.07,11.07,0,0,1,9.3,5.07l45.49,70.55a11.1,11.1,0,0,1,1.77,6V276.87Z"/><path class="cls-4" d="M149.6,296.38H614.4a11.52,11.52,0,0,0,11.52-11.52v-5.05a11.52,11.52,0,0,0-11.52-11.52H149.6a11.52,11.52,0,0,0-11.52,11.52v5.05A11.52,11.52,0,0,0,149.6,296.38Z"/><path class="cls-5" d="M584.94,177.43h0a2.13,2.13,0,0,0-.33-1.13l-38-58.85a2.16,2.16,0,0,0-1.83-1h-56.2a2.19,2.19,0,0,0-2.19,2.18v58.8a2.19,2.19,0,0,0,2.19,2.18h94.12A2.19,2.19,0,0,0,584.94,177.43Z"/><path class="cls-2" d="M170.38,189.79,159,173.11v95.18h31.81V214.85A190.32,190.32,0,0,1,170.38,189.79Z"/><path class="cls-6" d="M224.75,242.28a172.22,172.22,0,0,0,71.44,24.86L350,81.48a172.32,172.32,0,0,0-72.76-20.29Z"/><circle class="cls-7" cx="535.28" cy="300.1" r="46.56"/><circle class="cls-4" cx="535.28" cy="300.1" r="19.4"/><circle class="cls-7" cx="233.26" cy="300.1" r="46.56"/><circle class="cls-4" cx="233.26" cy="300.1" r="19.4"/><path class="cls-8" d="M592.09,177.43a9.2,9.2,0,0,0-1.48-5l-37.94-58.84a9.29,9.29,0,0,0-7.84-4.28h-56.2a9.34,9.34,0,0,0-9.33,9.33v58.8a9.34,9.34,0,0,0,9.33,9.33h94.12A9.35,9.35,0,0,0,592.09,177.43Zm-98.5-5V123.59h48.53l31.52,48.88Z"/><path class="cls-8" d="M480.5,205.79v9.75a7.15,7.15,0,1,0,14.29,0v-9.75a7.15,7.15,0,1,0-14.29,0Z"/><path class="cls-8" d="M535.28,273.55a26.55,26.55,0,1,0,26.54,26.55A26.58,26.58,0,0,0,535.28,273.55Zm0,38.8a12.26,12.26,0,1,1,12.25-12.25A12.27,12.27,0,0,1,535.28,312.35Z"/><path class="cls-8" d="M233.26,273.55a26.55,26.55,0,1,0,26.55,26.55A26.57,26.57,0,0,0,233.26,273.55Zm0,38.8a12.26,12.26,0,1,1,12.25-12.25A12.26,12.26,0,0,1,233.26,312.35Z"/><path class="cls-8" d="M492.41,83.79H472A18.23,18.23,0,0,0,453.79,102v25.3H443.14A11.67,11.67,0,0,0,431.48,139v13.67l-11.76-17.22C389.22,90.75,344,62.52,293.06,55.52l-.83-.11c-1.33-.18-2.67-.34-4-.49L287,54.79c-1.27-.13-2.53-.25-3.8-.35l-1.52-.12c-1.19-.09-2.39-.17-3.58-.23l-.51,0h-.28c-3.09-.16-6.2-.25-9.32-.25A192.54,192.54,0,0,0,209.5,63L173.86,74.39a30.55,30.55,0,0,0-19.18,19.38l-14.49,42.08c-3.21,9.34-2,19.46,3.19,27.08l8.45,12.38v85.83H149.6a18.69,18.69,0,0,0-18.67,18.67v5a18.68,18.68,0,0,0,18.67,18.67h30.08a53.69,53.69,0,0,0,107.16,0H481.7a53.69,53.69,0,0,0,107.16,0H614.4a18.68,18.68,0,0,0,18.67-18.67v-5a18.68,18.68,0,0,0-15.48-18.37V172.56a18.18,18.18,0,0,0-2.9-9.87L569.2,92.14a18.14,18.14,0,0,0-15.31-8.35H492.41Zm28.78,14.29h32.7a3.93,3.93,0,0,1,3.3,1.8l45.49,70.56a4,4,0,0,1,.62,2.12v88.58H572.18a53.57,53.57,0,0,0-73.81,0H468.08V102A3.93,3.93,0,0,1,472,98.08h49.19ZM197.94,231.44A184.39,184.39,0,0,0,220.3,248a53.56,53.56,0,0,0-22.36,11.71Zm240.69,44h49a53.42,53.42,0,0,0-4.92,13.79H285.86a53.42,53.42,0,0,0-4.92-13.79Zm-158.76-2,0,0Zm208.81,0v0l0,0ZM453.79,141.59V261.14h-8V141.59ZM431.48,261.14H390.54l19.79-6.3a30.55,30.55,0,0,0,19.18-19.38l2-5.72v31.4ZM407.92,143.47,429,174.36c2.63,3.86,3.2,9.36,1.47,14.37L416,230.81c-1.73,5-5.56,9-10,10.41l-35.64,11.36a178.3,178.3,0,0,1-54.13,8.56h0c-3.61,0-7.19-.12-10.75-.34L354.33,92.17A175.65,175.65,0,0,1,407.92,143.47ZM239.64,165.19,220.58,231A172.61,172.61,0,0,1,196,210l-.1-.12q-2.46-2.53-4.81-5.17l-.68-.76c-.68-.77-1.35-1.54-2-2.32l-1-1.21c-.82-1-1.62-1.94-2.41-2.93-.66-.81-1.31-1.63-2-2.46l-1.2-1.57c-.61-.81-1.23-1.63-1.83-2.45l-1-1.35c-.92-1.28-1.84-2.57-2.73-3.89l-21.1-30.89c-2.63-3.85-3.2-9.36-1.47-14.36l14.48-42.08c1.73-5,5.56-9,10-10.42l35.64-11.35a178,178,0,0,1,53.94-8.57l-20.09,69.34Zm21.78-23.78,21.06-72.69.23,0,2.7.26,1.75.19c.91.1,1.81.21,2.72.33l1.61.22c1.69.24,3.37.5,5.05.79l1.48.25,2.71.52,1.61.33c.93.19,1.85.39,2.77.6l1.14.26q5,1.19,10,2.68l.41.12a164,164,0,0,1,24.83,9.85L291,259.25c-1.27-.19-2.54-.4-3.8-.62h0q-7.59-1.32-15-3.33l-.12,0c-1.21-.33-2.42-.68-3.62-1l-.11,0A164.6,164.6,0,0,1,233.14,239l20.23-69.81Zm-95.29,54.8c.22.32.46.62.69.94.89,1.25,1.8,2.49,2.71,3.71.35.48.7.95,1.06,1.42a197.36,197.36,0,0,0,13.06,15.44v43.43H166.13Zm-20.91,88.64v-5a4.38,4.38,0,0,1,4.38-4.37h36a53,53,0,0,0-4.91,13.79H149.6A4.39,4.39,0,0,1,145.22,284.85Zm88,54.65a39.41,39.41,0,1,1,39.41-39.4A39.45,39.45,0,0,1,233.26,339.5Zm302,0a39.41,39.41,0,1,1,39.41-39.4A39.45,39.45,0,0,1,535.28,339.5Zm83.5-54.65a4.39,4.39,0,0,1-4.38,4.38H587.87A53,53,0,0,0,583,275.44H614.4a4.38,4.38,0,0,1,4.38,4.37v5Z"/></g></g></svg>