<svg xmlns="http://www.w3.org/2000/svg" viewBox="0 0 1280 640"><defs><style>.cls-1{fill:#cecece;}.cls-2{fill:#bf2810;}.cls-3,.cls-9{fill:#ed441d;}.cls-4{fill:#f98b78;}.cls-5{fill:#3d4d63;}.cls-6{fill:#ccccca;}.cls-7{fill:#f70d0d;}.cls-8{fill:#c4270e;}.cls-8,.cls-9{stroke:#000;stroke-miterlimit:10;stroke-width:10px;}.cls-10{fill:#828282;}.cls-11{fill:#5a5a5a;}.cls-12{fill:#282828;}</style></defs><title>jd-3b-01-activate</title><g id="Equipments"><ellipse class="cls-1" cx="640" cy="319.75" rx="638" ry="317.75"/><path d="M875,412.22h10.26v34.45a16.43,16.43,0,0,1-2.11,8.4,14.3,14.3,0,0,1-5.93,5.62,18.52,18.52,0,0,1-8.64,2q-7.9,0-12.31-4t-4.41-11.37H862.2c0,2.44.52,4.24,1.54,5.4s2.64,1.74,4.86,1.74a5.89,5.89,0,0,0,4.68-2,8.55,8.55,0,0,0,1.74-5.75Z"/><path d="M894.06,462V412.22h15.31a23.24,23.24,0,0,1,11.74,3,20.57,20.57,0,0,1,8.09,8.41A26,26,0,0,1,932.1,436v2.29a26.06,26.06,0,0,1-2.85,12.34,20.49,20.49,0,0,1-8,8.37,23.55,23.55,0,0,1-11.73,3Zm10.25-41.46v33.22h5q6,0,9.19-3.93t3.25-11.25v-2.63q0-7.59-3.14-11.5t-9.2-3.91Z"/><path d="M958.11,444.66H938.87v-8h19.24Z"/><path d="M975.68,432.73h5.26q3.76,0,5.58-1.88a6.92,6.92,0,0,0,1.81-5,6.06,6.06,0,0,0-1.8-4.68,6.93,6.93,0,0,0-4.94-1.68,7.28,7.28,0,0,0-4.75,1.56,5,5,0,0,0-1.91,4.05h-9.88a12.15,12.15,0,0,1,2.1-7,14,14,0,0,1,5.88-4.84,19.65,19.65,0,0,1,8.32-1.74q7.9,0,12.38,3.78t4.47,10.4a10.46,10.46,0,0,1-2.08,6.29,13.43,13.43,0,0,1-5.47,4.41,12.39,12.39,0,0,1,6.27,4.51A12.25,12.25,0,0,1,999,448a13.08,13.08,0,0,1-4.84,10.63q-4.83,4-12.8,4-7.44,0-12.18-3.93a12.82,12.82,0,0,1-4.73-10.39h9.87a5.7,5.7,0,0,0,2.11,4.58,8.74,8.74,0,0,0,10.69-.09,6.39,6.39,0,0,0,2-4.93q0-7.46-8.2-7.46h-5.23Z"/><path d="M1006.85,462V412.22h17.43q9.06,0,13.74,3.47t4.69,10.17a11.24,11.24,0,0,1-1.88,6.44,10.92,10.92,0,0,1-5.23,4.09,10.5,10.5,0,0,1,6,3.86,11.43,11.43,0,0,1,2.2,7.11q0,7.17-4.58,10.87t-13,3.76Zm10.26-28.92h7.58q7.77-.13,7.76-6.19c0-2.25-.65-3.88-2-4.87s-3.38-1.48-6.21-1.48h-7.17Zm0,7.25v13.43h8.78a8.49,8.49,0,0,0,5.66-1.73,5.93,5.93,0,0,0,2-4.76q0-6.84-7.07-6.94Z"/><g id="icon-jumbo_drill"><rect class="cls-2" x="404.8" y="390.81" width="102.24" height="51.69"/><path d="M502,395.81v41.68H409.8V395.81H502m10-10H399.8v61.68H512V385.81Z"/><g id="color"><path class="cls-3" d="M500.37,434.16a43.45,43.45,0,0,1,4.71-.26H689.51a43.25,43.25,0,0,1,4.69.29h.39l23.23-19.36L694.16,398a20.18,20.18,0,1,1,7.46-10.59l20.21,14.35V349.85H586.06v32.32a12.93,12.93,0,0,1-12.93,12.93H518a6.42,6.42,0,0,1-4.59-1.89l-24-24a12.73,12.73,0,0,1-3.77-9.12V349.85H472.75v61.62L500,434.16Z"/><path class="cls-4" d="M683,375.71a6.47,6.47,0,1,0,6.47,6.46A6.46,6.46,0,0,0,683,375.71Z"/></g><path d="M628.39,369.24v19.4a6.47,6.47,0,0,0,12.93,0v-19.4a6.47,6.47,0,0,0-12.93,0Z"/><path d="M609,369.24v19.4a6.47,6.47,0,0,0,12.93,0v-19.4a6.47,6.47,0,0,0-12.93,0Z"/><path d="M560.2,421h19.39a6.47,6.47,0,1,0,0-12.93H560.2a6.47,6.47,0,1,0,0,12.93Z"/><path d="M701.07,447l27.66-24.46s6-4.54,6-11.58V349.85a12.94,12.94,0,0,0-12.94-12.94H586.06V305.79a12.93,12.93,0,0,0-12.93-12.93H498.61a12.93,12.93,0,0,0-12.93,12.93v31.12H472.75a12.93,12.93,0,0,0-12.93,12.94V414.5a6.46,6.46,0,0,0,2.32,5l31.91,28.07ZM498.61,318.73V305.79h74.52v47.84l-13.49-13.48,5.13-5.13a6.46,6.46,0,0,0-9.14-9.14l-19.4,19.39a6.47,6.47,0,1,0,9.14,9.15l5.13-5.13,22.63,22.63v10.25H520.68L498.61,360.1V318.73Zm223.22,83-20.21-14.35A19.4,19.4,0,1,0,694.16,398l23.66,16.81-23.23,19.36h-.39a43.25,43.25,0,0,0-4.69-.29H505.08a43.45,43.45,0,0,0-4.71.26H500l-27.24-22.69V349.85h12.93v10.27a12.73,12.73,0,0,0,3.77,9.12l24,24A6.42,6.42,0,0,0,518,395.1h55.12a12.93,12.93,0,0,0,12.93-12.93V349.85H721.83Zm-32.32-19.61a6.47,6.47,0,1,1-6.47-6.46A6.47,6.47,0,0,1,689.51,382.17Z"/><path class="cls-3" d="M431.82,414.5V344.85a12.93,12.93,0,0,1,12.93-12.94V305.79H254.48l-76.93,15.73a31.27,31.27,0,0,0-26.72,30.94v38.11a31.27,31.27,0,0,0,24.46,30.53l88.44,26.44H466.05l-31.91-28.07A6.46,6.46,0,0,1,431.82,414.5Z"/><path d="M434.75,315.79v8.42a23,23,0,0,0-12.93,20.64V414.5a16.43,16.43,0,0,0,5.8,12.55l11.92,10.49H265.19l-87-26-.34-.1-.34-.08a21.16,21.16,0,0,1-16.64-20.77V352.46a21.4,21.4,0,0,1,18.18-21l.27,0,.28-.05,75.93-15.53H434.75m10-10H254.48l-76.93,15.73a31.27,31.27,0,0,0-26.72,30.94v38.11a31.27,31.27,0,0,0,24.46,30.53l88.44,26.44H466.05l-31.91-28.07a6.46,6.46,0,0,1-2.32-5V344.85a12.93,12.93,0,0,1,12.93-12.94V305.79Z"/><circle id="color-2" data-name="color" class="cls-5" cx="643.4" cy="452.98" r="42.84"/><circle id="color-3" data-name="color" class="cls-6" cx="643.4" cy="452.98" r="22.38"/><path d="M643.4,405a48,48,0,1,0,48,48A48,48,0,0,0,643.4,405Zm0,85.36A37.35,37.35,0,1,1,680.75,453,37.35,37.35,0,0,1,643.4,490.33Z"/><path d="M643.4,426.31A26.68,26.68,0,1,0,670.08,453,26.67,26.67,0,0,0,643.4,426.31Zm0,42.68a16,16,0,1,1,16-16A16,16,0,0,1,643.4,469Z"/><circle id="color-4" data-name="color" class="cls-5" cx="339.64" cy="452.98" r="42.84"/><circle id="color-5" data-name="color" class="cls-6" cx="339.64" cy="452.98" r="22.38"/><path d="M339.64,405a48,48,0,1,0,48,48A48,48,0,0,0,339.64,405Zm0,85.36A37.35,37.35,0,1,1,377,453,37.35,37.35,0,0,1,339.64,490.33Z"/><path d="M339.64,426.31A26.68,26.68,0,1,0,366.31,453,26.67,26.67,0,0,0,339.64,426.31Zm0,42.68a16,16,0,1,1,16-16A16,16,0,0,1,339.64,469Z"/><polygon class="cls-7" points="155.83 380.81 155.83 355.81 268.52 355.81 288.21 340.59 426.81 340.59 426.81 365.59 295.04 365.59 275.35 380.81 155.83 380.81"/><path d="M421.8,345.59v15H293.33l-2.7,2.09-17,13.13H160.83v-15h109.4l2.7-2.09,17-13.13H421.8m10-10H286.5l-19.68,15.22h-116v35H277.06l19.68-15.22H431.8v-35Z"/><path class="cls-8" d="M599.06,283v61h42.26V275.06a9.35,9.35,0,0,0-9.35-9.35H616.34Z"/><rect class="cls-9" x="795.12" y="112.11" width="26" height="372.92" rx="10.35" transform="translate(1106.69 -509.55) rotate(90)"/><g id="drill-top"><polygon class="cls-9" points="905.35 265.71 895.35 246.11 1015.35 246.11 1005.35 265.71 905.35 265.71"/><circle class="cls-9" cx="955.35" cy="274.64" r="16.78"/><rect class="cls-9" x="756.47" y="235.18" width="372.7" height="10.29"/><path class="cls-9" d="M1116,227.32h16a5,5,0,0,1,5,5v5.29a0,0,0,0,1,0,0h-26a0,0,0,0,1,0,0v-5.29A5,5,0,0,1,1116,227.32Z" transform="translate(1356.49 -891.57) rotate(90)"/><path class="cls-9" d="M744.11,217.82h35a5,5,0,0,1,5,5v5.29a0,0,0,0,1,0,0h-45a0,0,0,0,1,0,0v-5.29A5,5,0,0,1,744.11,217.82Z" transform="translate(984.58 -538.65) rotate(90)"/><path class="cls-10" d="M771.7,206.1H885a3.43,3.43,0,0,1,2,.68l4.54,3.41a1.37,1.37,0,0,1,0,2.19l-4.54,3.4a3.38,3.38,0,0,1-2,.69H771.7Z"/><path class="cls-11" d="M771.7,210.25H886.12l6,.89a1.29,1.29,0,0,0-.53-.95L887,206.78a3.43,3.43,0,0,0-2-.68H771.7Z"/><path class="cls-12" d="M810.65,204.47l4.27,19a1.37,1.37,0,0,1-1.34,1.66h-1.46a9,9,0,0,1-8.77-7l-4.26-19a1.36,1.36,0,0,1,1.33-1.67h1.47A9,9,0,0,1,810.65,204.47Z"/><path class="cls-12" d="M831.73,204.47l4.27,19a1.37,1.37,0,0,1-1.34,1.66H833.2a9,9,0,0,1-8.77-7l-4.27-19a1.37,1.37,0,0,1,1.34-1.67H823A9,9,0,0,1,831.73,204.47Z"/><path class="cls-12" d="M853.15,204.47l4.27,19a1.36,1.36,0,0,1-1.33,1.66h-1.47a9,9,0,0,1-8.77-7l-4.26-19a1.36,1.36,0,0,1,1.33-1.67h1.47A9,9,0,0,1,853.15,204.47Z"/><path class="cls-12" d="M874.92,204.47l4.26,19a1.36,1.36,0,0,1-1.33,1.66h-1.47a9,9,0,0,1-8.76-7l-4.27-19a1.37,1.37,0,0,1,1.33-1.67h1.47A9,9,0,0,1,874.92,204.47Z"/></g><g id="drill-top-2" data-name="drill-top"><polygon class="cls-9" points="905.35 206.75 895.35 187.15 1015.35 187.15 1005.35 206.75 905.35 206.75"/><circle class="cls-9" cx="955.35" cy="215.68" r="16.78"/><rect class="cls-9" x="756.47" y="176.22" width="372.7" height="10.29"/><path class="cls-9" d="M1116,168.36h16a5,5,0,0,1,5,5v5.29a0,0,0,0,1,0,0h-26a0,0,0,0,1,0,0v-5.29A5,5,0,0,1,1116,168.36Z" transform="translate(1297.53 -950.53) rotate(90)"/><path class="cls-9" d="M744.11,158.86h35a5,5,0,0,1,5,5v5.29a0,0,0,0,1,0,0h-45a0,0,0,0,1,0,0v-5.29A5,5,0,0,1,744.11,158.86Z" transform="translate(925.62 -597.61) rotate(90)"/><path class="cls-10" d="M771.7,147.14H885a3.43,3.43,0,0,1,2,.68l4.54,3.41a1.37,1.37,0,0,1,0,2.19l-4.54,3.4a3.43,3.43,0,0,1-2,.68H771.7Z"/><path class="cls-11" d="M771.7,151.28H886.12l6,.9a1.29,1.29,0,0,0-.53-1L887,147.82a3.43,3.43,0,0,0-2-.68H771.7Z"/><path class="cls-12" d="M810.65,145.51l4.27,19a1.37,1.37,0,0,1-1.34,1.67h-1.46a9,9,0,0,1-8.77-7l-4.26-19a1.36,1.36,0,0,1,1.33-1.67h1.47A9,9,0,0,1,810.65,145.51Z"/><path class="cls-12" d="M831.73,145.51l4.27,19a1.37,1.37,0,0,1-1.34,1.67H833.2a9,9,0,0,1-8.77-7l-4.27-19a1.37,1.37,0,0,1,1.34-1.67H823A9,9,0,0,1,831.73,145.51Z"/><path class="cls-12" d="M853.15,145.51l4.27,19a1.37,1.37,0,0,1-1.33,1.67h-1.47a9,9,0,0,1-8.77-7l-4.26-19a1.36,1.36,0,0,1,1.33-1.67h1.47A9,9,0,0,1,853.15,145.51Z"/><path class="cls-12" d="M874.92,145.51l4.26,19a1.37,1.37,0,0,1-1.33,1.67h-1.47a9,9,0,0,1-8.76-7l-4.27-19a1.37,1.37,0,0,1,1.33-1.67h1.47A9,9,0,0,1,874.92,145.51Z"/></g></g></g></svg>