<svg xmlns="http://www.w3.org/2000/svg" viewBox="0 0 640 512"><defs><style>.cls-1{fill:#efec86;}.cls-2{fill:#4db7e5;}.cls-3{fill:#3c3b41;}.cls-4{fill:#ffa91f;}.cls-5{fill:#ff9a00;}.cls-6{fill:#7985eb;}.cls-7{fill:#ffb74f;}.cls-8{fill:#419bc2;}.cls-9{fill:#6d76e7;}.cls-10{fill:#ccccca;}.cls-11{fill:#f5f5f5;}</style></defs><title>jcb-01-activate</title><g id="Equipments"><g id="base"><ellipse class="cls-1" cx="320" cy="256" rx="318" ry="254"/></g><g id="icon-jcb"><path class="cls-2" d="M351.19,225.07l15.12,4.32-8.58-40h-51V256H372l-3-14.29-20.46-5.84-1.21,4.82a5.53,5.53,0,0,1-5.37,4.2,5.62,5.62,0,0,1-1.36-.16,5.55,5.55,0,0,1-4-6.74l5.55-22.21a5.55,5.55,0,1,1,10.77,2.7Z"/><path class="cls-3" d="M245.63,200.46a5.54,5.54,0,0,0-5.55,5.55v5.55H206.76a5.55,5.55,0,0,0-5.55,5.55,5.55,5.55,0,0,1-11.08.56,5.55,5.55,0,0,0-11.07.66c.58,28.21,16.33,32.1,33.26,32.1,23.24,0,38.86-13.39,38.86-33.32V206A5.55,5.55,0,0,0,245.63,200.46Z"/><path class="cls-4" d="M227.7,124.73a5.54,5.54,0,0,0-4.28-2H201.21a11.11,11.11,0,0,1,0-22.21h14.55A5.55,5.55,0,0,0,221,93.26l-6.11-18.88A18.41,18.41,0,0,0,179,80.06V217.11a5.56,5.56,0,0,0,11.11,0,5.55,5.55,0,0,1,11.1,0,5.55,5.55,0,0,0,5,5.55h.52a5.54,5.54,0,0,0,5.45-4.53l16.66-88.83A5.59,5.59,0,0,0,227.7,124.73Z"/><path class="cls-5" d="M352.48,180.92l-38.2-63a5.56,5.56,0,0,0-4.63-2.67,5.84,5.84,0,0,0-4.74,2.47,11.18,11.18,0,0,1-9.31,5H274.55a5.54,5.54,0,0,0-5.29,7.21l17.55,55.52a5.55,5.55,0,0,0,5.29,3.89h55.63a5.55,5.55,0,0,0,4.75-8.43Z"/><path class="cls-6" d="M373.67,242.82a5.36,5.36,0,0,1-1.54-.22L343,234.27A5.55,5.55,0,1,1,346,223.6l29.15,8.33a5.55,5.55,0,0,1-1.52,10.89Z"/><path class="cls-7" d="M341.91,244.87a5.68,5.68,0,0,1-1.36-.16,5.55,5.55,0,0,1-4-6.74l5.55-22.21a5.55,5.55,0,1,1,10.77,2.7l-5.55,22.21A5.55,5.55,0,0,1,341.91,244.87Z"/><path class="cls-3" d="M451.06,261.53H413.91a5.55,5.55,0,0,0-3.06,10.18,27.66,27.66,0,0,1,12.45,23.13v5.55a5.55,5.55,0,0,0,5.55,5.56h22.21a5.56,5.56,0,0,0,5.55-5.56V267.08A5.55,5.55,0,0,0,451.06,261.53Z"/><path class="cls-4" d="M499.92,313.75l-15.71-21.26a5.41,5.41,0,0,0-.55-.62,16.77,16.77,0,0,1-4.84-11.78V250.43a11.11,11.11,0,0,0-11.11-11.11h-11.1a11.11,11.11,0,0,0-11.11,11.11V311.5a11.11,11.11,0,0,0,11.11,11.1h38.86a5.56,5.56,0,0,0,4.45-8.85Z"/><path class="cls-8" d="M301.15,178.25H289.28a16.7,16.7,0,0,0-16.61,15.46l-4.83,67.42a5.55,5.55,0,0,0,5.55,5.95h27.76a5.54,5.54,0,0,0,5.55-5.55V183.8A5.54,5.54,0,0,0,301.15,178.25Z"/><path class="cls-9" d="M368.59,187a11.17,11.17,0,0,0-10.86-8.77H289.28a16.7,16.7,0,0,0-16.61,15.46l-4.83,67.42a5.55,5.55,0,0,0,5.55,5.95H378.88a5.55,5.55,0,0,0,5.43-6.71Zm-84.85,7.49a5.56,5.56,0,0,1,5.56-5.16h6.3V256H279.35Zm23,61.47V189.35h51L372,256Z"/><path class="cls-4" d="M417,262.47A38.34,38.34,0,0,0,395.53,256H273.39a5.54,5.54,0,0,0-5.55,5.55v5.55a5.54,5.54,0,0,0,5.55,5.55,27.17,27.17,0,0,1,4.77.39,33.28,33.28,0,0,1,28.43,30.59,5.29,5.29,0,0,0,.05.56,33.41,33.41,0,0,1-1.32,11.29,5.55,5.55,0,0,0,5.32,7.14h46a5.54,5.54,0,0,0,5.55-5.55,22.21,22.21,0,1,1,44.42,0,5.55,5.55,0,0,0,5.55,5.55h16.66a5.55,5.55,0,0,0,5.55-5.55V294.84A38.72,38.72,0,0,0,417,262.47Z"/><path class="cls-7" d="M311.29,95.93a22.06,22.06,0,0,0-15.69-6.52H201.21a22.21,22.21,0,0,0,0,44.42H295.6a22.19,22.19,0,0,0,15.69-37.9Z"/><path class="cls-5" d="M284.49,117.18h-11.1a5.56,5.56,0,0,1,0-11.11h11.1a5.56,5.56,0,1,1,0,11.11Z"/><path class="cls-5" d="M212.32,117.18h-5.56a5.56,5.56,0,0,1,0-11.11h5.56a5.56,5.56,0,0,1,0,11.11Z"/><path class="cls-10" d="M195.66,200.46A16.65,16.65,0,0,0,179,217.11a11.69,11.69,0,0,0,.09,1.67,16.66,16.66,0,1,0,16.57-18.32Z"/><path class="cls-3" d="M317.63,302.35a44.37,44.37,0,0,0-37.69-40.29,37,37,0,0,0-6.55-.53,44.41,44.41,0,1,0,42.52,57.28l0-.18a44.07,44.07,0,0,0,1.77-15.19A5.74,5.74,0,0,0,317.63,302.35Z"/><path class="cls-3" d="M417.74,317.05a33.31,33.31,0,1,1-33.31-33.31A33.31,33.31,0,0,1,417.74,317.05Z"/><path class="cls-11" d="M395.53,317.05a11.1,11.1,0,1,1-11.1-11.1A11.1,11.1,0,0,1,395.53,317.05Z"/><path class="cls-10" d="M273.39,283.74a22.12,22.12,0,1,0,15.73,6.48A22.21,22.21,0,0,0,273.39,283.74Z"/><path d="M395.53,317.05a11.1,11.1,0,1,1-11.1-11.1A11.1,11.1,0,0,1,395.53,317.05Z"/><path d="M273.39,283.74a22.12,22.12,0,1,0,15.73,6.48A22.21,22.21,0,0,0,273.39,283.74ZM284,309.28a11.11,11.11,0,1,1,.51-3.33A11.1,11.1,0,0,1,284,309.28Z"/><path d="M484.24,292.49a6.66,6.66,0,0,0-.56-.62,16.74,16.74,0,0,1-4.86-11.78V250.43a11.11,11.11,0,0,0-11.11-11.11h-11.1a11.11,11.11,0,0,0-11.11,11.11v11.1H415.35A38.25,38.25,0,0,0,395.53,256H383.37l-14.78-69a11.17,11.17,0,0,0-10.86-8.77h-6.87l-35-57.66A22.21,22.21,0,0,0,295.6,89.41H219.8l-4.87-15A18.42,18.42,0,0,0,179,80.06V217.11a14.11,14.11,0,0,0,.08,1.59c.72,27.84,16.38,31.73,33.24,31.73,23.24,0,38.86-13.39,38.86-33.32V206a5.55,5.55,0,0,0-11.1,0v5.55H213.45L228,133.83h42.46L284.75,179a16.64,16.64,0,0,0-12.08,14.75l-4.83,67.42a1.36,1.36,0,0,1,0,.2c0,.06,0,.13,0,.2v.39a44.38,44.38,0,1,0,46.48,60.68h37.3a33.27,33.27,0,0,0,65.62,0h11.61a5.55,5.55,0,0,0,5.55-5.55V306h11.1v5.55a11.11,11.11,0,0,0,11.11,11.1h38.86a5.56,5.56,0,0,0,4.45-8.85Zm-117.93-63.1-15.12-4.32,1.66-6.61a5.55,5.55,0,1,0-10.77-2.7L336.53,238a5.55,5.55,0,0,0,4,6.74,5.62,5.62,0,0,0,1.36.16,5.53,5.53,0,0,0,5.37-4.2l1.21-4.82L369,241.69,372,256H306.7V189.35h51ZM303.44,103.78a11.09,11.09,0,0,1-7.84,19H201.21a11.11,11.11,0,0,1,0-22.21H295.6A11,11,0,0,1,303.44,103.78ZM190.11,80.06a7.3,7.3,0,0,1,14.25-2.25l3.76,11.6h-6.91a22.11,22.11,0,0,0-4,.41l-.94.19a21.47,21.47,0,0,0-3.68,1.14l-.15.07a23.36,23.36,0,0,0-2.35,1.17Zm0,137.45v-.4a5.55,5.55,0,1,1,5.55,5.55A5.65,5.65,0,0,1,190.11,217.51Zm22.21,21.81c-9.06,0-15-1-18.45-5.65a15.22,15.22,0,0,0,1.79.1,16.54,16.54,0,0,0,3.06-.31c.31-.06.6-.15.91-.22a17.19,17.19,0,0,0,2-.63c.31-.12.62-.24.93-.38a18,18,0,0,0,1.88-1c.23-.15.47-.27.69-.42a17.15,17.15,0,0,0,2.22-1.85c.12-.12.22-.26.34-.38a18.22,18.22,0,0,0,1.53-1.86c.18-.26.35-.55.51-.81a17.09,17.09,0,0,0,1-1.78c.13-.3.28-.6.4-.91s.17-.35.24-.55h28.09C236.58,234.83,224.09,239.32,212.32,239.32Zm-8.48-36.72c-.2-.11-.44-.16-.65-.26a15.75,15.75,0,0,0-2.51-1c-.37-.12-.73-.25-1.11-.34a15.32,15.32,0,0,0-7-.2c-.33.06-.64.17-1,.26a14.21,14.21,0,0,0-1.46.38V130.86a20.49,20.49,0,0,0,6.27,2.4l.94.19a22,22,0,0,0,3.89.38h15.55Zm91.76-68.77a22.31,22.31,0,0,0,3.16-.25c.33,0,.65-.12,1-.18a21.76,21.76,0,0,0,2.12-.5l1-.34c.67-.24,1.34-.51,2-.81.3-.14.61-.27.91-.42a21.3,21.3,0,0,0,2.63-1.58h0l29.42,48.5H296.15l-14-44.42Zm-11.86,60.68a5.56,5.56,0,0,1,5.56-5.16h6.3V256H279.35ZM273.39,339.26a33.32,33.32,0,0,1,0-66.63,27.25,27.25,0,0,1,4.77.39,33.28,33.28,0,0,1,28.43,30.59,5.29,5.29,0,0,0,.05.56,13.33,13.33,0,0,1,.08,1.79V306a36.67,36.67,0,0,1-1.38,9.37A33.33,33.33,0,0,1,273.39,339.26Zm111,0a22.21,22.21,0,1,1,22.21-22.21A22.21,22.21,0,0,1,384.43,339.26ZM423.3,311.5h-6a2,2,0,0,0-.09-.35,32.75,32.75,0,0,0-1.31-5c-.09-.28-.19-.56-.3-.82a32.73,32.73,0,0,0-2.13-4.62c-.11-.2-.24-.39-.35-.56a35,35,0,0,0-3-4.34l-.07-.07a32.85,32.85,0,0,0-3.7-3.76l-.41-.38a34.27,34.27,0,0,0-4.14-3l-.72-.44a35,35,0,0,0-4.54-2.17l-.82-.31a33.36,33.36,0,0,0-5-1.38l-.66-.11a31.34,31.34,0,0,0-11.18,0l-.67.11a33.36,33.36,0,0,0-5,1.38l-.82.31a35,35,0,0,0-4.54,2.17l-.72.44a34.27,34.27,0,0,0-4.14,3l-.41.38a32.85,32.85,0,0,0-3.7,3.76l-.07.07a36.16,36.16,0,0,0-3,4.34c-.11.2-.23.38-.35.56a32.73,32.73,0,0,0-2.13,4.62c-.11.27-.21.56-.3.82a32.75,32.75,0,0,0-1.31,5,2.58,2.58,0,0,1-.09.35H317.45a4.48,4.48,0,0,1,.06-.63c.05-.45.09-.88.13-1.32.08-.92.14-1.81.16-2.62v-1.07a20.9,20.9,0,0,0-.08-2.35v-.07a5.2,5.2,0,0,0-.09-1.11,43.37,43.37,0,0,0-.71-4.95c-.08-.43-.18-.85-.27-1.27-.33-1.46-.73-2.91-1.2-4.33-.05-.14-.09-.29-.13-.43a43,43,0,0,0-1.87-4.44c-.17-.37-.36-.74-.55-1.11-.65-1.25-1.34-2.47-2.09-3.66l-.35-.58a44.84,44.84,0,0,0-2.86-3.83c-.24-.31-.5-.59-.75-.88-.9-1-1.84-2-2.83-3-.2-.2-.39-.4-.6-.59a46.22,46.22,0,0,0-3.67-3c-.3-.22-.6-.42-.91-.63-1.1-.77-2.22-1.49-3.4-2.17-.2-.11-.37-.26-.55-.37H395.53a27.3,27.3,0,0,1,15.32,4.63,27.66,27.66,0,0,1,12.45,23.13Zm11.1-16.66a38.8,38.8,0,0,0-.42-5.49c-.08-.56-.21-1.11-.32-1.66-.23-1.25-.51-2.48-.86-3.69-.18-.61-.37-1.2-.56-1.8a36.91,36.91,0,0,0-1.39-3.47c-.23-.51-.45-1-.71-1.53a37.43,37.43,0,0,0-2.44-4.14c-.09-.13-.15-.29-.25-.42H445.5v22.21Zm22.21,16.66V250.43h11.1v29.66a27.53,27.53,0,0,0,7.83,19.31l8.93,12.1Z"/><path d="M273.39,117.18h11.1a5.56,5.56,0,1,0,0-11.11h-11.1a5.56,5.56,0,0,0,0,11.11Z"/><path d="M206.76,106.07a5.56,5.56,0,0,0,0,11.11h5.56a5.56,5.56,0,0,0,0-11.11Z"/></g><path d="M279.72,394H290v34.46a16.49,16.49,0,0,1-2.1,8.39,14.23,14.23,0,0,1-5.93,5.62,18.53,18.53,0,0,1-8.65,2q-7.89,0-12.3-4T256.58,429H266.9q0,3.66,1.54,5.4c1,1.17,2.64,1.75,4.85,1.75a5.92,5.92,0,0,0,4.69-2,8.52,8.52,0,0,0,1.74-5.74Z"/><path d="M337.83,427.16q-.58,8-5.94,12.65t-14.09,4.61q-9.58,0-15.06-6.44t-5.49-17.69v-3a30,30,0,0,1,2.53-12.65,19,19,0,0,1,7.23-8.39,20.31,20.31,0,0,1,10.92-2.92q8.61,0,13.88,4.62t6.08,12.95H327.64c-.25-3.21-1.15-5.54-2.68-7s-3.88-2.17-7-2.17c-3.42,0-6,1.22-7.67,3.67s-2.57,6.25-2.62,11.4v3.76q0,8.07,2.45,11.79t7.71,3.73c3.16,0,5.53-.72,7.09-2.17s2.45-3.69,2.68-6.72Z"/><path d="M344.56,443.74V394H362q9.06,0,13.74,3.47t4.68,10.17a11.16,11.16,0,0,1-1.88,6.44,10.83,10.83,0,0,1-5.23,4.09,10.54,10.54,0,0,1,6,3.86,11.43,11.43,0,0,1,2.2,7.11q0,7.18-4.58,10.87t-13.06,3.76Zm10.25-28.92h7.59q7.75-.13,7.76-6.18,0-3.39-2-4.87c-1.31-1-3.37-1.49-6.2-1.49h-7.18Zm0,7.25V435.5h8.79a8.46,8.46,0,0,0,5.65-1.72,5.91,5.91,0,0,0,2-4.77q0-6.84-7.08-6.94Z"/></g></svg>