<svg xmlns="http://www.w3.org/2000/svg" viewBox="0 0 512 512"><defs><style>.cls-1{fill:#efec86;}.cls-2{fill:#ffb531;}.cls-3{fill:#f7a116;}.cls-4{fill:#ffa912;}.cls-5{fill:#2e3e51;}.cls-6{fill:#3d4d63;}.cls-7{fill:#22303d;}.cls-8{fill:#e8770c;}.cls-9{fill:#4db7e5;}.cls-10{fill:#419bc2;}.cls-11{fill:#d6d6d4;}.cls-12{fill:#4c5d72;}</style></defs><title>ex-c-01-activate</title><g id="Equipments"><g id="base"><circle class="cls-1" cx="256" cy="256" r="254"/></g><g id="icon-excavator_crawler_" data-name="icon-excavator(crawler)"><path class="cls-2" d="M354,219.31h18.66l17.69-110.56a78.67,78.67,0,0,0,1-12.26,33.31,33.31,0,0,0-3.51-14.83l-7.19-14.39A12,12,0,0,0,358,71.91Z"/><path class="cls-2" d="M354,266V214.65a9.33,9.33,0,0,1,18.66,0l4.67,3.49a35,35,0,0,1-3,58L368,280H344.65Z"/><path class="cls-3" d="M354,214.65a9.33,9.33,0,1,0,9.33-9.33A9.33,9.33,0,0,0,354,214.65Z"/><path class="cls-4" d="M247.4,132.08,349.52,87.4a13.17,13.17,0,0,1,11.56,23.65l-85.54,46.34A37.34,37.34,0,0,0,256,190.22V266H186l24.5-91A65.32,65.32,0,0,1,247.4,132.08Z"/><path class="cls-3" d="M211.26,172.65h49.21A37.18,37.18,0,0,0,256,190.22V266H186l24.5-91C210.73,174.16,211,173.42,211.26,172.65Z"/><path class="cls-5" d="M312,284.64H144a23.34,23.34,0,0,0,0,46.67H312a23.34,23.34,0,0,0,0-46.67Z"/><path class="cls-6" d="M288.66,308A23.33,23.33,0,1,0,312,284.64,23.33,23.33,0,0,0,288.66,308Z"/><path class="cls-7" d="M302.66,308a9.33,9.33,0,1,0,9.33-9.34A9.33,9.33,0,0,0,302.66,308Z"/><path class="cls-6" d="M120.67,308A23.33,23.33,0,1,0,144,284.64,23.33,23.33,0,0,0,120.67,308Z"/><path class="cls-7" d="M134.67,308a9.33,9.33,0,1,0,9.33-9.34A9.33,9.33,0,0,0,134.67,308Z"/><path class="cls-6" d="M218.66,303.31h-9.33v9.33h9.33Z"/><path class="cls-6" d="M246.66,303.31h-9.33v9.33h9.33Z"/><path class="cls-6" d="M190.66,303.31h-9.33v9.33h9.33Z"/><path class="cls-6" d="M274.66,303.31h-9.34v9.33h9.34Z"/><path class="cls-7" d="M218.66,312.64h-9.33V322h9.33Z"/><path class="cls-7" d="M246.66,312.64h-9.33V322h9.33Z"/><path class="cls-7" d="M190.66,312.64h-9.33V322h9.33Z"/><path class="cls-7" d="M274.66,312.64h-9.34V322h9.34Z"/><path class="cls-4" d="M274.66,266H181.33v18.66h93.33Z"/><path class="cls-2" d="M162.66,214.65H307.32V266H148.66V228.65Z"/><path class="cls-8" d="M176.66,228.65h-9.33v14h9.33Z"/><path class="cls-8" d="M195.33,228.65H186v14h9.33Z"/><path class="cls-9" d="M232.66,247.31h74.66V210l-18.66-28h-56Z"/><path class="cls-10" d="M274.66,247.31v-14l-28-28h-14v42Z"/><path class="cls-11" d="M172,196h32.66a9.33,9.33,0,0,1,9.33,9.34v9.33H162.66v-9.33A9.34,9.34,0,0,1,172,196Z"/><path class="cls-12" d="M116,308a28,28,0,0,1,28-28H312a28,28,0,1,1,0,56H144A28,28,0,0,1,116,308Zm28-18.67a18.67,18.67,0,1,0,0,37.33H312a18.67,18.67,0,0,0,0-37.33Z"/><path class="cls-3" d="M274.66,266H181.33v9.33h93.33Z"/><path d="M302.66,308a9.33,9.33,0,1,0,9.33-9.34A9.33,9.33,0,0,0,302.66,308Z"/><path d="M116,308a28,28,0,0,0,28,28H312a28,28,0,1,0,0-56H279.32v-9.33h28A4.67,4.67,0,0,0,312,266V210a4.7,4.7,0,0,0-.79-2.59l-18.66-28a4.68,4.68,0,0,0-3.88-2.07h-25.3a32.61,32.61,0,0,1,14.4-15.83L352,121.28l-2.49,91.39a13.13,13.13,0,0,0-.18,2v49.93l-8.55,12.81a4.66,4.66,0,0,0,3.88,7.25H368a4.56,4.56,0,0,0,2.38-.65l6.35-3.78a39.68,39.68,0,0,0,3.4-65.79l-1.76-1.31,16.58-103.65a79.3,79.3,0,0,0,1-13,37.67,37.67,0,0,0-4-16.91L384.78,65.2a16.61,16.61,0,0,0-31.44,6.44l-.29,10.07a18.24,18.24,0,0,0-5.39,1.4L245.53,127.83A69.69,69.69,0,0,0,206,173.72l-4.72,17.6H172a14,14,0,0,0-14,14v7.4l-12.63,12.63a4.64,4.64,0,0,0-1.37,3.3V266a4.67,4.67,0,0,0,4.66,4.67h28V280H144A28,28,0,0,0,116,308Zm93.33-98h-42v-4.66a4.67,4.67,0,0,1,4.67-4.67h32.66a4.67,4.67,0,0,1,4.67,4.67Zm161.27-7.27c-.38-.23-.78-.41-1.17-.6s-.62-.31-.93-.44a13.87,13.87,0,0,0-1.66-.52c-.28-.07-.55-.17-.85-.23a13.29,13.29,0,0,0-2.67-.27,13,13,0,0,0-2.64.27,10,10,0,0,0-1,.28,4.42,4.42,0,0,0-.52.14l2.33-85.19,1.87-1a17.82,17.82,0,0,0-1-31.83L362.66,72a7.21,7.21,0,0,1,2.26-4.7,7.45,7.45,0,0,1,11.54,2l7.18,14.35a28.53,28.53,0,0,1,3,12.76,71.08,71.08,0,0,1-.93,11.47ZM359,213.12a4.79,4.79,0,0,1,.81-1.4,5.08,5.08,0,0,1,.5-.54,4.52,4.52,0,0,1,.82-.55,3.91,3.91,0,0,1,.57-.31,4.48,4.48,0,0,1,1.66-.34,4.67,4.67,0,1,1-4.56,5.23l0-1.3a4.22,4.22,0,0,1,.16-.77Zm-5.59,62.19,4.5-6.74a4.69,4.69,0,0,0,.78-2.59V227.79a13.61,13.61,0,0,0,15.18-4,4.56,4.56,0,0,0,1.82-.89,30.3,30.3,0,0,1-3.73,49.33l-5.22,3.11Zm-100-98H232.66A4.67,4.67,0,0,0,228,182v28h-9.33v-4.66a14,14,0,0,0-8.07-12.65L215,176.15a60.42,60.42,0,0,1,34.28-39.77L351.4,91.67a8.51,8.51,0,0,1,7.47,15.27l-85.55,46.35A41.87,41.87,0,0,0,253.4,177.32Zm49.26,65.33H279.32v-9.34A4.67,4.67,0,0,0,278,230l-28-28a4.65,4.65,0,0,0-3.3-1.37h-9.33v-14h48.83l16.5,24.73v31.27ZM244.73,210,270,235.25v7.4H237.33V210Zm-91.4,51.33V230.58l11.26-11.27H228v28a4.67,4.67,0,0,0,4.67,4.67h70v9.33ZM270,270.65V280H186v-9.33ZM293.32,308A18.67,18.67,0,1,1,312,326.64,18.67,18.67,0,0,1,293.32,308ZM164.81,289.31H291.17a27.84,27.84,0,0,0,0,37.33H164.81A27.84,27.84,0,0,0,164.81,289.31ZM125.33,308A18.67,18.67,0,1,1,144,326.64,18.67,18.67,0,0,1,125.33,308Z"/><path d="M134.67,308a9.33,9.33,0,1,0,9.33-9.34A9.33,9.33,0,0,0,134.67,308Z"/><path d="M218.66,303.31h-9.33v9.33h9.33Z"/><path d="M246.66,303.31h-9.33v9.33h9.33Z"/><path d="M190.66,303.31h-9.33v9.33h9.33Z"/><path d="M274.66,303.31h-9.34v9.33h9.34Z"/><path d="M176.66,228.65h-9.33v14h9.33Z"/><path d="M195.33,228.65H186v14h9.33Z"/></g><path d="M214.66,414.17H195V427.5h23.11v8.24H184.72V386H218v8.31H195v11.86h19.69Z"/><path d="M241.9,403.13,251.23,386H263l-14.49,24.68,14.87,25.09H251.47l-9.57-17.43-9.57,17.43H220.4l14.87-25.09L220.78,386h11.79Z"/><path d="M281.79,418.41H262.55v-8h19.24Z"/><path d="M329.44,419.16q-.58,8-5.94,12.65t-14.09,4.61q-9.57,0-15.06-6.44t-5.49-17.69v-3a30,30,0,0,1,2.53-12.65,19,19,0,0,1,7.23-8.39,20.33,20.33,0,0,1,10.92-2.92q8.61,0,13.88,4.62t6.08,12.95H319.25c-.25-3.21-1.15-5.54-2.68-7s-3.88-2.17-7-2.17c-3.42,0-6,1.22-7.67,3.67s-2.57,6.25-2.62,11.4v3.76q0,8.07,2.45,11.79t7.71,3.73c3.16,0,5.53-.72,7.09-2.17s2.45-3.69,2.68-6.72Z"/></g></svg>