<svg xmlns="http://www.w3.org/2000/svg" viewBox="0 0 768 512"><defs><style>.cls-1{fill:#2783c1;}.cls-2{fill:#fcb377;}.cls-3{fill:#4db7e5;}.cls-4{fill:#ff9433;}.cls-5{fill:#3d4d63;}.cls-6{fill:#ffcb73;}.cls-7{fill:#ccccca;}.cls-8{fill:#040000;}.cls-9{fill:#00a650;}.cls-10{fill:#fff;stroke:#fff;stroke-miterlimit:10;stroke-width:1.5px;}</style></defs><title>wcbh-01-moi-on</title><g id="Equipments"><rect class="cls-1" x="2" y="2" width="764" height="508" rx="100"/><path d="M326.63,429.38l6.7-35.41h10.22l-11,49.77H322.19l-8.1-33.29L306,443.74H295.66l-11-49.77h10.22l6.74,35.35,8.2-35.35h8.68Z"/><path d="M388.15,427.16q-.57,8-5.93,12.65t-14.1,4.61q-9.57,0-15.05-6.44t-5.49-17.69v-3a29.82,29.82,0,0,1,2.53-12.65,19,19,0,0,1,7.23-8.39,20.31,20.31,0,0,1,10.92-2.92q8.61,0,13.88,4.62t6.08,12.95H378q-.37-4.82-2.69-7c-1.53-1.45-3.88-2.17-7-2.17q-5.13,0-7.67,3.67T358,416.77v3.76q0,8.07,2.45,11.79t7.7,3.73c3.17,0,5.53-.72,7.1-2.17s2.45-3.69,2.68-6.72Z"/><path d="M394.89,443.74V394h17.43q9.06,0,13.74,3.47t4.68,10.17a11.24,11.24,0,0,1-1.88,6.44,10.88,10.88,0,0,1-5.23,4.09,10.52,10.52,0,0,1,6,3.86,11.43,11.43,0,0,1,2.21,7.11q0,7.18-4.58,10.87t-13.06,3.76Zm10.25-28.92h7.59q7.75-.13,7.76-6.18,0-3.39-2-4.87t-6.2-1.49h-7.18Zm0,7.25V435.5h8.78a8.49,8.49,0,0,0,5.66-1.72,5.91,5.91,0,0,0,2-4.77q0-6.84-7.08-6.94Z"/><path d="M480.06,443.74H469.81V422.41h-20v21.33H439.56V394h10.25v20.17h20V394h10.25Z"/><g id="icon-dozer"><g id="color"><rect class="cls-2" x="257.32" y="83.16" width="130.52" height="37.93"/><path class="cls-3" d="M387.84,199.53V189.28l-22.63-22.63-5.13,5.13a6.46,6.46,0,1,1-9.14-9.14l19.39-19.4a6.47,6.47,0,0,1,9.15,9.14l-5.13,5.13L387.84,171V134H257.32v43.44l22.07,22.07Z"/><path class="cls-4" d="M259.08,251.52a43.4,43.4,0,0,1,4.7-.26H504.22a43.41,43.41,0,0,1,4.69.29h.39l23.23-19.36-23.66-16.81a20.18,20.18,0,1,1,7.46-10.59l20.21,14.36V167.21H400.77v32.32a12.93,12.93,0,0,1-12.93,12.94H276.72a6.45,6.45,0,0,1-4.59-1.9l-24-24a12.72,12.72,0,0,1-3.77-9.11V167.21H231.46v61.62l27.24,22.69Z"/><path class="cls-5" d="M245.58,303H232.1a32.41,32.41,0,0,0,31.68,25.86H504.22a32.27,32.27,0,0,0,25.86-12.93H263.78A19.39,19.39,0,0,1,245.58,303Z"/><path class="cls-2" d="M524.28,303H282.08c.19-.54.29-1.13.43-1.69.1-.38.23-.74.3-1.13a18.21,18.21,0,0,0,0-7.28c-.07-.39-.2-.75-.3-1.13-.14-.57-.24-1.16-.43-1.7h242.2a6.47,6.47,0,0,1,6.47,6.47h0A6.47,6.47,0,0,1,524.28,303Z"/><path class="cls-6" d="M497.75,193.07a6.47,6.47,0,1,0,6.47,6.46A6.47,6.47,0,0,0,497.75,193.07Z"/><path class="cls-5" d="M527.08,273.71a31.67,31.67,0,0,0-17.05-9,29.78,29.78,0,0,0-5.81-.54H263.78a29.09,29.09,0,0,0-5.73.52,32.32,32.32,0,0,0-25.89,25.34h13.42a19.41,19.41,0,0,1,18.2-12.93h266.3A30.37,30.37,0,0,0,527.08,273.71Z"/><circle class="cls-7" cx="263.78" cy="296.52" r="6.47"/></g><path d="M439.56,154.28H400.77V83.16a12.93,12.93,0,0,0-12.93-12.94H257.32a12.93,12.93,0,0,0-12.93,12.94v71.12H231.46a12.93,12.93,0,0,0-12.93,12.93v64.65a6.46,6.46,0,0,0,2.32,5L243.91,256a45.17,45.17,0,0,0,19.87,85.74H504.22A45.06,45.06,0,0,0,545,315.91c8.4-19.39.13-38.79.13-38.79a43.71,43.71,0,0,0-8.85-12.56,44.73,44.73,0,0,0-12-8.6l19.25-16s6-4.54,6-11.57V167.21a12.93,12.93,0,0,0-12.93-12.93h-97ZM257.32,177.46V134H387.84v37l-13.49-13.49,5.13-5.13a6.47,6.47,0,0,0-9.15-9.14l-19.39,19.4a6.46,6.46,0,1,0,9.14,9.14l5.13-5.13,22.63,22.63v10.25H279.39Zm0-94.3H387.84v37.93H257.32Zm-25.86,84.05h12.93v10.28a12.72,12.72,0,0,0,3.77,9.11l24,24a6.45,6.45,0,0,0,4.59,1.9H387.84a12.93,12.93,0,0,0,12.93-12.94V167.21H536.54v51.94l-20.21-14.36a19.4,19.4,0,1,0-7.46,10.59l23.66,16.81L509.3,251.55h-.39a43.41,43.41,0,0,0-4.69-.29H263.78a43.4,43.4,0,0,0-4.7.26h-.38l-27.24-22.69ZM497.75,206a6.47,6.47,0,1,1,6.47-6.47A6.47,6.47,0,0,1,497.75,206Zm-239.7,58.71a29.09,29.09,0,0,1,5.73-.52H504.22a29.78,29.78,0,0,1,5.81.54,31.67,31.67,0,0,1,17.05,9,30.37,30.37,0,0,1,3,3.41H263.78a19.41,19.41,0,0,0-18.2,12.93H232.16A32.32,32.32,0,0,1,258.05,264.71Zm-.73,31.81a6.47,6.47,0,1,1,6.46,6.46A6.47,6.47,0,0,1,257.32,296.52Zm246.9,32.32H263.78A32.41,32.41,0,0,1,232.1,303h13.48a19.39,19.39,0,0,0,18.2,12.93h266.3A32.27,32.27,0,0,1,504.22,328.84ZM524.28,303H282.08c.19-.54.29-1.13.43-1.69.1-.38.23-.74.3-1.13a18.21,18.21,0,0,0,0-7.28c-.07-.39-.2-.75-.3-1.13-.14-.57-.24-1.16-.43-1.7h242.2a6.47,6.47,0,0,1,6.47,6.47h0A6.47,6.47,0,0,1,524.28,303Z"/><path d="M443.09,186.6V206A6.47,6.47,0,1,0,456,206V186.6a6.47,6.47,0,0,0-12.94,0Z"/><path d="M423.7,186.6V206a6.47,6.47,0,1,0,12.93,0V186.6a6.47,6.47,0,0,0-12.93,0Z"/><path d="M374.91,238.33H394.3a6.47,6.47,0,1,0,0-12.93H374.91a6.47,6.47,0,1,0,0,12.93Z"/><g id="bridge"><rect class="cls-4" x="151.36" y="154.28" width="57.16" height="174.57"/><path class="cls-8" d="M185.77,316.84H137.36a6,6,0,0,0-6,6h0a6,6,0,0,0,6,6h48.41v-12Z"/><path class="cls-8" d="M196.53,215.38h48.4a6,6,0,0,0,6-6h0a6,6,0,0,0-6-6h-42.4a6,6,0,0,0-6,6v6Z"/><path class="cls-8" d="M196.53,166.28V316.84H163.36V166.28h33.17m12-12H151.36V328.84h57.17V154.28Z"/></g><g id="bridge-2" data-name="bridge"><rect class="cls-4" x="559.9" y="154.28" width="57.16" height="174.57" transform="translate(1176.97 483.12) rotate(-180)"/><path class="cls-8" d="M582.66,316.84h48.41a6,6,0,0,1,6,6h0a6,6,0,0,1-6,6H582.66v-12Z"/><path class="cls-8" d="M571.9,198.38H543.5a6,6,0,0,1-6-6h0a6,6,0,0,1,6-6h22.4a6,6,0,0,1,6,6v6Z"/><path class="cls-8" d="M571.9,166.28h33.17V316.84H571.9V166.28m-12-12V328.84h57.17V154.28Z"/></g></g><g id="moi"><circle class="cls-9" cx="686" cy="82" r="80"/><g id="eagle"><path class="cls-10" d="M687.43,118.15a2,2,0,0,0-3.45,1.43v7.09a2,2,0,1,0,4,0v-7.09A2,2,0,0,0,687.43,118.15Z"/><path class="cls-10" d="M698.33,121.91l-2.84-6.73a2,2,0,0,0-1.87-1.23,2,2,0,0,0-.78.16,2,2,0,0,0-1.07,2.65l2.84,6.72a2,2,0,1,0,3.72-1.57Z"/><path class="cls-10" d="M680.25,115.21a2,2,0,0,0-1.09-1.1h0a2,2,0,0,0-.79-.16,2.06,2.06,0,0,0-.76.15,2,2,0,0,0-1.1,1.08l-2.84,6.73a2,2,0,0,0,0,1.55,2,2,0,0,0,1.09,1.1,2,2,0,0,0,2.64-1.08l2.84-6.72A2,2,0,0,0,680.25,115.21Z"/><path class="cls-10" d="M727,100.79a2,2,0,0,0-.85-1.28h0a2,2,0,0,0-1.13-.34,2.56,2.56,0,0,0-.39,0,2,2,0,0,0-1.29.86l-7.11,10.62a2,2,0,0,0,.55,2.8,2.07,2.07,0,0,0,2.81-.55l7.11-10.62A2,2,0,0,0,727,100.79Z"/><path class="cls-10" d="M710.81,125a2,2,0,0,0-.86-1.29h0a2,2,0,0,0-1.12-.34,1.81,1.81,0,0,0-.4,0,2,2,0,0,0-1.28.86l-1.47,2.19a2,2,0,0,0,.56,2.8,2.06,2.06,0,0,0,2.8-.55l1.47-2.19A2,2,0,0,0,710.81,125Z"/><path class="cls-10" d="M664.85,124.31a2,2,0,0,0-1.68-.89,2,2,0,0,0-1.12.34,2,2,0,0,0-.55,2.8l1.46,2.19a2.07,2.07,0,0,0,2.8.55,2,2,0,0,0,.56-2.8Z"/><path class="cls-10" d="M656.89,110.62c-1.11-2.45-3.09-3.62-4.83-4.65-2-1.16-3.55-2.09-4.09-4.76a2,2,0,0,0-2-1.62,1.87,1.87,0,0,0-.4,0A2,2,0,0,0,644,102c.9,4.44,3.85,6.17,6,7.44,1.46.87,2.62,1.55,3.2,2.83a2,2,0,1,0,3.68-1.66Z"/><path class="cls-10" d="M739.34,53.19a2,2,0,0,0,0-1.55h0a2,2,0,0,0-1.07-1.1,2,2,0,0,0-1.55,0l-26.05,10.4a2.06,2.06,0,0,0-1.23,2.26A15.83,15.83,0,0,1,703,78.55l-1.54,1.09-.71-1.75a2,2,0,0,0-1.88-1.27h-5.24l.11-1.6a48.78,48.78,0,0,1,.75-5.19c1.18-6.55,1.62-11.75-4.39-14.28-5.62-2.37-9,.94-10.2,2.48l-.4.5-.64.07c-2,.2-5.5,1.11-6.68,4.93A2,2,0,1,0,676,64.72c.68-2.23,3.73-2.22,4.45-2.1a2.09,2.09,0,0,0,2-1.19c1.18-2.44,3.43-3.25,6-2.16,3.34,1.4,3,4.34,2,9.84a47.28,47.28,0,0,0-.82,6.09l-.07,1.42h-7.65l-.13-1.35a14.69,14.69,0,0,1,.41-5.07,2,2,0,0,0-1.3-2.56,2,2,0,0,0-1.54.13,2,2,0,0,0-1,1.18,17.88,17.88,0,0,0-.65,6.08l.1,1.59h-4.66a2,2,0,0,0-1.87,1.27l-.71,1.75L669,78.55a15.78,15.78,0,0,1-6.49-15.35,2,2,0,0,0-1.23-2.28l-26.05-10.4a2,2,0,0,0-1.55,0,2,2,0,0,0-1.07,1.1,2,2,0,0,0,1.12,2.63l24.57,9.82,0,1a20.12,20.12,0,0,0,12,18.81l.85.4V97a20.56,20.56,0,0,0,.77,5.93l.36,1.21-1.13.56c-3.93,2-5.4,4.76-6.58,7-1.34,2.53-2.14,4.06-5.87,4.66a2,2,0,0,0-1.32.82,2,2,0,0,0-.35,1.5,2,2,0,0,0,2.34,1.67c5.69-.92,7.4-4.16,8.77-6.76,1.16-2.2,2.25-4.27,5.68-5.67l.8-.33.69.53a15.58,15.58,0,0,0,5.13,2.36c1.86.57,3.2,1,3.73,2.15A2,2,0,0,0,686,113.8a2,2,0,0,0,1.83-1.18c.54-1.17,1.88-1.58,3.74-2.15a15.37,15.37,0,0,0,5.13-2.36l.69-.53.8.33c3.42,1.4,4.52,3.47,5.67,5.66,1.38,2.61,3.09,5.85,8.81,6.77a1.66,1.66,0,0,0,.32,0,2,2,0,0,0,1.64-3.21,2.08,2.08,0,0,0-1.32-.81c-3.73-.6-4.54-2.13-5.87-4.67a14.31,14.31,0,0,0-6.58-7l-1.13-.56.36-1.21a20.56,20.56,0,0,0,.77-5.93V84.33l.85-.41a20.11,20.11,0,0,0,12-18.8l0-1,24.57-9.81A2.06,2.06,0,0,0,739.34,53.19ZM696.81,97c0,7.13-2.43,8.39-6.43,9.61h0a15.62,15.62,0,0,0-3.61,1.44l-.77.47-.78-.47a15.28,15.28,0,0,0-3.6-1.44c-4-1.23-6.44-2.49-6.44-9.62V90.52h15a2,2,0,0,0,0-4h-15V80.66h21.63Z"/><path class="cls-10" d="M665.77,87.52a2,2,0,0,0-1.65-.85,2,2,0,0,0-1.17.38h0L653.22,94a2,2,0,0,0-.47,2.81,2.08,2.08,0,0,0,2.82.48l9.73-6.92A2,2,0,0,0,665.77,87.52Z"/><path class="cls-10" d="M660.92,83a2,2,0,0,0,0-1.55,2,2,0,0,0-1.12-1.06,2.06,2.06,0,0,0-.73-.14,2,2,0,0,0-.82.18h0L647.1,85.37A2,2,0,0,0,646,86.49a2,2,0,0,0,0,1.55,2.06,2.06,0,0,0,2.67,1l11.11-4.93A2,2,0,0,0,660.92,83Z"/><path class="cls-10" d="M654.81,76.79a2,2,0,0,0-.64-3.93,2,2,0,0,0-.64.1l-9.61,3.23A2,2,0,0,0,645.21,80Z"/><path class="cls-10" d="M634.09,62.59a2,2,0,0,0,1.2,2.59l13.53,5a2,2,0,0,0,1.39-3.79l-13.53-5a1.86,1.86,0,0,0-.69-.12A2,2,0,0,0,634.09,62.59Z"/><path class="cls-10" d="M664.23,96.11l-3.48,4.21a2,2,0,0,0,.27,2.84,2.07,2.07,0,0,0,2.85-.27l3.47-4.2a2,2,0,1,0-3.11-2.58Z"/><path class="cls-10" d="M706.7,90.34l9.73,6.92a2.08,2.08,0,0,0,2.82-.48,2,2,0,0,0-.48-2.82L709,87a2,2,0,0,0-1.16-.37,2,2,0,0,0-1.18,3.67Z"/><path class="cls-10" d="M712.14,84.13l11.12,4.93a2,2,0,0,0,2.66-1,2,2,0,0,0,0-1.55,2,2,0,0,0-1.06-1.12l-11.12-4.93a2,2,0,0,0-2.66,1,2,2,0,0,0,0,1.55A2,2,0,0,0,712.14,84.13Z"/><path class="cls-10" d="M715.91,74.23a2,2,0,0,0,1.28,2.56l9.6,3.23a2,2,0,1,0,1.29-3.83L718.47,73a2,2,0,0,0-2.56,1.27Z"/><path class="cls-10" d="M720.59,68.94a2,2,0,0,0,2.59,1.2l13.53-5a2,2,0,0,0-1.39-3.79l-13.53,5A2,2,0,0,0,720.59,68.94Z"/><path class="cls-10" d="M707.77,96.11a2,2,0,0,0-3.12,2.58l3.48,4.2a2,2,0,0,0,2.84.28,2,2,0,0,0,.27-2.85Z"/></g></g></g></svg>