<svg xmlns="http://www.w3.org/2000/svg" viewBox="0 0 512 512"><defs><style>.cls-1{fill:#e57ac9;}.cls-2{fill:#feb756;}.cls-3{fill:#4dbbeb;}.cls-4{fill:#fd3c65;}.cls-5{fill:#fff5cd;}</style></defs><title>human-activate</title><g id="Equipments"><circle id="base" class="cls-1" cx="256" cy="256" r="254"/><path class="cls-2" d="M360.76,311.86v33H329.33V262.52A54.79,54.79,0,0,1,360.76,311.86Z"/><path class="cls-3" d="M318.86,151.57a10.48,10.48,0,0,1,0,21H193.14a10.48,10.48,0,0,1,0-21Z"/><path class="cls-2" d="M235.05,100.24v-1c0-5.79,4.69-12,10.47-12h21c5.78,0,10.47,6.26,10.47,12v1a52.4,52.4,0,0,1,41.91,51.33H193.14A52.4,52.4,0,0,1,235.05,100.24Z"/><path class="cls-4" d="M308.38,257.9H287.43L256,290.9l-31.43-33H203.62a50,50,0,0,0-21,4.62v82.34H329.33V262.52A50,50,0,0,0,308.38,257.9Z"/><path class="cls-5" d="M313.62,172.52H198.38a15.72,15.72,0,0,0,0,31.43h6.28A55.15,55.15,0,0,0,219,231.3a53.8,53.8,0,0,0,5.89,5.3l-.28.36V257.9l31.43,33,31.43-33V237l-.28-.36A55.14,55.14,0,0,0,307.34,204h6.28a15.72,15.72,0,0,0,0-31.43Z"/><path class="cls-2" d="M182.67,262.52v82.34H151.24v-33A54.79,54.79,0,0,1,182.67,262.52Z"/><path d="M308.38,317.1a5.24,5.24,0,1,0-5.24-5.24A5.25,5.25,0,0,0,308.38,317.1Z"/><path d="M203.62,306.62a5.24,5.24,0,1,0,5.24,5.24A5.25,5.25,0,0,0,203.62,306.62Z"/><path d="M356.39,279.49a59.13,59.13,0,0,0-23.5-21.06,5.25,5.25,0,0,0-3-1.37,54.88,54.88,0,0,0-21.54-4.39H292.67V238.85a60.15,60.15,0,0,0,18.8-29.66h2.15A20.94,20.94,0,0,0,329,174c.33-.28.65-.57,1-.88a15.72,15.72,0,0,0-6.05-26,57.84,57.84,0,0,0-42-51.12c-1.37-7.2-7.32-14.15-15.4-14.15h-21c-8.08,0-14,6.95-15.4,14.15a57.83,57.83,0,0,0-42,51.12A15.7,15.7,0,0,0,183,174a20.94,20.94,0,0,0,15.38,35.16h2.14a60.17,60.17,0,0,0,14.66,25.74c1.32,1.37,2.71,2.67,4.15,3.91v13.83H203.62a54.88,54.88,0,0,0-21.54,4.39,5.19,5.19,0,0,0-3,1.37A60,60,0,0,0,146,311.86v33a5.25,5.25,0,0,0,5.24,5.24H360.76a5.25,5.25,0,0,0,5.24-5.24v-33A59.57,59.57,0,0,0,356.39,279.49Zm-53.25-16.35v33a5.24,5.24,0,0,0,10.48,0V263.45A44.46,44.46,0,0,1,324.1,266v73.61H313.62V327.57a5.24,5.24,0,0,0-10.48,0v12.05h-41.9V293l28.43-29.86Zm-73.33-17.09a55.12,55.12,0,0,0,52.38,0v9.76L256,283.31l-26.19-27.5Zm83.81-47.34h-.24c.16-1.74.24-3.49.24-5.23V177.76a10.48,10.48,0,1,1,0,21Zm-83.81-91.59v23.5a5.24,5.24,0,1,0,10.48,0V99.19c0-3.25,2.74-6.81,5.23-6.81h21c2.49,0,5.23,3.56,5.23,6.81v31.43a5.24,5.24,0,0,0,10.48,0v-23.5a47.38,47.38,0,0,1,31.14,39.21H198.67A47.38,47.38,0,0,1,229.81,107.12Zm-40.37,51.23a5.17,5.17,0,0,1,3.7-1.54H318.86a5.24,5.24,0,0,1,0,10.48H193.14a5.25,5.25,0,0,1-5.24-5.24A5.18,5.18,0,0,1,189.44,158.35Zm-1.54,29.89a10.49,10.49,0,0,1,10.48-10.48v15.72c0,1.74.08,3.49.24,5.23h-.24A10.49,10.49,0,0,1,187.9,188.24ZM209.81,203l0-.17a48.12,48.12,0,0,1-.92-9.35V177.76h94.28v15.72a48.19,48.19,0,0,1-.92,9.35l0,.17a49.66,49.66,0,0,1-18.25,29.46,45,45,0,0,1-55.89,0,49,49,0,0,1-5.31-4.78A49.6,49.6,0,0,1,209.81,203Zm12.52,60.14L250.76,293v46.62h-41.9V327.57a5.24,5.24,0,0,0-10.48,0v12.05H187.9V266a44.46,44.46,0,0,1,10.48-2.56v32.69a5.24,5.24,0,0,0,10.48,0v-33Zm-65.85,48.72a50,50,0,0,1,21-40.27v68h-21Zm199,27.76H334.57v-68a50,50,0,0,1,20.95,40.27Z"/><path d="M187.07,425.24H176.85V407.42H161.7v17.82H151.42V382.58H161.7v16.93h15.15V382.58h10.22Z"/><path d="M227,382.58V410.5a16.06,16.06,0,0,1-2,8.22,13.19,13.19,0,0,1-5.8,5.29,20.46,20.46,0,0,1-8.94,1.81q-7.78,0-12.27-4t-4.57-11.08V382.58h10.34v28.33q.18,7,6.5,7a6.29,6.29,0,0,0,4.84-1.76q1.63-1.75,1.64-5.71V382.58Z"/><path d="M247,382.58l9.53,29.68L266,382.58H279.5v42.66H269.19v-10l1-20.4-10.32,30.36h-6.79l-10.34-30.38,1,20.42v10H233.45V382.58Z"/><path d="M310.26,417.27H296.17l-2.46,8h-11l15.64-42.66H308l15.76,42.66H312.75Zm-11.63-7.94h9.17l-4.6-14.8Z"/><path d="M362.53,425.24H352.31l-15.12-26.55v26.55H326.91V382.58h10.28l15.09,26.54V382.58h10.25Z"/></g></svg>