<svg xmlns="http://www.w3.org/2000/svg" viewBox="0 0 640 512"><defs><style>.cls-1{fill:#ad7cdd;}.cls-2{fill:#ffce33;}.cls-3{fill:#ffb531;}.cls-4{fill:#00a650;}.cls-5{fill:#fff;stroke:#fff;stroke-miterlimit:10;stroke-width:1.5px;}.cls-6{fill:#fc0006;}</style></defs><title>gtp-01-moi-on-off</title><g id="Equipments"><g id="base"><ellipse class="cls-1" cx="320" cy="256" rx="318" ry="254"/></g><path d="M295.75,437.45a17.87,17.87,0,0,1-7.83,5.15,33,33,0,0,1-11.21,1.82,22.2,22.2,0,0,1-11.33-2.82,18.79,18.79,0,0,1-7.52-8.18,29,29,0,0,1-2.72-12.61v-3.39a30.48,30.48,0,0,1,2.52-12.9,18.57,18.57,0,0,1,7.24-8.34A20.86,20.86,0,0,1,276,393.29q8.85,0,13.85,4.22t5.91,12.29h-10c-.46-2.85-1.47-4.93-3-6.26a9.65,9.65,0,0,0-6.44-2,9.08,9.08,0,0,0-8,3.93q-2.74,3.94-2.77,11.69v3.18q0,7.83,3,11.83t8.72,4q5.78,0,8.24-2.46v-8.58h-9.34v-7.56h19.59Z"/><path d="M341.52,402.28H326.27v41.46H316V402.28H301V394h40.54Z"/><path d="M357.62,426.21v17.53H347.36V394h19.42a22.45,22.45,0,0,1,9.86,2.06,15.14,15.14,0,0,1,6.54,5.82,16.24,16.24,0,0,1,2.29,8.6q0,7.32-5,11.53t-13.86,4.23Zm0-8.31h9.16A9,9,0,0,0,373,416a7,7,0,0,0,2.14-5.47,8.18,8.18,0,0,0-2.16-5.91,8,8,0,0,0-5.95-2.33h-9.39Z"/><g id="colors"><polygon class="cls-2" points="371.27 240.84 393.28 262.85 418.68 262.85 440.69 240.84 440.69 140.02 371.27 140.02 371.27 240.84"/><polygon class="cls-3" points="285.82 240.84 307.83 262.85 333.24 262.85 355.25 240.84 355.25 140.02 285.82 140.02 285.82 240.84"/><rect class="cls-3" x="199.31" y="140.02" width="70.49" height="80.1"/></g><path d="M425.32,278.87l31.39-31.39V124H183.29V236.15h35.24V312H191.3a8,8,0,0,0-8,8h0a8,8,0,0,0,8,8H448.7a8,8,0,0,0,8-8h0a8,8,0,0,0-8-8H414V278.87ZM371.27,140h69.42V240.84l-22,22h-25.4l-22-22Zm-85.45,0h69.43V240.84l-22,22H307.83l-22-22Zm-86.51,80.11V140H269.8v80.11ZM234.56,312V236.15H269.8v11.33l31.39,31.39h11.33V312Zm94,0V278.87h11.33l23.39-23.38,23.38,23.38H398V312Z"/><rect x="215.33" y="156.04" width="38.45" height="16.02"/><rect x="215.33" y="188.08" width="38.45" height="16.02"/><g id="moi"><circle class="cls-4" cx="558" cy="82" r="80"/><g id="eagle"><path class="cls-5" d="M559.43,118.15a2,2,0,0,0-3.45,1.43v7.09a2,2,0,1,0,4,0v-7.09A2,2,0,0,0,559.43,118.15Z"/><path class="cls-5" d="M570.33,121.91l-2.84-6.73a2,2,0,0,0-1.87-1.23,2,2,0,0,0-.78.16,2,2,0,0,0-1.07,2.65l2.84,6.72a2,2,0,1,0,3.72-1.57Z"/><path class="cls-5" d="M552.25,115.21a2,2,0,0,0-1.09-1.1h0a2,2,0,0,0-.79-.16,2.06,2.06,0,0,0-.76.15,2,2,0,0,0-1.1,1.08l-2.84,6.73a2,2,0,0,0,0,1.55,2,2,0,0,0,1.09,1.1,2,2,0,0,0,2.64-1.08l2.84-6.72A2,2,0,0,0,552.25,115.21Z"/><path class="cls-5" d="M599,100.79a2,2,0,0,0-.85-1.28h0a2,2,0,0,0-1.13-.34,2.56,2.56,0,0,0-.39,0,2,2,0,0,0-1.29.86l-7.11,10.62a2,2,0,0,0,.55,2.8,2.07,2.07,0,0,0,2.81-.55l7.11-10.62A2,2,0,0,0,599,100.79Z"/><path class="cls-5" d="M582.81,125a2,2,0,0,0-.86-1.29h0a2,2,0,0,0-1.12-.34,1.81,1.81,0,0,0-.4,0,2,2,0,0,0-1.28.86l-1.47,2.19a2,2,0,0,0,.56,2.8,2.06,2.06,0,0,0,2.8-.55l1.47-2.19A2,2,0,0,0,582.81,125Z"/><path class="cls-5" d="M536.85,124.31a2,2,0,0,0-1.68-.89,2,2,0,0,0-1.12.34,2,2,0,0,0-.55,2.8l1.46,2.19a2.07,2.07,0,0,0,2.8.55,2,2,0,0,0,.56-2.8Z"/><path class="cls-5" d="M528.89,110.62c-1.11-2.45-3.09-3.62-4.83-4.65-2-1.16-3.55-2.09-4.09-4.76a2,2,0,0,0-2-1.62,1.87,1.87,0,0,0-.4,0A2,2,0,0,0,516,102c.9,4.44,3.85,6.17,6,7.44,1.46.87,2.62,1.55,3.2,2.83a2,2,0,1,0,3.68-1.66Z"/><path class="cls-5" d="M611.34,53.19a2,2,0,0,0,0-1.55h0a2,2,0,0,0-1.07-1.1,2,2,0,0,0-1.55,0l-26.05,10.4a2.06,2.06,0,0,0-1.23,2.26A15.83,15.83,0,0,1,575,78.55l-1.54,1.09-.71-1.75a2,2,0,0,0-1.88-1.27h-5.24l.11-1.6a48.78,48.78,0,0,1,.75-5.19c1.18-6.55,1.62-11.75-4.39-14.28-5.62-2.37-9,.94-10.2,2.48l-.4.5-.64.07c-2,.2-5.5,1.11-6.68,4.93A2,2,0,1,0,548,64.72c.68-2.23,3.73-2.22,4.45-2.1a2.09,2.09,0,0,0,2-1.19c1.18-2.44,3.43-3.25,6-2.16,3.34,1.4,3,4.34,2,9.84a47.28,47.28,0,0,0-.82,6.09l-.07,1.42h-7.65l-.13-1.35a14.69,14.69,0,0,1,.41-5.07,2,2,0,0,0-1.3-2.56,2,2,0,0,0-1.54.13,2,2,0,0,0-1,1.18,17.88,17.88,0,0,0-.65,6.08l.1,1.59h-4.66a2,2,0,0,0-1.87,1.27l-.71,1.75L541,78.55a15.78,15.78,0,0,1-6.49-15.35,2,2,0,0,0-1.23-2.28l-26.05-10.4a2,2,0,0,0-1.55,0,2,2,0,0,0-1.07,1.1,2,2,0,0,0,1.12,2.63l24.57,9.82,0,1a20.12,20.12,0,0,0,12,18.81l.85.4V97a20.56,20.56,0,0,0,.77,5.93l.36,1.21-1.13.56c-3.93,2-5.4,4.76-6.58,7-1.34,2.53-2.14,4.06-5.87,4.66a2,2,0,0,0-1.32.82,2,2,0,0,0-.35,1.5,2,2,0,0,0,2.34,1.67c5.69-.92,7.4-4.16,8.77-6.76,1.16-2.2,2.25-4.27,5.68-5.67l.8-.33.69.53a15.58,15.58,0,0,0,5.13,2.36c1.86.57,3.2,1,3.73,2.15A2,2,0,0,0,558,113.8a2,2,0,0,0,1.83-1.18c.54-1.17,1.88-1.58,3.74-2.15a15.37,15.37,0,0,0,5.13-2.36l.69-.53.8.33c3.42,1.4,4.52,3.47,5.67,5.66,1.38,2.61,3.09,5.85,8.81,6.77a1.66,1.66,0,0,0,.32,0,2,2,0,0,0,1.64-3.21,2.08,2.08,0,0,0-1.32-.81c-3.73-.6-4.54-2.13-5.87-4.67a14.31,14.31,0,0,0-6.58-7l-1.13-.56.36-1.21a20.56,20.56,0,0,0,.77-5.93V84.33l.85-.41a20.11,20.11,0,0,0,12-18.8l0-1,24.57-9.81A2.06,2.06,0,0,0,611.34,53.19ZM568.81,97c0,7.13-2.43,8.39-6.43,9.61h0a15.62,15.62,0,0,0-3.61,1.44l-.77.47-.78-.47a15.28,15.28,0,0,0-3.6-1.44c-4-1.23-6.44-2.49-6.44-9.62V90.52h15a2,2,0,0,0,0-4h-15V80.66h21.63Z"/><path class="cls-5" d="M537.77,87.52a2,2,0,0,0-1.65-.85,2,2,0,0,0-1.17.38h0L525.22,94a2,2,0,0,0-.47,2.81,2.08,2.08,0,0,0,2.82.48l9.73-6.92A2,2,0,0,0,537.77,87.52Z"/><path class="cls-5" d="M532.92,83a2,2,0,0,0,0-1.55,2,2,0,0,0-1.12-1.06,2.06,2.06,0,0,0-.73-.14,2,2,0,0,0-.82.18h0L519.1,85.37A2,2,0,0,0,518,86.49a2,2,0,0,0,0,1.55,2.06,2.06,0,0,0,2.67,1l11.11-4.93A2,2,0,0,0,532.92,83Z"/><path class="cls-5" d="M526.81,76.79a2,2,0,0,0-.64-3.93,2,2,0,0,0-.64.1l-9.61,3.23A2,2,0,0,0,517.21,80Z"/><path class="cls-5" d="M506.09,62.59a2,2,0,0,0,1.2,2.59l13.53,5a2,2,0,0,0,1.39-3.79l-13.53-5a1.86,1.86,0,0,0-.69-.12A2,2,0,0,0,506.09,62.59Z"/><path class="cls-5" d="M536.23,96.11l-3.48,4.21a2,2,0,0,0,.27,2.84,2.07,2.07,0,0,0,2.85-.27l3.47-4.2a2,2,0,1,0-3.11-2.58Z"/><path class="cls-5" d="M578.7,90.34l9.73,6.92a2.08,2.08,0,0,0,2.82-.48,2,2,0,0,0-.48-2.82L581,87a2,2,0,0,0-1.16-.37,2,2,0,0,0-1.18,3.67Z"/><path class="cls-5" d="M584.14,84.13l11.12,4.93a2,2,0,0,0,2.66-1,2,2,0,0,0,0-1.55,2,2,0,0,0-1.06-1.12l-11.12-4.93a2,2,0,0,0-2.66,1,2,2,0,0,0,0,1.55A2,2,0,0,0,584.14,84.13Z"/><path class="cls-5" d="M587.91,74.23a2,2,0,0,0,1.28,2.56l9.6,3.23a2,2,0,1,0,1.29-3.83L590.47,73a2,2,0,0,0-2.56,1.27Z"/><path class="cls-5" d="M592.59,68.94a2,2,0,0,0,2.59,1.2l13.53-5a2,2,0,0,0-1.39-3.79l-13.53,5A2,2,0,0,0,592.59,68.94Z"/><path class="cls-5" d="M579.77,96.11a2,2,0,0,0-3.12,2.58l3.48,4.2a2,2,0,0,0,2.84.28,2,2,0,0,0,.27-2.85Z"/></g></g><g id="moi-2" data-name="moi"><circle class="cls-6" cx="558" cy="430" r="80"/></g></g></svg>