<svg xmlns="http://www.w3.org/2000/svg" viewBox="0 0 1280 640"><defs><style>.cls-1{fill:#eee;}.cls-2{fill:#bf2810;}.cls-3,.cls-9{fill:#ed441d;}.cls-4{fill:#f98b78;}.cls-5{fill:#3d4d63;}.cls-6{fill:#ccccca;}.cls-7{fill:#f70d0d;}.cls-8{fill:#c4270e;}.cls-8,.cls-9{stroke:#000;stroke-width:10px;}.cls-14,.cls-8,.cls-9{stroke-miterlimit:10;}.cls-10{fill:#828282;}.cls-11{fill:#5a5a5a;}.cls-12{fill:#282828;}.cls-13{fill:#00a650;}.cls-14{fill:#fff;stroke:#fff;stroke-width:1.5px;}</style></defs><title>jd-2b-01-moi-on-on</title><g id="Equipments"><ellipse class="cls-1" cx="640" cy="319.75" rx="638" ry="317.75"/><path d="M875,412.22h10.26v34.45a16.43,16.43,0,0,1-2.11,8.4,14.3,14.3,0,0,1-5.93,5.62,18.52,18.52,0,0,1-8.64,2q-7.9,0-12.31-4t-4.41-11.37H862.2c0,2.44.52,4.24,1.54,5.4s2.64,1.74,4.86,1.74a5.89,5.89,0,0,0,4.68-2,8.55,8.55,0,0,0,1.74-5.75Z"/><path d="M894.06,462V412.22h15.31a23.24,23.24,0,0,1,11.74,3,20.57,20.57,0,0,1,8.09,8.41A26,26,0,0,1,932.1,436v2.29a26.06,26.06,0,0,1-2.85,12.34,20.49,20.49,0,0,1-8,8.37,23.55,23.55,0,0,1-11.73,3Zm10.25-41.46v33.22h5q6,0,9.19-3.93t3.25-11.25v-2.63q0-7.59-3.14-11.5t-9.2-3.91Z"/><path d="M958.11,444.66H938.87v-8h19.24Z"/><path d="M999.74,462H965.63v-6.77l16.1-17.16a38.87,38.87,0,0,0,4.9-6.32,10.06,10.06,0,0,0,1.59-5.13,7.57,7.57,0,0,0-1.67-5.21,6,6,0,0,0-4.79-1.9,6.52,6.52,0,0,0-5.28,2.31,9.18,9.18,0,0,0-1.93,6.07h-9.91a16.31,16.31,0,0,1,2.17-8.31,15.31,15.31,0,0,1,6.14-5.9,18.68,18.68,0,0,1,9-2.13q7.68,0,11.94,3.69t4.26,10.42a16.66,16.66,0,0,1-1.92,7.52,41.2,41.2,0,0,1-6.56,8.92L978.35,454h21.39Z"/><path d="M1006.85,462V412.22h17.43q9.06,0,13.74,3.47t4.69,10.17a11.24,11.24,0,0,1-1.88,6.44,10.92,10.92,0,0,1-5.23,4.09,10.5,10.5,0,0,1,6,3.86,11.43,11.43,0,0,1,2.2,7.11q0,7.17-4.58,10.87t-13,3.76Zm10.26-28.92h7.58q7.77-.13,7.76-6.19c0-2.25-.65-3.88-2-4.87s-3.38-1.48-6.21-1.48h-7.17Zm0,7.25v13.43h8.78a8.49,8.49,0,0,0,5.66-1.73,5.93,5.93,0,0,0,2-4.76q0-6.84-7.07-6.94Z"/><g id="icon-jumbo_drill"><rect class="cls-2" x="404.8" y="361.33" width="102.24" height="51.69"/><path d="M502,366.33V408H409.8V366.33H502m10-10H399.8V418H512V356.33Z"/><g id="color"><path class="cls-3" d="M500.37,404.68a41.05,41.05,0,0,1,4.71-.26H689.51a43.25,43.25,0,0,1,4.69.29h.39l23.23-19.36-23.66-16.81A20.18,20.18,0,1,1,701.62,358l20.21,14.35V320.36H586.06v32.33a12.93,12.93,0,0,1-12.93,12.93H518a6.42,6.42,0,0,1-4.59-1.89l-24-24a12.73,12.73,0,0,1-3.77-9.12V320.36H472.75V382L500,404.68Z"/><path class="cls-4" d="M683,346.23a6.47,6.47,0,1,0,6.47,6.46A6.46,6.46,0,0,0,683,346.23Z"/></g><path d="M628.39,339.76v19.4a6.47,6.47,0,0,0,12.93,0v-19.4a6.47,6.47,0,0,0-12.93,0Z"/><path d="M609,339.76v19.4a6.47,6.47,0,0,0,12.93,0v-19.4a6.47,6.47,0,0,0-12.93,0Z"/><path d="M560.2,391.49h19.39a6.47,6.47,0,1,0,0-12.94H560.2a6.47,6.47,0,0,0,0,12.94Z"/><path d="M701.07,417.54l27.66-24.46s6-4.54,6-11.58V320.36a12.93,12.93,0,0,0-12.94-12.93H586.06V276.31a12.93,12.93,0,0,0-12.93-12.93H498.61a12.93,12.93,0,0,0-12.93,12.93v31.12H472.75a12.93,12.93,0,0,0-12.93,12.93V385a6.48,6.48,0,0,0,2.32,5l31.91,28.07ZM498.61,289.24V276.31h74.52v47.84l-13.49-13.48,5.13-5.13a6.46,6.46,0,0,0-9.14-9.14l-19.4,19.39a6.47,6.47,0,1,0,9.14,9.15l5.13-5.13,22.63,22.63v10.25H520.68l-22.07-22.07V289.24ZM721.83,372.3,701.62,358a19.4,19.4,0,1,0-7.46,10.59l23.66,16.81-23.23,19.36h-.39a43.25,43.25,0,0,0-4.69-.29H505.08a41.05,41.05,0,0,0-4.71.26H500L472.75,382V320.36h12.93v10.28a12.73,12.73,0,0,0,3.77,9.12l24,24a6.42,6.42,0,0,0,4.59,1.89h55.12a12.93,12.93,0,0,0,12.93-12.93V320.36H721.83Zm-32.32-19.61a6.47,6.47,0,1,1-6.47-6.46A6.47,6.47,0,0,1,689.51,352.69Z"/><path class="cls-3" d="M431.82,385V315.36a12.93,12.93,0,0,1,12.93-12.93V276.31H254.48L177.55,292A31.27,31.27,0,0,0,150.83,323v38.11a31.27,31.27,0,0,0,24.46,30.53l88.44,26.44H466.05L434.14,390A6.48,6.48,0,0,1,431.82,385Z"/><path d="M434.75,286.31v8.42a23,23,0,0,0-12.93,20.63V385a16.43,16.43,0,0,0,5.8,12.55l11.92,10.49H265.19l-87-26-.34-.1-.34-.08a21.16,21.16,0,0,1-16.64-20.77V323A21.4,21.4,0,0,1,179,301.93l.27,0,.28-.05,75.93-15.53H434.75m10-10H254.48L177.55,292A31.27,31.27,0,0,0,150.83,323v38.11a31.27,31.27,0,0,0,24.46,30.53l88.44,26.44H466.05L434.14,390a6.48,6.48,0,0,1-2.32-5V315.36a12.93,12.93,0,0,1,12.93-12.93V276.31Z"/><circle id="color-2" data-name="color" class="cls-5" cx="643.4" cy="423.5" r="42.84"/><circle id="color-3" data-name="color" class="cls-6" cx="643.4" cy="423.5" r="22.38"/><path d="M643.4,375.49a48,48,0,1,0,48,48A48,48,0,0,0,643.4,375.49Zm0,85.36a37.35,37.35,0,1,1,37.35-37.35A37.35,37.35,0,0,1,643.4,460.85Z"/><path d="M643.4,396.83a26.68,26.68,0,1,0,26.68,26.67A26.67,26.67,0,0,0,643.4,396.83Zm0,42.68a16,16,0,1,1,16-16A16,16,0,0,1,643.4,439.51Z"/><circle id="color-4" data-name="color" class="cls-5" cx="339.64" cy="423.5" r="42.84"/><circle id="color-5" data-name="color" class="cls-6" cx="339.64" cy="423.5" r="22.38"/><path d="M339.64,375.49a48,48,0,1,0,48,48A48,48,0,0,0,339.64,375.49Zm0,85.36A37.35,37.35,0,1,1,377,423.5,37.35,37.35,0,0,1,339.64,460.85Z"/><path d="M339.64,396.83a26.68,26.68,0,1,0,26.67,26.67A26.67,26.67,0,0,0,339.64,396.83Zm0,42.68a16,16,0,1,1,16-16A16,16,0,0,1,339.64,439.51Z"/><polygon class="cls-7" points="155.83 351.33 155.83 326.33 268.52 326.33 288.21 311.11 426.81 311.11 426.81 336.11 295.04 336.11 275.35 351.33 155.83 351.33"/><path d="M421.8,316.11v15H293.33l-2.7,2.09-17,13.13H160.83v-15h109.4l2.7-2.09,17-13.13H421.8m10-10H286.5l-19.68,15.22h-116v35H277.06l19.68-15.22H431.8v-35Z"/><path class="cls-8" d="M599.06,253.52v61h42.26V245.58a9.35,9.35,0,0,0-9.35-9.35H616.34Z"/><rect class="cls-9" x="795.12" y="82.63" width="26" height="372.92" rx="10.35" transform="translate(1077.21 -539.03) rotate(90)"/><polygon class="cls-9" points="905.35 236.23 895.35 216.63 1015.35 216.63 1005.35 236.23 905.35 236.23"/><circle class="cls-9" cx="955.35" cy="245.16" r="16.78"/><rect class="cls-9" x="756.47" y="205.7" width="372.7" height="10.29"/><path class="cls-9" d="M1116,197.84h16a5,5,0,0,1,5,5v5.29a0,0,0,0,1,0,0h-26a0,0,0,0,1,0,0v-5.29A5,5,0,0,1,1116,197.84Z" transform="translate(1327.01 -921.05) rotate(90)"/><path class="cls-9" d="M744.11,188.34h35a5,5,0,0,1,5,5v5.29a0,0,0,0,1,0,0h-45a0,0,0,0,1,0,0v-5.29A5,5,0,0,1,744.11,188.34Z" transform="translate(955.1 -568.13) rotate(90)"/><path class="cls-10" d="M771.7,176.62H885a3.43,3.43,0,0,1,2,.68l4.54,3.41a1.37,1.37,0,0,1,0,2.19L887,186.3a3.43,3.43,0,0,1-2,.68H771.7Z"/><path class="cls-11" d="M771.7,180.77H886.12l6,.89a1.29,1.29,0,0,0-.53-.95L887,177.3a3.43,3.43,0,0,0-2-.68H771.7Z"/><path class="cls-12" d="M810.65,175l4.27,19a1.37,1.37,0,0,1-1.34,1.67h-1.46a9,9,0,0,1-8.77-7l-4.26-19a1.36,1.36,0,0,1,1.33-1.67h1.47A9,9,0,0,1,810.65,175Z"/><path class="cls-12" d="M831.73,175,836,194a1.37,1.37,0,0,1-1.34,1.67H833.2a9,9,0,0,1-8.77-7l-4.27-19A1.37,1.37,0,0,1,821.5,168H823A9,9,0,0,1,831.73,175Z"/><path class="cls-12" d="M853.15,175l4.27,19a1.37,1.37,0,0,1-1.33,1.67h-1.47a9,9,0,0,1-8.77-7l-4.26-19a1.36,1.36,0,0,1,1.33-1.67h1.47A9,9,0,0,1,853.15,175Z"/><path class="cls-12" d="M874.92,175l4.26,19a1.37,1.37,0,0,1-1.33,1.67h-1.47a9,9,0,0,1-8.76-7l-4.27-19a1.37,1.37,0,0,1,1.33-1.67h1.47A9,9,0,0,1,874.92,175Z"/></g><g id="moi"><circle class="cls-13" cx="1198" cy="82" r="80"/><g id="eagle"><path class="cls-14" d="M1199.43,118.15a2,2,0,0,0-3.45,1.43v7.09a2,2,0,1,0,4,0v-7.09A2,2,0,0,0,1199.43,118.15Z"/><path class="cls-14" d="M1210.33,121.91l-2.84-6.73a2,2,0,0,0-1.87-1.23,2,2,0,0,0-.78.16,2,2,0,0,0-1.07,2.65l2.84,6.72a2,2,0,1,0,3.72-1.57Z"/><path class="cls-14" d="M1192.25,115.21a2,2,0,0,0-1.09-1.1h0a2,2,0,0,0-.79-.16,2.06,2.06,0,0,0-.76.15,2,2,0,0,0-1.1,1.08l-2.84,6.73a2,2,0,0,0,0,1.55,2,2,0,0,0,1.09,1.1,2,2,0,0,0,2.64-1.08l2.84-6.72A2,2,0,0,0,1192.25,115.21Z"/><path class="cls-14" d="M1239,100.79a2,2,0,0,0-.85-1.28h0a2,2,0,0,0-1.13-.34,2.56,2.56,0,0,0-.39,0,2,2,0,0,0-1.29.86l-7.11,10.62a2,2,0,0,0,.55,2.8,2.07,2.07,0,0,0,2.81-.55l7.11-10.62A2,2,0,0,0,1239,100.79Z"/><path class="cls-14" d="M1222.81,125a2,2,0,0,0-.86-1.29h0a2,2,0,0,0-1.12-.34,1.81,1.81,0,0,0-.4,0,2,2,0,0,0-1.28.86l-1.47,2.19a2,2,0,0,0,.56,2.8,2.06,2.06,0,0,0,2.8-.55l1.47-2.19A2,2,0,0,0,1222.81,125Z"/><path class="cls-14" d="M1176.85,124.31a2,2,0,0,0-1.68-.89,2,2,0,0,0-1.12.34,2,2,0,0,0-.55,2.8l1.46,2.19a2.07,2.07,0,0,0,2.8.55,2,2,0,0,0,.56-2.8Z"/><path class="cls-14" d="M1168.89,110.62c-1.11-2.45-3.09-3.62-4.83-4.65-2-1.16-3.55-2.09-4.09-4.76a2,2,0,0,0-2-1.62,1.87,1.87,0,0,0-.4,0A2,2,0,0,0,1156,102c.9,4.44,3.85,6.17,6,7.44,1.46.87,2.62,1.55,3.2,2.83a2,2,0,1,0,3.68-1.66Z"/><path class="cls-14" d="M1251.34,53.19a2,2,0,0,0,0-1.55h0a2,2,0,0,0-1.07-1.1,2,2,0,0,0-1.55,0l-26,10.4a2.06,2.06,0,0,0-1.23,2.26A15.83,15.83,0,0,1,1215,78.55l-1.54,1.09-.71-1.75a2,2,0,0,0-1.88-1.27h-5.24l.11-1.6a48.78,48.78,0,0,1,.75-5.19c1.18-6.55,1.62-11.75-4.39-14.28-5.62-2.37-9,.94-10.2,2.48l-.4.5-.64.07c-2,.2-5.5,1.11-6.68,4.93a2,2,0,1,0,3.87,1.19c.68-2.23,3.73-2.22,4.45-2.1a2.09,2.09,0,0,0,2-1.19c1.18-2.44,3.43-3.25,6-2.16,3.34,1.4,3,4.34,2,9.84a47.28,47.28,0,0,0-.82,6.09l-.07,1.42h-7.65l-.13-1.35a14.69,14.69,0,0,1,.41-5.07,2,2,0,0,0-1.3-2.56,2,2,0,0,0-1.54.13,2,2,0,0,0-1,1.18,17.88,17.88,0,0,0-.65,6.08l.1,1.59h-4.66a2,2,0,0,0-1.87,1.27l-.71,1.75L1181,78.55a15.78,15.78,0,0,1-6.49-15.35,2,2,0,0,0-1.23-2.28l-26-10.4a2,2,0,0,0-1.55,0,2,2,0,0,0-1.07,1.1,2,2,0,0,0,1.12,2.63l24.57,9.82,0,1a20.12,20.12,0,0,0,12,18.81l.85.4V97a20.56,20.56,0,0,0,.77,5.93l.36,1.21-1.13.56c-3.93,2-5.4,4.76-6.58,7-1.34,2.53-2.14,4.06-5.87,4.66a2,2,0,0,0-1.32.82,2,2,0,0,0-.35,1.5,2,2,0,0,0,2.34,1.67c5.69-.92,7.4-4.16,8.77-6.76,1.16-2.2,2.25-4.27,5.68-5.67l.8-.33.69.53a15.58,15.58,0,0,0,5.13,2.36c1.86.57,3.2,1,3.73,2.15a2,2,0,0,0,1.84,1.18,2,2,0,0,0,1.83-1.18c.54-1.17,1.88-1.58,3.74-2.15a15.37,15.37,0,0,0,5.13-2.36l.69-.53.8.33c3.42,1.4,4.52,3.47,5.67,5.66,1.38,2.61,3.09,5.85,8.81,6.77a1.66,1.66,0,0,0,.32,0,2,2,0,0,0,1.64-3.21,2.08,2.08,0,0,0-1.32-.81c-3.73-.6-4.54-2.13-5.87-4.67a14.31,14.31,0,0,0-6.58-7l-1.13-.56.36-1.21a20.56,20.56,0,0,0,.77-5.93V84.33l.85-.41a20.11,20.11,0,0,0,12-18.8l0-1,24.57-9.81A2.06,2.06,0,0,0,1251.34,53.19ZM1208.81,97c0,7.13-2.43,8.39-6.43,9.61h0a15.62,15.62,0,0,0-3.61,1.44l-.77.47-.78-.47a15.28,15.28,0,0,0-3.6-1.44c-4-1.23-6.44-2.49-6.44-9.62V90.52h15a2,2,0,0,0,0-4h-15V80.66h21.63Z"/><path class="cls-14" d="M1177.77,87.52a2,2,0,0,0-1.65-.85,2,2,0,0,0-1.17.38h0L1165.22,94a2,2,0,0,0-.47,2.81,2.08,2.08,0,0,0,2.82.48l9.73-6.92A2,2,0,0,0,1177.77,87.52Z"/><path class="cls-14" d="M1172.92,83a2,2,0,0,0,0-1.55,2,2,0,0,0-1.12-1.06,2.06,2.06,0,0,0-.73-.14,2,2,0,0,0-.82.18h0l-11.11,4.93a2,2,0,0,0-1.06,1.12,2,2,0,0,0,0,1.55,2.06,2.06,0,0,0,2.67,1l11.11-4.93A2,2,0,0,0,1172.92,83Z"/><path class="cls-14" d="M1166.81,76.79a2,2,0,0,0-.64-3.93,2,2,0,0,0-.64.1l-9.61,3.23a2,2,0,1,0,1.29,3.83Z"/><path class="cls-14" d="M1146.09,62.59a2,2,0,0,0,1.2,2.59l13.53,5a2,2,0,1,0,1.39-3.79l-13.53-5a1.86,1.86,0,0,0-.69-.12A2,2,0,0,0,1146.09,62.59Z"/><path class="cls-14" d="M1176.23,96.11l-3.48,4.21a2,2,0,0,0,.27,2.84,2.07,2.07,0,0,0,2.85-.27l3.47-4.2a2,2,0,1,0-3.11-2.58Z"/><path class="cls-14" d="M1218.7,90.34l9.73,6.92a2.08,2.08,0,0,0,2.82-.48,2,2,0,0,0-.48-2.82L1221,87a2,2,0,0,0-1.16-.37,2,2,0,0,0-1.18,3.67Z"/><path class="cls-14" d="M1224.14,84.13l11.12,4.93a2,2,0,0,0,2.66-1,2,2,0,0,0,0-1.55,2,2,0,0,0-1.06-1.12l-11.12-4.93a2,2,0,0,0-2.66,1,2,2,0,0,0,0,1.55A2,2,0,0,0,1224.14,84.13Z"/><path class="cls-14" d="M1227.91,74.23a2,2,0,0,0,1.28,2.56l9.6,3.23a2,2,0,0,0,1.29-3.83L1230.47,73a2,2,0,0,0-2.56,1.27Z"/><path class="cls-14" d="M1232.59,68.94a2,2,0,0,0,2.59,1.2l13.53-5a2,2,0,1,0-1.39-3.79l-13.53,5A2,2,0,0,0,1232.59,68.94Z"/><path class="cls-14" d="M1219.77,96.11a2,2,0,0,0-3.12,2.58l3.48,4.2a2,2,0,0,0,2.84.28,2,2,0,0,0,.27-2.85Z"/></g></g><g id="moi-2" data-name="moi"><circle class="cls-13" cx="1198" cy="557.5" r="80"/></g></g></svg>