<svg xmlns="http://www.w3.org/2000/svg" viewBox="0 0 768 512"><defs><style>.cls-1{fill:#32b784;}.cls-11,.cls-2,.cls-4{fill:#ccccca;}.cls-11,.cls-2,.cls-3{stroke:#000;}.cls-11,.cls-14,.cls-2,.cls-3{stroke-miterlimit:10;}.cls-2,.cls-3{stroke-width:10px;}.cls-14,.cls-3{fill:#fff;}.cls-5{fill:#9b9b9b;}.cls-6{fill:#ffb531;}.cls-7{fill:#3d4d63;}.cls-8{fill:#4db7e5;}.cls-9{fill:#f57e00;}.cls-10{fill:#2accf2;}.cls-11{stroke-width:5px;}.cls-12{fill:#ffcb73;}.cls-13{fill:#00a650;}.cls-14{stroke:#fff;stroke-width:1.5px;}</style></defs><title>cpu-01-moi-on</title><g id="Equipments"><rect class="cls-1" x="2" y="2" width="764" height="508" rx="100"/><g id="icon-mobile_production-unit"><path class="cls-2" d="M231.29,140.63a68.26,68.26,0,1,0,68.26,68.26A68.27,68.27,0,0,0,231.29,140.63Z"/><path class="cls-3" d="M231.29,184.92a24,24,0,1,0,24,24A24,24,0,0,0,231.29,184.92Z"/><rect class="cls-4" x="384.73" y="304.08" width="55.33" height="28.09" rx="7.24"/><path class="cls-5" d="M488.18,311.74a47.16,47.16,0,0,1,14.55-28.09H349.31a47.16,47.16,0,0,1,14.55,28.09H372v-.42a20,20,0,0,1,20-20h40.86a20,20,0,0,1,20,20v.42Z"/><path class="cls-6" d="M602.66,270.45v6.81a.45.45,0,0,0,.42.43h7.24V270h-7.24A.45.45,0,0,0,602.66,270.45Z"/><circle class="cls-7" cx="534.98" cy="318.13" r="34.48" transform="translate(36.34 690.64) rotate(-67.5)"/><path class="cls-6" d="M541.79,222.36A26.85,26.85,0,0,1,515,195.54v-34a6.38,6.38,0,0,1,6.38-6.38h62.48l-.43-1.11A21,21,0,0,0,564,140.63H507.74a7.24,7.24,0,0,0-7.23,7.24v123H535a47.3,47.3,0,0,1,46.81,40.93,6.23,6.23,0,0,1,.86-.07h27.24a.42.42,0,0,0,.43-.42V290.46h-7.24a13.21,13.21,0,0,1-13.19-13.2v-6.81a13.21,13.21,0,0,1,13.19-13.19h7.24V224l-.62-1.61Z"/><circle class="cls-7" cx="317.06" cy="318.13" r="34.48" transform="translate(-98.18 489.31) rotate(-67.5)"/><path class="cls-5" d="M284.8,283.65H267.59a47.65,47.65,0,0,1,8.61,10.8A47.34,47.34,0,0,1,284.8,283.65Z"/><path class="cls-8" d="M541.79,209.59h63l-16-41.71h-61v27.66A14.06,14.06,0,0,0,541.79,209.59Z"/><path class="cls-9" d="M459.65,270.88h28.09v-123c0-.14,0-.28,0-.42h-28.1Z"/><path class="cls-10" d="M306.28,270.88h140.6V120.63a.43.43,0,0,0-.43-.43H306.28a.43.43,0,0,0-.42.43V270.45A.42.42,0,0,0,306.28,270.88Z"/><circle class="cls-7" cx="235.34" cy="318.13" r="34.48" transform="translate(-47.92 41.8) rotate(-9.22)"/><path class="cls-11" d="M235.34,303.13a15,15,0,1,0,15,15A15,15,0,0,0,235.34,303.13Z"/><path class="cls-11" d="M317.06,303.13a15,15,0,1,0,15,15A15,15,0,0,0,317.06,303.13Z"/><path class="cls-11" d="M535,303.13a15,15,0,1,0,15,15A15,15,0,0,0,535,303.13Z"/><path d="M610.32,277.69h-7.24a.45.45,0,0,1-.42-.43v-6.81a.45.45,0,0,1,.42-.42h7.24Zm-5.53-68.1h-63a14.06,14.06,0,0,1-14-14.05V167.88h61Zm-117-62.14c0,.14,0,.28,0,.42v123H459.65V147.45Zm-299.66,123a13.21,13.21,0,0,0,13.19,13.2h1.8A47.22,47.22,0,1,0,276.2,341.8a47.22,47.22,0,0,0,87.66-17.29H372v.43a20,20,0,0,0,20,20h40.86a20,20,0,0,0,20-20v-.43h35.34a47.23,47.23,0,0,0,93.61-.07,6.23,6.23,0,0,0,.86.07H609.9a13.2,13.2,0,0,0,13.19-13.2V222.78c0-.05,0-.1,0-.15s0-.27,0-.4l0-.27c0-.12,0-.23,0-.34s-.05-.23-.07-.34a2,2,0,0,1-.07-.26c0-.13-.08-.26-.13-.39s0-.09-.05-.14l-27.33-71.07A33.62,33.62,0,0,0,564,127.87H507.74a20,20,0,0,0-15,6.81H480.08V95a26.82,26.82,0,0,0-7.86-19l-7.44-7.44A6.57,6.57,0,0,0,456,68a6.38,6.38,0,0,0-.46,9.45l7.63,7.64A14,14,0,0,1,467.31,95v39.64h-7.66l-12.77.16v136H201.28a.42.42,0,0,1-.42-.43V190.64a6.4,6.4,0,0,0-6.4-6.4h0a6.4,6.4,0,0,0-6.39,6.4Zm96.71,13.2a47.34,47.34,0,0,0-8.6,10.8,47.65,47.65,0,0,0-8.61-10.8Zm-49.46,69a34.48,34.48,0,1,1,34.47-34.47A34.51,34.51,0,0,1,235.34,352.6Zm81.72,0a34.48,34.48,0,1,1,34.47-34.47A34.51,34.51,0,0,1,317.06,352.6Zm123-27.66a7.24,7.24,0,0,1-7.24,7.23H392a7.24,7.24,0,0,1-7.24-7.23V311.31a7.24,7.24,0,0,1,7.24-7.23h40.86a7.24,7.24,0,0,1,7.24,7.23Zm-7.24-33.63H392a20,20,0,0,0-20,20v.43h-8.1a47.16,47.16,0,0,0-14.55-28.09H502.73a47.16,47.16,0,0,0-14.55,28.09H452.84v-.43A20,20,0,0,0,432.83,291.31ZM535,352.6a34.48,34.48,0,1,1,34.48-34.47A34.5,34.5,0,0,1,535,352.6Zm74.92-40.86H582.65a6.23,6.23,0,0,0-.86.07A47.3,47.3,0,0,0,535,270.88H500.51v-123a7.24,7.24,0,0,1,7.23-7.24H564A21,21,0,0,1,583.41,154l.43,1.11H521.36a6.38,6.38,0,0,0-6.38,6.38v34a26.85,26.85,0,0,0,26.81,26.82H609.7l.62,1.61v33.29h-7.24a13.21,13.21,0,0,0-13.19,13.19v6.81a13.21,13.21,0,0,0,13.19,13.2h7.24v20.85A.42.42,0,0,1,609.9,311.74Z"/><path d="M398.78,311.74a6.38,6.38,0,1,0,4.51,1.87A6.38,6.38,0,0,0,398.78,311.74Z"/><path d="M326.72,174.69H426a6.39,6.39,0,0,0,0-12.77h-99.3a6.39,6.39,0,1,0,0,12.77Z"/><path d="M326.72,229.17H426a6.39,6.39,0,0,0,0-12.77h-99.3a6.39,6.39,0,1,0,0,12.77Z"/><path d="M305.86,271.31V120.2a6.39,6.39,0,0,0-12.77,0V271.31a6.39,6.39,0,0,0,12.77,0Z"/><path d="M459.65,271.31V120.2a6.39,6.39,0,0,0-12.77,0V271.31a6.39,6.39,0,0,0,12.77,0Z"/><path d="M299.47,126.59H453.26a6.39,6.39,0,1,0,0-12.77H299.47a6.39,6.39,0,0,0,0,12.77Z"/><path d="M156.08,262.54h12.8v27.82l12.79-4.15V262.54h6.4a12.79,12.79,0,0,0,12.79-12.79V205a6.4,6.4,0,0,0-12.79,0v6.4H117.71V205a6.4,6.4,0,0,0-12.8,0v12.91a6.46,6.46,0,0,0,.44,2.17c.07.18.16.34.24.51a7.6,7.6,0,0,0,.37.76l15.47,23.19,7.63,11.4.62.94a12.87,12.87,0,0,0,10.67,5.69h15.73Z"/><polygon class="cls-12" points="140.3 249.72 123.26 224.16 188.07 224.16 188.07 249.75 140.3 249.72"/></g><path d="M359,437.16q-.58,8-5.93,12.65T339,454.42q-9.57,0-15.06-6.44t-5.48-17.69v-3A29.89,29.89,0,0,1,321,414.61a19,19,0,0,1,7.23-8.4,20.35,20.35,0,0,1,10.92-2.92q8.63,0,13.88,4.62t6.09,12.95H348.81q-.37-4.82-2.68-7t-7-2.17c-3.41,0-6,1.23-7.67,3.67s-2.57,6.25-2.61,11.4v3.76q0,8.07,2.44,11.79t7.71,3.73c3.16,0,5.53-.72,7.09-2.17s2.45-3.68,2.68-6.72Z"/><path d="M376,436.21v17.53H365.73V404h19.41A22.46,22.46,0,0,1,395,406a15.14,15.14,0,0,1,6.54,5.82,16.24,16.24,0,0,1,2.29,8.6q0,7.32-5,11.53T385,436.21Zm0-8.31h9.16a9,9,0,0,0,6.21-1.91,7,7,0,0,0,2.13-5.47,8.17,8.17,0,0,0-2.15-5.91,8,8,0,0,0-5.95-2.33H376Z"/><path d="M448.55,404v32.78q0,8.17-5.11,12.92t-14,4.75q-8.73,0-13.85-4.61t-5.23-12.68V404h10.26v32.85q0,4.89,2.34,7.13a9,9,0,0,0,6.48,2.24q8.64,0,8.78-9.09V404Z"/><g id="moi"><circle class="cls-13" cx="686" cy="82" r="80"/><g id="eagle"><path class="cls-14" d="M687.43,118.15a2,2,0,0,0-3.45,1.43v7.09a2,2,0,1,0,4,0v-7.09A2,2,0,0,0,687.43,118.15Z"/><path class="cls-14" d="M698.33,121.91l-2.84-6.73a2,2,0,0,0-1.87-1.23,2,2,0,0,0-.78.16,2,2,0,0,0-1.07,2.65l2.84,6.72a2,2,0,1,0,3.72-1.57Z"/><path class="cls-14" d="M680.25,115.21a2,2,0,0,0-1.09-1.1h0a2,2,0,0,0-.79-.16,2.06,2.06,0,0,0-.76.15,2,2,0,0,0-1.1,1.08l-2.84,6.73a2,2,0,0,0,0,1.55,2,2,0,0,0,1.09,1.1,2,2,0,0,0,2.64-1.08l2.84-6.72A2,2,0,0,0,680.25,115.21Z"/><path class="cls-14" d="M727,100.79a2,2,0,0,0-.85-1.28h0a2,2,0,0,0-1.13-.34,2.56,2.56,0,0,0-.39,0,2,2,0,0,0-1.29.86l-7.11,10.62a2,2,0,0,0,.55,2.8,2.07,2.07,0,0,0,2.81-.55l7.11-10.62A2,2,0,0,0,727,100.79Z"/><path class="cls-14" d="M710.81,125a2,2,0,0,0-.86-1.29h0a2,2,0,0,0-1.12-.34,1.81,1.81,0,0,0-.4,0,2,2,0,0,0-1.28.86l-1.47,2.19a2,2,0,0,0,.56,2.8,2.06,2.06,0,0,0,2.8-.55l1.47-2.19A2,2,0,0,0,710.81,125Z"/><path class="cls-14" d="M664.85,124.31a2,2,0,0,0-1.68-.89,2,2,0,0,0-1.12.34,2,2,0,0,0-.55,2.8l1.46,2.19a2.07,2.07,0,0,0,2.8.55,2,2,0,0,0,.56-2.8Z"/><path class="cls-14" d="M656.89,110.62c-1.11-2.45-3.09-3.62-4.83-4.65-2-1.16-3.55-2.09-4.09-4.76a2,2,0,0,0-2-1.62,1.87,1.87,0,0,0-.4,0A2,2,0,0,0,644,102c.9,4.44,3.85,6.17,6,7.44,1.46.87,2.62,1.55,3.2,2.83a2,2,0,1,0,3.68-1.66Z"/><path class="cls-14" d="M739.34,53.19a2,2,0,0,0,0-1.55h0a2,2,0,0,0-1.07-1.1,2,2,0,0,0-1.55,0l-26.05,10.4a2.06,2.06,0,0,0-1.23,2.26A15.83,15.83,0,0,1,703,78.55l-1.54,1.09-.71-1.75a2,2,0,0,0-1.88-1.27h-5.24l.11-1.6a48.78,48.78,0,0,1,.75-5.19c1.18-6.55,1.62-11.75-4.39-14.28-5.62-2.37-9,.94-10.2,2.48l-.4.5-.64.07c-2,.2-5.5,1.11-6.68,4.93A2,2,0,1,0,676,64.72c.68-2.23,3.73-2.22,4.45-2.1a2.09,2.09,0,0,0,2-1.19c1.18-2.44,3.43-3.25,6-2.16,3.34,1.4,3,4.34,2,9.84a47.28,47.28,0,0,0-.82,6.09l-.07,1.42h-7.65l-.13-1.35a14.69,14.69,0,0,1,.41-5.07,2,2,0,0,0-1.3-2.56,2,2,0,0,0-1.54.13,2,2,0,0,0-1,1.18,17.88,17.88,0,0,0-.65,6.08l.1,1.59h-4.66a2,2,0,0,0-1.87,1.27l-.71,1.75L669,78.55a15.78,15.78,0,0,1-6.49-15.35,2,2,0,0,0-1.23-2.28l-26.05-10.4a2,2,0,0,0-1.55,0,2,2,0,0,0-1.07,1.1,2,2,0,0,0,1.12,2.63l24.57,9.82,0,1a20.12,20.12,0,0,0,12,18.81l.85.4V97a20.56,20.56,0,0,0,.77,5.93l.36,1.21-1.13.56c-3.93,2-5.4,4.76-6.58,7-1.34,2.53-2.14,4.06-5.87,4.66a2,2,0,0,0-1.32.82,2,2,0,0,0-.35,1.5,2,2,0,0,0,2.34,1.67c5.69-.92,7.4-4.16,8.77-6.76,1.16-2.2,2.25-4.27,5.68-5.67l.8-.33.69.53a15.58,15.58,0,0,0,5.13,2.36c1.86.57,3.2,1,3.73,2.15A2,2,0,0,0,686,113.8a2,2,0,0,0,1.83-1.18c.54-1.17,1.88-1.58,3.74-2.15a15.37,15.37,0,0,0,5.13-2.36l.69-.53.8.33c3.42,1.4,4.52,3.47,5.67,5.66,1.38,2.61,3.09,5.85,8.81,6.77a1.66,1.66,0,0,0,.32,0,2,2,0,0,0,1.64-3.21,2.08,2.08,0,0,0-1.32-.81c-3.73-.6-4.54-2.13-5.87-4.67a14.31,14.31,0,0,0-6.58-7l-1.13-.56.36-1.21a20.56,20.56,0,0,0,.77-5.93V84.33l.85-.41a20.11,20.11,0,0,0,12-18.8l0-1,24.57-9.81A2.06,2.06,0,0,0,739.34,53.19ZM696.81,97c0,7.13-2.43,8.39-6.43,9.61h0a15.62,15.62,0,0,0-3.61,1.44l-.77.47-.78-.47a15.28,15.28,0,0,0-3.6-1.44c-4-1.23-6.44-2.49-6.44-9.62V90.52h15a2,2,0,0,0,0-4h-15V80.66h21.63Z"/><path class="cls-14" d="M665.77,87.52a2,2,0,0,0-1.65-.85,2,2,0,0,0-1.17.38h0L653.22,94a2,2,0,0,0-.47,2.81,2.08,2.08,0,0,0,2.82.48l9.73-6.92A2,2,0,0,0,665.77,87.52Z"/><path class="cls-14" d="M660.92,83a2,2,0,0,0,0-1.55,2,2,0,0,0-1.12-1.06,2.06,2.06,0,0,0-.73-.14,2,2,0,0,0-.82.18h0L647.1,85.37A2,2,0,0,0,646,86.49a2,2,0,0,0,0,1.55,2.06,2.06,0,0,0,2.67,1l11.11-4.93A2,2,0,0,0,660.92,83Z"/><path class="cls-14" d="M654.81,76.79a2,2,0,0,0-.64-3.93,2,2,0,0,0-.64.1l-9.61,3.23A2,2,0,0,0,645.21,80Z"/><path class="cls-14" d="M634.09,62.59a2,2,0,0,0,1.2,2.59l13.53,5a2,2,0,0,0,1.39-3.79l-13.53-5a1.86,1.86,0,0,0-.69-.12A2,2,0,0,0,634.09,62.59Z"/><path class="cls-14" d="M664.23,96.11l-3.48,4.21a2,2,0,0,0,.27,2.84,2.07,2.07,0,0,0,2.85-.27l3.47-4.2a2,2,0,1,0-3.11-2.58Z"/><path class="cls-14" d="M706.7,90.34l9.73,6.92a2.08,2.08,0,0,0,2.82-.48,2,2,0,0,0-.48-2.82L709,87a2,2,0,0,0-1.16-.37,2,2,0,0,0-1.18,3.67Z"/><path class="cls-14" d="M712.14,84.13l11.12,4.93a2,2,0,0,0,2.66-1,2,2,0,0,0,0-1.55,2,2,0,0,0-1.06-1.12l-11.12-4.93a2,2,0,0,0-2.66,1,2,2,0,0,0,0,1.55A2,2,0,0,0,712.14,84.13Z"/><path class="cls-14" d="M715.91,74.23a2,2,0,0,0,1.28,2.56l9.6,3.23a2,2,0,1,0,1.29-3.83L718.47,73a2,2,0,0,0-2.56,1.27Z"/><path class="cls-14" d="M720.59,68.94a2,2,0,0,0,2.59,1.2l13.53-5a2,2,0,0,0-1.39-3.79l-13.53,5A2,2,0,0,0,720.59,68.94Z"/><path class="cls-14" d="M707.77,96.11a2,2,0,0,0-3.12,2.58l3.48,4.2a2,2,0,0,0,2.84.28,2,2,0,0,0,.27-2.85Z"/></g></g></g></svg>