<svg xmlns="http://www.w3.org/2000/svg" viewBox="0 0 860 512"><defs><style>.cls-1{fill:#2eaacc;}.cls-2,.cls-5{fill:#ccccca;}.cls-10,.cls-11,.cls-13,.cls-2,.cls-5,.cls-9{stroke:#000;}.cls-10,.cls-11,.cls-13,.cls-15,.cls-2,.cls-5,.cls-9{stroke-miterlimit:10;}.cls-10,.cls-11,.cls-13,.cls-2,.cls-9{stroke-width:10px;}.cls-10,.cls-15,.cls-3{fill:#fff;}.cls-4{fill:#3d4d63;}.cls-5{stroke-width:5px;}.cls-6{fill:#d3d3c5;}.cls-7{fill:#4db7e5;}.cls-8{fill:#ffa912;}.cls-12,.cls-9{fill:#ffb531;}.cls-11{fill:#b2b2aa;}.cls-13{fill:none;}.cls-14{fill:#00a650;}.cls-15{stroke:#fff;stroke-width:1.5px;}</style></defs><title>sc-01-moi-on</title><g id="Equipments"><rect class="cls-1" x="2" y="2" width="854" height="508" rx="100"/><path d="M166,128.83a5.24,5.24,0,0,0-2-4.46,27.13,27.13,0,0,0-7.38-3.29,52.13,52.13,0,0,1-8.45-3.4q-8.47-4.58-8.47-12.34a12,12,0,0,1,2.27-7.19,14.81,14.81,0,0,1,6.53-4.94A24.66,24.66,0,0,1,158,91.43a22.3,22.3,0,0,1,9.5,1.94A15.07,15.07,0,0,1,174,98.82a14.22,14.22,0,0,1,2.31,8H166a6.69,6.69,0,0,0-2.15-5.31,8.83,8.83,0,0,0-6.05-1.9,9.43,9.43,0,0,0-5.84,1.59,5,5,0,0,0-2.09,4.19,4.83,4.83,0,0,0,2.44,4.07,27.54,27.54,0,0,0,7.2,3.07q8.74,2.64,12.75,6.53a13,13,0,0,1,4,9.71,12,12,0,0,1-4.89,10.13q-4.89,3.68-13.16,3.68a25.29,25.29,0,0,1-10.46-2.11,16.53,16.53,0,0,1-7.19-5.76,14.66,14.66,0,0,1-2.48-8.47h10.29q0,8.24,9.84,8.24a9.59,9.59,0,0,0,5.71-1.49A4.83,4.83,0,0,0,166,128.83Z"/><path d="M222.27,125.31q-.57,8-5.93,12.64t-14.1,4.62q-9.57,0-15.05-6.45t-5.49-17.68v-3a29.74,29.74,0,0,1,2.53-12.64,18.93,18.93,0,0,1,7.23-8.39,20.22,20.22,0,0,1,10.92-2.93q8.61,0,13.88,4.62t6.08,13H212.09c-.25-3.21-1.15-5.54-2.68-7s-3.88-2.17-7-2.17q-5.13,0-7.67,3.68t-2.62,11.39v3.76q0,8.07,2.45,11.8t7.7,3.72q4.75,0,7.1-2.17t2.68-6.71Z"/><rect class="cls-2" x="528.45" y="190.1" width="24.26" height="209.68" transform="translate(366.88 -295.86) rotate(45)"/><rect class="cls-2" x="650.14" y="74.11" width="21.7" height="230.4" transform="translate(691.34 -497.59) rotate(76.55)"/><polygon class="cls-3" points="214.12 354.69 229.62 328.21 345.47 328.21 345.47 373.41 246.53 371.93 241.03 357.73 214.12 354.69"/><circle class="cls-4" cx="177.82" cy="410.91" r="28.23" transform="translate(-269.86 417.94) rotate(-67.5)"/><path class="cls-5" d="M177.81,400.91a10,10,0,1,0,10,10A10,10,0,0,0,177.81,400.91Z"/><circle class="cls-4" cx="393.22" cy="410.91" r="28.23" transform="translate(-136.89 616.95) rotate(-67.5)"/><path class="cls-5" d="M393.22,400.91a10,10,0,1,0,10,10A10,10,0,0,0,393.22,400.91Z"/><path class="cls-6" d="M221.93,397.94v-6.62H206.3a34.56,34.56,0,0,1,3.56,6.63Z"/><path class="cls-6" d="M212.11,406.59a31.25,31.25,0,0,1,0,8.64H358.92a32,32,0,0,1,0-8.64Z"/><path class="cls-6" d="M152.11,387.8a34.47,34.47,0,0,1,45.64-5.13h24.43v-15H241l-.74-4.08-.53-2.38a3.58,3.58,0,0,0-3-2.19h-84.6Z"/><path class="cls-6" d="M91.6,406.59v8.64h51.92a31.25,31.25,0,0,1,0-8.64Z"/><path class="cls-6" d="M445.11,397.94V376.32h-25a1,1,0,0,1-1-1v-24a1,1,0,0,1,1-1h15l-13-8.65h-62.6a1,1,0,0,1-1-1V302.87H350v95.07h11.19a34.56,34.56,0,0,1,64.1,0Z"/><polygon class="cls-6" points="341.33 397.94 341.33 376.31 251 376.31 254.94 397.94 341.33 397.94"/><path class="cls-3" d="M142.83,397.94V374h-30.6a3.58,3.58,0,0,0-3,2.19l-.53,2.38-3.51,19.35Z"/><polygon class="cls-6" points="231.22 397.94 246.53 397.94 242.6 376.31 231.22 376.31 231.22 397.94"/><path class="cls-7" d="M367.27,327v6.11h51l-6.24-14.34-.53-2.39a3.58,3.58,0,0,0-3-2.19H367.27Z"/><path class="cls-6" d="M483.35,376.34l-28.66-12.47-.93-.41v34.48h7.68a1,1,0,0,1,1,1v16.33h21.12a5.37,5.37,0,0,1-.18-1.4V376.34Z"/><path class="cls-6" d="M443.31,415.23h10.45v-8.64H427.52a32,32,0,0,1,0,8.64Z"/><rect class="cls-8" x="427.81" y="359.02" width="17.3" height="8.65"/><rect x="358.62" y="350.37" width="17.3" height="8.65"/><rect x="384.57" y="350.37" width="8.65" height="8.65"/><path d="M495.19,369,454,351.36a5.6,5.6,0,0,0-2.48-.46l-24.12-16.1-8.33-25.75a4.31,4.31,0,0,0-4.25-3.54H384.57l-25.95-11.86H341.33v30.19H226.49v9H286v34.83H249.43l-2.5-13.75a4.31,4.31,0,0,0-4.25-3.55H143.07v15H106.26a4.33,4.33,0,0,0-4.25,3.55l-5.28,29H83.92a1,1,0,0,0-1,1v24a1,1,0,0,0,1,1h61.85a34.55,34.55,0,0,0,64.09,0H361.17a34.56,34.56,0,0,0,64.1,0h18V424h51.24v-8.78h-.18Zm-386.54,9.56.53-2.38a3.58,3.58,0,0,1,3-2.19h30.6v23.92H105.14Zm34.87,36.64H91.6v-8.64h51.92A31.25,31.25,0,0,0,143.52,415.23ZM367.27,327V314.15h41.21a3.58,3.58,0,0,1,3,2.19l.53,2.39,6.24,14.34h-51ZM295,332.84h46.31v34.83H295Zm46.31,43.48v21.62H254.94L251,376.32Zm-94.8,21.62H231.22V376.32H242.6Zm-68.71,38.91c-18.28,0-32.15-18.9-23.12-38.22a22.5,22.5,0,0,1,10.84-10.83c19.32-9,38.22,4.83,38.22,23.11A26,26,0,0,1,177.82,436.85Zm19.93-54.18h0a34.47,34.47,0,0,0-45.64,5.13V359h84.6a3.58,3.58,0,0,1,3,2.19l.53,2.38.74,4.08H222.18v15H197.75Zm8.55,8.64h15.63v6.62H209.86A34.56,34.56,0,0,0,206.3,391.31Zm152.62,23.92H212.11a31.25,31.25,0,0,0,0-8.64H358.92A32,32,0,0,0,358.92,415.23Zm34.3,21.62c-18.28,0-32.14-18.9-23.11-38.22a22.44,22.44,0,0,1,10.83-10.83c19.32-9,38.22,4.83,38.22,23.11A26,26,0,0,1,393.22,436.85Zm0-60.54a34.57,34.57,0,0,0-32.05,21.63H350V302.87h8.64v37.89a1,1,0,0,0,1,1h62.6l13,8.65h-15a1,1,0,0,0-1,1v24a1,1,0,0,0,1,1h25v21.62H425.27A34.57,34.57,0,0,0,393.22,376.31ZM445.11,359v8.65h-17.3V359Zm8.65,56.21H427.52a32,32,0,0,0,0-8.64h26.24Zm8.65,0V398.9a1,1,0,0,0-1-1h-7.68V363.46l.93.41,28.66,12.47v37.49a5.37,5.37,0,0,0,.18,1.4Z"/><path class="cls-9" d="M190.76,289.89a35.73,35.73,0,1,0,35.73,35.73A35.73,35.73,0,0,0,190.76,289.89Z"/><path class="cls-10" d="M190.76,313.07a12.55,12.55,0,1,0,12.55,12.55A12.55,12.55,0,0,0,190.76,313.07Z"/><path class="cls-11" d="M587.35,211.79h56a0,0,0,0,1,0,0v3.26A26.39,26.39,0,0,1,617,241.45h0a29.65,29.65,0,0,1-29.65-29.65v0a0,0,0,0,1,0,0Z" transform="translate(-35.84 149.37) rotate(-13.45)"/><path d="M769.51,136.42l5.23-14.79-9.11-3.22L760.4,133.2l-4.55-1.6L734.6,191.74l4.78,1.69a10.81,10.81,0,0,1-13.86,6.62l-33.45-10.71-3.22,9.1,33.45,10.72a20.29,20.29,0,0,0,26-12.59l4.55,1.61L774.06,138Z"/><path class="cls-12" d="M749.53,189.34,766,142.85l-6.83-2.42-16.43,46.5Z"/><path class="cls-13" d="M690.65,193.37s-15.22,86.92-70.25,47.29l-5,.75S578.88,446.63,489.89,374"/><g id="moi"><circle class="cls-14" cx="776" cy="82" r="80"/><g id="eagle"><path class="cls-15" d="M777.43,118.15a2,2,0,0,0-3.45,1.43v7.09a2,2,0,1,0,4,0v-7.09A2,2,0,0,0,777.43,118.15Z"/><path class="cls-15" d="M788.33,121.91l-2.84-6.73a2,2,0,0,0-1.87-1.23,2,2,0,0,0-.78.16,2,2,0,0,0-1.07,2.65l2.84,6.72a2,2,0,1,0,3.72-1.57Z"/><path class="cls-15" d="M770.25,115.21a2,2,0,0,0-1.09-1.1h0a2,2,0,0,0-.79-.16,2.06,2.06,0,0,0-.76.15,2,2,0,0,0-1.1,1.08l-2.84,6.73a2,2,0,0,0,0,1.55,2,2,0,0,0,1.09,1.1,2,2,0,0,0,2.64-1.08l2.84-6.72A2,2,0,0,0,770.25,115.21Z"/><path class="cls-15" d="M817,100.79a2,2,0,0,0-.85-1.28h0a2,2,0,0,0-1.13-.34,2.56,2.56,0,0,0-.39,0,2,2,0,0,0-1.29.86l-7.11,10.62a2,2,0,0,0,.55,2.8,2.07,2.07,0,0,0,2.81-.55l7.11-10.62A2,2,0,0,0,817,100.79Z"/><path class="cls-15" d="M800.81,125a2,2,0,0,0-.86-1.29h0a2,2,0,0,0-1.12-.34,1.81,1.81,0,0,0-.4,0,2,2,0,0,0-1.28.86l-1.47,2.19a2,2,0,0,0,.56,2.8,2.06,2.06,0,0,0,2.8-.55l1.47-2.19A2,2,0,0,0,800.81,125Z"/><path class="cls-15" d="M754.85,124.31a2,2,0,0,0-1.68-.89,2,2,0,0,0-1.12.34,2,2,0,0,0-.55,2.8l1.46,2.19a2.07,2.07,0,0,0,2.8.55,2,2,0,0,0,.56-2.8Z"/><path class="cls-15" d="M746.89,110.62c-1.11-2.45-3.09-3.62-4.83-4.65-2-1.16-3.55-2.09-4.09-4.76a2,2,0,0,0-2-1.62,1.87,1.87,0,0,0-.4,0A2,2,0,0,0,734,102c.9,4.44,3.85,6.17,6,7.44,1.46.87,2.62,1.55,3.2,2.83a2,2,0,1,0,3.68-1.66Z"/><path class="cls-15" d="M829.34,53.19a2,2,0,0,0,0-1.55h0a2,2,0,0,0-1.07-1.1,2,2,0,0,0-1.55,0l-26.05,10.4a2.06,2.06,0,0,0-1.23,2.26A15.83,15.83,0,0,1,793,78.55l-1.54,1.09-.71-1.75a2,2,0,0,0-1.88-1.27h-5.24l.11-1.6a48.78,48.78,0,0,1,.75-5.19c1.18-6.55,1.62-11.75-4.39-14.28-5.62-2.37-9,.94-10.2,2.48l-.4.5-.64.07c-2,.2-5.5,1.11-6.68,4.93A2,2,0,1,0,766,64.72c.68-2.23,3.73-2.22,4.45-2.1a2.09,2.09,0,0,0,2-1.19c1.18-2.44,3.43-3.25,6-2.16,3.34,1.4,3,4.34,2,9.84a47.28,47.28,0,0,0-.82,6.09l-.07,1.42h-7.65l-.13-1.35a14.69,14.69,0,0,1,.41-5.07,2,2,0,0,0-1.3-2.56,2,2,0,0,0-1.54.13,2,2,0,0,0-1,1.18,17.88,17.88,0,0,0-.65,6.08l.1,1.59h-4.66a2,2,0,0,0-1.87,1.27l-.71,1.75L759,78.55a15.78,15.78,0,0,1-6.49-15.35,2,2,0,0,0-1.23-2.28l-26.05-10.4a2,2,0,0,0-1.55,0,2,2,0,0,0-1.07,1.1,2,2,0,0,0,1.12,2.63l24.57,9.82,0,1a20.12,20.12,0,0,0,12,18.81l.85.4V97a20.56,20.56,0,0,0,.77,5.93l.36,1.21-1.13.56c-3.93,2-5.4,4.76-6.58,7-1.34,2.53-2.14,4.06-5.87,4.66a2,2,0,0,0-1.32.82,2,2,0,0,0-.35,1.5,2,2,0,0,0,2.34,1.67c5.69-.92,7.4-4.16,8.77-6.76,1.16-2.2,2.25-4.27,5.68-5.67l.8-.33.69.53a15.58,15.58,0,0,0,5.13,2.36c1.86.57,3.2,1,3.73,2.15A2,2,0,0,0,776,113.8a2,2,0,0,0,1.83-1.18c.54-1.17,1.88-1.58,3.74-2.15a15.37,15.37,0,0,0,5.13-2.36l.69-.53.8.33c3.42,1.4,4.52,3.47,5.67,5.66,1.38,2.61,3.09,5.85,8.81,6.77a1.66,1.66,0,0,0,.32,0,2,2,0,0,0,1.64-3.21,2.08,2.08,0,0,0-1.32-.81c-3.73-.6-4.54-2.13-5.87-4.67a14.31,14.31,0,0,0-6.58-7l-1.13-.56.36-1.21a20.56,20.56,0,0,0,.77-5.93V84.33l.85-.41a20.11,20.11,0,0,0,12-18.8l0-1,24.57-9.81A2.06,2.06,0,0,0,829.34,53.19ZM786.81,97c0,7.13-2.43,8.39-6.43,9.61h0a15.62,15.62,0,0,0-3.61,1.44l-.77.47-.78-.47a15.28,15.28,0,0,0-3.6-1.44c-4-1.23-6.44-2.49-6.44-9.62V90.52h15a2,2,0,0,0,0-4h-15V80.66h21.63Z"/><path class="cls-15" d="M755.77,87.52a2,2,0,0,0-1.65-.85,2,2,0,0,0-1.17.38h0L743.22,94a2,2,0,0,0-.47,2.81,2.08,2.08,0,0,0,2.82.48l9.73-6.92A2,2,0,0,0,755.77,87.52Z"/><path class="cls-15" d="M750.92,83a2,2,0,0,0,0-1.55,2,2,0,0,0-1.12-1.06,2.06,2.06,0,0,0-.73-.14,2,2,0,0,0-.82.18h0L737.1,85.37A2,2,0,0,0,736,86.49a2,2,0,0,0,0,1.55,2.06,2.06,0,0,0,2.67,1l11.11-4.93A2,2,0,0,0,750.92,83Z"/><path class="cls-15" d="M744.81,76.79a2,2,0,0,0-.64-3.93,2,2,0,0,0-.64.1l-9.61,3.23A2,2,0,0,0,735.21,80Z"/><path class="cls-15" d="M724.09,62.59a2,2,0,0,0,1.2,2.59l13.53,5a2,2,0,0,0,1.39-3.79l-13.53-5a1.86,1.86,0,0,0-.69-.12A2,2,0,0,0,724.09,62.59Z"/><path class="cls-15" d="M754.23,96.11l-3.48,4.21a2,2,0,0,0,.27,2.84,2.07,2.07,0,0,0,2.85-.27l3.47-4.2a2,2,0,1,0-3.11-2.58Z"/><path class="cls-15" d="M796.7,90.34l9.73,6.92a2.08,2.08,0,0,0,2.82-.48,2,2,0,0,0-.48-2.82L799,87a2,2,0,0,0-1.16-.37,2,2,0,0,0-1.18,3.67Z"/><path class="cls-15" d="M802.14,84.13l11.12,4.93a2,2,0,0,0,2.66-1,2,2,0,0,0,0-1.55,2,2,0,0,0-1.06-1.12l-11.12-4.93a2,2,0,0,0-2.66,1,2,2,0,0,0,0,1.55A2,2,0,0,0,802.14,84.13Z"/><path class="cls-15" d="M805.91,74.23a2,2,0,0,0,1.28,2.56l9.6,3.23a2,2,0,1,0,1.29-3.83L808.47,73a2,2,0,0,0-2.56,1.27Z"/><path class="cls-15" d="M810.59,68.94a2,2,0,0,0,2.59,1.2l13.53-5a2,2,0,0,0-1.39-3.79l-13.53,5A2,2,0,0,0,810.59,68.94Z"/><path class="cls-15" d="M797.77,96.11a2,2,0,0,0-3.12,2.58l3.48,4.2a2,2,0,0,0,2.84.28,2,2,0,0,0,.27-2.85Z"/></g></g></g></svg>