<svg xmlns="http://www.w3.org/2000/svg" viewBox="0 0 512 512"><defs><style>.cls-1{fill:#e57ac9;}.cls-2{fill:#00a650;}.cls-3{fill:#fff;stroke:#fff;stroke-miterlimit:10;stroke-width:1.5px;}.cls-4{fill:#feb756;}.cls-5{fill:#4dbbeb;}.cls-6{fill:#fd3c65;}.cls-7{fill:#fff5cd;}.cls-8{fill:#fc0006;}</style></defs><title>human-moi-on-off</title><g id="Equipments"><circle id="base" class="cls-1" cx="256" cy="256" r="254"/><g id="moi"><circle class="cls-2" cx="430" cy="82" r="80"/><g id="eagle"><path class="cls-3" d="M431.43,118.15a2,2,0,0,0-3.45,1.43v7.09a2,2,0,1,0,4,0v-7.09A2,2,0,0,0,431.43,118.15Z"/><path class="cls-3" d="M442.33,121.91l-2.84-6.73a2,2,0,0,0-1.87-1.23,2,2,0,0,0-.78.16,2,2,0,0,0-1.07,2.65l2.84,6.72a2,2,0,1,0,3.72-1.57Z"/><path class="cls-3" d="M424.25,115.21a2,2,0,0,0-1.09-1.1h0a2,2,0,0,0-.79-.16,2.06,2.06,0,0,0-.76.15,2,2,0,0,0-1.1,1.08l-2.84,6.73a2,2,0,0,0,0,1.55,2,2,0,0,0,1.09,1.1,2,2,0,0,0,2.64-1.08l2.84-6.72A2,2,0,0,0,424.25,115.21Z"/><path class="cls-3" d="M471,100.79a2,2,0,0,0-.85-1.28h0a2,2,0,0,0-1.13-.34,2.56,2.56,0,0,0-.39,0,2,2,0,0,0-1.29.86l-7.11,10.62a2,2,0,0,0,.55,2.8,2.07,2.07,0,0,0,2.81-.55l7.11-10.62A2,2,0,0,0,471,100.79Z"/><path class="cls-3" d="M454.81,125a2,2,0,0,0-.86-1.29h0a2,2,0,0,0-1.12-.34,1.81,1.81,0,0,0-.4,0,2,2,0,0,0-1.28.86l-1.47,2.19a2,2,0,0,0,.56,2.8,2.06,2.06,0,0,0,2.8-.55l1.47-2.19A2,2,0,0,0,454.81,125Z"/><path class="cls-3" d="M408.85,124.31a2,2,0,0,0-1.68-.89,2,2,0,0,0-1.12.34,2,2,0,0,0-.55,2.8l1.46,2.19a2.07,2.07,0,0,0,2.8.55,2,2,0,0,0,.56-2.8Z"/><path class="cls-3" d="M400.89,110.62c-1.11-2.45-3.09-3.62-4.83-4.65-2-1.16-3.55-2.09-4.09-4.76a2,2,0,0,0-2-1.62,1.87,1.87,0,0,0-.4,0A2,2,0,0,0,388,102c.9,4.44,3.85,6.17,6,7.44,1.46.87,2.62,1.55,3.2,2.83a2,2,0,1,0,3.68-1.66Z"/><path class="cls-3" d="M483.34,53.19a2,2,0,0,0,0-1.55h0a2,2,0,0,0-1.07-1.1,2,2,0,0,0-1.55,0l-26.05,10.4a2.06,2.06,0,0,0-1.23,2.26A15.83,15.83,0,0,1,447,78.55l-1.54,1.09-.71-1.75a2,2,0,0,0-1.88-1.27h-5.24l.11-1.6a48.78,48.78,0,0,1,.75-5.19c1.18-6.55,1.62-11.75-4.39-14.28-5.62-2.37-9,.94-10.2,2.48l-.4.5-.64.07c-2,.2-5.5,1.11-6.68,4.93A2,2,0,1,0,420,64.72c.68-2.23,3.73-2.22,4.45-2.1a2.09,2.09,0,0,0,2-1.19c1.18-2.44,3.43-3.25,6-2.16,3.34,1.4,3,4.34,2,9.84a47.28,47.28,0,0,0-.82,6.09l-.07,1.42h-7.65l-.13-1.35a14.69,14.69,0,0,1,.41-5.07,2,2,0,0,0-1.3-2.56,2,2,0,0,0-1.54.13,2,2,0,0,0-1,1.18,17.88,17.88,0,0,0-.65,6.08l.1,1.59h-4.66a2,2,0,0,0-1.87,1.27l-.71,1.75L413,78.55a15.78,15.78,0,0,1-6.49-15.35,2,2,0,0,0-1.23-2.28l-26.05-10.4a2,2,0,0,0-1.55,0,2,2,0,0,0-1.07,1.1,2,2,0,0,0,1.12,2.63l24.57,9.82,0,1a20.12,20.12,0,0,0,12,18.81l.85.4V97a20.56,20.56,0,0,0,.77,5.93l.36,1.21-1.13.56c-3.93,2-5.4,4.76-6.58,7-1.34,2.53-2.14,4.06-5.87,4.66a2,2,0,0,0-1.32.82,2,2,0,0,0-.35,1.5,2,2,0,0,0,2.34,1.67c5.69-.92,7.4-4.16,8.77-6.76,1.16-2.2,2.25-4.27,5.68-5.67l.8-.33.69.53a15.58,15.58,0,0,0,5.13,2.36c1.86.57,3.2,1,3.73,2.15A2,2,0,0,0,430,113.8a2,2,0,0,0,1.83-1.18c.54-1.17,1.88-1.58,3.74-2.15a15.37,15.37,0,0,0,5.13-2.36l.69-.53.8.33c3.42,1.4,4.52,3.47,5.67,5.66,1.38,2.61,3.09,5.85,8.81,6.77a1.66,1.66,0,0,0,.32,0,2,2,0,0,0,1.64-3.21,2.08,2.08,0,0,0-1.32-.81c-3.73-.6-4.54-2.13-5.87-4.67a14.31,14.31,0,0,0-6.58-7l-1.13-.56.36-1.21a20.56,20.56,0,0,0,.77-5.93V84.33l.85-.41a20.11,20.11,0,0,0,12-18.8l0-1,24.57-9.81A2.06,2.06,0,0,0,483.34,53.19ZM440.81,97c0,7.13-2.43,8.39-6.43,9.61h0a15.62,15.62,0,0,0-3.61,1.44l-.77.47-.78-.47a15.28,15.28,0,0,0-3.6-1.44c-4-1.23-6.44-2.49-6.44-9.62V90.52h14.95a2,2,0,0,0,0-4H419.18V80.66h21.63Z"/><path class="cls-3" d="M409.77,87.52a2,2,0,0,0-1.65-.85,2,2,0,0,0-1.17.38h0L397.22,94a2,2,0,0,0-.47,2.81,2.08,2.08,0,0,0,2.82.48l9.73-6.92A2,2,0,0,0,409.77,87.52Z"/><path class="cls-3" d="M404.92,83a2,2,0,0,0,0-1.55,2,2,0,0,0-1.12-1.06,2.06,2.06,0,0,0-.73-.14,2,2,0,0,0-.82.18h0L391.1,85.37A2,2,0,0,0,390,86.49a2,2,0,0,0,0,1.55,2.06,2.06,0,0,0,2.67,1l11.11-4.93A2,2,0,0,0,404.92,83Z"/><path class="cls-3" d="M398.81,76.79a2,2,0,0,0-.64-3.93,2,2,0,0,0-.64.1l-9.61,3.23A2,2,0,0,0,389.21,80Z"/><path class="cls-3" d="M378.09,62.59a2,2,0,0,0,1.2,2.59l13.53,5a2,2,0,1,0,1.39-3.79l-13.53-5a1.86,1.86,0,0,0-.69-.12A2,2,0,0,0,378.09,62.59Z"/><path class="cls-3" d="M408.23,96.11l-3.48,4.21a2,2,0,0,0,.27,2.84,2.07,2.07,0,0,0,2.85-.27l3.47-4.2a2,2,0,1,0-3.11-2.58Z"/><path class="cls-3" d="M450.7,90.34l9.73,6.92a2.08,2.08,0,0,0,2.82-.48,2,2,0,0,0-.48-2.82L453,87a2,2,0,0,0-1.16-.37,2,2,0,0,0-1.18,3.67Z"/><path class="cls-3" d="M456.14,84.13l11.12,4.93a2,2,0,0,0,2.66-1,2,2,0,0,0,0-1.55,2,2,0,0,0-1.06-1.12l-11.12-4.93a2,2,0,0,0-2.66,1,2,2,0,0,0,0,1.55A2,2,0,0,0,456.14,84.13Z"/><path class="cls-3" d="M459.91,74.23a2,2,0,0,0,1.28,2.56l9.6,3.23a2,2,0,1,0,1.29-3.83L462.47,73a2,2,0,0,0-2.56,1.27Z"/><path class="cls-3" d="M464.59,68.94a2,2,0,0,0,2.59,1.2l13.53-5a2,2,0,1,0-1.39-3.79l-13.53,5A2,2,0,0,0,464.59,68.94Z"/><path class="cls-3" d="M451.77,96.11a2,2,0,0,0-3.12,2.58l3.48,4.2a2,2,0,0,0,2.84.28,2,2,0,0,0,.27-2.85Z"/></g></g><path class="cls-4" d="M360.76,311.86v33H329.33V262.52A54.79,54.79,0,0,1,360.76,311.86Z"/><path class="cls-5" d="M318.86,151.57a10.48,10.48,0,0,1,0,21H193.14a10.48,10.48,0,0,1,0-21Z"/><path class="cls-4" d="M235.05,100.24v-1c0-5.79,4.69-12,10.47-12h21c5.78,0,10.47,6.26,10.47,12v1a52.4,52.4,0,0,1,41.91,51.33H193.14A52.4,52.4,0,0,1,235.05,100.24Z"/><path class="cls-6" d="M308.38,257.9H287.43L256,290.9l-31.43-33H203.62a50,50,0,0,0-21,4.62v82.34H329.33V262.52A50,50,0,0,0,308.38,257.9Z"/><path class="cls-7" d="M313.62,172.52H198.38a15.72,15.72,0,0,0,0,31.43h6.28A55.15,55.15,0,0,0,219,231.3a53.8,53.8,0,0,0,5.89,5.3l-.28.36V257.9l31.43,33,31.43-33V237l-.28-.36A55.14,55.14,0,0,0,307.34,204h6.28a15.72,15.72,0,0,0,0-31.43Z"/><path class="cls-4" d="M182.67,262.52v82.34H151.24v-33A54.79,54.79,0,0,1,182.67,262.52Z"/><path d="M308.38,317.1a5.24,5.24,0,1,0-5.24-5.24A5.25,5.25,0,0,0,308.38,317.1Z"/><path d="M203.62,306.62a5.24,5.24,0,1,0,5.24,5.24A5.25,5.25,0,0,0,203.62,306.62Z"/><path d="M356.39,279.49a59.13,59.13,0,0,0-23.5-21.06,5.25,5.25,0,0,0-3-1.37,54.88,54.88,0,0,0-21.54-4.39H292.67V238.85a60.15,60.15,0,0,0,18.8-29.66h2.15A20.94,20.94,0,0,0,329,174c.33-.28.65-.57,1-.88a15.72,15.72,0,0,0-6.05-26,57.84,57.84,0,0,0-42-51.12c-1.37-7.2-7.32-14.15-15.4-14.15h-21c-8.08,0-14,6.95-15.4,14.15a57.83,57.83,0,0,0-42,51.12A15.7,15.7,0,0,0,183,174a20.94,20.94,0,0,0,15.38,35.16h2.14a60.17,60.17,0,0,0,14.66,25.74c1.32,1.37,2.71,2.67,4.15,3.91v13.83H203.62a54.88,54.88,0,0,0-21.54,4.39,5.19,5.19,0,0,0-3,1.37A60,60,0,0,0,146,311.86v33a5.25,5.25,0,0,0,5.24,5.24H360.76a5.25,5.25,0,0,0,5.24-5.24v-33A59.57,59.57,0,0,0,356.39,279.49Zm-53.25-16.35v33a5.24,5.24,0,0,0,10.48,0V263.45A44.46,44.46,0,0,1,324.1,266v73.61H313.62V327.57a5.24,5.24,0,0,0-10.48,0v12.05h-41.9V293l28.43-29.86Zm-73.33-17.09a55.12,55.12,0,0,0,52.38,0v9.76L256,283.31l-26.19-27.5Zm83.81-47.34h-.24c.16-1.74.24-3.49.24-5.23V177.76a10.48,10.48,0,1,1,0,21Zm-83.81-91.59v23.5a5.24,5.24,0,1,0,10.48,0V99.19c0-3.25,2.74-6.81,5.23-6.81h21c2.49,0,5.23,3.56,5.23,6.81v31.43a5.24,5.24,0,0,0,10.48,0v-23.5a47.38,47.38,0,0,1,31.14,39.21H198.67A47.38,47.38,0,0,1,229.81,107.12Zm-40.37,51.23a5.17,5.17,0,0,1,3.7-1.54H318.86a5.24,5.24,0,0,1,0,10.48H193.14a5.25,5.25,0,0,1-5.24-5.24A5.18,5.18,0,0,1,189.44,158.35Zm-1.54,29.89a10.49,10.49,0,0,1,10.48-10.48v15.72c0,1.74.08,3.49.24,5.23h-.24A10.49,10.49,0,0,1,187.9,188.24ZM209.81,203l0-.17a48.12,48.12,0,0,1-.92-9.35V177.76h94.28v15.72a48.19,48.19,0,0,1-.92,9.35l0,.17a49.66,49.66,0,0,1-18.25,29.46,45,45,0,0,1-55.89,0,49,49,0,0,1-5.31-4.78A49.6,49.6,0,0,1,209.81,203Zm12.52,60.14L250.76,293v46.62h-41.9V327.57a5.24,5.24,0,0,0-10.48,0v12.05H187.9V266a44.46,44.46,0,0,1,10.48-2.56v32.69a5.24,5.24,0,0,0,10.48,0v-33Zm-65.85,48.72a50,50,0,0,1,21-40.27v68h-21Zm199,27.76H334.57v-68a50,50,0,0,1,20.95,40.27Z"/><path d="M187.07,425.24H176.85V407.42H161.7v17.82H151.42V382.58H161.7v16.93h15.15V382.58h10.22Z"/><path d="M227,382.58V410.5a16.06,16.06,0,0,1-2,8.22,13.19,13.19,0,0,1-5.8,5.29,20.46,20.46,0,0,1-8.94,1.81q-7.78,0-12.27-4t-4.57-11.08V382.58h10.34v28.33q.18,7,6.5,7a6.29,6.29,0,0,0,4.84-1.76q1.63-1.75,1.64-5.71V382.58Z"/><path d="M247,382.58l9.53,29.68L266,382.58H279.5v42.66H269.19v-10l1-20.4-10.32,30.36h-6.79l-10.34-30.38,1,20.42v10H233.45V382.58Z"/><path d="M310.26,417.27H296.17l-2.46,8h-11l15.64-42.66H308l15.76,42.66H312.75Zm-11.63-7.94h9.17l-4.6-14.8Z"/><path d="M362.53,425.24H352.31l-15.12-26.55v26.55H326.91V382.58h10.28l15.09,26.54V382.58h10.25Z"/><g id="moi-2" data-name="moi"><circle class="cls-8" cx="430" cy="430" r="80"/></g></g></svg>