<svg xmlns="http://www.w3.org/2000/svg" viewBox="0 0 768 512"><defs><style>.cls-1{fill:#34c6e8;}.cls-2{fill:#419bc2;}.cls-3{fill:#4db7e5;}.cls-4{fill:#ed441d;}.cls-5{fill:#3d4d63;}.cls-6{fill:#f2644c;}.cls-7{fill:#f98b78;}.cls-8{fill:#ccccca;}.cls-9{fill:#040000;}.cls-10{fill:#8c8c8c;}.cls-11{fill:#aaa;}.cls-12{fill:#00a650;}.cls-13{fill:#fff;stroke:#fff;stroke-miterlimit:10;stroke-width:1.5px;}.cls-14{fill:#fc0006;}</style></defs><title>cdm-01-moi-on-off</title><g id="Equipments"><rect class="cls-1" x="2" y="2" width="764" height="508" rx="100"/><path d="M351.2,429.16q-.57,8-5.93,12.65t-14.09,4.61q-9.58,0-15.06-6.44t-5.49-17.69v-3a29.89,29.89,0,0,1,2.53-12.64,19,19,0,0,1,7.23-8.4,20.31,20.31,0,0,1,10.92-2.92q8.61,0,13.88,4.62t6.08,12.95H341c-.25-3.21-1.15-5.54-2.68-7s-3.88-2.17-7-2.17c-3.42,0-6,1.23-7.67,3.67s-2.57,6.25-2.62,11.4v3.76q0,8.07,2.45,11.8t7.71,3.72c3.16,0,5.53-.72,7.09-2.17s2.45-3.68,2.68-6.72Z"/><path d="M357.94,445.74V396h15.31A23.24,23.24,0,0,1,385,398.93a20.69,20.69,0,0,1,8.09,8.41,26,26,0,0,1,2.9,12.39V422a26,26,0,0,1-2.85,12.34,20.49,20.49,0,0,1-8.05,8.37,23.37,23.37,0,0,1-11.73,3Zm10.25-41.46V437.5h5q6,0,9.19-3.93t3.25-11.24V419.7q0-7.59-3.14-11.51t-9.2-3.91Z"/><path d="M416.83,396l12.78,36.09L442.33,396h13.46v49.76H445.51v-13.6l1-23.48L433.1,445.74h-7l-13.4-37.05,1,23.45v13.6H403.43V396Z"/><g id="icon-dozer"><g id="color"><rect class="cls-2" x="158.52" y="93.16" width="180.52" height="12.93"/><path class="cls-3" d="M339,209.53V199.28l-22.63-22.63-5.13,5.13a6.46,6.46,0,1,1-9.14-9.14l19.4-19.4a6.46,6.46,0,0,1,9.14,9.14l-5.13,5.13L339,181V119H158.52v68.44l22.08,22.07Z"/><path class="cls-4" d="M160.28,261.52a43.59,43.59,0,0,1,4.71-.26H515.42a43.25,43.25,0,0,1,4.69.29h.39l23.23-19.36-23.65-16.81a20.2,20.2,0,1,1,7.45-10.59l20.22,14.36V177.21H352v32.32A12.93,12.93,0,0,1,339,222.47H177.92a6.47,6.47,0,0,1-4.59-1.9l-24-24a12.76,12.76,0,0,1-3.77-9.11V177.21H132.66v61.62l27.25,22.69Z"/><path class="cls-5" d="M146.78,313H133.31A32.41,32.41,0,0,0,165,338.84H515.42a32.25,32.25,0,0,0,25.86-12.93H165A19.4,19.4,0,0,1,146.78,313Z"/><path class="cls-6" d="M535.48,313H183.28c.19-.54.3-1.13.44-1.69a11,11,0,0,0,.29-1.13,17.85,17.85,0,0,0,0-7.28,11,11,0,0,0-.29-1.13c-.14-.57-.25-1.16-.44-1.7h352.2a6.47,6.47,0,0,1,6.47,6.47h0A6.47,6.47,0,0,1,535.48,313Z"/><path class="cls-7" d="M509,203.07a6.47,6.47,0,1,0,6.47,6.46A6.46,6.46,0,0,0,509,203.07Z"/><path class="cls-5" d="M538.28,283.71a31.68,31.68,0,0,0-17-9,30,30,0,0,0-5.82-.54H165a29,29,0,0,0-5.73.52,32.33,32.33,0,0,0-25.9,25.34h13.42A19.41,19.41,0,0,1,165,287.12H541.28A30.37,30.37,0,0,0,538.28,283.71Z"/><circle class="cls-8" cx="164.99" cy="306.52" r="6.47"/></g><path d="M454.3,196.6V216a6.47,6.47,0,1,0,12.93,0V196.6a6.47,6.47,0,0,0-12.93,0Z"/><path d="M434.9,196.6V216a6.47,6.47,0,1,0,12.93,0V196.6a6.47,6.47,0,0,0-12.93,0Z"/><path d="M326.11,248.33h19.4a6.47,6.47,0,0,0,0-12.93h-19.4a6.47,6.47,0,1,0,0,12.93Z"/><g id="bridge"><rect class="cls-4" x="571.11" y="164.28" width="57.16" height="174.57" transform="translate(1199.38 503.12) rotate(-180)"/><path class="cls-9" d="M593.87,326.84h48.4a6,6,0,0,1,6,6h0a6,6,0,0,1-6,6h-48.4v-12Z"/><path class="cls-9" d="M583.11,208.38H554.7a6,6,0,0,1-6-6h0a6,6,0,0,1,6-6h22.41a6,6,0,0,1,6,6v6Z"/><path class="cls-9" d="M583.11,176.28h33.16V326.84H583.11V176.28m-12-12V338.84h57.16V164.28Z"/></g><path d="M560.68,238.35V177.21a12.93,12.93,0,0,0-12.93-12.93H352V93.16A12.93,12.93,0,0,0,339,80.22H158.52a12.93,12.93,0,0,0-12.93,12.94v71.12H132.66a12.93,12.93,0,0,0-12.93,12.93v64.65a6.44,6.44,0,0,0,2.33,5L145.11,266A45.17,45.17,0,0,0,165,351.78H515.42a45,45,0,0,0,40.73-25.87c8.4-19.39.13-38.79.13-38.79a43.51,43.51,0,0,0-8.85-12.56,44.69,44.69,0,0,0-12-8.6l19.24-16S560.68,245.38,560.68,238.35Zm-230.08-85a6.46,6.46,0,0,0-9.06-.08l-19.4,19.4a6.46,6.46,0,1,0,9.14,9.14l5.13-5.13L339,199.28v10.25H252.72V119H339v62l-13.49-13.49,5.13-5.13A6.46,6.46,0,0,0,330.6,153.32Zm-77.88-47.23V93.16H339v12.93Zm-94.2-12.93h81.27v12.93H158.52Zm0,25.86h81.27v90.51H180.6l-22.08-22.07Zm356.9,219.82H165A32.41,32.41,0,0,1,133.31,313h13.47A19.4,19.4,0,0,0,165,325.91H541.28A32.25,32.25,0,0,1,515.42,338.84Zm-356.9-32.32A6.47,6.47,0,1,1,165,313,6.47,6.47,0,0,1,158.52,306.52Zm377,6.46H183.28c.19-.54.3-1.13.44-1.69a11,11,0,0,0,.29-1.13,17.85,17.85,0,0,0,0-7.28,11,11,0,0,0-.29-1.13c-.14-.57-.25-1.16-.44-1.7h352.2a6.47,6.47,0,1,1,0,12.93Zm2.8-29.27a30.37,30.37,0,0,1,3,3.41H165a19.41,19.41,0,0,0-18.21,12.93H133.36a32.33,32.33,0,0,1,25.9-25.34,29,29,0,0,1,5.73-.52H515.42a30,30,0,0,1,5.82.54A31.68,31.68,0,0,1,538.28,283.71Zm9.47-54.56-20.22-14.36a19.39,19.39,0,1,0-7.45,10.59l23.65,16.81L520.5,261.55h-.39a43.25,43.25,0,0,0-4.69-.29H165a43.59,43.59,0,0,0-4.71.26h-.37l-27.25-22.69V177.21h12.93v10.28a12.76,12.76,0,0,0,3.77,9.11l24,24a6.47,6.47,0,0,0,4.59,1.9H339A12.93,12.93,0,0,0,352,209.53V177.21H547.75Zm-32.33-19.62a6.47,6.47,0,1,1-6.47-6.46A6.47,6.47,0,0,1,515.42,209.53Z"/><g id="drill"><polygon class="cls-8" points="629.36 141.69 603.88 90.72 562.61 90.72 588.09 141.69 629.36 141.69"/><polygon class="cls-8" points="572.8 141.69 547.31 90.72 506.04 90.72 531.52 141.69 572.8 141.69"/><polygon class="cls-8" points="469.49 90.72 469.49 141.69 516.23 141.69 490.75 90.72 469.49 90.72"/><rect class="cls-10" x="372.78" y="81.88" width="34.55" height="82.39"/><polygon class="cls-8" points="653.99 90.72 619.17 90.72 644.65 141.69 653.99 141.69 682.66 116.21 653.99 90.72"/><rect class="cls-11" x="421.01" y="90.72" width="34.81" height="50.97"/><path d="M421,170.37v-15H656.59a6.78,6.78,0,0,0,4.54-1.73l36.36-32.32a6.83,6.83,0,0,0,0-10.22L661.13,78.77A6.85,6.85,0,0,0,656.59,77H421V75a6.84,6.84,0,0,0-6.84-6.83H360.36v109h53.81A6.85,6.85,0,0,0,421,170.37ZM654,90.72l28.67,25.49L654,141.69h-9.34l-25.48-51Zm-50.11,0,25.48,51H588.09l-25.49-51Zm-56.57,0,25.49,51H531.52L506,90.72Zm-77.82,0h21.26l25.48,51H469.49Zm-48.48,0h34.8v51H421Zm-13.68,73.56H372.78V81.88h34.55Z"/></g></g><g id="moi"><circle class="cls-12" cx="686" cy="82" r="80"/><g id="eagle"><path class="cls-13" d="M687.43,118.15a2,2,0,0,0-3.45,1.43v7.09a2,2,0,1,0,4,0v-7.09A2,2,0,0,0,687.43,118.15Z"/><path class="cls-13" d="M698.33,121.91l-2.84-6.73a2,2,0,0,0-1.87-1.23,2,2,0,0,0-.78.16,2,2,0,0,0-1.07,2.65l2.84,6.72a2,2,0,1,0,3.72-1.57Z"/><path class="cls-13" d="M680.25,115.21a2,2,0,0,0-1.09-1.1h0a2,2,0,0,0-.79-.16,2.06,2.06,0,0,0-.76.15,2,2,0,0,0-1.1,1.08l-2.84,6.73a2,2,0,0,0,0,1.55,2,2,0,0,0,1.09,1.1,2,2,0,0,0,2.64-1.08l2.84-6.72A2,2,0,0,0,680.25,115.21Z"/><path class="cls-13" d="M727,100.79a2,2,0,0,0-.85-1.28h0a2,2,0,0,0-1.13-.34,2.56,2.56,0,0,0-.39,0,2,2,0,0,0-1.29.86l-7.11,10.62a2,2,0,0,0,.55,2.8,2.07,2.07,0,0,0,2.81-.55l7.11-10.62A2,2,0,0,0,727,100.79Z"/><path class="cls-13" d="M710.81,125a2,2,0,0,0-.86-1.29h0a2,2,0,0,0-1.12-.34,1.81,1.81,0,0,0-.4,0,2,2,0,0,0-1.28.86l-1.47,2.19a2,2,0,0,0,.56,2.8,2.06,2.06,0,0,0,2.8-.55l1.47-2.19A2,2,0,0,0,710.81,125Z"/><path class="cls-13" d="M664.85,124.31a2,2,0,0,0-1.68-.89,2,2,0,0,0-1.12.34,2,2,0,0,0-.55,2.8l1.46,2.19a2.07,2.07,0,0,0,2.8.55,2,2,0,0,0,.56-2.8Z"/><path class="cls-13" d="M656.89,110.62c-1.11-2.45-3.09-3.62-4.83-4.65-2-1.16-3.55-2.09-4.09-4.76a2,2,0,0,0-2-1.62,1.87,1.87,0,0,0-.4,0A2,2,0,0,0,644,102c.9,4.44,3.85,6.17,6,7.44,1.46.87,2.62,1.55,3.2,2.83a2,2,0,1,0,3.68-1.66Z"/><path class="cls-13" d="M739.34,53.19a2,2,0,0,0,0-1.55h0a2,2,0,0,0-1.07-1.1,2,2,0,0,0-1.55,0l-26.05,10.4a2.06,2.06,0,0,0-1.23,2.26A15.83,15.83,0,0,1,703,78.55l-1.54,1.09-.71-1.75a2,2,0,0,0-1.88-1.27h-5.24l.11-1.6a48.78,48.78,0,0,1,.75-5.19c1.18-6.55,1.62-11.75-4.39-14.28-5.62-2.37-9,.94-10.2,2.48l-.4.5-.64.07c-2,.2-5.5,1.11-6.68,4.93A2,2,0,1,0,676,64.72c.68-2.23,3.73-2.22,4.45-2.1a2.09,2.09,0,0,0,2-1.19c1.18-2.44,3.43-3.25,6-2.16,3.34,1.4,3,4.34,2,9.84a47.28,47.28,0,0,0-.82,6.09l-.07,1.42h-7.65l-.13-1.35a14.69,14.69,0,0,1,.41-5.07,2,2,0,0,0-1.3-2.56,2,2,0,0,0-1.54.13,2,2,0,0,0-1,1.18,17.88,17.88,0,0,0-.65,6.08l.1,1.59h-4.66a2,2,0,0,0-1.87,1.27l-.71,1.75L669,78.55a15.78,15.78,0,0,1-6.49-15.35,2,2,0,0,0-1.23-2.28l-26.05-10.4a2,2,0,0,0-1.55,0,2,2,0,0,0-1.07,1.1,2,2,0,0,0,1.12,2.63l24.57,9.82,0,1a20.12,20.12,0,0,0,12,18.81l.85.4V97a20.56,20.56,0,0,0,.77,5.93l.36,1.21-1.13.56c-3.93,2-5.4,4.76-6.58,7-1.34,2.53-2.14,4.06-5.87,4.66a2,2,0,0,0-1.32.82,2,2,0,0,0-.35,1.5,2,2,0,0,0,2.34,1.67c5.69-.92,7.4-4.16,8.77-6.76,1.16-2.2,2.25-4.27,5.68-5.67l.8-.33.69.53a15.58,15.58,0,0,0,5.13,2.36c1.86.57,3.2,1,3.73,2.15A2,2,0,0,0,686,113.8a2,2,0,0,0,1.83-1.18c.54-1.17,1.88-1.58,3.74-2.15a15.37,15.37,0,0,0,5.13-2.36l.69-.53.8.33c3.42,1.4,4.52,3.47,5.67,5.66,1.38,2.61,3.09,5.85,8.81,6.77a1.66,1.66,0,0,0,.32,0,2,2,0,0,0,1.64-3.21,2.08,2.08,0,0,0-1.32-.81c-3.73-.6-4.54-2.13-5.87-4.67a14.31,14.31,0,0,0-6.58-7l-1.13-.56.36-1.21a20.56,20.56,0,0,0,.77-5.93V84.33l.85-.41a20.11,20.11,0,0,0,12-18.8l0-1,24.57-9.81A2.06,2.06,0,0,0,739.34,53.19ZM696.81,97c0,7.13-2.43,8.39-6.43,9.61h0a15.62,15.62,0,0,0-3.61,1.44l-.77.47-.78-.47a15.28,15.28,0,0,0-3.6-1.44c-4-1.23-6.44-2.49-6.44-9.62V90.52h15a2,2,0,0,0,0-4h-15V80.66h21.63Z"/><path class="cls-13" d="M665.77,87.52a2,2,0,0,0-1.65-.85,2,2,0,0,0-1.17.38h0L653.22,94a2,2,0,0,0-.47,2.81,2.08,2.08,0,0,0,2.82.48l9.73-6.92A2,2,0,0,0,665.77,87.52Z"/><path class="cls-13" d="M660.92,83a2,2,0,0,0,0-1.55,2,2,0,0,0-1.12-1.06,2.06,2.06,0,0,0-.73-.14,2,2,0,0,0-.82.18h0L647.1,85.37A2,2,0,0,0,646,86.49a2,2,0,0,0,0,1.55,2.06,2.06,0,0,0,2.67,1l11.11-4.93A2,2,0,0,0,660.92,83Z"/><path class="cls-13" d="M654.81,76.79a2,2,0,0,0-.64-3.93,2,2,0,0,0-.64.1l-9.61,3.23A2,2,0,0,0,645.21,80Z"/><path class="cls-13" d="M634.09,62.59a2,2,0,0,0,1.2,2.59l13.53,5a2,2,0,0,0,1.39-3.79l-13.53-5a1.86,1.86,0,0,0-.69-.12A2,2,0,0,0,634.09,62.59Z"/><path class="cls-13" d="M664.23,96.11l-3.48,4.21a2,2,0,0,0,.27,2.84,2.07,2.07,0,0,0,2.85-.27l3.47-4.2a2,2,0,1,0-3.11-2.58Z"/><path class="cls-13" d="M706.7,90.34l9.73,6.92a2.08,2.08,0,0,0,2.82-.48,2,2,0,0,0-.48-2.82L709,87a2,2,0,0,0-1.16-.37,2,2,0,0,0-1.18,3.67Z"/><path class="cls-13" d="M712.14,84.13l11.12,4.93a2,2,0,0,0,2.66-1,2,2,0,0,0,0-1.55,2,2,0,0,0-1.06-1.12l-11.12-4.93a2,2,0,0,0-2.66,1,2,2,0,0,0,0,1.55A2,2,0,0,0,712.14,84.13Z"/><path class="cls-13" d="M715.91,74.23a2,2,0,0,0,1.28,2.56l9.6,3.23a2,2,0,1,0,1.29-3.83L718.47,73a2,2,0,0,0-2.56,1.27Z"/><path class="cls-13" d="M720.59,68.94a2,2,0,0,0,2.59,1.2l13.53-5a2,2,0,0,0-1.39-3.79l-13.53,5A2,2,0,0,0,720.59,68.94Z"/><path class="cls-13" d="M707.77,96.11a2,2,0,0,0-3.12,2.58l3.48,4.2a2,2,0,0,0,2.84.28,2,2,0,0,0,.27-2.85Z"/></g></g><g id="moi-2" data-name="moi"><circle class="cls-14" cx="686" cy="430" r="80"/></g></g></svg>