<svg xmlns="http://www.w3.org/2000/svg" viewBox="0 0 640 512"><defs><style>.cls-1{fill:#efec86;}.cls-2{fill:#419bc2;}.cls-3{fill:#f57e00;}.cls-4{fill:#4db7e5;}.cls-5{fill:#ffb531;}.cls-6{fill:#3d4d63;}.cls-7{fill:#ffcb73;}.cls-8{fill:#ffa912;}.cls-9{fill:#ccccca;}.cls-10{fill:#00a650;}.cls-11{fill:#fff;stroke:#fff;stroke-miterlimit:10;stroke-width:1.5px;}.cls-12{fill:#fc0006;}</style></defs><title>dz-01-moi-on-off</title><g id="Equipments"><rect class="cls-1" x="2" y="2" width="636" height="508" rx="91.24"/><g id="icon-dozer"><g id="color"><rect class="cls-2" x="181.29" y="83.16" width="90.52" height="12.93"/><rect class="cls-3" x="336.47" y="109.02" width="12.93" height="45.26"/><path class="cls-4" d="M271.81,199.53V189.28l-22.63-22.63-5.13,5.13a6.46,6.46,0,1,1-9.14-9.14l19.4-19.4a6.46,6.46,0,0,1,9.14,9.14l-5.13,5.13L271.81,171V109H181.29v68.44l22.08,22.07Z"/><path class="cls-5" d="M183.05,251.52a43.59,43.59,0,0,1,4.71-.26H388.19a43.25,43.25,0,0,1,4.69.29h.39l23.23-19.36-23.65-16.81a20.2,20.2,0,1,1,7.45-10.59l20.22,14.36V167.21H284.74v32.32a12.93,12.93,0,0,1-12.93,12.94H200.69a6.47,6.47,0,0,1-4.59-1.9l-24-24a12.76,12.76,0,0,1-3.77-9.11V167.21H155.43v61.62l27.25,22.69Z"/><path class="cls-6" d="M169.55,303H156.08a32.41,32.41,0,0,0,31.68,25.86H388.19a32.25,32.25,0,0,0,25.86-12.93H187.76A19.4,19.4,0,0,1,169.55,303Z"/><path class="cls-7" d="M452.84,303V290.05H206.05c.19.54.3,1.13.44,1.7.1.38.23.74.3,1.13a18.21,18.21,0,0,1,0,7.28c-.07.39-.2.75-.3,1.13-.14.56-.25,1.15-.44,1.69H452.84Z"/><polygon class="cls-8" points="491.64 256.87 465.81 274.1 465.78 322.38 491.64 322.38 491.64 256.87"/><path class="cls-7" d="M381.72,193.07a6.47,6.47,0,1,0,6.47,6.46A6.46,6.46,0,0,0,381.72,193.07Z"/><path class="cls-6" d="M411.05,273.71a31.68,31.68,0,0,0-17-9,30,30,0,0,0-5.82-.54H187.76a29,29,0,0,0-5.73.52,32.31,32.31,0,0,0-25.89,25.34h13.41a19.41,19.41,0,0,1,18.21-12.93H414.05A29.4,29.4,0,0,0,411.05,273.71Z"/><circle class="cls-9" cx="187.76" cy="296.52" r="6.47"/></g><path d="M511,322.38h-6.46V251.26H511a6.47,6.47,0,1,0,0-12.93H498.1a.21.21,0,0,0-.11,0,6.39,6.39,0,0,0-2.2.44c-.18.07-.34.16-.51.24a7.85,7.85,0,0,0-.77.38L471.06,255l-37.61-26.67V167.21a12.93,12.93,0,0,0-12.93-12.93H362.33V109A12.93,12.93,0,0,0,349.4,96.09V89.62A19.41,19.41,0,0,0,330,70.22a6.47,6.47,0,0,0,0,12.94,6.47,6.47,0,0,1,6.47,6.46v6.47A12.93,12.93,0,0,0,323.53,109v45.26H284.74V83.16a12.93,12.93,0,0,0-12.93-12.94H181.29a12.93,12.93,0,0,0-12.93,12.94v71.12H155.43a12.93,12.93,0,0,0-12.93,12.93v64.65a6.44,6.44,0,0,0,2.33,5l23,19.21a45.17,45.17,0,0,0,19.88,85.74H388.19a45,45,0,0,0,40.73-25.87h23.92v6.47a12.93,12.93,0,0,0,12.94,12.93H511a6.47,6.47,0,1,0,0-12.93Zm-52.43-59a13,13,0,0,0-5.76,10.79v3H429.05a43.51,43.51,0,0,0-8.85-12.56,44.69,44.69,0,0,0-12-8.6l19.25-16,32.12,22.81ZM336.47,109H349.4v45.26H336.47ZM181.29,177.46V109h90.52v62l-13.49-13.49,5.13-5.13a6.46,6.46,0,0,0-9.14-9.14l-19.4,19.4a6.46,6.46,0,1,0,9.14,9.14l5.13-5.13,22.63,22.63v10.25H203.37Zm0-94.3h90.52V96.09H181.29Zm-25.86,84.05h12.93v10.28a12.76,12.76,0,0,0,3.77,9.11l24,24a6.47,6.47,0,0,0,4.59,1.9h71.12a12.93,12.93,0,0,0,12.93-12.94V167.21H420.52v51.94L400.3,204.79a19.39,19.39,0,1,0-7.45,10.59l23.65,16.81-23.23,19.36h-.39a43.25,43.25,0,0,0-4.69-.29H187.76a43.59,43.59,0,0,0-4.71.26h-.37l-27.25-22.69ZM381.72,206a6.47,6.47,0,1,1,6.47-6.47A6.46,6.46,0,0,1,381.72,206ZM182,264.71a29,29,0,0,1,5.73-.52H388.19a30,30,0,0,1,5.82.54,31.68,31.68,0,0,1,17,9,29.4,29.4,0,0,1,3,3.41H187.76a19.41,19.41,0,0,0-18.21,12.93H156.14A32.31,32.31,0,0,1,182,264.71Zm-.74,31.81a6.47,6.47,0,1,1,6.47,6.46A6.47,6.47,0,0,1,181.29,296.52Zm206.9,32.32H187.76A32.41,32.41,0,0,1,156.08,303h13.47a19.4,19.4,0,0,0,18.21,12.93H414.05A32.25,32.25,0,0,1,388.19,328.84ZM424.72,303H206.05c.19-.54.3-1.13.44-1.69.1-.38.23-.74.3-1.13a18.21,18.21,0,0,0,0-7.28c-.07-.39-.2-.75-.3-1.13-.14-.57-.25-1.16-.44-1.7H452.84V303Zm41.09-28.88,25.83-17.23v65.51H465.78Z"/><path d="M304.14,193.07h19.39a6.47,6.47,0,1,0,0-12.93H304.14a6.47,6.47,0,1,0,0,12.93Z"/><path d="M304.14,212.47h19.39a6.47,6.47,0,1,0,0-12.94H304.14a6.47,6.47,0,1,0,0,12.94Z"/><path d="M258.88,238.33h19.4a6.47,6.47,0,0,0,0-12.93h-19.4a6.47,6.47,0,1,0,0,12.93Z"/></g><path d="M280.88,443.74V394h15.31a23.24,23.24,0,0,1,11.74,3,20.57,20.57,0,0,1,8.09,8.41,26,26,0,0,1,2.9,12.39V420a26,26,0,0,1-2.85,12.34,20.42,20.42,0,0,1-8.05,8.37,23.41,23.41,0,0,1-11.72,3Zm10.25-41.46V435.5h5q6,0,9.19-3.93t3.25-11.24V417.7q0-7.59-3.14-11.51t-9.2-3.91Z"/><path d="M336.46,435.5h25.08v8.24h-37.9v-6l24.61-35.44H323.67V394H361v5.88Z"/><g id="moi"><circle class="cls-10" cx="558" cy="82" r="80"/><g id="eagle"><path class="cls-11" d="M559.43,118.15a2,2,0,0,0-3.45,1.43v7.09a2,2,0,1,0,4,0v-7.09A2,2,0,0,0,559.43,118.15Z"/><path class="cls-11" d="M570.33,121.91l-2.84-6.73a2,2,0,0,0-1.87-1.23,2,2,0,0,0-.78.16,2,2,0,0,0-1.07,2.65l2.84,6.72a2,2,0,1,0,3.72-1.57Z"/><path class="cls-11" d="M552.25,115.21a2,2,0,0,0-1.09-1.1h0a2,2,0,0,0-.79-.16,2.06,2.06,0,0,0-.76.15,2,2,0,0,0-1.1,1.08l-2.84,6.73a2,2,0,0,0,0,1.55,2,2,0,0,0,1.09,1.1,2,2,0,0,0,2.64-1.08l2.84-6.72A2,2,0,0,0,552.25,115.21Z"/><path class="cls-11" d="M599,100.79a2,2,0,0,0-.85-1.28h0a2,2,0,0,0-1.13-.34,2.56,2.56,0,0,0-.39,0,2,2,0,0,0-1.29.86l-7.11,10.62a2,2,0,0,0,.55,2.8,2.07,2.07,0,0,0,2.81-.55l7.11-10.62A2,2,0,0,0,599,100.79Z"/><path class="cls-11" d="M582.81,125a2,2,0,0,0-.86-1.29h0a2,2,0,0,0-1.12-.34,1.81,1.81,0,0,0-.4,0,2,2,0,0,0-1.28.86l-1.47,2.19a2,2,0,0,0,.56,2.8,2.06,2.06,0,0,0,2.8-.55l1.47-2.19A2,2,0,0,0,582.81,125Z"/><path class="cls-11" d="M536.85,124.31a2,2,0,0,0-1.68-.89,2,2,0,0,0-1.12.34,2,2,0,0,0-.55,2.8l1.46,2.19a2.07,2.07,0,0,0,2.8.55,2,2,0,0,0,.56-2.8Z"/><path class="cls-11" d="M528.89,110.62c-1.11-2.45-3.09-3.62-4.83-4.65-2-1.16-3.55-2.09-4.09-4.76a2,2,0,0,0-2-1.62,1.87,1.87,0,0,0-.4,0A2,2,0,0,0,516,102c.9,4.44,3.85,6.17,6,7.44,1.46.87,2.62,1.55,3.2,2.83a2,2,0,1,0,3.68-1.66Z"/><path class="cls-11" d="M611.34,53.19a2,2,0,0,0,0-1.55h0a2,2,0,0,0-1.07-1.1,2,2,0,0,0-1.55,0l-26.05,10.4a2.06,2.06,0,0,0-1.23,2.26A15.83,15.83,0,0,1,575,78.55l-1.54,1.09-.71-1.75a2,2,0,0,0-1.88-1.27h-5.24l.11-1.6a48.78,48.78,0,0,1,.75-5.19c1.18-6.55,1.62-11.75-4.39-14.28-5.62-2.37-9,.94-10.2,2.48l-.4.5-.64.07c-2,.2-5.5,1.11-6.68,4.93A2,2,0,1,0,548,64.72c.68-2.23,3.73-2.22,4.45-2.1a2.09,2.09,0,0,0,2-1.19c1.18-2.44,3.43-3.25,6-2.16,3.34,1.4,3,4.34,2,9.84a47.28,47.28,0,0,0-.82,6.09l-.07,1.42h-7.65l-.13-1.35a14.69,14.69,0,0,1,.41-5.07,2,2,0,0,0-1.3-2.56,2,2,0,0,0-1.54.13,2,2,0,0,0-1,1.18,17.88,17.88,0,0,0-.65,6.08l.1,1.59h-4.66a2,2,0,0,0-1.87,1.27l-.71,1.75L541,78.55a15.78,15.78,0,0,1-6.49-15.35,2,2,0,0,0-1.23-2.28l-26.05-10.4a2,2,0,0,0-1.55,0,2,2,0,0,0-1.07,1.1,2,2,0,0,0,1.12,2.63l24.57,9.82,0,1a20.12,20.12,0,0,0,12,18.81l.85.4V97a20.56,20.56,0,0,0,.77,5.93l.36,1.21-1.13.56c-3.93,2-5.4,4.76-6.58,7-1.34,2.53-2.14,4.06-5.87,4.66a2,2,0,0,0-1.32.82,2,2,0,0,0-.35,1.5,2,2,0,0,0,2.34,1.67c5.69-.92,7.4-4.16,8.77-6.76,1.16-2.2,2.25-4.27,5.68-5.67l.8-.33.69.53a15.58,15.58,0,0,0,5.13,2.36c1.86.57,3.2,1,3.73,2.15A2,2,0,0,0,558,113.8a2,2,0,0,0,1.83-1.18c.54-1.17,1.88-1.58,3.74-2.15a15.37,15.37,0,0,0,5.13-2.36l.69-.53.8.33c3.42,1.4,4.52,3.47,5.67,5.66,1.38,2.61,3.09,5.85,8.81,6.77a1.66,1.66,0,0,0,.32,0,2,2,0,0,0,1.64-3.21,2.08,2.08,0,0,0-1.32-.81c-3.73-.6-4.54-2.13-5.87-4.67a14.31,14.31,0,0,0-6.58-7l-1.13-.56.36-1.21a20.56,20.56,0,0,0,.77-5.93V84.33l.85-.41a20.11,20.11,0,0,0,12-18.8l0-1,24.57-9.81A2.06,2.06,0,0,0,611.34,53.19ZM568.81,97c0,7.13-2.43,8.39-6.43,9.61h0a15.62,15.62,0,0,0-3.61,1.44l-.77.47-.78-.47a15.28,15.28,0,0,0-3.6-1.44c-4-1.23-6.44-2.49-6.44-9.62V90.52h15a2,2,0,0,0,0-4h-15V80.66h21.63Z"/><path class="cls-11" d="M537.77,87.52a2,2,0,0,0-1.65-.85,2,2,0,0,0-1.17.38h0L525.22,94a2,2,0,0,0-.47,2.81,2.08,2.08,0,0,0,2.82.48l9.73-6.92A2,2,0,0,0,537.77,87.52Z"/><path class="cls-11" d="M532.92,83a2,2,0,0,0,0-1.55,2,2,0,0,0-1.12-1.06,2.06,2.06,0,0,0-.73-.14,2,2,0,0,0-.82.18h0L519.1,85.37A2,2,0,0,0,518,86.49a2,2,0,0,0,0,1.55,2.06,2.06,0,0,0,2.67,1l11.11-4.93A2,2,0,0,0,532.92,83Z"/><path class="cls-11" d="M526.81,76.79a2,2,0,0,0-.64-3.93,2,2,0,0,0-.64.1l-9.61,3.23A2,2,0,0,0,517.21,80Z"/><path class="cls-11" d="M506.09,62.59a2,2,0,0,0,1.2,2.59l13.53,5a2,2,0,0,0,1.39-3.79l-13.53-5a1.86,1.86,0,0,0-.69-.12A2,2,0,0,0,506.09,62.59Z"/><path class="cls-11" d="M536.23,96.11l-3.48,4.21a2,2,0,0,0,.27,2.84,2.07,2.07,0,0,0,2.85-.27l3.47-4.2a2,2,0,1,0-3.11-2.58Z"/><path class="cls-11" d="M578.7,90.34l9.73,6.92a2.08,2.08,0,0,0,2.82-.48,2,2,0,0,0-.48-2.82L581,87a2,2,0,0,0-1.16-.37,2,2,0,0,0-1.18,3.67Z"/><path class="cls-11" d="M584.14,84.13l11.12,4.93a2,2,0,0,0,2.66-1,2,2,0,0,0,0-1.55,2,2,0,0,0-1.06-1.12l-11.12-4.93a2,2,0,0,0-2.66,1,2,2,0,0,0,0,1.55A2,2,0,0,0,584.14,84.13Z"/><path class="cls-11" d="M587.91,74.23a2,2,0,0,0,1.28,2.56l9.6,3.23a2,2,0,1,0,1.29-3.83L590.47,73a2,2,0,0,0-2.56,1.27Z"/><path class="cls-11" d="M592.59,68.94a2,2,0,0,0,2.59,1.2l13.53-5a2,2,0,0,0-1.39-3.79l-13.53,5A2,2,0,0,0,592.59,68.94Z"/><path class="cls-11" d="M579.77,96.11a2,2,0,0,0-3.12,2.58l3.48,4.2a2,2,0,0,0,2.84.28,2,2,0,0,0,.27-2.85Z"/></g></g><g id="moi-2" data-name="moi"><circle class="cls-12" cx="558" cy="430" r="80"/></g></g></svg>