<svg viewBox="0 0 512 512" xmlns="http://www.w3.org/2000/svg"><g opacity=".5"><path d="m256 509a253 253 0 0 1 -178.9-431.9 253 253 0 0 1 357.8 357.8 251.37 251.37 0 0 1 -178.9 74.1z" fill="#eee"/><path d="m256 6a250.07 250.07 0 0 1 97.31 480.36 250.07 250.07 0 0 1 -194.62-460.72 248.53 248.53 0 0 1 97.31-19.64m0-6c-141.38 0-256 114.62-256 256s114.62 256 256 256 256-114.62 256-256-114.62-256-256-256z" fill="#ccc"/></g><path d="m128.66 272.32h13.93a44.82 44.82 0 0 1 19.86-4.83 43.61 43.61 0 0 1 33.79 16.2v-28.69l-16.48-16.48a9.58 9.58 0 0 1 -2.83-6.83v-7.69h-48.27z" fill="#ffb531"/><path d="m186.59 161.29h67.59v9.66h-67.59z" fill="#419bc2"/><path d="m254.17 248.18v-7.65l-16.89-16.9-3.83 3.83a4.83 4.83 0 1 1 -6.83-6.83l14.48-14.48a4.83 4.83 0 0 1 6.83 6.83l-3.83 3.82 10.07 10.07v-46.27h-67.58v51.1l16.48 16.48z" fill="#4db7e5"/><path d="m379.69 283.97-9.66 9.66v26.97 9.65h9.66z" fill="#ccccca"/><path d="m205.9 257.84h19.31v9.66h-19.31z" fill="#f57e00"/><path d="m196.24 310.94a33.79 33.79 0 1 0 -33.79 33.79 33.79 33.79 0 0 0 33.79-33.79z" fill="#3d4d63"/><path d="m147.97 180.6h9.66v33.79h-9.66z"/><path d="m292.79 344.73a28.84 28.84 0 1 0 -28.63-33.11 22.2 22.2 0 0 0 -.33 4.15 29 29 0 0 0 28.96 28.96z" fill="#3d4d63"/><path d="m297.62 224v14.49h26.65a9.62 9.62 0 0 1 7.54 3.62l9.26 11.58v-20.88a14.48 14.48 0 0 1 -8.77-8.81z" fill="#ffb531"/><g fill="#f57e00"><path d="m297.62 248.18v9.66h17.05a9.64 9.64 0 0 1 7.41 3.47l38.3 45.95v-13.93l-36.12-45.15z"/><path d="m205.9 296.46h19.31v9.66h-19.31z"/><path d="m205.9 277.15h19.31v9.66h-19.31z"/></g><circle cx="345.9" cy="219.22" fill="#ccccca" r="4.83"/><path d="m255.46 306.05a37.31 37.31 0 0 1 4.47-10.47l.09-.15a38.8 38.8 0 0 1 27.4-17.86 3.37 3.37 0 0 1 .55-.12v-53.45h-24.14v24.14a9.67 9.67 0 0 1 -9.66 9.66h-19.31v48.27h20.6z" fill="#ffb531"/><path d="m278.31 315.77a14.49 14.49 0 1 0 14.48-14.48 14.48 14.48 0 0 0 -14.48 14.48z" fill="#ccccca"/><path d="m162.45 291.63a19.31 19.31 0 1 0 19.31 19.31 19.31 19.31 0 0 0 -19.31-19.31z" fill="#ccccca"/><path d="m278.31 315.77a14.49 14.49 0 1 0 14.48-14.48 14.48 14.48 0 0 0 -14.48 14.48zm19.31 0a4.83 4.83 0 1 1 -4.83-4.83 4.83 4.83 0 0 1 4.83 4.83z"/><path d="m162.45 291.63a19.31 19.31 0 1 0 19.31 19.31 19.31 19.31 0 0 0 -19.31-19.31zm0 29a9.66 9.66 0 1 1 9.65-9.66 9.67 9.67 0 0 1 -9.65 9.63z"/><path d="m394.17 330.25h-4.83v-53.1h4.83a4.83 4.83 0 0 0 0-9.66h-9.65a2.64 2.64 0 0 0 -.3.07 6.07 6.07 0 0 0 -1.73.41 4.92 4.92 0 0 0 -1.37.92l-15.51 15.5-14.89-18.59v-33a14.45 14.45 0 1 0 -18.42-18.42h-68.47v-53.1a9.66 9.66 0 0 0 -9.66-9.66h-67.58a9.65 9.65 0 0 0 -9.66 9.66v53.1h-9.65v-33.78a9.66 9.66 0 0 0 -9.66-9.66v-4.83a14.48 14.48 0 0 0 -14.48-14.48 4.83 4.83 0 1 0 0 9.66 4.83 4.83 0 0 1 4.83 4.82v4.83a9.65 9.65 0 0 0 -9.66 9.66v33.79h-9.65a9.65 9.65 0 0 0 -9.66 9.61v48.28a9.66 9.66 0 0 0 9.66 9.66h1.53a43.4 43.4 0 1 0 75.42 33.79h48.56a38.62 38.62 0 1 0 43.45-38.29v-10h17.05l45.71 54.85v7.91a9.66 9.66 0 0 0 9.65 9.66h24.14a4.83 4.83 0 1 0 0-9.66zm-62.36-88.1a9.62 9.62 0 0 0 -7.54-3.62h-26.65v-14.53h34.68a14.48 14.48 0 0 0 8.77 8.77v20.92zm14.09-27.76a4.83 4.83 0 1 1 -4.83 4.83 4.82 4.82 0 0 1 4.83-4.83zm-140 62.76h19.31v9.65h-19.31zm19.31-9.66h-19.31v-9.65h19.31zm4.79-19.31h-27l-16.41-16.48v-51.1h67.58v46.27l-10.07-10.07 3.83-3.82a4.83 4.83 0 0 0 -6.83-6.83l-14.48 14.48a4.83 4.83 0 1 0 6.83 6.83l3.83-3.83 16.89 16.9v7.65zm-43.44-86.89h67.58v9.65h-67.55zm-38.56 19.31h9.65v33.79h-9.65zm-19.34 43.4h48.27v7.66a9.58 9.58 0 0 0 2.83 6.83l16.48 16.51v28.68a43.61 43.61 0 0 0 -33.79-16.2 44.82 44.82 0 0 0 -19.86 4.83h-13.93zm33.79 120.69a33.79 33.79 0 1 1 33.79-33.79 33.78 33.78 0 0 1 -33.79 33.83zm43.45-38.62v-9.65h19.31v9.65zm29 0v-48.23h19.31a9.67 9.67 0 0 0 9.66-9.66v-24.18h24.13v53.41a3.37 3.37 0 0 0 -.55.12 38.8 38.8 0 0 0 -27.45 17.9l-.09.15a37.31 37.31 0 0 0 -4.47 10.47v.07zm86.9 9.66a29 29 0 0 1 -57.93 0 22.2 22.2 0 0 1 .33-4.15 29 29 0 0 1 57.6 4.15zm.32-54.46a9.64 9.64 0 0 0 -7.41-3.47h-17.09v-9.66h26.64l36.12 45.15v13.93zm47.88 59.33v-27l9.66-9.66v46.28h-9.66z"/><path d="m143.14 243.35h14.48a4.83 4.83 0 1 0 0-9.65h-14.48a4.83 4.83 0 1 0 0 9.65z"/><path d="m157.62 257.84a4.83 4.83 0 0 0 0-9.66h-14.48a4.83 4.83 0 0 0 0 9.66z"/></svg>