<svg xmlns="http://www.w3.org/2000/svg" viewBox="0 0 160 160"><defs><style>.cls-1{fill:#00a650;}.cls-2{fill:#fff;}</style></defs><title>icon-moi</title><g id="Equipments"><g id="moi"><circle class="cls-1" cx="80" cy="80" r="80"/><path class="cls-2" d="M81.87,113.71a2.64,2.64,0,0,0-4.51,1.87v7.09a2.65,2.65,0,0,0,5.29,0v-7.09a2.63,2.63,0,0,0-.78-1.87Z"/><path class="cls-2" d="M90.06,110.94a2.7,2.7,0,0,0-3.47-1.41,2.65,2.65,0,0,0-1.4,3.47L88,119.73a2.72,2.72,0,0,0,2.46,1.61,2.49,2.49,0,0,0,1-.21,2.63,2.63,0,0,0,1.41-3.46Z"/><path class="cls-2" d="M74.82,111a2.63,2.63,0,0,0-3.44-1.45,2.61,2.61,0,0,0-1.44,1.42l-2.84,6.73a2.64,2.64,0,0,0,1.4,3.47,2.74,2.74,0,0,0,1,.2A2.7,2.7,0,0,0,72,119.73L74.81,113a2.6,2.6,0,0,0,0-2Z"/><path class="cls-2" d="M120.53,95a2.61,2.61,0,0,0-2-.4,2.67,2.67,0,0,0-1.69,1.12l-7.11,10.62a2.64,2.64,0,0,0-.39,2,2.62,2.62,0,0,0,2.57,2.12,2.67,2.67,0,0,0,2.22-1.16l7.11-10.62a2.68,2.68,0,0,0,.4-2A2.63,2.63,0,0,0,120.53,95Z"/><path class="cls-2" d="M105.42,120.92a2.64,2.64,0,0,0-4.79-1l-1.47,2.19a2.65,2.65,0,0,0,.73,3.67,2.59,2.59,0,0,0,1.44.43,2.47,2.47,0,0,0,.54,0,2.67,2.67,0,0,0,1.69-1.11l1.47-2.18a2.64,2.64,0,0,0,.39-2Z"/><path class="cls-2" d="M59.37,120a2.71,2.71,0,0,0-3.67-.72,2.65,2.65,0,0,0-.72,3.67l1.46,2.19a2.68,2.68,0,0,0,2.22,1.16,2.64,2.64,0,0,0,2.18-4.11Z"/><path class="cls-2" d="M51.46,106.36h0c-1.19-2.63-3.26-3.85-5.08-4.92s-3.31-2-3.8-4.36a2.64,2.64,0,1,0-5.18,1c1,4.71,4.16,6.61,6.29,7.86,1.42.84,2.45,1.45,3,2.55a2.68,2.68,0,0,0,1.5,1.38,2.84,2.84,0,0,0,1,.17,2.42,2.42,0,0,0,1-.23A2.65,2.65,0,0,0,51.46,106.36Z"/><path class="cls-2" d="M133.93,47.41A2.64,2.64,0,0,0,132.52,46a2.67,2.67,0,0,0-2,0l-26,10.4a2.7,2.7,0,0,0-1.62,2.95A15.16,15.16,0,0,1,96.6,74l-.9.63-.41-1A2.65,2.65,0,0,0,92.83,72H88.26l.06-.94a47.84,47.84,0,0,1,.74-5.12c1.2-6.59,1.67-12.26-4.76-15-6-2.53-9.65,1-10.94,2.67l-.23.3-.37,0c-2.14.21-5.93,1.2-7.21,5.37a2.65,2.65,0,1,0,5.06,1.56c.55-1.81,3.24-1.76,3.78-1.67A2.7,2.7,0,0,0,77,57.7c1-2.14,2.94-2.81,5.21-1.85C85,57,84.89,59.28,83.86,65A48,48,0,0,0,83,71.17L83,72H76.49l-.07-.79a13.79,13.79,0,0,1,.39-4.82,2.65,2.65,0,0,0-3.73-3.18,2.63,2.63,0,0,0-1.3,1.55,18.63,18.63,0,0,0-.68,6.31l.05.93h-4a2.64,2.64,0,0,0-2.45,1.65l-.41,1L63.4,74a15.16,15.16,0,0,1-6.24-14.72,2.67,2.67,0,0,0-1.61-3l-26-10.4a2.67,2.67,0,0,0-2,0,2.64,2.64,0,0,0-1.41,1.45,2.63,2.63,0,0,0,1.47,3.44L51.7,60.51v.6A20.73,20.73,0,0,0,64,80.49l.5.24V93a21.07,21.07,0,0,0,.79,6.11l.21.71-.66.32c-4.1,2.06-5.63,5-6.85,7.27-1.33,2.52-2,3.78-5.42,4.34a2.63,2.63,0,0,0-2.19,3A2.68,2.68,0,0,0,53.46,117c6-1,7.86-4.51,9.22-7.09,1.15-2.18,2.15-4.07,5.37-5.38l.47-.19.4.31a15.64,15.64,0,0,0,5.33,2.45c1.76.55,2.93.9,3.34,1.82A2.67,2.67,0,0,0,80,110.42a2.63,2.63,0,0,0,2.4-1.54c.42-.92,1.59-1.27,3.35-1.81a16,16,0,0,0,5.34-2.46l.4-.31.46.19c3.22,1.31,4.21,3.19,5.36,5.37,1.37,2.59,3.23,6.13,9.26,7.1a2.86,2.86,0,0,0,.42,0,2.64,2.64,0,0,0,.42-5.25c-3.42-.56-4.09-1.82-5.42-4.35a14.79,14.79,0,0,0-6.85-7.26l-.66-.33.21-.7A21.12,21.12,0,0,0,95.48,93V80.73l.5-.24a20.76,20.76,0,0,0,12.33-19.38V60.5l24.16-9.65a2.61,2.61,0,0,0,1.45-1.41h0A2.6,2.6,0,0,0,133.93,47.41ZM86.77,84.5a2.64,2.64,0,0,0-2.64-2.64H69.81V77.29H90.19V93c0,6.84-2.28,7.88-6,9a16.36,16.36,0,0,0-3.75,1.51l-.45.27-.45-.27A16.44,16.44,0,0,0,75.8,102c-3.71-1.14-6-2.18-6-9V87.14H84.13A2.64,2.64,0,0,0,86.77,84.5Z"/><path class="cls-2" d="M60.28,83.16a2.72,2.72,0,0,0-3.69-.62l-9.73,6.92a2.63,2.63,0,0,0,1.56,4.78,2.59,2.59,0,0,0,1.51-.47l9.73-6.92a2.64,2.64,0,0,0,.62-3.69Z"/><path class="cls-2" d="M54,75.81a2.67,2.67,0,0,0-2,0L40.85,80.8A2.62,2.62,0,0,0,41,85.67a2.58,2.58,0,0,0,1,.19,2.66,2.66,0,0,0,1-.22L54.11,80.7a2.64,2.64,0,0,0,1.39-1.47h0a2.58,2.58,0,0,0,0-2A2.66,2.66,0,0,0,54,75.81Z"/><path class="cls-2" d="M39.41,76.61,49,73.39h0A2.65,2.65,0,0,0,50.68,70a2.68,2.68,0,0,0-3.35-1.67L37.72,71.6a2.64,2.64,0,0,0,.85,5.15A2.74,2.74,0,0,0,39.41,76.61Z"/><path class="cls-2" d="M43.48,66.88A2.7,2.7,0,0,0,46,65.16a2.66,2.66,0,0,0-1.58-3.4l-13.53-5a2.51,2.51,0,0,0-.9-.16,2.66,2.66,0,0,0-2.49,1.74h0a2.65,2.65,0,0,0,1.57,3.39l13.54,5A2.38,2.38,0,0,0,43.48,66.88Z"/><path class="cls-2" d="M57.75,91.71l-3.48,4.21a2.63,2.63,0,0,0,2,4.31h.26a2.61,2.61,0,0,0,1.79-.93l3.47-4.2a2.65,2.65,0,1,0-4.07-3.38Z"/><path class="cls-2" d="M111.58,94.24a2.38,2.38,0,0,0,.46,0,2.63,2.63,0,0,0,1.09-4.75l-9.72-6.92a2.74,2.74,0,0,0-3.7.63,2.64,2.64,0,0,0,.63,3.68l9.73,6.93A2.65,2.65,0,0,0,111.58,94.24Z"/><path class="cls-2" d="M105.89,80.7,117,85.63a2.58,2.58,0,0,0,1,.23,2.64,2.64,0,0,0,1.1-5.06L108,75.86a2.65,2.65,0,0,0-3.49,1.35,2.58,2.58,0,0,0,0,2A2.61,2.61,0,0,0,105.89,80.7Z"/><path class="cls-2" d="M122.28,71.6l-9.61-3.23a2.65,2.65,0,1,0-1.68,5l9.6,3.22a2.63,2.63,0,0,0,.83.14,2.68,2.68,0,0,0,2.52-1.8A2.64,2.64,0,0,0,122.28,71.6Z"/><path class="cls-2" d="M129.1,56.8l-13.53,5a2.65,2.65,0,0,0-1.57,3.4,2.7,2.7,0,0,0,2.51,1.73,2.5,2.5,0,0,0,.89-.16l13.52-5a2.65,2.65,0,1,0-1.82-5Z"/><path class="cls-2" d="M102.25,91.71a2.65,2.65,0,0,0-4.08,3.38l3.48,4.2a2.64,2.64,0,0,0,2,1,2.6,2.6,0,0,0,1.68-.6,2.66,2.66,0,0,0,.35-3.73l-3.47-4.21Z"/></g></g></svg>