<svg xmlns="http://www.w3.org/2000/svg" viewBox="0 0 764 508"><defs><style>.cls-1{fill:#caabef;}.cls-2{fill:#ea8500;}.cls-3{fill:#f7f2eb;}.cls-4{fill:#b3b3b3;}.cls-5{fill:#4db7e5;}.cls-6{fill:#d8d6d4;}.cls-7{fill:#3d4d63;}.cls-8{fill:#051c1b;}.cls-9{fill:#00a650;}.cls-10{fill:#fff;stroke:#fff;stroke-miterlimit:10;stroke-width:1.5px;}.cls-11{fill:#fc0006;}</style></defs><title>mx-01-moi-on-off</title><g id="Equipments"><rect class="cls-1" width="764" height="508" rx="100"/><path d="M346.66,392l12.78,36.1L372.16,392h13.46v49.77H375.33v-13.6l1-23.48-13.43,37.08h-7l-13.4-37.05,1,23.45v13.6H333.26V392Z"/><path d="M413,409.13,422.3,392h11.79L419.6,416.65l14.87,25.09H422.54L413,424.31l-9.57,17.43H391.47l14.87-25.09L391.84,392h11.8Z"/><g id="icon-mixer"><path class="cls-2" d="M438.63,268.29V139a4.51,4.51,0,0,1,4.51-4.51h17.79V268.29Z"/><path class="cls-3" d="M161.44,96.1,147,138.18c-2.47,7.18-1.6,15,2.33,20.73l21.1,30.88c45.65,66.86,125,94.18,202.14,69.6L408.16,248c6.64-2.11,12.12-7.72,14.59-14.9l14.49-42.08c2.47-7.18,1.6-15-2.33-20.72l-21.09-30.89c-45.66-66.86-125-94.17-202.15-69.59L176,81.2C169.4,83.32,163.91,88.92,161.44,96.1Z"/><path class="cls-3" d="M610.45,276.87H460.93V102A11.07,11.07,0,0,1,472,90.94h81.89a11.07,11.07,0,0,1,9.3,5.07l45.49,70.55a11.1,11.1,0,0,1,1.77,6V276.87Z"/><path class="cls-4" d="M149.6,296.38H614.4a11.52,11.52,0,0,0,11.52-11.52v-5.05a11.52,11.52,0,0,0-11.52-11.52H149.6a11.52,11.52,0,0,0-11.52,11.52v5.05A11.52,11.52,0,0,0,149.6,296.38Z"/><path class="cls-5" d="M584.94,177.43h0a2.13,2.13,0,0,0-.33-1.13l-38-58.85a2.16,2.16,0,0,0-1.83-1h-56.2a2.19,2.19,0,0,0-2.19,2.18v58.8a2.19,2.19,0,0,0,2.19,2.18h94.12A2.19,2.19,0,0,0,584.94,177.43Z"/><path class="cls-2" d="M170.38,189.79,159,173.11v95.18h31.81V214.85A190.32,190.32,0,0,1,170.38,189.79Z"/><path class="cls-6" d="M224.75,242.28a172.22,172.22,0,0,0,71.44,24.86L350,81.48a172.32,172.32,0,0,0-72.76-20.29Z"/><circle class="cls-7" cx="535.28" cy="300.1" r="46.56"/><circle class="cls-4" cx="535.28" cy="300.1" r="19.4"/><circle class="cls-7" cx="233.26" cy="300.1" r="46.56"/><circle class="cls-4" cx="233.26" cy="300.1" r="19.4"/><path class="cls-8" d="M592.09,177.43a9.2,9.2,0,0,0-1.48-5l-37.94-58.84a9.29,9.29,0,0,0-7.84-4.28h-56.2a9.34,9.34,0,0,0-9.33,9.33v58.8a9.34,9.34,0,0,0,9.33,9.33h94.12A9.35,9.35,0,0,0,592.09,177.43Zm-98.5-5V123.59h48.53l31.52,48.88Z"/><path class="cls-8" d="M480.5,205.79v9.75a7.15,7.15,0,1,0,14.29,0v-9.75a7.15,7.15,0,1,0-14.29,0Z"/><path class="cls-8" d="M535.28,273.55a26.55,26.55,0,1,0,26.54,26.55A26.58,26.58,0,0,0,535.28,273.55Zm0,38.8a12.26,12.26,0,1,1,12.25-12.25A12.27,12.27,0,0,1,535.28,312.35Z"/><path class="cls-8" d="M233.26,273.55a26.55,26.55,0,1,0,26.55,26.55A26.57,26.57,0,0,0,233.26,273.55Zm0,38.8a12.26,12.26,0,1,1,12.25-12.25A12.26,12.26,0,0,1,233.26,312.35Z"/><path class="cls-8" d="M492.41,83.79H472A18.23,18.23,0,0,0,453.79,102v25.3H443.14A11.67,11.67,0,0,0,431.48,139v13.67l-11.76-17.22C389.22,90.75,344,62.52,293.06,55.52l-.83-.11c-1.33-.18-2.67-.34-4-.49L287,54.79c-1.27-.13-2.53-.25-3.8-.35l-1.52-.12c-1.19-.09-2.39-.17-3.58-.23l-.51,0h-.28c-3.09-.16-6.2-.25-9.32-.25A192.54,192.54,0,0,0,209.5,63L173.86,74.39a30.55,30.55,0,0,0-19.18,19.38l-14.49,42.08c-3.21,9.34-2,19.46,3.19,27.08l8.45,12.38v85.83H149.6a18.69,18.69,0,0,0-18.67,18.67v5a18.68,18.68,0,0,0,18.67,18.67h30.08a53.69,53.69,0,0,0,107.16,0H481.7a53.69,53.69,0,0,0,107.16,0H614.4a18.68,18.68,0,0,0,18.67-18.67v-5a18.68,18.68,0,0,0-15.48-18.37V172.56a18.18,18.18,0,0,0-2.9-9.87L569.2,92.14a18.14,18.14,0,0,0-15.31-8.35H492.41Zm28.78,14.29h32.7a3.93,3.93,0,0,1,3.3,1.8l45.49,70.56a4,4,0,0,1,.62,2.12v88.58H572.18a53.57,53.57,0,0,0-73.81,0H468.08V102A3.93,3.93,0,0,1,472,98.08h49.19ZM197.94,231.44A184.39,184.39,0,0,0,220.3,248a53.56,53.56,0,0,0-22.36,11.71Zm240.69,44h49a53.42,53.42,0,0,0-4.92,13.79H285.86a53.42,53.42,0,0,0-4.92-13.79Zm-158.76-2,0,0Zm208.81,0v0l0,0ZM453.79,141.59V261.14h-8V141.59ZM431.48,261.14H390.54l19.79-6.3a30.55,30.55,0,0,0,19.18-19.38l2-5.72v31.4ZM407.92,143.47,429,174.36c2.63,3.86,3.2,9.36,1.47,14.37L416,230.81c-1.73,5-5.56,9-10,10.41l-35.64,11.36a178.3,178.3,0,0,1-54.13,8.56h0c-3.61,0-7.19-.12-10.75-.34L354.33,92.17A175.65,175.65,0,0,1,407.92,143.47ZM239.64,165.19,220.58,231A172.61,172.61,0,0,1,196,210l-.1-.12q-2.46-2.53-4.81-5.17l-.68-.76c-.68-.77-1.35-1.54-2-2.32l-1-1.21c-.82-1-1.62-1.94-2.41-2.93-.66-.81-1.31-1.63-2-2.46l-1.2-1.57c-.61-.81-1.23-1.63-1.83-2.45l-1-1.35c-.92-1.28-1.84-2.57-2.73-3.89l-21.1-30.89c-2.63-3.85-3.2-9.36-1.47-14.36l14.48-42.08c1.73-5,5.56-9,10-10.42l35.64-11.35a178,178,0,0,1,53.94-8.57l-20.09,69.34Zm21.78-23.78,21.06-72.69.23,0,2.7.26,1.75.19c.91.1,1.81.21,2.72.33l1.61.22c1.69.24,3.37.5,5.05.79l1.48.25,2.71.52,1.61.33c.93.19,1.85.39,2.77.6l1.14.26q5,1.19,10,2.68l.41.12a164,164,0,0,1,24.83,9.85L291,259.25c-1.27-.19-2.54-.4-3.8-.62h0q-7.59-1.32-15-3.33l-.12,0c-1.21-.33-2.42-.68-3.62-1l-.11,0A164.6,164.6,0,0,1,233.14,239l20.23-69.81Zm-95.29,54.8c.22.32.46.62.69.94.89,1.25,1.8,2.49,2.71,3.71.35.48.7.95,1.06,1.42a197.36,197.36,0,0,0,13.06,15.44v43.43H166.13Zm-20.91,88.64v-5a4.38,4.38,0,0,1,4.38-4.37h36a53,53,0,0,0-4.91,13.79H149.6A4.39,4.39,0,0,1,145.22,284.85Zm88,54.65a39.41,39.41,0,1,1,39.41-39.4A39.45,39.45,0,0,1,233.26,339.5Zm302,0a39.41,39.41,0,1,1,39.41-39.4A39.45,39.45,0,0,1,535.28,339.5Zm83.5-54.65a4.39,4.39,0,0,1-4.38,4.38H587.87A53,53,0,0,0,583,275.44H614.4a4.38,4.38,0,0,1,4.38,4.37v5Z"/></g><g id="moi"><circle class="cls-9" cx="684" cy="80" r="80"/><g id="eagle"><path class="cls-10" d="M685.43,116.15a2,2,0,0,0-3.45,1.43v7.09a2,2,0,1,0,4,0v-7.09A2,2,0,0,0,685.43,116.15Z"/><path class="cls-10" d="M696.33,119.91l-2.84-6.73a2,2,0,0,0-1.87-1.23,2,2,0,0,0-.78.16,2,2,0,0,0-1.07,2.65l2.84,6.72a2,2,0,1,0,3.72-1.57Z"/><path class="cls-10" d="M678.25,113.21a2,2,0,0,0-1.09-1.1h0a2,2,0,0,0-.79-.16,2.06,2.06,0,0,0-.76.15,2,2,0,0,0-1.1,1.08l-2.84,6.73a2,2,0,0,0,0,1.55,2,2,0,0,0,1.09,1.1,2,2,0,0,0,2.64-1.08l2.84-6.72A2,2,0,0,0,678.25,113.21Z"/><path class="cls-10" d="M725,98.79a2,2,0,0,0-.85-1.28h0a2,2,0,0,0-1.13-.34,2.56,2.56,0,0,0-.39,0,2,2,0,0,0-1.29.86l-7.11,10.62a2,2,0,0,0,.55,2.8,2.07,2.07,0,0,0,2.81-.55l7.11-10.62A2,2,0,0,0,725,98.79Z"/><path class="cls-10" d="M708.81,123a2,2,0,0,0-.86-1.29h0a2,2,0,0,0-1.12-.34,1.81,1.81,0,0,0-.4,0,2,2,0,0,0-1.28.86l-1.47,2.19a2,2,0,0,0,.56,2.8,2.06,2.06,0,0,0,2.8-.55l1.47-2.19A2,2,0,0,0,708.81,123Z"/><path class="cls-10" d="M662.85,122.31a2,2,0,0,0-1.68-.89,2,2,0,0,0-1.12.34,2,2,0,0,0-.55,2.8l1.46,2.19a2.07,2.07,0,0,0,2.8.55,2,2,0,0,0,.56-2.8Z"/><path class="cls-10" d="M654.89,108.62c-1.11-2.45-3.09-3.62-4.83-4.65-2-1.16-3.55-2.09-4.09-4.76a2,2,0,0,0-2-1.62,1.87,1.87,0,0,0-.4,0A2,2,0,0,0,642,100c.9,4.44,3.85,6.17,6,7.44,1.46.87,2.62,1.55,3.2,2.83a2,2,0,1,0,3.68-1.66Z"/><path class="cls-10" d="M737.34,51.19a2,2,0,0,0,0-1.55h0a2,2,0,0,0-1.07-1.1,2,2,0,0,0-1.55,0l-26.05,10.4a2.06,2.06,0,0,0-1.23,2.26A15.83,15.83,0,0,1,701,76.55l-1.54,1.09-.71-1.75a2,2,0,0,0-1.88-1.27h-5.24l.11-1.6a48.78,48.78,0,0,1,.75-5.19c1.18-6.55,1.62-11.75-4.39-14.28-5.62-2.37-9,.94-10.2,2.48l-.4.5-.64.07c-2,.2-5.5,1.11-6.68,4.93A2,2,0,1,0,674,62.72c.68-2.23,3.73-2.22,4.45-2.1a2.09,2.09,0,0,0,2-1.19c1.18-2.44,3.43-3.25,6-2.16,3.34,1.4,3,4.34,2,9.84a47.28,47.28,0,0,0-.82,6.09l-.07,1.42h-7.65l-.13-1.35a14.69,14.69,0,0,1,.41-5.07,2,2,0,0,0-1.3-2.56,2,2,0,0,0-1.54.13,2,2,0,0,0-1,1.18,17.88,17.88,0,0,0-.65,6.08l.1,1.59h-4.66a2,2,0,0,0-1.87,1.27l-.71,1.75L667,76.55a15.78,15.78,0,0,1-6.49-15.35,2,2,0,0,0-1.23-2.28l-26.05-10.4a2,2,0,0,0-1.55,0,2,2,0,0,0-1.07,1.1,2,2,0,0,0,1.12,2.63l24.57,9.82,0,1a20.12,20.12,0,0,0,12,18.81l.85.4V95a20.56,20.56,0,0,0,.77,5.93l.36,1.21-1.13.56c-3.93,2-5.4,4.76-6.58,7-1.34,2.53-2.14,4.06-5.87,4.66a2,2,0,0,0-1.32.82,2,2,0,0,0-.35,1.5,2,2,0,0,0,2.34,1.67c5.69-.92,7.4-4.16,8.77-6.76,1.16-2.2,2.25-4.27,5.68-5.67l.8-.33.69.53a15.58,15.58,0,0,0,5.13,2.36c1.86.57,3.2,1,3.73,2.15A2,2,0,0,0,684,111.8a2,2,0,0,0,1.83-1.18c.54-1.17,1.88-1.58,3.74-2.15a15.37,15.37,0,0,0,5.13-2.36l.69-.53.8.33c3.42,1.4,4.52,3.47,5.67,5.66,1.38,2.61,3.09,5.85,8.81,6.77a1.66,1.66,0,0,0,.32,0,2,2,0,0,0,1.64-3.21,2.08,2.08,0,0,0-1.32-.81c-3.73-.6-4.54-2.13-5.87-4.67a14.31,14.31,0,0,0-6.58-7l-1.13-.56.36-1.21a20.56,20.56,0,0,0,.77-5.93V82.33l.85-.41a20.11,20.11,0,0,0,12-18.8l0-1,24.57-9.81A2.06,2.06,0,0,0,737.34,51.19ZM694.81,95c0,7.13-2.43,8.39-6.43,9.61h0a15.62,15.62,0,0,0-3.61,1.44l-.77.47-.78-.47a15.28,15.28,0,0,0-3.6-1.44c-4-1.23-6.44-2.49-6.44-9.62V88.52h15a2,2,0,0,0,0-4h-15V78.66h21.63Z"/><path class="cls-10" d="M663.77,85.52a2,2,0,0,0-1.65-.85,2,2,0,0,0-1.17.38h0L651.22,92a2,2,0,0,0-.47,2.81,2.08,2.08,0,0,0,2.82.48l9.73-6.92A2,2,0,0,0,663.77,85.52Z"/><path class="cls-10" d="M658.92,81a2,2,0,0,0,0-1.55,2,2,0,0,0-1.12-1.06,2.06,2.06,0,0,0-.73-.14,2,2,0,0,0-.82.18h0L645.1,83.37A2,2,0,0,0,644,84.49a2,2,0,0,0,0,1.55,2.06,2.06,0,0,0,2.67,1l11.11-4.93A2,2,0,0,0,658.92,81Z"/><path class="cls-10" d="M652.81,74.79a2,2,0,0,0-.64-3.93,2,2,0,0,0-.64.1l-9.61,3.23A2,2,0,0,0,643.21,78Z"/><path class="cls-10" d="M632.09,60.59a2,2,0,0,0,1.2,2.59l13.53,5a2,2,0,0,0,1.39-3.79l-13.53-5a1.86,1.86,0,0,0-.69-.12A2,2,0,0,0,632.09,60.59Z"/><path class="cls-10" d="M662.23,94.11l-3.48,4.21a2,2,0,0,0,.27,2.84,2.07,2.07,0,0,0,2.85-.27l3.47-4.2a2,2,0,1,0-3.11-2.58Z"/><path class="cls-10" d="M704.7,88.34l9.73,6.92a2.08,2.08,0,0,0,2.82-.48,2,2,0,0,0-.48-2.82L707,85a2,2,0,0,0-1.16-.37,2,2,0,0,0-1.18,3.67Z"/><path class="cls-10" d="M710.14,82.13l11.12,4.93a2,2,0,0,0,2.66-1,2,2,0,0,0,0-1.55,2,2,0,0,0-1.06-1.12l-11.12-4.93a2,2,0,0,0-2.66,1,2,2,0,0,0,0,1.55A2,2,0,0,0,710.14,82.13Z"/><path class="cls-10" d="M713.91,72.23a2,2,0,0,0,1.28,2.56l9.6,3.23a2,2,0,1,0,1.29-3.83L716.47,71a2,2,0,0,0-2.56,1.27Z"/><path class="cls-10" d="M718.59,66.94a2,2,0,0,0,2.59,1.2l13.53-5a2,2,0,0,0-1.39-3.79l-13.53,5A2,2,0,0,0,718.59,66.94Z"/><path class="cls-10" d="M705.77,94.11a2,2,0,0,0-3.12,2.58l3.48,4.2a2,2,0,0,0,2.84.28,2,2,0,0,0,.27-2.85Z"/></g></g><g id="moi-2" data-name="moi"><circle class="cls-11" cx="684" cy="428" r="80"/></g></g></svg>