<svg xmlns="http://www.w3.org/2000/svg" viewBox="0 0 512 512"><defs><style>.cls-1{fill:#f2eb00;}.cls-2{fill:#d6d6d4;}.cls-3{fill:#ffb531;}.cls-4{fill:#f7a116;}.cls-5{fill:#ffa912;}.cls-6{fill:#e8770c;}.cls-7{fill:#4db7e5;}.cls-8{fill:#419bc2;}.cls-9{fill:#4c5d72;}.cls-10{fill:#3d4d63;}.cls-11{fill:#ccccca;}</style></defs><title>ex-t-01-activate</title><g id="Equipments"><g id="base"><circle class="cls-1" cx="256" cy="256" r="254"/></g><g id="icon-excavator_wheel_" data-name="icon-excavator(wheel)"><rect class="cls-2" x="178.22" y="279.98" width="73.88" height="30.33"/><rect x="178.22" y="300.98" width="73.88" height="9.33"/><path class="cls-3" d="M341.15,214.65h18.67l17.69-110.57a78.67,78.67,0,0,0,1-12.26A33.31,33.31,0,0,0,375,77L367.79,62.6a12,12,0,0,0-22.63,4.64Z"/><path class="cls-3" d="M341.15,261.31V210a9.34,9.34,0,0,1,18.67,0l4.67,3.5a35,35,0,0,1-3,58l-6.34,3.81H331.82Z"/><path class="cls-4" d="M341.15,210a9.34,9.34,0,1,0,9.34-9.33A9.34,9.34,0,0,0,341.15,210Z"/><path class="cls-5" d="M234.57,127.41,336.69,82.73a13.18,13.18,0,0,1,11.56,23.66l-85.54,46.33a37.34,37.34,0,0,0-19.55,32.83v75.76h-70l24.51-91A65.34,65.34,0,0,1,234.57,127.41Z"/><path class="cls-4" d="M198.43,168h49.21a37.21,37.21,0,0,0-4.48,17.57v75.76h-70l24.51-91C197.9,169.5,198.19,168.75,198.43,168Z"/><path class="cls-5" d="M261.83,261.31H168.5V280h93.33Z"/><path class="cls-3" d="M149.83,210H294.49v51.33H135.83V224Z"/><path class="cls-6" d="M163.83,224H154.5v14h9.33Z"/><path class="cls-6" d="M182.5,224h-9.34v14h9.34Z"/><path class="cls-7" d="M219.83,242.64h74.66V205.31l-18.67-28h-56Z"/><path class="cls-8" d="M261.83,242.64v-14l-28-28h-14v42Z"/><path class="cls-2" d="M159.17,191.31h32.66a9.34,9.34,0,0,1,9.33,9.34V210H149.83v-9.33A9.34,9.34,0,0,1,159.17,191.31Z"/><path class="cls-9" d="M163.83,275.31H266.49m0,9.33H163.83"/><path class="cls-4" d="M261.83,261.31H168.5v9.33h93.33Z"/><path d="M266.49,275.31h0V266h28a4.67,4.67,0,0,0,4.67-4.67v-56a4.78,4.78,0,0,0-.79-2.59l-18.66-28a4.7,4.7,0,0,0-3.89-2.07H250.53a32.61,32.61,0,0,1,14.4-15.83l74.23-40.2L336.67,208a11,11,0,0,0-.18,2v49.93l-8.55,12.81a4.66,4.66,0,0,0,3.88,7.26h23.33a4.76,4.76,0,0,0,2.39-.65l6.35-3.78a39.69,39.69,0,0,0,3.4-65.8l-1.76-1.31,16.58-103.65a80.43,80.43,0,0,0,1-13,37.87,37.87,0,0,0-4-16.91L372,60.53A16.62,16.62,0,0,0,340.51,67L340.22,77a18.38,18.38,0,0,0-5.4,1.4L232.7,123.16a69.66,69.66,0,0,0-39.54,45.89l-4.72,17.6H159.17a14,14,0,0,0-14,14v7.4l-12.64,12.63a4.67,4.67,0,0,0-1.36,3.3v37.33a4.66,4.66,0,0,0,4.66,4.67h28v9.33h0v9.33H266.49Zm-70-70h-42v-4.66a4.67,4.67,0,0,1,4.67-4.67h32.66a4.67,4.67,0,0,1,4.67,4.67ZM357.76,198a12.72,12.72,0,0,0-1.16-.6c-.32-.15-.62-.31-.93-.44a16.75,16.75,0,0,0-1.66-.52c-.28-.07-.56-.17-.85-.23a15,15,0,0,0-2.67-.27,13,13,0,0,0-2.64.27,9.39,9.39,0,0,0-1,.28,4.42,4.42,0,0,0-.52.14l2.33-85.19,1.87-1a17.82,17.82,0,0,0-1-31.83l.32-11.28a7.16,7.16,0,0,1,2.26-4.7,7.45,7.45,0,0,1,11.54,2l7.18,14.35a28.53,28.53,0,0,1,3,12.76,72.24,72.24,0,0,1-.93,11.47Zm-11.64,10.41a5.45,5.45,0,0,1,1.32-1.94,4.52,4.52,0,0,1,.82-.55,4.4,4.4,0,0,1,.56-.31,4.57,4.57,0,0,1,1.67-.34,4.67,4.67,0,1,1-4.56,5.23l0-1.29a5.12,5.12,0,0,1,.15-.78Zm-5.58,62.19L345,263.9a4.62,4.62,0,0,0,.79-2.59V223.12a13.61,13.61,0,0,0,15.18-4,4.56,4.56,0,0,0,1.82-.89,30.3,30.3,0,0,1-3.73,49.33l-5.22,3.11Zm-100-98H219.83a4.67,4.67,0,0,0-4.67,4.67v28h-9.33v-4.66A14,14,0,0,0,197.76,188l4.43-16.52a60.42,60.42,0,0,1,34.28-39.77L338.57,87A8.51,8.51,0,0,1,346,102.27l-85.55,46.35A41.87,41.87,0,0,0,240.57,172.65ZM289.82,238H266.49v-9.33a4.64,4.64,0,0,0-1.37-3.3l-28-28a4.63,4.63,0,0,0-3.29-1.37h-9.34V182h48.84l16.49,24.73V238ZM231.9,205.31l25.26,25.27V238H224.49V205.31Zm-91.4,51.33V225.91l11.26-11.26h63.4v28a4.67,4.67,0,0,0,4.67,4.67h70v9.33ZM257.16,266v9.33h-84V266Z"/><path d="M163.83,224H154.5v14h9.33Z"/><path d="M182.5,224h-9.34v14h9.34Z"/><g id="wheel"><circle id="color" class="cls-10" cx="163.83" cy="305.64" r="31.23"/><circle id="color-2" data-name="color" class="cls-11" cx="163.83" cy="305.64" r="16.31"/><path d="M163.83,270.64a35,35,0,1,0,35,35A35,35,0,0,0,163.83,270.64Zm0,62.23a27.23,27.23,0,1,1,27.22-27.23A27.23,27.23,0,0,1,163.83,332.87Z"/><path d="M163.83,286.2a19.45,19.45,0,1,0,19.45,19.44A19.44,19.44,0,0,0,163.83,286.2Zm0,31.11a11.67,11.67,0,1,1,11.67-11.67A11.67,11.67,0,0,1,163.83,317.31Z"/></g><g id="wheel-2" data-name="wheel"><circle id="color-3" data-name="color" class="cls-10" cx="266.49" cy="305.64" r="31.23"/><circle id="color-4" data-name="color" class="cls-11" cx="266.49" cy="305.64" r="16.31"/><path d="M266.49,270.64a35,35,0,1,0,35,35A35,35,0,0,0,266.49,270.64Zm0,62.23a27.23,27.23,0,1,1,27.22-27.23A27.23,27.23,0,0,1,266.49,332.87Z"/><path d="M266.49,286.2a19.45,19.45,0,1,0,19.45,19.44A19.44,19.44,0,0,0,266.49,286.2Zm0,31.11a11.67,11.67,0,1,1,11.67-11.67A11.66,11.66,0,0,1,266.49,317.31Z"/></g></g><path d="M216.93,414.17H197.24V427.5h23.11v8.24H187V386h33.29v8.31h-23v11.86h19.69Z"/><path d="M244.17,403.13,253.5,386h11.8l-14.5,24.68,14.87,25.09H253.74l-9.57-17.43-9.57,17.43H222.67l14.87-25.09L223.05,386h11.79Z"/><path d="M284.06,418.41H264.82v-8h19.24Z"/><path d="M330.1,394.28H314.86v41.46H304.6V394.28h-15V386H330.1Z"/></g></svg>