<svg viewBox="0 0 512 512" xmlns="http://www.w3.org/2000/svg"><circle cx="256" cy="256" fill="#ffb530" r="256"/><path d="m265.73 272.58 13.15 3.76-7.46-34.82h-44.42v57.94h56.8l-2.61-12.46-17.79-5-1 4.19a4.83 4.83 0 0 1 -4.68 3.65 4.63 4.63 0 0 1 -1.17-.14 4.83 4.83 0 0 1 -3.55-5.9l4.83-19.31a4.83 4.83 0 1 1 9.36 2.35z" fill="#4db7e5"/><path d="m173.94 251.18a4.83 4.83 0 0 0 -4.83 4.83v4.83h-29a4.82 4.82 0 0 0 -4.83 4.82 4.83 4.83 0 0 1 -9.63.48 4.83 4.83 0 0 0 -9.63.58c.51 24.53 14.2 27.91 28.92 27.91 20.21 0 33.8-11.64 33.8-29v-9.63a4.83 4.83 0 0 0 -4.8-4.82z" fill="#3c3b41"/><path d="m158.34 185.33a4.83 4.83 0 0 0 -3.71-1.74h-19.32a9.66 9.66 0 0 1 0-19.31h12.69a4.83 4.83 0 0 0 4.6-6.32l-5.31-16.41a16 16 0 0 0 -31.29 4.94v119.17a4.83 4.83 0 0 0 9.66 0 4.83 4.83 0 0 1 9.65 0 4.84 4.84 0 0 0 4.38 4.83h.46a4.83 4.83 0 0 0 4.74-3.94l14.48-77.25a4.8 4.8 0 0 0 -1.03-3.97z" fill="#ffa91f"/><path d="m266.85 234.19-33.21-54.8a4.83 4.83 0 0 0 -4-2.32 5.07 5.07 0 0 0 -4.12 2.15 9.75 9.75 0 0 1 -8.1 4.37h-18.3a4.83 4.83 0 0 0 -4.61 6.27l15.27 48.28a4.82 4.82 0 0 0 4.6 3.38h48.37a4.83 4.83 0 0 0 4.13-7.33z" fill="#ff9a00"/><path d="m285.27 288a5 5 0 0 1 -1.33-.19l-25.34-7.24a4.83 4.83 0 1 1 2.65-9.29l25.35 7.24a4.83 4.83 0 0 1 -1.33 9.48z" fill="#7985eb"/><path d="m257.66 289.8a4.7 4.7 0 0 1 -1.18-.14 4.83 4.83 0 0 1 -3.48-5.86l4.83-19.31a4.83 4.83 0 1 1 9.36 2.35l-4.82 19.31a4.83 4.83 0 0 1 -4.71 3.65z" fill="#ffb74f"/><path d="m352.57 304.29h-32.3a4.82 4.82 0 0 0 -2.66 8.85 24 24 0 0 1 10.82 20.11v4.83a4.83 4.83 0 0 0 4.83 4.83h19.31a4.83 4.83 0 0 0 4.83-4.83v-29a4.82 4.82 0 0 0 -4.83-4.79z" fill="#3c3b41"/><path d="m395.06 349.7-13.66-18.49a6.17 6.17 0 0 0 -.48-.54 14.6 14.6 0 0 1 -4.21-10.24v-25.8a9.65 9.65 0 0 0 -9.66-9.65h-9.65a9.66 9.66 0 0 0 -9.66 9.65v53.11a9.66 9.66 0 0 0 9.66 9.65h33.79a4.82 4.82 0 0 0 3.87-7.69z" fill="#ffa91f"/><path d="m222.22 231.87h-10.33a14.52 14.52 0 0 0 -14.44 13.45l-4.2 58.62a4.83 4.83 0 0 0 4.83 5.17h24.14a4.82 4.82 0 0 0 4.82-4.82v-67.59a4.82 4.82 0 0 0 -4.82-4.83z" fill="#419bc2"/><path d="m280.86 239.5a9.71 9.71 0 0 0 -9.44-7.63h-59.53a14.52 14.52 0 0 0 -14.44 13.45l-4.2 58.62a4.83 4.83 0 0 0 4.83 5.17h91.73a4.83 4.83 0 0 0 4.72-5.83zm-73.78 6.5a4.84 4.84 0 0 1 4.83-4.49h5.48v57.94h-14.13zm20 53.45v-57.93h44.38l12.42 57.94z" fill="#6d76e7"/><path d="m323 305.11a33.23 33.23 0 0 0 -18.68-5.65h-106.24a4.83 4.83 0 0 0 -4.83 4.83v4.82a4.83 4.83 0 0 0 4.83 4.83 22.91 22.91 0 0 1 4.14.34 28.94 28.94 0 0 1 24.78 26.6 3.88 3.88 0 0 0 0 .48 29.08 29.08 0 0 1 -1.15 9.82 4.83 4.83 0 0 0 4.63 6.21h40a4.82 4.82 0 0 0 4.82-4.82 19.32 19.32 0 1 1 38.63 0 4.82 4.82 0 0 0 4.82 4.82h14.49a4.83 4.83 0 0 0 4.83-4.82v-19.32a33.63 33.63 0 0 0 -15.07-28.14z" fill="#ffa91f"/><path d="m231 160.28a19.21 19.21 0 0 0 -13.65-5.66h-82.04a19.31 19.31 0 0 0 0 38.62h82.08a19.3 19.3 0 0 0 13.65-33z" fill="#ffb74f"/><path d="m207.73 178.76h-9.65a4.83 4.83 0 1 1 0-9.65h9.65a4.83 4.83 0 1 1 0 9.65z" fill="#ff9a00"/><path d="m145 178.76h-4.83a4.83 4.83 0 1 1 0-9.65h4.83a4.83 4.83 0 1 1 0 9.65z" fill="#ff9a00"/><path d="m130.49 251.18a14.48 14.48 0 0 0 -14.49 14.48 10 10 0 0 0 .08 1.45 14.48 14.48 0 1 0 14.41-15.93z" fill="#ccccca"/><path d="m236.55 339.78a38.58 38.58 0 0 0 -32.78-35 31.06 31.06 0 0 0 -5.69-.46 38.62 38.62 0 1 0 37 49.81v-.16a38.55 38.55 0 0 0 1.53-13.21 4.36 4.36 0 0 0 -.06-.98z" fill="#3c3b41"/><path d="m323.6 352.57a29 29 0 1 1 -29-29 29 29 0 0 1 29 29z" fill="#3c3b41"/><path d="m304.29 352.57a9.66 9.66 0 1 1 -9.65-9.66 9.65 9.65 0 0 1 9.65 9.66z" fill="#f5f5f5"/><path d="m198.08 323.6a19.24 19.24 0 1 0 13.67 5.63 19.3 19.3 0 0 0 -13.67-5.63z" fill="#ccccca"/><path d="m304.29 352.57a9.66 9.66 0 1 1 -9.65-9.66 9.65 9.65 0 0 1 9.65 9.66z"/><path d="m198.08 323.6a19.24 19.24 0 1 0 13.67 5.63 19.3 19.3 0 0 0 -13.67-5.63zm9.21 22.2a9.67 9.67 0 1 1 .44-2.89 9.66 9.66 0 0 1 -.44 2.89z"/><path d="m381.42 331.21a6.17 6.17 0 0 0 -.48-.54 14.62 14.62 0 0 1 -4.23-10.24v-25.8a9.65 9.65 0 0 0 -9.66-9.65h-9.65a9.66 9.66 0 0 0 -9.66 9.65v9.66h-26.21a33.19 33.19 0 0 0 -17.24-4.83h-10.58l-12.85-60a9.71 9.71 0 0 0 -9.44-7.63h-6l-30.42-50.1a19.3 19.3 0 0 0 -17.63-27.11h-65.9l-4.23-13.06a16 16 0 0 0 -31.24 4.93v119.17a12.63 12.63 0 0 0 .07 1.38c.62 24.21 14.25 27.59 28.9 27.59 20.21 0 33.8-11.64 33.8-29v-9.63a4.83 4.83 0 0 0 -9.66 0v4.83h-23.11l12.67-67.6h36.92l12.41 39.26a14.47 14.47 0 0 0 -10.5 12.83l-4.2 58.62v.17s0 .11 0 .18v.33a38.6 38.6 0 1 0 40.42 52.77h32.38a28.94 28.94 0 0 0 57.07 0h10.09a4.83 4.83 0 0 0 4.83-4.82v-9.66h9.65v4.83a9.66 9.66 0 0 0 9.66 9.65h33.79a4.82 4.82 0 0 0 3.87-7.69zm-102.54-54.87-13.15-3.76 1.44-5.74a4.83 4.83 0 1 0 -9.36-2.35l-4.81 19.31a4.83 4.83 0 0 0 3.52 5.86 4.63 4.63 0 0 0 1.17.14 4.83 4.83 0 0 0 4.68-3.65l1-4.19 17.82 5.04 2.65 12.42h-56.84v-57.9h44.38zm-54.67-109.23a9.64 9.64 0 0 1 -6.82 16.48h-82.08a9.66 9.66 0 0 1 0-19.31h82.08a9.54 9.54 0 0 1 6.82 2.83zm-98.55-20.62a6.35 6.35 0 0 1 12.4-2l3.27 10.09h-6a19.15 19.15 0 0 0 -3.46.35c-.28.05-.55.1-.81.17a18.92 18.92 0 0 0 -3.21 1l-.13.06a19.4 19.4 0 0 0 -2 1zm0 119.52v-.35a4.83 4.83 0 1 1 4.83 4.83 4.92 4.92 0 0 1 -4.83-4.49zm19.34 18.99c-7.87 0-13-.9-16-4.92.51.06 1 .08 1.56.09a14.9 14.9 0 0 0 2.66-.27c.27-.05.52-.13.79-.2a13.45 13.45 0 0 0 1.74-.54c.27-.11.54-.21.8-.33a14.41 14.41 0 0 0 1.64-.89c.2-.13.41-.24.6-.37a14.13 14.13 0 0 0 1.93-1.6c.11-.11.19-.23.29-.33a14.77 14.77 0 0 0 1.34-1.62c.16-.23.3-.48.45-.7a15.47 15.47 0 0 0 .84-1.55c.12-.27.25-.52.35-.79s.15-.31.21-.49h24.43c-2.56 10.58-13.42 14.51-23.63 14.51zm-7.37-31.93c-.18-.1-.38-.14-.56-.23a14.4 14.4 0 0 0 -2.19-.9l-1-.3a13.46 13.46 0 0 0 -6.12-.17c-.29.06-.56.15-.84.22-.43.11-.86.19-1.27.33v-61.36a19.12 19.12 0 0 0 2.27 1.12 18.53 18.53 0 0 0 3.18 1l.82.16a19.26 19.26 0 0 0 3.38.33h13.52zm79.79-59.81a19.47 19.47 0 0 0 2.75-.21c.29 0 .56-.11.85-.16a18.75 18.75 0 0 0 1.83-.44c.31-.09.62-.18.92-.29.58-.21 1.16-.44 1.73-.71.26-.12.53-.23.79-.36a17.84 17.84 0 0 0 2.29-1.38l25.58 42.18h-36.29l-12.2-38.63zm-10.34 52.74a4.84 4.84 0 0 1 4.83-4.49h5.48v57.94h-14.13zm-9 125.87a29 29 0 0 1 0-57.94 23 23 0 0 1 4.14.34 28.94 28.94 0 0 1 24.78 26.61 3.88 3.88 0 0 0 0 .48 11.64 11.64 0 0 1 .07 1.56 31.76 31.76 0 0 1 -1.2 8.16 29 29 0 0 1 -27.79 20.8zm96.56 0a19.32 19.32 0 1 1 19.36-19.3 19.32 19.32 0 0 1 -19.36 19.31zm33.79-24.14h-5.23a1.77 1.77 0 0 0 -.08-.31 28.31 28.31 0 0 0 -1.13-4.32c-.09-.24-.17-.48-.27-.71a28.11 28.11 0 0 0 -1.85-4c-.1-.17-.21-.33-.31-.48a28.93 28.93 0 0 0 -2.62-3.78l-.06-.06a27.63 27.63 0 0 0 -3.22-3.27l-.36-.33a29.41 29.41 0 0 0 -3.6-2.57l-.62-.38a29.19 29.19 0 0 0 -3.95-1.89l-.71-.27a29.81 29.81 0 0 0 -4.35-1.2c-.19 0-.39-.06-.58-.09a26.91 26.91 0 0 0 -9.72 0c-.19 0-.39.05-.58.09a29.34 29.34 0 0 0 -4.34 1.2l-.72.27a29.19 29.19 0 0 0 -3.95 1.89l-.62.38a29.41 29.41 0 0 0 -3.6 2.57l-.36.33a27.63 27.63 0 0 0 -3.22 3.27l-.05.06a28.06 28.06 0 0 0 -2.63 3.78c-.1.17-.21.33-.31.48a28.11 28.11 0 0 0 -1.85 4c-.09.24-.18.48-.26.71a29.55 29.55 0 0 0 -1.14 4.32 1.77 1.77 0 0 1 -.08.31h-29.67a4.71 4.71 0 0 1 .05-.54c0-.4.08-.77.12-1.16.06-.8.12-1.57.14-2.28v-.92a18.18 18.18 0 0 0 -.07-2v-.06a5.11 5.11 0 0 0 -.08-1 41.41 41.41 0 0 0 -.62-4.31c-.07-.37-.16-.73-.24-1.1a38.27 38.27 0 0 0 -1-3.77c-.05-.12-.07-.25-.11-.37a36.26 36.26 0 0 0 -1.63-3.86c-.15-.33-.31-.65-.48-1-.56-1.09-1.16-2.15-1.81-3.18-.11-.17-.2-.34-.31-.5a40.66 40.66 0 0 0 -2.48-3.34c-.21-.26-.44-.51-.66-.76-.78-.9-1.6-1.77-2.46-2.59l-.52-.51a38.17 38.17 0 0 0 -3.19-2.64c-.26-.19-.53-.36-.79-.54-1-.68-1.93-1.31-3-1.9-.17-.09-.32-.22-.48-.32h87.52a23.76 23.76 0 0 1 13.32 4 24 24 0 0 1 10.82 20.11zm9.66-14.49a34.7 34.7 0 0 0 -.37-4.77c-.07-.49-.18-1-.27-1.45-.21-1.09-.45-2.15-.75-3.21-.16-.52-.32-1-.49-1.56-.35-1-.76-2-1.21-3-.2-.45-.39-.9-.62-1.34a33.16 33.16 0 0 0 -2.12-3.59c-.08-.12-.13-.26-.21-.37h15.69v19.31zm19.31 14.49v-53.1h9.65v25.8a24 24 0 0 0 6.81 16.79l7.76 10.52z"/><path d="m198.08 178.76h9.65a4.83 4.83 0 1 0 0-9.65h-9.65a4.83 4.83 0 1 0 0 9.65z"/><path d="m140.14 169.11a4.83 4.83 0 1 0 0 9.65h4.86a4.83 4.83 0 1 0 0-9.65z"/></svg>