<svg xmlns="http://www.w3.org/2000/svg" viewBox="0 0 768 512"><defs><style>.cls-1{fill:#75eac0;}.cls-2,.cls-7{fill:#ccccca;}.cls-3{fill:#ffb531;}.cls-4{fill:#3d4d63;}.cls-5{fill:#4db7e5;}.cls-6{fill:#f57e00;}.cls-7{stroke:#000;stroke-width:5px;}.cls-10,.cls-7{stroke-miterlimit:10;}.cls-8{fill:#ffcb73;}.cls-9{fill:#00a650;}.cls-10{fill:#fff;stroke:#fff;stroke-width:1.5px;}</style></defs><title>mpu-01-moi-on</title><g id="Equipments"><rect class="cls-1" x="2" y="2" width="764" height="508" rx="100"/><g id="icon-mobile_production-unit"><rect class="cls-2" x="384.73" y="304.11" width="55.33" height="28.09" rx="7.24"/><path class="cls-2" d="M488.18,311.77a47.16,47.16,0,0,1,14.55-28.09H349.31a47.16,47.16,0,0,1,14.55,28.09H372v-.43a20,20,0,0,1,20-20h40.86a20,20,0,0,1,20,20v.43Z"/><path class="cls-3" d="M602.66,270.48v6.81a.45.45,0,0,0,.42.43h7.24v-7.66h-7.24A.44.44,0,0,0,602.66,270.48Z"/><circle class="cls-4" cx="534.98" cy="318.15" r="34.48" transform="translate(36.32 690.66) rotate(-67.5)"/><path class="cls-3" d="M541.79,222.38A26.84,26.84,0,0,1,515,195.57v-34a6.39,6.39,0,0,1,6.38-6.39h62.48l-.43-1.1A21,21,0,0,0,564,140.66H507.74a7.24,7.24,0,0,0-7.23,7.24v123H535a47.3,47.3,0,0,1,46.81,40.92,6.22,6.22,0,0,1,.86-.06h27.24a.43.43,0,0,0,.43-.43V290.49h-7.24a13.21,13.21,0,0,1-13.19-13.2v-6.81a13.21,13.21,0,0,1,13.19-13.19h7.24V224l-.62-1.62Z"/><circle class="cls-4" cx="317.06" cy="318.15" r="34.48" transform="translate(-98.21 489.32) rotate(-67.5)"/><path class="cls-2" d="M284.8,283.68H267.59a47.65,47.65,0,0,1,8.61,10.8A47.34,47.34,0,0,1,284.8,283.68Z"/><path class="cls-5" d="M541.79,209.62h63l-16-41.72h-61v27.67A14.07,14.07,0,0,0,541.79,209.62Z"/><path class="cls-6" d="M459.65,270.91h28.09v-123c0-.14,0-.29,0-.43h-28.1Z"/><path class="cls-3" d="M201.28,270.91h245.6V120.66a.43.43,0,0,0-.43-.43H201.28a.42.42,0,0,0-.42.43V270.48A.42.42,0,0,0,201.28,270.91Z"/><circle class="cls-4" cx="235.34" cy="318.15" r="34.48" transform="translate(-47.92 41.8) rotate(-9.22)"/><path class="cls-7" d="M235.34,303.15a15,15,0,1,0,15,15A15,15,0,0,0,235.34,303.15Z"/><path class="cls-7" d="M317.06,303.15a15,15,0,1,0,15,15A15,15,0,0,0,317.06,303.15Z"/><path class="cls-7" d="M535,303.15a15,15,0,1,0,15,15A15,15,0,0,0,535,303.15Z"/><path d="M623.08,222.66c0-.14,0-.27,0-.4l0-.28c0-.11,0-.22,0-.33s-.05-.23-.07-.34a2.5,2.5,0,0,1-.07-.26c0-.13-.08-.26-.13-.39l-.05-.14-27.33-71.07A33.83,33.83,0,0,0,564,127.89H507.74a20,20,0,0,0-15,6.81H480.08V95.07a26.62,26.62,0,0,0-7.86-19l-7.63-7.64a6.39,6.39,0,0,0-9,9l7.63,7.64a13.92,13.92,0,0,1,4.12,9.93V134.7h-7.66v-14a13.21,13.21,0,0,0-13.2-13.2H201.29a13.21,13.21,0,0,0-13.2,13.2V270.48a13.21,13.21,0,0,0,13.19,13.2h1.8a47.22,47.22,0,1,0,73.12,58.14,47.22,47.22,0,0,0,87.66-17.28H372V325a20,20,0,0,0,20,20h40.86a20,20,0,0,0,20-20v-.42h35.34a47.23,47.23,0,0,0,93.61-.07,6.23,6.23,0,0,0,.86.07H609.9a13.21,13.21,0,0,0,13.19-13.2V222.81C623.09,222.76,623.08,222.71,623.08,222.66Zm-12.76,55.06h-7.24a.45.45,0,0,1-.42-.43v-6.81a.44.44,0,0,1,.42-.42h7.24Zm-5.53-68.1h-63a14.07,14.07,0,0,1-14-14.05V167.9h61Zm-117-62.15c0,.14,0,.29,0,.43v123H459.65V147.47ZM201.28,270.91a.42.42,0,0,1-.42-.43V120.66a.42.42,0,0,1,.42-.43H446.45a.43.43,0,0,1,.43.43V270.91Zm83.52,12.77a47.34,47.34,0,0,0-8.6,10.8,47.65,47.65,0,0,0-8.61-10.8Zm-49.46,68.95a34.48,34.48,0,1,1,34.47-34.48A34.52,34.52,0,0,1,235.34,352.63Zm81.72,0a34.48,34.48,0,1,1,34.47-34.48A34.52,34.52,0,0,1,317.06,352.63Zm123-27.67a7.25,7.25,0,0,1-7.24,7.24H392a7.25,7.25,0,0,1-7.24-7.24V311.34a7.24,7.24,0,0,1,7.24-7.23h40.86a7.24,7.24,0,0,1,7.24,7.23Zm-7.24-33.62H392a20,20,0,0,0-20,20v.43h-8.1a47.16,47.16,0,0,0-14.55-28.09H502.73a47.16,47.16,0,0,0-14.55,28.09H452.84v-.43A20,20,0,0,0,432.83,291.34ZM535,352.63a34.48,34.48,0,1,1,34.48-34.48A34.51,34.51,0,0,1,535,352.63Zm74.92-40.86H582.65a6.22,6.22,0,0,0-.86.06A47.3,47.3,0,0,0,535,270.91H500.51v-123a7.24,7.24,0,0,1,7.23-7.24H564A21,21,0,0,1,583.41,154l.43,1.1H521.36a6.39,6.39,0,0,0-6.38,6.39v34a26.84,26.84,0,0,0,26.81,26.81H609.7l.62,1.62v33.29h-7.24a13.21,13.21,0,0,0-13.19,13.19v6.81a13.21,13.21,0,0,0,13.19,13.2h7.24v20.85A.42.42,0,0,1,609.9,311.77Z"/><path d="M398.78,311.77a6.38,6.38,0,1,0,4.51,1.87A6.38,6.38,0,0,0,398.78,311.77Z"/><path d="M221.72,174.71H426a6.39,6.39,0,0,0,0-12.77H221.72a6.39,6.39,0,1,0,0,12.77Z"/><path d="M221.72,229.19H426a6.38,6.38,0,0,0,0-12.76H221.72a6.38,6.38,0,1,0,0,12.76Z"/><path d="M156.08,262.57h12.8v27.82l12.79-4.16V262.57h6.4a12.8,12.8,0,0,0,12.79-12.8V205a6.4,6.4,0,1,0-12.79,0v6.4H117.71V205a6.4,6.4,0,1,0-12.8,0v12.91a6.46,6.46,0,0,0,.44,2.17c.07.18.16.34.24.51a6.53,6.53,0,0,0,.37.75l15.47,23.2,7.63,11.4.62.93a12.88,12.88,0,0,0,10.67,5.7h15.73Z"/><polygon class="cls-8" points="140.3 249.74 123.26 224.19 188.07 224.19 188.07 249.77 140.3 249.74"/></g><path d="M325.57,404l12.78,36.1L351.07,404h13.47v49.77H354.25v-13.6l1-23.49-13.43,37.09h-7l-13.4-37.05,1,23.45v13.6H312.17V404Z"/><path d="M383.74,436.21v17.53H373.49V404H392.9a22.46,22.46,0,0,1,9.87,2.06,15.14,15.14,0,0,1,6.54,5.82,16.24,16.24,0,0,1,2.29,8.6q0,7.32-5,11.53t-13.86,4.23Zm0-8.31h9.16a9,9,0,0,0,6.21-1.91,7,7,0,0,0,2.13-5.47,8.21,8.21,0,0,0-2.15-5.92,8.07,8.07,0,0,0-5.95-2.32h-9.4Z"/><path d="M456.31,404v32.78q0,8.17-5.11,12.92t-14,4.75q-8.73,0-13.85-4.61t-5.23-12.68V404h10.26v32.85q0,4.89,2.34,7.13a9,9,0,0,0,6.48,2.24q8.64,0,8.78-9.1V404Z"/><g id="moi"><circle class="cls-9" cx="686" cy="82" r="80"/><g id="eagle"><path class="cls-10" d="M687.43,118.15a2,2,0,0,0-3.45,1.43v7.09a2,2,0,1,0,4,0v-7.09A2,2,0,0,0,687.43,118.15Z"/><path class="cls-10" d="M698.33,121.91l-2.84-6.73a2,2,0,0,0-1.87-1.23,2,2,0,0,0-.78.16,2,2,0,0,0-1.07,2.65l2.84,6.72a2,2,0,1,0,3.72-1.57Z"/><path class="cls-10" d="M680.25,115.21a2,2,0,0,0-1.09-1.1h0a2,2,0,0,0-.79-.16,2.06,2.06,0,0,0-.76.15,2,2,0,0,0-1.1,1.08l-2.84,6.73a2,2,0,0,0,0,1.55,2,2,0,0,0,1.09,1.1,2,2,0,0,0,2.64-1.08l2.84-6.72A2,2,0,0,0,680.25,115.21Z"/><path class="cls-10" d="M727,100.79a2,2,0,0,0-.85-1.28h0a2,2,0,0,0-1.13-.34,2.56,2.56,0,0,0-.39,0,2,2,0,0,0-1.29.86l-7.11,10.62a2,2,0,0,0,.55,2.8,2.07,2.07,0,0,0,2.81-.55l7.11-10.62A2,2,0,0,0,727,100.79Z"/><path class="cls-10" d="M710.81,125a2,2,0,0,0-.86-1.29h0a2,2,0,0,0-1.12-.34,1.81,1.81,0,0,0-.4,0,2,2,0,0,0-1.28.86l-1.47,2.19a2,2,0,0,0,.56,2.8,2.06,2.06,0,0,0,2.8-.55l1.47-2.19A2,2,0,0,0,710.81,125Z"/><path class="cls-10" d="M664.85,124.31a2,2,0,0,0-1.68-.89,2,2,0,0,0-1.12.34,2,2,0,0,0-.55,2.8l1.46,2.19a2.07,2.07,0,0,0,2.8.55,2,2,0,0,0,.56-2.8Z"/><path class="cls-10" d="M656.89,110.62c-1.11-2.45-3.09-3.62-4.83-4.65-2-1.16-3.55-2.09-4.09-4.76a2,2,0,0,0-2-1.62,1.87,1.87,0,0,0-.4,0A2,2,0,0,0,644,102c.9,4.44,3.85,6.17,6,7.44,1.46.87,2.62,1.55,3.2,2.83a2,2,0,1,0,3.68-1.66Z"/><path class="cls-10" d="M739.34,53.19a2,2,0,0,0,0-1.55h0a2,2,0,0,0-1.07-1.1,2,2,0,0,0-1.55,0l-26.05,10.4a2.06,2.06,0,0,0-1.23,2.26A15.83,15.83,0,0,1,703,78.55l-1.54,1.09-.71-1.75a2,2,0,0,0-1.88-1.27h-5.24l.11-1.6a48.78,48.78,0,0,1,.75-5.19c1.18-6.55,1.62-11.75-4.39-14.28-5.62-2.37-9,.94-10.2,2.48l-.4.5-.64.07c-2,.2-5.5,1.11-6.68,4.93A2,2,0,1,0,676,64.72c.68-2.23,3.73-2.22,4.45-2.1a2.09,2.09,0,0,0,2-1.19c1.18-2.44,3.43-3.25,6-2.16,3.34,1.4,3,4.34,2,9.84a47.28,47.28,0,0,0-.82,6.09l-.07,1.42h-7.65l-.13-1.35a14.69,14.69,0,0,1,.41-5.07,2,2,0,0,0-1.3-2.56,2,2,0,0,0-1.54.13,2,2,0,0,0-1,1.18,17.88,17.88,0,0,0-.65,6.08l.1,1.59h-4.66a2,2,0,0,0-1.87,1.27l-.71,1.75L669,78.55a15.78,15.78,0,0,1-6.49-15.35,2,2,0,0,0-1.23-2.28l-26.05-10.4a2,2,0,0,0-1.55,0,2,2,0,0,0-1.07,1.1,2,2,0,0,0,1.12,2.63l24.57,9.82,0,1a20.12,20.12,0,0,0,12,18.81l.85.4V97a20.56,20.56,0,0,0,.77,5.93l.36,1.21-1.13.56c-3.93,2-5.4,4.76-6.58,7-1.34,2.53-2.14,4.06-5.87,4.66a2,2,0,0,0-1.32.82,2,2,0,0,0-.35,1.5,2,2,0,0,0,2.34,1.67c5.69-.92,7.4-4.16,8.77-6.76,1.16-2.2,2.25-4.27,5.68-5.67l.8-.33.69.53a15.58,15.58,0,0,0,5.13,2.36c1.86.57,3.2,1,3.73,2.15A2,2,0,0,0,686,113.8a2,2,0,0,0,1.83-1.18c.54-1.17,1.88-1.58,3.74-2.15a15.37,15.37,0,0,0,5.13-2.36l.69-.53.8.33c3.42,1.4,4.52,3.47,5.67,5.66,1.38,2.61,3.09,5.85,8.81,6.77a1.66,1.66,0,0,0,.32,0,2,2,0,0,0,1.64-3.21,2.08,2.08,0,0,0-1.32-.81c-3.73-.6-4.54-2.13-5.87-4.67a14.31,14.31,0,0,0-6.58-7l-1.13-.56.36-1.21a20.56,20.56,0,0,0,.77-5.93V84.33l.85-.41a20.11,20.11,0,0,0,12-18.8l0-1,24.57-9.81A2.06,2.06,0,0,0,739.34,53.19ZM696.81,97c0,7.13-2.43,8.39-6.43,9.61h0a15.62,15.62,0,0,0-3.61,1.44l-.77.47-.78-.47a15.28,15.28,0,0,0-3.6-1.44c-4-1.23-6.44-2.49-6.44-9.62V90.52h15a2,2,0,0,0,0-4h-15V80.66h21.63Z"/><path class="cls-10" d="M665.77,87.52a2,2,0,0,0-1.65-.85,2,2,0,0,0-1.17.38h0L653.22,94a2,2,0,0,0-.47,2.81,2.08,2.08,0,0,0,2.82.48l9.73-6.92A2,2,0,0,0,665.77,87.52Z"/><path class="cls-10" d="M660.92,83a2,2,0,0,0,0-1.55,2,2,0,0,0-1.12-1.06,2.06,2.06,0,0,0-.73-.14,2,2,0,0,0-.82.18h0L647.1,85.37A2,2,0,0,0,646,86.49a2,2,0,0,0,0,1.55,2.06,2.06,0,0,0,2.67,1l11.11-4.93A2,2,0,0,0,660.92,83Z"/><path class="cls-10" d="M654.81,76.79a2,2,0,0,0-.64-3.93,2,2,0,0,0-.64.1l-9.61,3.23A2,2,0,0,0,645.21,80Z"/><path class="cls-10" d="M634.09,62.59a2,2,0,0,0,1.2,2.59l13.53,5a2,2,0,0,0,1.39-3.79l-13.53-5a1.86,1.86,0,0,0-.69-.12A2,2,0,0,0,634.09,62.59Z"/><path class="cls-10" d="M664.23,96.11l-3.48,4.21a2,2,0,0,0,.27,2.84,2.07,2.07,0,0,0,2.85-.27l3.47-4.2a2,2,0,1,0-3.11-2.58Z"/><path class="cls-10" d="M706.7,90.34l9.73,6.92a2.08,2.08,0,0,0,2.82-.48,2,2,0,0,0-.48-2.82L709,87a2,2,0,0,0-1.16-.37,2,2,0,0,0-1.18,3.67Z"/><path class="cls-10" d="M712.14,84.13l11.12,4.93a2,2,0,0,0,2.66-1,2,2,0,0,0,0-1.55,2,2,0,0,0-1.06-1.12l-11.12-4.93a2,2,0,0,0-2.66,1,2,2,0,0,0,0,1.55A2,2,0,0,0,712.14,84.13Z"/><path class="cls-10" d="M715.91,74.23a2,2,0,0,0,1.28,2.56l9.6,3.23a2,2,0,1,0,1.29-3.83L718.47,73a2,2,0,0,0-2.56,1.27Z"/><path class="cls-10" d="M720.59,68.94a2,2,0,0,0,2.59,1.2l13.53-5a2,2,0,0,0-1.39-3.79l-13.53,5A2,2,0,0,0,720.59,68.94Z"/><path class="cls-10" d="M707.77,96.11a2,2,0,0,0-3.12,2.58l3.48,4.2a2,2,0,0,0,2.84.28,2,2,0,0,0,.27-2.85Z"/></g></g></g></svg>