<svg xmlns="http://www.w3.org/2000/svg" viewBox="0 0 768 512"><defs><style>.cls-1{fill:#2783c1;}.cls-2{fill:#fcb377;}.cls-3{fill:#4db7e5;}.cls-4{fill:#ff9433;}.cls-5{fill:#3d4d63;}.cls-6{fill:#ffcb73;}.cls-7{fill:#ccccca;}.cls-8{fill:#040000;}</style></defs><title>wcbh-01-activate</title><g id="Equipments"><rect class="cls-1" x="2" y="2" width="764" height="508" rx="100"/><path d="M326.63,429.38l6.7-35.41h10.22l-11,49.77H322.19l-8.1-33.29L306,443.74H295.66l-11-49.77h10.22l6.74,35.35,8.2-35.35h8.68Z"/><path d="M388.15,427.16q-.57,8-5.93,12.65t-14.1,4.61q-9.57,0-15.05-6.44t-5.49-17.69v-3a29.82,29.82,0,0,1,2.53-12.65,19,19,0,0,1,7.23-8.39,20.31,20.31,0,0,1,10.92-2.92q8.61,0,13.88,4.62t6.08,12.95H378q-.37-4.82-2.69-7c-1.53-1.45-3.88-2.17-7-2.17q-5.13,0-7.67,3.67T358,416.77v3.76q0,8.07,2.45,11.79t7.7,3.73c3.17,0,5.53-.72,7.1-2.17s2.45-3.69,2.68-6.72Z"/><path d="M394.89,443.74V394h17.43q9.06,0,13.74,3.47t4.68,10.17a11.24,11.24,0,0,1-1.88,6.44,10.88,10.88,0,0,1-5.23,4.09,10.52,10.52,0,0,1,6,3.86,11.43,11.43,0,0,1,2.21,7.11q0,7.18-4.58,10.87t-13.06,3.76Zm10.25-28.92h7.59q7.75-.13,7.76-6.18,0-3.39-2-4.87t-6.2-1.49h-7.18Zm0,7.25V435.5h8.78a8.49,8.49,0,0,0,5.66-1.72,5.91,5.91,0,0,0,2-4.77q0-6.84-7.08-6.94Z"/><path d="M480.06,443.74H469.81V422.41h-20v21.33H439.56V394h10.25v20.17h20V394h10.25Z"/><g id="icon-dozer"><g id="color"><rect class="cls-2" x="257.32" y="83.16" width="130.52" height="37.93"/><path class="cls-3" d="M387.84,199.53V189.28l-22.63-22.63-5.13,5.13a6.46,6.46,0,1,1-9.14-9.14l19.39-19.4a6.47,6.47,0,0,1,9.15,9.14l-5.13,5.13L387.84,171V134H257.32v43.44l22.07,22.07Z"/><path class="cls-4" d="M259.08,251.52a43.4,43.4,0,0,1,4.7-.26H504.22a43.41,43.41,0,0,1,4.69.29h.39l23.23-19.36-23.66-16.81a20.18,20.18,0,1,1,7.46-10.59l20.21,14.36V167.21H400.77v32.32a12.93,12.93,0,0,1-12.93,12.94H276.72a6.45,6.45,0,0,1-4.59-1.9l-24-24a12.72,12.72,0,0,1-3.77-9.11V167.21H231.46v61.62l27.24,22.69Z"/><path class="cls-5" d="M245.58,303H232.1a32.41,32.41,0,0,0,31.68,25.86H504.22a32.27,32.27,0,0,0,25.86-12.93H263.78A19.39,19.39,0,0,1,245.58,303Z"/><path class="cls-2" d="M524.28,303H282.08c.19-.54.29-1.13.43-1.69.1-.38.23-.74.3-1.13a18.21,18.21,0,0,0,0-7.28c-.07-.39-.2-.75-.3-1.13-.14-.57-.24-1.16-.43-1.7h242.2a6.47,6.47,0,0,1,6.47,6.47h0A6.47,6.47,0,0,1,524.28,303Z"/><path class="cls-6" d="M497.75,193.07a6.47,6.47,0,1,0,6.47,6.46A6.47,6.47,0,0,0,497.75,193.07Z"/><path class="cls-5" d="M527.08,273.71a31.67,31.67,0,0,0-17.05-9,29.78,29.78,0,0,0-5.81-.54H263.78a29.09,29.09,0,0,0-5.73.52,32.32,32.32,0,0,0-25.89,25.34h13.42a19.41,19.41,0,0,1,18.2-12.93h266.3A30.37,30.37,0,0,0,527.08,273.71Z"/><circle class="cls-7" cx="263.78" cy="296.52" r="6.47"/></g><path d="M439.56,154.28H400.77V83.16a12.93,12.93,0,0,0-12.93-12.94H257.32a12.93,12.93,0,0,0-12.93,12.94v71.12H231.46a12.93,12.93,0,0,0-12.93,12.93v64.65a6.46,6.46,0,0,0,2.32,5L243.91,256a45.17,45.17,0,0,0,19.87,85.74H504.22A45.06,45.06,0,0,0,545,315.91c8.4-19.39.13-38.79.13-38.79a43.71,43.71,0,0,0-8.85-12.56,44.73,44.73,0,0,0-12-8.6l19.25-16s6-4.54,6-11.57V167.21a12.93,12.93,0,0,0-12.93-12.93h-97ZM257.32,177.46V134H387.84v37l-13.49-13.49,5.13-5.13a6.47,6.47,0,0,0-9.15-9.14l-19.39,19.4a6.46,6.46,0,1,0,9.14,9.14l5.13-5.13,22.63,22.63v10.25H279.39Zm0-94.3H387.84v37.93H257.32Zm-25.86,84.05h12.93v10.28a12.72,12.72,0,0,0,3.77,9.11l24,24a6.45,6.45,0,0,0,4.59,1.9H387.84a12.93,12.93,0,0,0,12.93-12.94V167.21H536.54v51.94l-20.21-14.36a19.4,19.4,0,1,0-7.46,10.59l23.66,16.81L509.3,251.55h-.39a43.41,43.41,0,0,0-4.69-.29H263.78a43.4,43.4,0,0,0-4.7.26h-.38l-27.24-22.69ZM497.75,206a6.47,6.47,0,1,1,6.47-6.47A6.47,6.47,0,0,1,497.75,206Zm-239.7,58.71a29.09,29.09,0,0,1,5.73-.52H504.22a29.78,29.78,0,0,1,5.81.54,31.67,31.67,0,0,1,17.05,9,30.37,30.37,0,0,1,3,3.41H263.78a19.41,19.41,0,0,0-18.2,12.93H232.16A32.32,32.32,0,0,1,258.05,264.71Zm-.73,31.81a6.47,6.47,0,1,1,6.46,6.46A6.47,6.47,0,0,1,257.32,296.52Zm246.9,32.32H263.78A32.41,32.41,0,0,1,232.1,303h13.48a19.39,19.39,0,0,0,18.2,12.93h266.3A32.27,32.27,0,0,1,504.22,328.84ZM524.28,303H282.08c.19-.54.29-1.13.43-1.69.1-.38.23-.74.3-1.13a18.21,18.21,0,0,0,0-7.28c-.07-.39-.2-.75-.3-1.13-.14-.57-.24-1.16-.43-1.7h242.2a6.47,6.47,0,0,1,6.47,6.47h0A6.47,6.47,0,0,1,524.28,303Z"/><path d="M443.09,186.6V206A6.47,6.47,0,1,0,456,206V186.6a6.47,6.47,0,0,0-12.94,0Z"/><path d="M423.7,186.6V206a6.47,6.47,0,1,0,12.93,0V186.6a6.47,6.47,0,0,0-12.93,0Z"/><path d="M374.91,238.33H394.3a6.47,6.47,0,1,0,0-12.93H374.91a6.47,6.47,0,1,0,0,12.93Z"/><g id="bridge"><rect class="cls-4" x="151.36" y="154.28" width="57.16" height="174.57"/><path class="cls-8" d="M185.77,316.84H137.36a6,6,0,0,0-6,6h0a6,6,0,0,0,6,6h48.41v-12Z"/><path class="cls-8" d="M196.53,215.38h48.4a6,6,0,0,0,6-6h0a6,6,0,0,0-6-6h-42.4a6,6,0,0,0-6,6v6Z"/><path class="cls-8" d="M196.53,166.28V316.84H163.36V166.28h33.17m12-12H151.36V328.84h57.17V154.28Z"/></g><g id="bridge-2" data-name="bridge"><rect class="cls-4" x="559.9" y="154.28" width="57.16" height="174.57" transform="translate(1176.97 483.12) rotate(-180)"/><path class="cls-8" d="M582.66,316.84h48.41a6,6,0,0,1,6,6h0a6,6,0,0,1-6,6H582.66v-12Z"/><path class="cls-8" d="M571.9,198.38H543.5a6,6,0,0,1-6-6h0a6,6,0,0,1,6-6h22.4a6,6,0,0,1,6,6v6Z"/><path class="cls-8" d="M571.9,166.28h33.17V316.84H571.9V166.28m-12-12V328.84h57.17V154.28Z"/></g></g></g></svg>