<svg xmlns="http://www.w3.org/2000/svg" viewBox="0 0 512 512"><defs><style>.cls-1{fill:#d279e8;}.cls-2{fill:#ffb531;}.cls-3{fill:#4db7e5;}.cls-4{fill:#7c8388;}.cls-5{fill:#deecf1;}.cls-6{fill:#ccccca;stroke:#000;stroke-miterlimit:10;stroke-width:10px;}</style></defs><title>bus-activate</title><g id="Equipments"><circle id="base" class="cls-1" cx="256" cy="256" r="254"/><g id="icon-bus"><path class="cls-2" d="M388.89,160.63a92.12,92.12,0,0,0-73.83-36.92H117A12.31,12.31,0,0,0,104.65,136v141.5A12.31,12.31,0,0,0,117,289.83H395a12.31,12.31,0,0,0,12.31-12.31V234.46Z"/><path class="cls-3" d="M407.35,216v18.46H352V160.63H388.9A91.89,91.89,0,0,1,407.35,216Z"/><path class="cls-4" d="M366.74,289.83a18.46,18.46,0,1,1-18.45-18.46A18.46,18.46,0,0,1,366.74,289.83Z"/><path class="cls-5" d="M256,197.54h55.37v92.29H256Z"/><path class="cls-6" d="M256,160.63h55.37v36.91H256Z"/><path class="cls-4" d="M221.55,289.83a18.46,18.46,0,1,1-18.46-18.46A18.47,18.47,0,0,1,221.55,289.83Z"/><path class="cls-4" d="M166.18,289.83a18.46,18.46,0,1,1-18.46-18.46A18.47,18.47,0,0,1,166.18,289.83Z"/><path class="cls-3" d="M104.65,160.63v73.83H215.39V160.63Z"/><path d="M203.71,117.56H117A18.48,18.48,0,0,0,98.5,136v141.5A18.48,18.48,0,0,0,117,296h6.93a24.61,24.61,0,0,0,47.66,0h7.71a24.61,24.61,0,0,0,47.66,0h97.53a24.62,24.62,0,0,0,47.67,0H395a18.48,18.48,0,0,0,18.46-18.46V216a98.44,98.44,0,0,0-98.44-98.44H203.71Zm55.37,12.31h56a85.34,85.34,0,0,1,60.31,24.61H352a6.15,6.15,0,0,0-6.16,6.15v73.83a6.15,6.15,0,0,0,6.16,6.15H401.2v36.91a6.16,6.16,0,0,1-6.16,6.16H372.12a24.62,24.62,0,0,0-47.67,0h-6.93v-123a6.15,6.15,0,0,0-6.15-6.15H256a6.15,6.15,0,0,0-6.15,6.15V283.68H226.92a24.61,24.61,0,0,0-47.66,0h-7.71a24.61,24.61,0,0,0-47.66,0H117a6.16,6.16,0,0,1-6.16-6.16V240.61H215.39a6.15,6.15,0,0,0,6.16-6.15V160.63a6.15,6.15,0,0,0-6.16-6.15H110.8V136a6.16,6.16,0,0,1,6.16-6.15H259.08ZM209.24,228.3H166.18V166.78h43.06Zm-55.37-61.52V228.3H110.8V166.78Zm151.35,0v24.61H262.15V166.78ZM147.72,302.13a12.31,12.31,0,1,1,12.3-12.3A12.32,12.32,0,0,1,147.72,302.13Zm55.37,0a12.31,12.31,0,1,1,12.3-12.3A12.32,12.32,0,0,1,203.09,302.13Zm59.06-98.43h43.07v80H262.15Zm86.14,98.43a12.31,12.31,0,1,1,12.3-12.3A12.32,12.32,0,0,1,348.29,302.13ZM401.2,228.3H358.13V166.78h27.62A85.34,85.34,0,0,1,401.2,216Z"/></g><path d="M193.55,433V383.26H211q9.06,0,13.74,3.47t4.69,10.17a11.24,11.24,0,0,1-1.88,6.44,10.92,10.92,0,0,1-5.23,4.09,10.55,10.55,0,0,1,6,3.86,11.43,11.43,0,0,1,2.21,7.11q0,7.19-4.58,10.87T212.9,433Zm10.26-28.92h7.58q7.77-.14,7.76-6.18,0-3.39-2-4.87c-1.31-1-3.38-1.49-6.21-1.49h-7.17Zm0,7.25v13.43h8.78a8.49,8.49,0,0,0,5.66-1.72,5.93,5.93,0,0,0,2-4.77q0-6.84-7.07-6.94Z"/><path d="M275.89,383.26V416q0,8.18-5.11,12.92t-14,4.75q-8.72,0-13.84-4.61t-5.23-12.68V383.26H248v32.85q0,4.89,2.34,7.13a9,9,0,0,0,6.48,2.24q8.64,0,8.78-9.1V383.26Z"/><path d="M310.11,420a5.27,5.27,0,0,0-2.06-4.46,26.88,26.88,0,0,0-7.38-3.28,52,52,0,0,1-8.44-3.4q-8.48-4.57-8.48-12.34A12,12,0,0,1,286,389.3a14.76,14.76,0,0,1,6.52-4.94,24.53,24.53,0,0,1,9.56-1.78,22.33,22.33,0,0,1,9.5,1.93,15.21,15.21,0,0,1,6.48,5.45,14.35,14.35,0,0,1,2.3,8H310.14a6.71,6.71,0,0,0-2.15-5.31,8.83,8.83,0,0,0-6.05-1.9,9.46,9.46,0,0,0-5.85,1.59,5,5,0,0,0-2.08,4.19,4.79,4.79,0,0,0,2.44,4.06,27.5,27.5,0,0,0,7.2,3.08q8.75,2.63,12.74,6.53a13,13,0,0,1,4,9.7A12,12,0,0,1,315.51,430q-4.89,3.68-13.16,3.67a25.42,25.42,0,0,1-10.46-2.1,16.56,16.56,0,0,1-7.2-5.76,14.76,14.76,0,0,1-2.48-8.48H292.5q0,8.25,9.85,8.24a9.47,9.47,0,0,0,5.7-1.49A4.83,4.83,0,0,0,310.11,420Z"/></g></svg>