<?xml version="1.0" encoding="iso-8859-1"?>
<!-- Generator: Adobe Illustrator 19.0.0, SVG Export Plug-In . SVG Version: 6.00 Build 0)  -->
<svg version="1.1" id="Layer_1" xmlns="http://www.w3.org/2000/svg" xmlns:xlink="http://www.w3.org/1999/xlink" x="0px" y="0px"
	 viewBox="0 0 491.2 491.2" style="enable-background:new 0 0 491.2 491.2;" xml:space="preserve">
<path style="fill:#4C5254;" d="M491.2,245.6c0,135.2-109.6,245.6-245.6,245.6C110.4,491.2,0,380.8,0,245.6C0,109.6,109.6,0,245.6,0
	S491.2,109.6,491.2,245.6z"/>
<path style="fill:#2F423F;" d="M419.2,72c96,96,96,251.2,0,347.2s-251.2,96-347.2,0"/>
<path style="fill:#CC2121;" d="M341.6,325.6c0,11.2-5.6,16-16,16h-160c-11.2,0-16-5.6-16-16v-160c0-11.2,5.6-16,16-16h160
	c11.2,0,16,5.6,16,16V325.6z"/>
<path style="fill:#F15249;" d="M341.6,326.4c0,8-6.4,15.2-15.2,15.2H204.8c-8,0-15.2-6.4-15.2-15.2V204.8c0-8,6.4-15.2,15.2-15.2
	h122.4c8,0,15.2,6.4,15.2,15.2v121.6H341.6z"/>
<g>
</g>
<g>
</g>
<g>
</g>
<g>
</g>
<g>
</g>
<g>
</g>
<g>
</g>
<g>
</g>
<g>
</g>
<g>
</g>
<g>
</g>
<g>
</g>
<g>
</g>
<g>
</g>
<g>
</g>
</svg>
