<svg id="icons" xmlns="http://www.w3.org/2000/svg" viewBox="0 0 80 80"><defs><style>.cls-1{fill:rgb(164, 161, 161);}.cls-2,.cls-3{fill:#fff;}.cls-3{opacity:0.25;}</style></defs><title>icon-volume-down</title><g id="icon-volume-down"><circle class="cls-1" cx="40" cy="40" r="40"/><g id="icon"><path class="cls-2" d="M39.13,25.52l-9,5.49H24.94c-3.29,0-3,2.68-3,6v6c0,3.31-.31,6,3,6H30l9.1,5.51c2,1.22,3.94.23,3.94-2.19V27.7C43.07,25.29,41.11,24.31,39.13,25.52Z"/><path class="cls-3" d="M53.9,29.92a2.84,2.84,0,0,0-4,0,3.35,3.35,0,0,0-.83,2.27,2.16,2.16,0,0,0,.83,1.73,8.24,8.24,0,0,1,0,12,2.83,2.83,0,0,0,4,4,14.1,14.1,0,0,0,0-20Z"/></g></g></svg>