<svg id="icons" xmlns="http://www.w3.org/2000/svg" viewBox="0 0 80 80"><defs><style>.cls-1{fill:#2e313a;}.cls-2{fill:#566281;}.cls-3{fill:#edf0f1;}.cls-4{fill:#f8b2b0;}.cls-5{fill:#fff;}.cls-6{fill:#344364;}</style></defs><title>icon-pa</title><g id="icon-pa"><path class="cls-1" d="M5.42,42H3a3,3,0,0,1-3-3V31.41a3,3,0,0,1,3-3H5.42Z"/><path class="cls-2" d="M27.19,47.59,9,46.49a3.79,3.79,0,0,1-3.52-3.78V27.61a3.29,3.29,0,0,1,3.06-3.28l18.64-1.14v24.4Z"/><path class="cls-3" d="M56.94,65.18,30.32,51.87a5.66,5.66,0,0,1-3.13-5.07V23.87a5.68,5.68,0,0,1,3-5L56.8,4.61a5.68,5.68,0,0,1,8.35,5v50.5a5.67,5.67,0,0,1-8.21,5.07"/><path class="cls-4" d="M66.44,28.41H65.08V42h1.36a5.44,5.44,0,0,0,5.42-5.43V33.83a5.44,5.44,0,0,0-5.42-5.42"/><path class="cls-5" d="M75.92,44.68a1.28,1.28,0,0,1-.78-.26,1.36,1.36,0,0,1-.32-1.89,12.65,12.65,0,0,0,2.46-7.31,13.14,13.14,0,0,0-2.46-7.39A1.36,1.36,0,0,1,77,26.27a16,16,0,0,1,3,8.88,15.48,15.48,0,0,1-3,9,1.37,1.37,0,0,1-1.11.57"/><path class="cls-6" d="M10.92,46.61v4.85H15a1.36,1.36,0,1,1,0,2.71H10.92v2.71H15a1.36,1.36,0,1,1,0,2.71H10.92v2.72H15A1.36,1.36,0,1,1,15,65H10.92v2.71H15a1.36,1.36,0,1,1,0,2.71H10.92v.88a4.75,4.75,0,1,0,9.49,0V47.2Z"/><path class="cls-2" d="M16.34,69.08A1.35,1.35,0,0,0,15,67.73H10.92v2.71H15a1.36,1.36,0,0,0,1.36-1.36"/><path class="cls-2" d="M16.34,63.66A1.36,1.36,0,0,0,15,62.3H10.92V65H15a1.36,1.36,0,0,0,1.36-1.36"/><path class="cls-2" d="M16.34,58.24A1.36,1.36,0,0,0,15,56.88H10.92v2.71H15a1.35,1.35,0,0,0,1.36-1.35"/><path class="cls-2" d="M16.34,52.81A1.35,1.35,0,0,0,15,51.46H10.92v2.71H15a1.36,1.36,0,0,0,1.36-1.36"/><path class="cls-2" d="M56.73,4.61,54.23,6V63.86l2.64,1.32a5.67,5.67,0,0,0,8.21-5.07V9.61a5.68,5.68,0,0,0-8.35-5"/><path class="cls-5" d="M41.89,19.67a1.35,1.35,0,0,0-1.82-.61l-6,3a5.4,5.4,0,0,0-2.86,4.77v3a1.36,1.36,0,0,0,2.72,0v-3a2.67,2.67,0,0,1,1.38-2.36l6-3a1.36,1.36,0,0,0,.61-1.82"/><path class="cls-5" d="M32.54,32.48a1.35,1.35,0,0,0-1.36,1.35v2.71a1.36,1.36,0,0,0,2.72,0V33.83a1.35,1.35,0,0,0-1.36-1.35"/></g></svg>