<svg viewBox="0 0 512 512" xmlns="http://www.w3.org/2000/svg" xmlns:xlink="http://www.w3.org/1999/xlink"><linearGradient id="a" gradientUnits="userSpaceOnUse" x1="160.54" x2="351.46" y1="160.54" y2="351.46"><stop offset="0" stop-color="#fff"/><stop offset=".15" stop-color="#b6b5b6"/><stop offset=".85" stop-color="#9c9a9b"/><stop offset="1"/></linearGradient><linearGradient id="b" gradientUnits="userSpaceOnUse" x1="232.25" x2="279.75" y1="232.25" y2="279.75"><stop offset="0" stop-color="#598eca"/><stop offset="1" stop-color="#3468b1"/></linearGradient><g opacity=".5"><path d="m256 509a253 253 0 0 1 -178.9-431.9 253 253 0 0 1 357.8 357.8 251.37 251.37 0 0 1 -178.9 74.1z" fill="#eee"/><path d="m256 6a250.07 250.07 0 0 1 97.31 480.36 250.07 250.07 0 0 1 -194.62-460.72 248.53 248.53 0 0 1 97.31-19.64m0-6c-141.38 0-256 114.62-256 256s114.62 256 256 256 256-114.62 256-256-114.62-256-256-256z" fill="#ccc"/></g><circle cx="256" cy="256" fill="#fff" r="135"/><path d="m256 128.88a127.13 127.13 0 1 1 -89.89 37.23 126.28 126.28 0 0 1 89.89-37.23m0-7.88a135 135 0 1 0 135 135 135 135 0 0 0 -135-135z" fill="url(#a)" opacity=".2"/><path d="m256 123a133 133 0 1 1 -94 39 132.15 132.15 0 0 1 94-39m0-2a135 135 0 1 0 135 135 135 135 0 0 0 -135-135z" opacity=".1"/><path d="m256 289.61a33.61 33.61 0 1 1 33.61-33.61 33.65 33.65 0 0 1 -33.61 33.61zm0-61.11a27.5 27.5 0 1 0 27.5 27.5 27.54 27.54 0 0 0 -27.5-27.5z" fill="url(#b)"/><rect height="22.15" opacity=".3" rx="3.46" width="6.92" x="252.54" y="184.13"/><circle cx="256" cy="169.46" opacity=".3" r="3.46"/></svg>