<svg xmlns="http://www.w3.org/2000/svg" viewBox="0 0 640 512"><defs><style>.cls-1{fill:#efec86;}.cls-2{fill:#419bc2;}.cls-3{fill:#f57e00;}.cls-4{fill:#4db7e5;}.cls-5{fill:#ffb531;}.cls-6{fill:#3d4d63;}.cls-7{fill:#ffcb73;}.cls-8{fill:#ffa912;}.cls-9{fill:#ccccca;}</style></defs><title>dz-01-activate</title><g id="Equipments"><rect class="cls-1" x="2" y="2" width="636" height="508" rx="91.24"/><g id="icon-dozer"><g id="color"><rect class="cls-2" x="181.29" y="83.16" width="90.52" height="12.93"/><rect class="cls-3" x="336.47" y="109.02" width="12.93" height="45.26"/><path class="cls-4" d="M271.81,199.53V189.28l-22.63-22.63-5.13,5.13a6.46,6.46,0,1,1-9.14-9.14l19.4-19.4a6.46,6.46,0,0,1,9.14,9.14l-5.13,5.13L271.81,171V109H181.29v68.44l22.08,22.07Z"/><path class="cls-5" d="M183.05,251.52a43.59,43.59,0,0,1,4.71-.26H388.19a43.25,43.25,0,0,1,4.69.29h.39l23.23-19.36-23.65-16.81a20.2,20.2,0,1,1,7.45-10.59l20.22,14.36V167.21H284.74v32.32a12.93,12.93,0,0,1-12.93,12.94H200.69a6.47,6.47,0,0,1-4.59-1.9l-24-24a12.76,12.76,0,0,1-3.77-9.11V167.21H155.43v61.62l27.25,22.69Z"/><path class="cls-6" d="M169.55,303H156.08a32.41,32.41,0,0,0,31.68,25.86H388.19a32.25,32.25,0,0,0,25.86-12.93H187.76A19.4,19.4,0,0,1,169.55,303Z"/><path class="cls-7" d="M452.84,303V290.05H206.05c.19.54.3,1.13.44,1.7.1.38.23.74.3,1.13a18.21,18.21,0,0,1,0,7.28c-.07.39-.2.75-.3,1.13-.14.56-.25,1.15-.44,1.69H452.84Z"/><polygon class="cls-8" points="491.64 256.87 465.81 274.1 465.78 322.38 491.64 322.38 491.64 256.87"/><path class="cls-7" d="M381.72,193.07a6.47,6.47,0,1,0,6.47,6.46A6.46,6.46,0,0,0,381.72,193.07Z"/><path class="cls-6" d="M411.05,273.71a31.68,31.68,0,0,0-17-9,30,30,0,0,0-5.82-.54H187.76a29,29,0,0,0-5.73.52,32.31,32.31,0,0,0-25.89,25.34h13.41a19.41,19.41,0,0,1,18.21-12.93H414.05A29.4,29.4,0,0,0,411.05,273.71Z"/><circle class="cls-9" cx="187.76" cy="296.52" r="6.47"/></g><path d="M511,322.38h-6.46V251.26H511a6.47,6.47,0,1,0,0-12.93H498.1a.21.21,0,0,0-.11,0,6.39,6.39,0,0,0-2.2.44c-.18.07-.34.16-.51.24a7.85,7.85,0,0,0-.77.38L471.06,255l-37.61-26.67V167.21a12.93,12.93,0,0,0-12.93-12.93H362.33V109A12.93,12.93,0,0,0,349.4,96.09V89.62A19.41,19.41,0,0,0,330,70.22a6.47,6.47,0,0,0,0,12.94,6.47,6.47,0,0,1,6.47,6.46v6.47A12.93,12.93,0,0,0,323.53,109v45.26H284.74V83.16a12.93,12.93,0,0,0-12.93-12.94H181.29a12.93,12.93,0,0,0-12.93,12.94v71.12H155.43a12.93,12.93,0,0,0-12.93,12.93v64.65a6.44,6.44,0,0,0,2.33,5l23,19.21a45.17,45.17,0,0,0,19.88,85.74H388.19a45,45,0,0,0,40.73-25.87h23.92v6.47a12.93,12.93,0,0,0,12.94,12.93H511a6.47,6.47,0,1,0,0-12.93Zm-52.43-59a13,13,0,0,0-5.76,10.79v3H429.05a43.51,43.51,0,0,0-8.85-12.56,44.69,44.69,0,0,0-12-8.6l19.25-16,32.12,22.81ZM336.47,109H349.4v45.26H336.47ZM181.29,177.46V109h90.52v62l-13.49-13.49,5.13-5.13a6.46,6.46,0,0,0-9.14-9.14l-19.4,19.4a6.46,6.46,0,1,0,9.14,9.14l5.13-5.13,22.63,22.63v10.25H203.37Zm0-94.3h90.52V96.09H181.29Zm-25.86,84.05h12.93v10.28a12.76,12.76,0,0,0,3.77,9.11l24,24a6.47,6.47,0,0,0,4.59,1.9h71.12a12.93,12.93,0,0,0,12.93-12.94V167.21H420.52v51.94L400.3,204.79a19.39,19.39,0,1,0-7.45,10.59l23.65,16.81-23.23,19.36h-.39a43.25,43.25,0,0,0-4.69-.29H187.76a43.59,43.59,0,0,0-4.71.26h-.37l-27.25-22.69ZM381.72,206a6.47,6.47,0,1,1,6.47-6.47A6.46,6.46,0,0,1,381.72,206ZM182,264.71a29,29,0,0,1,5.73-.52H388.19a30,30,0,0,1,5.82.54,31.68,31.68,0,0,1,17,9,29.4,29.4,0,0,1,3,3.41H187.76a19.41,19.41,0,0,0-18.21,12.93H156.14A32.31,32.31,0,0,1,182,264.71Zm-.74,31.81a6.47,6.47,0,1,1,6.47,6.46A6.47,6.47,0,0,1,181.29,296.52Zm206.9,32.32H187.76A32.41,32.41,0,0,1,156.08,303h13.47a19.4,19.4,0,0,0,18.21,12.93H414.05A32.25,32.25,0,0,1,388.19,328.84ZM424.72,303H206.05c.19-.54.3-1.13.44-1.69.1-.38.23-.74.3-1.13a18.21,18.21,0,0,0,0-7.28c-.07-.39-.2-.75-.3-1.13-.14-.57-.25-1.16-.44-1.7H452.84V303Zm41.09-28.88,25.83-17.23v65.51H465.78Z"/><path d="M304.14,193.07h19.39a6.47,6.47,0,1,0,0-12.93H304.14a6.47,6.47,0,1,0,0,12.93Z"/><path d="M304.14,212.47h19.39a6.47,6.47,0,1,0,0-12.94H304.14a6.47,6.47,0,1,0,0,12.94Z"/><path d="M258.88,238.33h19.4a6.47,6.47,0,0,0,0-12.93h-19.4a6.47,6.47,0,1,0,0,12.93Z"/></g><path d="M280.88,443.74V394h15.31a23.24,23.24,0,0,1,11.74,3,20.57,20.57,0,0,1,8.09,8.41,26,26,0,0,1,2.9,12.39V420a26,26,0,0,1-2.85,12.34,20.42,20.42,0,0,1-8.05,8.37,23.41,23.41,0,0,1-11.72,3Zm10.25-41.46V435.5h5q6,0,9.19-3.93t3.25-11.24V417.7q0-7.59-3.14-11.51t-9.2-3.91Z"/><path d="M336.46,435.5h25.08v8.24h-37.9v-6l24.61-35.44H323.67V394H361v5.88Z"/></g></svg>