<svg viewBox="0 0 512 512" xmlns="http://www.w3.org/2000/svg"><g opacity=".5"><path d="m256 509a253 253 0 0 1 -178.9-431.9 253 253 0 0 1 357.8 357.8 251.37 251.37 0 0 1 -178.9 74.1z" fill="#eee"/><path d="m256 6a250.07 250.07 0 0 1 97.31 480.36 250.07 250.07 0 0 1 -194.62-460.72 248.53 248.53 0 0 1 97.31-19.64m0-6c-141.38 0-256 114.62-256 256s114.62 256 256 256 256-114.62 256-256-114.62-256-256-256z" fill="#ccc"/></g><path d="m374.12 206.8a81.86 81.86 0 0 0 -65.62-32.8h-176.09a10.93 10.93 0 0 0 -10.94 10.93v125.78a10.93 10.93 0 0 0 10.94 10.93h247.18a10.93 10.93 0 0 0 10.94-10.93v-38.29z" fill="#ffb531"/><path d="m390.53 256v16.4h-49.22v-65.6h32.82a81.63 81.63 0 0 1 16.4 49.2z" fill="#4db7e5"/><path d="m354.44 321.64a16.41 16.41 0 1 1 -16.44-16.4 16.41 16.41 0 0 1 16.44 16.4z" fill="#7c8388"/><path d="m256 239.61h49.22v82h-49.22z" fill="#deecf1"/><path d="m256 206.8h49.22v32.81h-49.22z" fill="#ccccca" stroke="#000" stroke-miterlimit="10" stroke-width="10"/><path d="m225.37 321.64a16.41 16.41 0 1 1 -16.4-16.4 16.4 16.4 0 0 1 16.4 16.4z" fill="#7c8388"/><path d="m176.16 321.64a16.41 16.41 0 1 1 -16.41-16.4 16.41 16.41 0 0 1 16.41 16.4z" fill="#7c8388"/><path d="m121.47 206.8v65.62h98.44v-65.62z" fill="#4db7e5"/><path d="m209.52 168.52h-77.11a16.42 16.42 0 0 0 -16.41 16.4v125.79a16.42 16.42 0 0 0 16.41 16.4h6.16a21.87 21.87 0 0 0 42.36 0h6.86a21.87 21.87 0 0 0 42.36 0h86.7a21.87 21.87 0 0 0 42.36 0h20.38a16.42 16.42 0 0 0 16.41-16.4v-54.71a87.5 87.5 0 0 0 -87.5-87.5h-99zm49.21 10.94h49.77a75.82 75.82 0 0 1 53.6 21.87h-20.79a5.47 5.47 0 0 0 -5.47 5.47v65.62a5.46 5.46 0 0 0 5.47 5.47h43.75v32.82a5.47 5.47 0 0 1 -5.47 5.46h-20.38a21.88 21.88 0 0 0 -42.36 0h-6.16v-109.37a5.47 5.47 0 0 0 -5.47-5.47h-49.22a5.47 5.47 0 0 0 -5.47 5.47v109.37h-20.38a21.88 21.88 0 0 0 -42.36 0h-6.86a21.88 21.88 0 0 0 -42.36 0h-6.16a5.47 5.47 0 0 1 -5.47-5.46v-32.82h93a5.46 5.46 0 0 0 5.46-5.47v-65.62a5.46 5.46 0 0 0 -5.46-5.47h-93v-16.41a5.47 5.47 0 0 1 5.47-5.46zm-44.29 87.54h-38.28v-54.73h38.28zm-49.22-54.69v54.69h-38.28v-54.73zm134.53 0v21.87h-38.28v-21.91zm-140 120.31a10.94 10.94 0 1 1 10.94-10.94 11 11 0 0 1 -10.94 10.9zm49.22 0a10.94 10.94 0 1 1 10.94-10.94 11 11 0 0 1 -10.91 10.9zm52.5-87.5h38.28v71.09h-38.28zm76.53 87.46a10.94 10.94 0 1 1 11-10.94 11 11 0 0 1 -11 10.94zm47-65.62h-38.22v-54.69h24.55a75.83 75.83 0 0 1 13.73 43.73z"/></svg>