<svg viewBox="0 0 512 512" xmlns="http://www.w3.org/2000/svg"><g opacity=".5"><path d="m256 509a253 253 0 0 1 -178.9-431.9 253 253 0 0 1 357.8 357.8 251.37 251.37 0 0 1 -178.9 74.1z" fill="#eee"/><path d="m256 6a250.07 250.07 0 0 1 97.31 480.36 250.07 250.07 0 0 1 -194.62-460.72 248.53 248.53 0 0 1 97.31-19.64m0-6c-141.38 0-256 114.62-256 256s114.62 256 256 256 256-114.62 256-256-114.62-256-256-256z" fill="#ccc"/></g><path d="m251.11 252 32.4 8.09 11.37-28.47 18.4-46h-132.28a14.34 14.34 0 0 0 -12.93 8l-16.7 33.4 12.35 3.09 86.39 21.54a9.1 9.1 0 0 1 1 .35z" fill="#ffb531"/><path d="m371.32 302.48-116.86-29.14-.12.48-3.25 13.06 116.85 29.13z" fill="#ccccca"/><path d="m139 236.39-18.86-4.7-7.14 28.92 124.55 31.06 7.12-28.54-103.77-25.93a6.22 6.22 0 0 1 -1.9-.81z" fill="#4db7e5"/><path d="m410.33 312.94a8.94 8.94 0 0 0 -5.53-4.1l-21.37-5.33.14-.59a9.47 9.47 0 0 0 -6.89-11.47l-84.1-21a5.45 5.45 0 0 0 .37-.77l11.12-27.79 4.13-10.34 24.58-61.44h37.22a6.18 6.18 0 0 0 0-12.35h-37.94a11.21 11.21 0 0 0 -10.49 7.14l-3.35 8.38h-137.22a26.89 26.89 0 0 0 -24 14.88l-17.92 35.84-18.46-4.6a9.46 9.46 0 0 0 -11.47 6.89l-8.49 34.08a9.24 9.24 0 0 0 6.72 11.19l129.93 32.44a9.21 9.21 0 0 0 10.78-5.49l119.64 29.84a9.57 9.57 0 0 0 2.23.27 9.25 9.25 0 0 0 9-7l.2-.83 21.57 5.38a9.21 9.21 0 0 0 2.14.26 8.8 8.8 0 0 0 8.52-6.67 8.94 8.94 0 0 0 -1.06-6.82zm-259-85.86 16.7-33.4a14.34 14.34 0 0 1 12.93-8h132.32l-18.4 46-11.37 28.47-32.4-8.15a9.1 9.1 0 0 0 -1-.32l-86.39-21.54zm86.16 64.59-124.49-31.06 7.21-28.92 18.86 4.7a6.22 6.22 0 0 0 1.86.81l103.74 25.93zm130.42 24.33-116.82-29.12 3.25-13.06.12-.48 116.86 29.14z"/><circle cx="178.22" cy="318.21" fill="#3d4d63" r="31.23"/><circle cx="178.22" cy="318.21" fill="#ccccca" r="16.31"/><path d="m178.22 283.21a35 35 0 1 0 35 35 35 35 0 0 0 -35-35zm0 62.22a27.23 27.23 0 1 1 27.22-27.22 27.22 27.22 0 0 1 -27.22 27.22z"/><path d="m178.22 298.76a19.45 19.45 0 1 0 19.45 19.45 19.44 19.44 0 0 0 -19.45-19.45zm0 31.11a11.67 11.67 0 1 1 11.67-11.66 11.67 11.67 0 0 1 -11.67 11.66z"/><circle cx="279.22" cy="318.21" fill="#3d4d63" r="31.23"/><circle cx="279.22" cy="318.21" fill="#ccccca" r="16.31"/><path d="m279.22 283.21a35 35 0 1 0 35 35 35 35 0 0 0 -35-35zm0 62.22a27.23 27.23 0 1 1 27.22-27.22 27.22 27.22 0 0 1 -27.22 27.22z"/><path d="m279.22 298.76a19.45 19.45 0 1 0 19.45 19.45 19.44 19.44 0 0 0 -19.45-19.45zm0 31.11a11.67 11.67 0 1 1 11.67-11.66 11.67 11.67 0 0 1 -11.67 11.66z"/></svg>