<svg viewBox="0 0 512 512" xmlns="http://www.w3.org/2000/svg"><circle cx="256" cy="256" fill="rgb(0, 129, 44)" r="256"/><path d="m242.8 304.4h26.4v44h-26.4z" fill="#9196a9"/><path d="m234 339.6h44v22h-44z" fill="#bf5b00"/><path d="m185.6 357.2h140.8a13.2 13.2 0 1 1 0 26.4h-140.8a13.2 13.2 0 1 1 0-26.4z" fill="#edeff2"/><path d="m348.4 220.8a92.4 92.4 0 1 1 -92.4-92.4 92.4 92.4 0 0 1 92.4 92.4z" fill="#edeff2"/><path d="m316.72 151.28a92.31 92.31 0 0 1 -130.24 130.24 92.32 92.32 0 1 0 130.24-130.24z" fill="#dadee5"/><g fill="#e38100"><path d="m330.8 220.8a35.12 35.12 0 0 0 13.4 27.6 92.79 92.79 0 0 0 0-55.2 35.12 35.12 0 0 0 -13.4 27.6z"/><path d="m313.2 220.8a57.2 57.2 0 1 1 -57.2-57.2 57.2 57.2 0 0 1 57.2 57.2z"/><path d="m167.8 248.4a35.12 35.12 0 0 0 0-55.2 92.79 92.79 0 0 0 0 55.2z"/></g><path d="m348 212.59c-.14-1.61-.32-3.21-.55-4.79-.07-.55-.14-1.1-.23-1.64q-.47-3-1.13-5.89c-.13-.6-.3-1.18-.44-1.76-.33-1.36-.7-2.7-1.1-4-.12-.42-.25-.83-.38-1.24a36 36 0 0 0 -5.61 5.56 89.19 89.19 0 0 1 -2.88 39.76 35.55 35.55 0 0 0 8.52 9.84c.09-.3.16-.61.25-.91.7-2.32 1.3-4.66 1.81-7 .19-.88.35-1.76.51-2.64.36-2 .66-3.93.88-5.93.11-.87.22-1.71.3-2.57.26-2.81.44-5.64.44-8.51 0-2.15-.1-4.27-.25-6.38-.03-.69-.08-1.29-.14-1.9z" fill="#bf5b00"/><path d="m327.47 357.31a13.14 13.14 0 0 1 -9.87 21.89h-140.8c-.37 0-.7-.08-1.06-.11a13.1 13.1 0 0 0 9.86 4.51h140.8a13.17 13.17 0 0 0 1.07-26.29z" fill="#bec3d1"/><path d="m282.4 220.8a26.4 26.4 0 1 1 -26.4-26.4 26.4 26.4 0 0 1 26.4 26.4z" fill="#dce1ea"/><path d="m272.32 200.08a26.37 26.37 0 0 1 -37 37 26.38 26.38 0 1 0 37-37z" fill="#bec3d1"/><path d="m264.8 220.8a8.8 8.8 0 1 1 -8.8-8.8 8.8 8.8 0 0 1 8.8 8.8z" fill="#9196a9"/><path d="m317.6 220.8a61.6 61.6 0 1 0 -61.6 61.6 61.6 61.6 0 0 0 61.6-61.6zm-114.4 0a52.8 52.8 0 1 1 52.8 52.8 52.8 52.8 0 0 1 -52.8-52.8z"/><path d="m286.8 220.8a30.8 30.8 0 1 0 -30.8 30.8 30.8 30.8 0 0 0 30.8-30.8zm-52.8 0a22 22 0 1 1 22 22 22 22 0 0 1 -22-22z"/><path d="m219.52 223.92a4.44 4.44 0 0 0 0-6.24 4.39 4.39 0 0 0 -4.79-.93 4.61 4.61 0 0 0 -1.45.93 4.41 4.41 0 1 0 6.24 6.24z"/><path d="m222.47 234.35a4.39 4.39 0 0 0 -3.34 0 5.13 5.13 0 0 0 -1.45.93 4.44 4.44 0 0 0 0 6.24 4.92 4.92 0 0 0 1.45.93 4.13 4.13 0 0 0 3.34 0 4.35 4.35 0 0 0 1.45-7.17 4.61 4.61 0 0 0 -1.45-.93z"/><path d="m220.8 207.6a4.54 4.54 0 0 0 1.67-.35 4.8 4.8 0 0 0 1.45-.93 4.44 4.44 0 0 0 0-6.24 5 5 0 0 0 -1.45-.93 4.46 4.46 0 0 0 -4.79.93 5.13 5.13 0 0 0 -.93 1.45 4.58 4.58 0 0 0 -.35 1.67 4.52 4.52 0 0 0 1.28 3.12 4.61 4.61 0 0 0 3.12 1.28z"/><path d="m293.93 216.75a5.13 5.13 0 0 0 -1.45.93 4.44 4.44 0 0 0 0 6.24 4.92 4.92 0 0 0 1.45.93 4.35 4.35 0 0 0 4.79-.93 6.74 6.74 0 0 0 .53-.7 2.36 2.36 0 0 0 .4-.75 2.72 2.72 0 0 0 .26-.79 6.4 6.4 0 0 0 .09-.88 4.61 4.61 0 0 0 -1.28-3.12 4.39 4.39 0 0 0 -4.79-.93z"/><path d="m288.08 235.28a4.4 4.4 0 1 0 6.24 0 4.61 4.61 0 0 0 -6.24 0z"/><path d="m291.2 207.6a4.61 4.61 0 0 0 3.12-1.28 6.74 6.74 0 0 0 .53-.7 2.36 2.36 0 0 0 .4-.75 2.72 2.72 0 0 0 .26-.79 6.4 6.4 0 0 0 .09-.88 4.4 4.4 0 1 0 -4.4 4.4z"/><path d="m269.2 220.8a13.2 13.2 0 1 0 -13.2 13.2 13.2 13.2 0 0 0 13.2-13.2zm-17.6 0a4.4 4.4 0 1 1 4.4 4.4 4.4 4.4 0 0 1 -4.4-4.4z"/><path d="m252.88 149.12a4.61 4.61 0 0 0 3.12 1.28 4.54 4.54 0 0 0 1.67-.35 4.8 4.8 0 0 0 1.45-.93 5 5 0 0 0 .93-1.45 4.35 4.35 0 0 0 -.93-4.79 5 5 0 0 0 -1.45-.93 4.46 4.46 0 0 0 -4.79.93 4.61 4.61 0 0 0 -1.28 3.12 4.54 4.54 0 0 0 .35 1.67 5 5 0 0 0 .93 1.45z"/><path d="m348.37 249.77v-.05c.05-.14.07-.27.11-.41.59-1.9 1.1-3.83 1.57-5.78.14-.58.28-1.18.41-1.75.44-2.07.88-4.15 1.2-6.26 0-.09 0-.19 0-.29.31-2 .53-4.12.71-6.21.05-.55.09-1.1.13-1.65.14-2.17.24-4.37.24-6.57s-.1-4.4-.24-6.55c0-.55-.08-1.1-.13-1.65-.18-2.09-.4-4.16-.71-6.21a2.58 2.58 0 0 0 0-.29c-.33-2.11-.74-4.19-1.2-6.26-.13-.59-.27-1.18-.41-1.76-.47-1.94-1-3.87-1.57-5.77 0-.14-.06-.27-.11-.41v-.05a96.8 96.8 0 0 0 -184.74 0c0 .14-.07.28-.11.41q-.87 2.85-1.57 5.78c-.14.59-.28 1.18-.41 1.76-.44 2.06-.88 4.14-1.2 6.25a2.85 2.85 0 0 1 0 .29c-.31 2-.53 4.12-.71 6.21 0 .55-.09 1.1-.12 1.66-.15 2.16-.25 4.36-.25 6.56s.1 4.4.25 6.55c0 .55.08 1.1.12 1.65.18 2.09.4 4.16.71 6.22a2.66 2.66 0 0 0 0 .28c.33 2.11.74 4.19 1.2 6.26.13.59.27 1.19.41 1.76.47 1.94 1 3.87 1.57 5.77l.11.41v.05a97.11 97.11 0 0 0 74.77 66.28v19.2h-4.4a4.4 4.4 0 0 0 -4.4 4.4v13.2h-44a17.6 17.6 0 0 0 0 35.2h140.8a17.6 17.6 0 1 0 0-35.2h-44v-13.2a4.4 4.4 0 0 0 -4.4-4.4h-4.4v-19.2a97.12 97.12 0 0 0 74.77-66.23zm-6.26-47.08c.07.34.13.68.2 1 .51 2.6.93 5.22 1.2 7.89 0 .24 0 .47.06.7.27 2.8.44 5.63.44 8.5a85 85 0 0 1 -.44 8.5c0 .23 0 .46-.06.7-.27 2.67-.69 5.28-1.2 7.89-.07.34-.13.68-.2 1s-.18.65-.26 1a30.72 30.72 0 0 1 0-38.18c.08.31.15.67.26 1zm-172.22 36.22c-.07-.34-.13-.68-.19-1-.52-2.6-.93-5.22-1.21-7.89 0-.24 0-.47-.06-.7-.27-2.78-.43-5.63-.43-8.5a85 85 0 0 1 .44-8.5 5.67 5.67 0 0 1 .06-.7c.28-2.67.69-5.28 1.2-7.89.07-.34.13-.68.2-1s.18-.65.26-1a30.72 30.72 0 0 1 0 38.18c-.09-.35-.16-.67-.27-1zm3.11 10.78a39.36 39.36 0 0 0 0-57.78 87.87 87.87 0 0 1 166.06 0 39.36 39.36 0 0 0 0 57.78 87.87 87.87 0 0 1 -166.06 0zm162.2 120.71a8.8 8.8 0 0 1 -8.8 8.8h-140.8a8.8 8.8 0 1 1 0-17.6h140.8a8.8 8.8 0 0 1 8.8 8.8zm-96.8-17.6v-8.8h35.2v8.8zm26.4-17.6h-17.6v-18c2.9.27 5.83.42 8.8.42s5.9-.15 8.8-.42z"/></svg>