<svg xmlns="http://www.w3.org/2000/svg" viewBox="0 0 768 512"><defs><style>.cls-1{fill:#32b784;}.cls-11,.cls-2,.cls-4{fill:#ccccca;}.cls-11,.cls-2,.cls-3{stroke:#000;stroke-miterlimit:10;}.cls-2,.cls-3{stroke-width:10px;}.cls-3{fill:#fff;}.cls-5{fill:#9b9b9b;}.cls-6{fill:#ffb531;}.cls-7{fill:#3d4d63;}.cls-8{fill:#4db7e5;}.cls-9{fill:#f57e00;}.cls-10{fill:#2accf2;}.cls-11{stroke-width:5px;}.cls-12{fill:#ffcb73;}</style></defs><title>cpu-01-activate</title><g id="Equipments"><rect class="cls-1" x="2" y="2" width="764" height="508" rx="100"/><g id="icon-mobile_production-unit"><path class="cls-2" d="M231.29,140.63a68.26,68.26,0,1,0,68.26,68.26A68.27,68.27,0,0,0,231.29,140.63Z"/><path class="cls-3" d="M231.29,184.92a24,24,0,1,0,24,24A24,24,0,0,0,231.29,184.92Z"/><rect class="cls-4" x="384.73" y="304.08" width="55.33" height="28.09" rx="7.24"/><path class="cls-5" d="M488.18,311.74a47.16,47.16,0,0,1,14.55-28.09H349.31a47.16,47.16,0,0,1,14.55,28.09H372v-.42a20,20,0,0,1,20-20h40.86a20,20,0,0,1,20,20v.42Z"/><path class="cls-6" d="M602.66,270.45v6.81a.45.45,0,0,0,.42.43h7.24V270h-7.24A.45.45,0,0,0,602.66,270.45Z"/><circle class="cls-7" cx="534.98" cy="318.13" r="34.48" transform="translate(36.34 690.64) rotate(-67.5)"/><path class="cls-6" d="M541.79,222.36A26.85,26.85,0,0,1,515,195.54v-34a6.38,6.38,0,0,1,6.38-6.38h62.48l-.43-1.11A21,21,0,0,0,564,140.63H507.74a7.24,7.24,0,0,0-7.23,7.24v123H535a47.3,47.3,0,0,1,46.81,40.93,6.23,6.23,0,0,1,.86-.07h27.24a.42.42,0,0,0,.43-.42V290.46h-7.24a13.21,13.21,0,0,1-13.19-13.2v-6.81a13.21,13.21,0,0,1,13.19-13.19h7.24V224l-.62-1.61Z"/><circle class="cls-7" cx="317.06" cy="318.13" r="34.48" transform="translate(-98.18 489.31) rotate(-67.5)"/><path class="cls-5" d="M284.8,283.65H267.59a47.65,47.65,0,0,1,8.61,10.8A47.34,47.34,0,0,1,284.8,283.65Z"/><path class="cls-8" d="M541.79,209.59h63l-16-41.71h-61v27.66A14.06,14.06,0,0,0,541.79,209.59Z"/><path class="cls-9" d="M459.65,270.88h28.09v-123c0-.14,0-.28,0-.42h-28.1Z"/><path class="cls-10" d="M306.28,270.88h140.6V120.63a.43.43,0,0,0-.43-.43H306.28a.43.43,0,0,0-.42.43V270.45A.42.42,0,0,0,306.28,270.88Z"/><circle class="cls-7" cx="235.34" cy="318.13" r="34.48" transform="translate(-47.92 41.8) rotate(-9.22)"/><path class="cls-11" d="M235.34,303.13a15,15,0,1,0,15,15A15,15,0,0,0,235.34,303.13Z"/><path class="cls-11" d="M317.06,303.13a15,15,0,1,0,15,15A15,15,0,0,0,317.06,303.13Z"/><path class="cls-11" d="M535,303.13a15,15,0,1,0,15,15A15,15,0,0,0,535,303.13Z"/><path d="M610.32,277.69h-7.24a.45.45,0,0,1-.42-.43v-6.81a.45.45,0,0,1,.42-.42h7.24Zm-5.53-68.1h-63a14.06,14.06,0,0,1-14-14.05V167.88h61Zm-117-62.14c0,.14,0,.28,0,.42v123H459.65V147.45Zm-299.66,123a13.21,13.21,0,0,0,13.19,13.2h1.8A47.22,47.22,0,1,0,276.2,341.8a47.22,47.22,0,0,0,87.66-17.29H372v.43a20,20,0,0,0,20,20h40.86a20,20,0,0,0,20-20v-.43h35.34a47.23,47.23,0,0,0,93.61-.07,6.23,6.23,0,0,0,.86.07H609.9a13.2,13.2,0,0,0,13.19-13.2V222.78c0-.05,0-.1,0-.15s0-.27,0-.4l0-.27c0-.12,0-.23,0-.34s-.05-.23-.07-.34a2,2,0,0,1-.07-.26c0-.13-.08-.26-.13-.39s0-.09-.05-.14l-27.33-71.07A33.62,33.62,0,0,0,564,127.87H507.74a20,20,0,0,0-15,6.81H480.08V95a26.82,26.82,0,0,0-7.86-19l-7.44-7.44A6.57,6.57,0,0,0,456,68a6.38,6.38,0,0,0-.46,9.45l7.63,7.64A14,14,0,0,1,467.31,95v39.64h-7.66l-12.77.16v136H201.28a.42.42,0,0,1-.42-.43V190.64a6.4,6.4,0,0,0-6.4-6.4h0a6.4,6.4,0,0,0-6.39,6.4Zm96.71,13.2a47.34,47.34,0,0,0-8.6,10.8,47.65,47.65,0,0,0-8.61-10.8Zm-49.46,69a34.48,34.48,0,1,1,34.47-34.47A34.51,34.51,0,0,1,235.34,352.6Zm81.72,0a34.48,34.48,0,1,1,34.47-34.47A34.51,34.51,0,0,1,317.06,352.6Zm123-27.66a7.24,7.24,0,0,1-7.24,7.23H392a7.24,7.24,0,0,1-7.24-7.23V311.31a7.24,7.24,0,0,1,7.24-7.23h40.86a7.24,7.24,0,0,1,7.24,7.23Zm-7.24-33.63H392a20,20,0,0,0-20,20v.43h-8.1a47.16,47.16,0,0,0-14.55-28.09H502.73a47.16,47.16,0,0,0-14.55,28.09H452.84v-.43A20,20,0,0,0,432.83,291.31ZM535,352.6a34.48,34.48,0,1,1,34.48-34.47A34.5,34.5,0,0,1,535,352.6Zm74.92-40.86H582.65a6.23,6.23,0,0,0-.86.07A47.3,47.3,0,0,0,535,270.88H500.51v-123a7.24,7.24,0,0,1,7.23-7.24H564A21,21,0,0,1,583.41,154l.43,1.11H521.36a6.38,6.38,0,0,0-6.38,6.38v34a26.85,26.85,0,0,0,26.81,26.82H609.7l.62,1.61v33.29h-7.24a13.21,13.21,0,0,0-13.19,13.19v6.81a13.21,13.21,0,0,0,13.19,13.2h7.24v20.85A.42.42,0,0,1,609.9,311.74Z"/><path d="M398.78,311.74a6.38,6.38,0,1,0,4.51,1.87A6.38,6.38,0,0,0,398.78,311.74Z"/><path d="M326.72,174.69H426a6.39,6.39,0,0,0,0-12.77h-99.3a6.39,6.39,0,1,0,0,12.77Z"/><path d="M326.72,229.17H426a6.39,6.39,0,0,0,0-12.77h-99.3a6.39,6.39,0,1,0,0,12.77Z"/><path d="M305.86,271.31V120.2a6.39,6.39,0,0,0-12.77,0V271.31a6.39,6.39,0,0,0,12.77,0Z"/><path d="M459.65,271.31V120.2a6.39,6.39,0,0,0-12.77,0V271.31a6.39,6.39,0,0,0,12.77,0Z"/><path d="M299.47,126.59H453.26a6.39,6.39,0,1,0,0-12.77H299.47a6.39,6.39,0,0,0,0,12.77Z"/><path d="M156.08,262.54h12.8v27.82l12.79-4.15V262.54h6.4a12.79,12.79,0,0,0,12.79-12.79V205a6.4,6.4,0,0,0-12.79,0v6.4H117.71V205a6.4,6.4,0,0,0-12.8,0v12.91a6.46,6.46,0,0,0,.44,2.17c.07.18.16.34.24.51a7.6,7.6,0,0,0,.37.76l15.47,23.19,7.63,11.4.62.94a12.87,12.87,0,0,0,10.67,5.69h15.73Z"/><polygon class="cls-12" points="140.3 249.72 123.26 224.16 188.07 224.16 188.07 249.75 140.3 249.72"/></g><path d="M359,437.16q-.58,8-5.93,12.65T339,454.42q-9.57,0-15.06-6.44t-5.48-17.69v-3A29.89,29.89,0,0,1,321,414.61a19,19,0,0,1,7.23-8.4,20.35,20.35,0,0,1,10.92-2.92q8.63,0,13.88,4.62t6.09,12.95H348.81q-.37-4.82-2.68-7t-7-2.17c-3.41,0-6,1.23-7.67,3.67s-2.57,6.25-2.61,11.4v3.76q0,8.07,2.44,11.79t7.71,3.73c3.16,0,5.53-.72,7.09-2.17s2.45-3.68,2.68-6.72Z"/><path d="M376,436.21v17.53H365.73V404h19.41A22.46,22.46,0,0,1,395,406a15.14,15.14,0,0,1,6.54,5.82,16.24,16.24,0,0,1,2.29,8.6q0,7.32-5,11.53T385,436.21Zm0-8.31h9.16a9,9,0,0,0,6.21-1.91,7,7,0,0,0,2.13-5.47,8.17,8.17,0,0,0-2.15-5.91,8,8,0,0,0-5.95-2.33H376Z"/><path d="M448.55,404v32.78q0,8.17-5.11,12.92t-14,4.75q-8.73,0-13.85-4.61t-5.23-12.68V404h10.26v32.85q0,4.89,2.34,7.13a9,9,0,0,0,6.48,2.24q8.64,0,8.78-9.09V404Z"/></g></svg>