<svg xmlns="http://www.w3.org/2000/svg" viewBox="0 0 764 508"><defs><style>.cls-1{fill:#75eac0;}.cls-2,.cls-8{fill:#ccccca;}.cls-3{fill:#ffb531;}.cls-4{fill:#3d4d63;}.cls-5{fill:#f7f2eb;}.cls-6{fill:#4db7e5;}.cls-7{fill:#d8d6d4;}.cls-8{stroke:#000;stroke-miterlimit:10;stroke-width:5px;}</style></defs><title>exv-01-activate</title><g id="Equipments"><rect class="cls-1" width="764" height="508" rx="100"/><path d="M351.34,420.17H331.65V433.5h23.11v8.24H321.4V392h33.29v8.31h-23v11.86h19.69Z"/><path d="M378.58,409.13,387.91,392H399.7l-14.49,24.68,14.87,25.09H388.15l-9.57-17.43L369,441.74H357.08L372,416.65,357.46,392h11.79Z"/><path d="M424.11,429.4,435.39,392H446.8l-17.32,49.77h-10.7L401.52,392H412.9Z"/><g id="icon-mobile_production-unit"><rect class="cls-2" x="331.14" y="287.5" width="55.33" height="28.09" rx="7.24"/><path class="cls-2" d="M434.59,295.17a47.21,47.21,0,0,1,14.55-28.1H295.72a47.21,47.21,0,0,1,14.55,28.1h8.1v-.43a20,20,0,0,1,20-20h40.86a20,20,0,0,1,20,20v.43Z"/><path class="cls-3" d="M549.07,253.88v6.81a.45.45,0,0,0,.43.43h7.23v-7.67H549.5A.45.45,0,0,0,549.07,253.88Z"/><circle class="cls-4" cx="481.39" cy="301.55" r="34.48" transform="translate(18.58 630.9) rotate(-67.5)"/><path class="cls-5" d="M488.2,205.78A26.84,26.84,0,0,1,461.39,179V144.92a6.39,6.39,0,0,1,6.38-6.39h62.48l-.43-1.1a21,21,0,0,0-19.46-13.37H454.15a7.24,7.24,0,0,0-7.23,7.24v123h34.47a47.3,47.3,0,0,1,46.81,40.92,6.22,6.22,0,0,1,.86-.06h27.25a.43.43,0,0,0,.42-.43V273.88H549.5a13.2,13.2,0,0,1-13.2-13.19v-6.81a13.21,13.21,0,0,1,13.2-13.2h7.23V207.39l-.62-1.61Z"/><circle class="cls-4" cx="263.47" cy="301.55" r="34.48" transform="translate(-115.95 429.56) rotate(-67.5)"/><path class="cls-6" d="M488.2,193h63l-16-41.71h-61V179A14.06,14.06,0,0,0,488.2,193Z"/><path class="cls-7" d="M406.06,254.31h28.09v-123c0-.15,0-.29,0-.43h-28.1Z"/><path class="cls-5" d="M207.71,254.31H403.29V118.1a.44.44,0,0,0-.45-.42H207.71a.43.43,0,0,0-.44.42V253.88A.44.44,0,0,0,207.71,254.31Z"/><path class="cls-8" d="M263.47,286.55a15,15,0,1,0,15,15A15,15,0,0,0,263.47,286.55Z"/><path class="cls-8" d="M481.39,286.55a15,15,0,1,0,15,15A15,15,0,0,0,481.39,286.55Z"/><path d="M222.61,325.22a47.22,47.22,0,0,0,87.66-17.28h8.1v.42a20,20,0,0,0,20,20h40.86a20,20,0,0,0,20-20v-.42h35.34a47.23,47.23,0,0,0,93.61-.07,6.23,6.23,0,0,0,.86.07h27.25a13.21,13.21,0,0,0,13.19-13.2V206.21c0-.05,0-.1,0-.15s0-.27,0-.41l0-.27c0-.11,0-.22-.05-.34s0-.22-.07-.33-.05-.18-.07-.26-.08-.26-.13-.39,0-.1,0-.14l-27.33-71.07a33.82,33.82,0,0,0-31.38-21.56H454.15a20,20,0,0,0-15,6.81H416.06a13.21,13.21,0,0,0-13.2-13.19H207.7a13.21,13.21,0,0,0-13.2,13.19V253.88a13.2,13.2,0,0,0,13.19,13.19h23.52S203.73,290.08,222.61,325.22Zm334.12-64.1H549.5a.45.45,0,0,1-.43-.43v-6.81a.45.45,0,0,1,.43-.43h7.23ZM551.2,193h-63a14.06,14.06,0,0,1-14-14V151.3h61Zm-117-62.14c0,.14,0,.28,0,.43v123H416.06V130.87ZM207.69,254.31a.43.43,0,0,1-.42-.43V118.1a.42.42,0,0,1,.42-.42H402.86a.42.42,0,0,1,.43.42V254.31ZM263.47,336a34.48,34.48,0,1,1,34.47-34.48A34.52,34.52,0,0,1,263.47,336Zm123-27.67a7.25,7.25,0,0,1-7.24,7.24H338.38a7.25,7.25,0,0,1-7.24-7.24V294.74a7.25,7.25,0,0,1,7.24-7.24h40.86a7.25,7.25,0,0,1,7.24,7.24Zm-7.24-33.62H338.38a20,20,0,0,0-20,20v.43h-8.1a47.21,47.21,0,0,0-14.55-28.1H449.14a47.21,47.21,0,0,0-14.55,28.1H399.25v-.43A20,20,0,0,0,379.24,274.74ZM481.39,336a34.48,34.48,0,1,1,34.48-34.48A34.51,34.51,0,0,1,481.39,336Zm74.92-40.86H529.06a6.22,6.22,0,0,0-.86.06,47.3,47.3,0,0,0-46.81-40.92H446.92v-123a7.24,7.24,0,0,1,7.23-7.24h56.21a21,21,0,0,1,19.46,13.37l.43,1.1H467.77a6.39,6.39,0,0,0-6.38,6.39V179a26.84,26.84,0,0,0,26.81,26.81h67.91l.62,1.61v33.29H549.5a13.21,13.21,0,0,0-13.2,13.2v6.81a13.2,13.2,0,0,0,13.2,13.19h7.23v20.86A.43.43,0,0,1,556.31,295.17Z"/><path d="M345.19,295.17A6.38,6.38,0,1,0,349.7,297,6.38,6.38,0,0,0,345.19,295.17Z"/><path d="M228.13,170.11h154.3a6.39,6.39,0,1,0,0-12.77H228.13a6.39,6.39,0,1,0,0,12.77Z"/><path d="M228.13,212.59h154.3a6.39,6.39,0,1,0,0-12.77H228.13a6.39,6.39,0,1,0,0,12.77Z"/></g></g></svg>