<svg xmlns="http://www.w3.org/2000/svg" viewBox="0 0 860 512"><defs><style>.cls-1{fill:#2eaacc;}.cls-2,.cls-5{fill:#ccccca;}.cls-10,.cls-11,.cls-13,.cls-2,.cls-5,.cls-9{stroke:#000;stroke-miterlimit:10;}.cls-10,.cls-11,.cls-13,.cls-2,.cls-9{stroke-width:10px;}.cls-10,.cls-3{fill:#fff;}.cls-4{fill:#3d4d63;}.cls-5{stroke-width:5px;}.cls-6{fill:#d3d3c5;}.cls-7{fill:#4db7e5;}.cls-8{fill:#ffa912;}.cls-12,.cls-9{fill:#ffb531;}.cls-11{fill:#b2b2aa;}.cls-13{fill:none;}</style></defs><title>sc-01-activate</title><g id="Equipments"><rect class="cls-1" x="2" y="2" width="854" height="508" rx="100"/><path d="M166,128.83a5.24,5.24,0,0,0-2-4.46,27.13,27.13,0,0,0-7.38-3.29,52.13,52.13,0,0,1-8.45-3.4q-8.47-4.58-8.47-12.34a12,12,0,0,1,2.27-7.19,14.81,14.81,0,0,1,6.53-4.94A24.66,24.66,0,0,1,158,91.43a22.3,22.3,0,0,1,9.5,1.94A15.07,15.07,0,0,1,174,98.82a14.22,14.22,0,0,1,2.31,8H166a6.69,6.69,0,0,0-2.15-5.31,8.83,8.83,0,0,0-6.05-1.9,9.43,9.43,0,0,0-5.84,1.59,5,5,0,0,0-2.09,4.19,4.83,4.83,0,0,0,2.44,4.07,27.54,27.54,0,0,0,7.2,3.07q8.74,2.64,12.75,6.53a13,13,0,0,1,4,9.71,12,12,0,0,1-4.89,10.13q-4.89,3.68-13.16,3.68a25.29,25.29,0,0,1-10.46-2.11,16.53,16.53,0,0,1-7.19-5.76,14.66,14.66,0,0,1-2.48-8.47h10.29q0,8.24,9.84,8.24a9.59,9.59,0,0,0,5.71-1.49A4.83,4.83,0,0,0,166,128.83Z"/><path d="M222.27,125.31q-.57,8-5.93,12.64t-14.1,4.62q-9.57,0-15.05-6.45t-5.49-17.68v-3a29.74,29.74,0,0,1,2.53-12.64,18.93,18.93,0,0,1,7.23-8.39,20.22,20.22,0,0,1,10.92-2.93q8.61,0,13.88,4.62t6.08,13H212.09c-.25-3.21-1.15-5.54-2.68-7s-3.88-2.17-7-2.17q-5.13,0-7.67,3.68t-2.62,11.39v3.76q0,8.07,2.45,11.8t7.7,3.72q4.75,0,7.1-2.17t2.68-6.71Z"/><rect class="cls-2" x="528.45" y="190.1" width="24.26" height="209.68" transform="translate(366.88 -295.86) rotate(45)"/><rect class="cls-2" x="650.14" y="74.11" width="21.7" height="230.4" transform="translate(691.34 -497.59) rotate(76.55)"/><polygon class="cls-3" points="214.12 354.69 229.62 328.21 345.47 328.21 345.47 373.41 246.53 371.93 241.03 357.73 214.12 354.69"/><circle class="cls-4" cx="177.82" cy="410.91" r="28.23" transform="translate(-269.86 417.94) rotate(-67.5)"/><path class="cls-5" d="M177.81,400.91a10,10,0,1,0,10,10A10,10,0,0,0,177.81,400.91Z"/><circle class="cls-4" cx="393.22" cy="410.91" r="28.23" transform="translate(-136.89 616.95) rotate(-67.5)"/><path class="cls-5" d="M393.22,400.91a10,10,0,1,0,10,10A10,10,0,0,0,393.22,400.91Z"/><path class="cls-6" d="M221.93,397.94v-6.62H206.3a34.56,34.56,0,0,1,3.56,6.63Z"/><path class="cls-6" d="M212.11,406.59a31.25,31.25,0,0,1,0,8.64H358.92a32,32,0,0,1,0-8.64Z"/><path class="cls-6" d="M152.11,387.8a34.47,34.47,0,0,1,45.64-5.13h24.43v-15H241l-.74-4.08-.53-2.38a3.58,3.58,0,0,0-3-2.19h-84.6Z"/><path class="cls-6" d="M91.6,406.59v8.64h51.92a31.25,31.25,0,0,1,0-8.64Z"/><path class="cls-6" d="M445.11,397.94V376.32h-25a1,1,0,0,1-1-1v-24a1,1,0,0,1,1-1h15l-13-8.65h-62.6a1,1,0,0,1-1-1V302.87H350v95.07h11.19a34.56,34.56,0,0,1,64.1,0Z"/><polygon class="cls-6" points="341.33 397.94 341.33 376.31 251 376.31 254.94 397.94 341.33 397.94"/><path class="cls-3" d="M142.83,397.94V374h-30.6a3.58,3.58,0,0,0-3,2.19l-.53,2.38-3.51,19.35Z"/><polygon class="cls-6" points="231.22 397.94 246.53 397.94 242.6 376.31 231.22 376.31 231.22 397.94"/><path class="cls-7" d="M367.27,327v6.11h51l-6.24-14.34-.53-2.39a3.58,3.58,0,0,0-3-2.19H367.27Z"/><path class="cls-6" d="M483.35,376.34l-28.66-12.47-.93-.41v34.48h7.68a1,1,0,0,1,1,1v16.33h21.12a5.37,5.37,0,0,1-.18-1.4V376.34Z"/><path class="cls-6" d="M443.31,415.23h10.45v-8.64H427.52a32,32,0,0,1,0,8.64Z"/><rect class="cls-8" x="427.81" y="359.02" width="17.3" height="8.65"/><rect x="358.62" y="350.37" width="17.3" height="8.65"/><rect x="384.57" y="350.37" width="8.65" height="8.65"/><path d="M495.19,369,454,351.36a5.6,5.6,0,0,0-2.48-.46l-24.12-16.1-8.33-25.75a4.31,4.31,0,0,0-4.25-3.54H384.57l-25.95-11.86H341.33v30.19H226.49v9H286v34.83H249.43l-2.5-13.75a4.31,4.31,0,0,0-4.25-3.55H143.07v15H106.26a4.33,4.33,0,0,0-4.25,3.55l-5.28,29H83.92a1,1,0,0,0-1,1v24a1,1,0,0,0,1,1h61.85a34.55,34.55,0,0,0,64.09,0H361.17a34.56,34.56,0,0,0,64.1,0h18V424h51.24v-8.78h-.18Zm-386.54,9.56.53-2.38a3.58,3.58,0,0,1,3-2.19h30.6v23.92H105.14Zm34.87,36.64H91.6v-8.64h51.92A31.25,31.25,0,0,0,143.52,415.23ZM367.27,327V314.15h41.21a3.58,3.58,0,0,1,3,2.19l.53,2.39,6.24,14.34h-51ZM295,332.84h46.31v34.83H295Zm46.31,43.48v21.62H254.94L251,376.32Zm-94.8,21.62H231.22V376.32H242.6Zm-68.71,38.91c-18.28,0-32.15-18.9-23.12-38.22a22.5,22.5,0,0,1,10.84-10.83c19.32-9,38.22,4.83,38.22,23.11A26,26,0,0,1,177.82,436.85Zm19.93-54.18h0a34.47,34.47,0,0,0-45.64,5.13V359h84.6a3.58,3.58,0,0,1,3,2.19l.53,2.38.74,4.08H222.18v15H197.75Zm8.55,8.64h15.63v6.62H209.86A34.56,34.56,0,0,0,206.3,391.31Zm152.62,23.92H212.11a31.25,31.25,0,0,0,0-8.64H358.92A32,32,0,0,0,358.92,415.23Zm34.3,21.62c-18.28,0-32.14-18.9-23.11-38.22a22.44,22.44,0,0,1,10.83-10.83c19.32-9,38.22,4.83,38.22,23.11A26,26,0,0,1,393.22,436.85Zm0-60.54a34.57,34.57,0,0,0-32.05,21.63H350V302.87h8.64v37.89a1,1,0,0,0,1,1h62.6l13,8.65h-15a1,1,0,0,0-1,1v24a1,1,0,0,0,1,1h25v21.62H425.27A34.57,34.57,0,0,0,393.22,376.31ZM445.11,359v8.65h-17.3V359Zm8.65,56.21H427.52a32,32,0,0,0,0-8.64h26.24Zm8.65,0V398.9a1,1,0,0,0-1-1h-7.68V363.46l.93.41,28.66,12.47v37.49a5.37,5.37,0,0,0,.18,1.4Z"/><path class="cls-9" d="M190.76,289.89a35.73,35.73,0,1,0,35.73,35.73A35.73,35.73,0,0,0,190.76,289.89Z"/><path class="cls-10" d="M190.76,313.07a12.55,12.55,0,1,0,12.55,12.55A12.55,12.55,0,0,0,190.76,313.07Z"/><path class="cls-11" d="M587.35,211.79h56a0,0,0,0,1,0,0v3.26A26.39,26.39,0,0,1,617,241.45h0a29.65,29.65,0,0,1-29.65-29.65v0A0,0,0,0,1,587.35,211.79Z" transform="matrix(0.97, -0.23, 0.23, 0.97, -35.84, 149.37)"/><path d="M769.51,136.42l5.23-14.79-9.11-3.22L760.4,133.2l-4.55-1.6L734.6,191.74l4.78,1.69a10.81,10.81,0,0,1-13.86,6.62l-33.45-10.71-3.22,9.1,33.45,10.72a20.29,20.29,0,0,0,26-12.59l4.55,1.61L774.06,138Z"/><path class="cls-12" d="M749.53,189.34,766,142.85l-6.83-2.42-16.43,46.5Z"/><path class="cls-13" d="M690.65,193.37s-15.22,86.92-70.25,47.29l-5,.75S578.88,446.63,489.89,374"/></g></svg>