<svg viewBox="0 0 512 512" xmlns="http://www.w3.org/2000/svg"><g opacity=".5"><path d="m256 509a253 253 0 0 1 -178.9-431.9 253 253 0 0 1 357.8 357.8 251.37 251.37 0 0 1 -178.9 74.1z" fill="#eee"/><path d="m256 6a250.07 250.07 0 0 1 97.31 480.36 250.07 250.07 0 0 1 -194.62-460.72 248.53 248.53 0 0 1 97.31-19.64m0-6c-141.38 0-256 114.62-256 256s114.62 256 256 256 256-114.62 256-256-114.62-256-256-256z" fill="#ccc"/></g><path d="m355 280.3h18.67l17.69-110.57a78.67 78.67 0 0 0 1-12.26 33.34 33.34 0 0 0 -3.51-14.83l-7.19-14.39a12 12 0 0 0 -22.66 4.65z" fill="#ffb531"/><path d="m355 327v-51.37a9.34 9.34 0 0 1 18.67 0l4.67 3.5a35 35 0 0 1 -3 58l-6.34 3.87h-23.35z" fill="#ffb531"/><path d="m355 275.63a9.34 9.34 0 1 0 9.34-9.33 9.34 9.34 0 0 0 -9.34 9.33z" fill="#f7a116"/><path d="m248.4 193.06 102.12-44.68a13.18 13.18 0 0 1 11.56 23.62l-85.54 46.33a37.34 37.34 0 0 0 -19.54 32.87v75.8h-70l24.51-91a65.34 65.34 0 0 1 36.89-42.94z" fill="#ffa912"/><path d="m212.26 233.63h49.21a37.21 37.21 0 0 0 -4.47 17.57v75.8h-70l24.51-91c.22-.85.49-1.6.75-2.37z" fill="#f7a116"/><path d="m313 345.63h-168a23.33 23.33 0 1 0 0 46.66h168a23.33 23.33 0 0 0 0-46.66z" fill="#2e3e51"/><path d="m289.66 369a23.33 23.33 0 1 0 23.34-23.37 23.33 23.33 0 0 0 -23.34 23.37z" fill="#3d4d63"/><path d="m303.65 369a9.34 9.34 0 1 0 9.34-9.33 9.34 9.34 0 0 0 -9.34 9.33z" fill="#22303d"/><path d="m121.67 369a23.33 23.33 0 1 0 23.33-23.37 23.33 23.33 0 0 0 -23.33 23.37z" fill="#3d4d63"/><path d="m135.66 369a9.34 9.34 0 1 0 9.34-9.33 9.34 9.34 0 0 0 -9.34 9.33z" fill="#22303d"/><g fill="#3d4d63"><path d="m219.66 364.29h-9.33v9.34h9.33z"/><path d="m247.66 364.29h-9.34v9.34h9.34z"/><path d="m191.66 364.29h-9.33v9.34h9.33z"/><path d="m275.66 364.29h-9.34v9.34h9.34z"/></g><path d="m219.66 373.63h-9.33v9.37h9.33z" fill="#22303d"/><path d="m247.66 373.63h-9.34v9.37h9.34z" fill="#22303d"/><path d="m191.66 373.63h-9.33v9.37h9.33z" fill="#22303d"/><path d="m275.66 373.63h-9.34v9.37h9.34z" fill="#22303d"/><path d="m275.66 327h-93.33v18.67h93.33z" fill="#ffa912"/><path d="m163.66 275.63h144.66v51.37h-158.66v-37.37z" fill="#ffb531"/><path d="m177.66 289.63h-9.33v14h9.33z" fill="#e8770c"/><path d="m196.33 289.63h-9.33v14h9.34z" fill="#e8770c"/><path d="m233.66 308.3h74.66v-37.3l-18.66-28h-56z" fill="#4db7e5"/><path d="m275.66 308.3v-14l-28-28h-14v42z" fill="#419bc2"/><path d="m173 257h32.66a9.33 9.33 0 0 1 9.34 9.3v9.33h-51.34v-9.33a9.33 9.33 0 0 1 9.34-9.3z" fill="#d6d6d4"/><path d="m117 369a28 28 0 0 1 28-28h168a28 28 0 0 1 0 56h-168a28 28 0 0 1 -28-28zm28-18.67a18.67 18.67 0 1 0 0 37.33h168a18.67 18.67 0 0 0 0-37.33z" fill="#4c5d72"/><path d="m275.66 327h-93.33v9.33h93.33z" fill="#f7a116"/><path d="m303.65 369a9.34 9.34 0 1 0 9.34-9.33 9.34 9.34 0 0 0 -9.34 9.33z"/><path d="m117 369a28 28 0 0 0 28 28h168a28 28 0 0 0 0-56h-32.68v-9.33h28a4.67 4.67 0 0 0 4.68-4.67v-56a4.78 4.78 0 0 0 -.79-2.59l-18.66-28a4.68 4.68 0 0 0 -3.88-2.08h-25.3a32.55 32.55 0 0 1 14.4-15.82l74.23-40.24-2.49 91.38a12 12 0 0 0 -.18 2v49.93l-8.55 12.81a4.66 4.66 0 0 0 3.88 7.26h23.34a4.66 4.66 0 0 0 2.39-.65l6.35-3.78a39.69 39.69 0 0 0 3.4-65.8l-1.76-1.31 16.58-103.65a80.34 80.34 0 0 0 1-13 37.87 37.87 0 0 0 -4-16.91l-7.22-14.39a16.62 16.62 0 0 0 -31.44 6.44l-.29 10.08a18.06 18.06 0 0 0 -5.4 1.39l-102.08 44.74a69.66 69.66 0 0 0 -39.53 45.89l-4.72 17.6h-29.28a14 14 0 0 0 -14 14v7.4l-12.64 12.63a4.69 4.69 0 0 0 -1.36 3.3v37.37a4.66 4.66 0 0 0 4.66 4.67h28v9.33h-32.66a28 28 0 0 0 -28 28zm93.33-98h-42v-4.7a4.67 4.67 0 0 1 4.67-4.67h32.66a4.67 4.67 0 0 1 4.67 4.67zm161.27-7.27c-.38-.23-.78-.41-1.17-.6s-.62-.31-.93-.44a14.4 14.4 0 0 0 -1.66-.51c-.28-.08-.56-.18-.85-.24a14.92 14.92 0 0 0 -2.67-.27 13 13 0 0 0 -2.64.27c-.35.06-.7.19-1 .28a4.42 4.42 0 0 0 -.52.14l2.33-85.19 1.87-1a17.83 17.83 0 0 0 -1-31.84l.32-11.28a7.19 7.19 0 0 1 2.26-4.7 7.47 7.47 0 0 1 11.54 2.05l7.18 14.35a28.53 28.53 0 0 1 3 12.76 72.24 72.24 0 0 1 -.93 11.47zm-11.6 10.37a5.45 5.45 0 0 1 1.32-1.94 4.52 4.52 0 0 1 .82-.55 4.4 4.4 0 0 1 .56-.31 4.79 4.79 0 0 1 1.67-.34 4.67 4.67 0 1 1 -4.56 5.23v-1.29a5.36 5.36 0 0 1 .15-.78zm-5.58 62.19 4.49-6.74a4.62 4.62 0 0 0 .79-2.59v-38.19a13.59 13.59 0 0 0 15.18-4 4.56 4.56 0 0 0 1.82-.89 30.3 30.3 0 0 1 -3.73 49.33l-5.22 3.11zm-100-98h-20.76a4.67 4.67 0 0 0 -4.66 4.71v28h-9.33v-4.7a14 14 0 0 0 -8.07-12.65l4.4-16.52a60.42 60.42 0 0 1 34.28-39.77l102.1-44.71a8.52 8.52 0 0 1 7.47 15.28l-85.55 46.34a41.9 41.9 0 0 0 -19.9 24.03zm49.25 65.33h-23.35v-9.32a4.64 4.64 0 0 0 -1.32-3.3l-28-28a4.63 4.63 0 0 0 -3.29-1.37h-9.34v-14h48.84l16.49 24.73v31.27zm-57.94-32.62 25.27 25.23v7.4h-32.68v-32.63zm-91.4 51.33v-30.77l11.26-11.26h63.41v28a4.67 4.67 0 0 0 4.67 4.66h70v9.33zm116.67 9.3v9.37h-84v-9.33zm23.32 37.37a18.67 18.67 0 1 1 18.68 18.62 18.67 18.67 0 0 1 -18.68-18.62zm-128.51-18.71h126.36a27.84 27.84 0 0 0 0 37.33h-126.36a27.84 27.84 0 0 0 0-37.33zm-39.48 18.71a18.67 18.67 0 1 1 18.67 18.62 18.67 18.67 0 0 1 -18.67-18.62z"/><path d="m135.66 369a9.34 9.34 0 1 0 9.34-9.33 9.34 9.34 0 0 0 -9.34 9.33z"/><path d="m219.66 364.29h-9.33v9.34h9.33z"/><path d="m247.66 364.29h-9.34v9.34h9.34z"/><path d="m191.66 364.29h-9.33v9.34h9.33z"/><path d="m275.66 364.29h-9.34v9.34h9.34z"/><path d="m177.66 289.63h-9.33v14h9.33z"/><path d="m196.33 289.63h-9.33v14h9.34z"/></svg>