<svg xmlns="http://www.w3.org/2000/svg" viewBox="0 0 640 512"><defs><style>.cls-1{fill:#6e3984;}.cls-2{fill:#ffb531;}.cls-3{fill:#ccccca;}.cls-4{fill:#4db7e5;}.cls-5{fill:#3d4d63;}.cls-6{fill:#fff;}</style></defs><title>mp-01-activate</title><g id="Equipments"><g id="base"><ellipse class="cls-1" cx="320" cy="256" rx="318" ry="254"/></g><g id="icon-mai_pump"><path class="cls-2" d="M314.49,212.09,351,221.2l12.79-32,20.7-51.75H235.62a16.14,16.14,0,0,0-14.55,9h0L202.28,184l13.89,3.48,97.19,24.23A8.7,8.7,0,0,1,314.49,212.09Z"/><polygon class="cls-3" points="449.73 268.85 318.27 236.07 318.13 236.61 314.47 251.3 445.94 284.08 449.73 268.85"/><path class="cls-4" d="M188.42,194.5l-21.22-5.29-8.11,32.54,140.12,34.94,8-32.1-116.7-29.18A6.88,6.88,0,0,1,188.42,194.5Z"/><path d="M493.62,280.62a10,10,0,0,0-6.23-4.61l-24-6,.17-.67a10.66,10.66,0,0,0-7.75-12.91l-94.62-23.59a6.35,6.35,0,0,0,.42-.87l12.5-31.25h0l4.66-11.64h0L406.37,120h41.86a6.95,6.95,0,0,0,0-13.89H405.57a12.63,12.63,0,0,0-11.81,8L390,123.54H235.58a30.27,30.27,0,0,0-26.94,16.7L188.46,180.6l-20.76-5.18a10.62,10.62,0,0,0-12.9,7.76l-9.56,38.34a10.39,10.39,0,0,0,7.56,12.58L299,270.54a10.24,10.24,0,0,0,7.86-1.17,10.24,10.24,0,0,0,4.26-5L445.7,297.93h0a10.37,10.37,0,0,0,12.58-7.56l.23-.93,24.26,6.05a10,10,0,0,0,2.42.3,9.93,9.93,0,0,0,9.58-7.5A10.06,10.06,0,0,0,493.62,280.62ZM202.28,184l18.79-37.58h0a16.14,16.14,0,0,1,14.55-9H384.44l-20.7,51.75L351,221.2l-36.46-9.11a8.7,8.7,0,0,0-1.13-.35l-97.19-24.23Zm96.93,72.66L159.09,221.75l8.11-32.54,21.22,5.29a6.88,6.88,0,0,0,2.09.91l116.7,29.18ZM449,284.83h0Zm-3-.75L314.47,251.3l3.66-14.69.14-.54,131.46,32.78Z"/><circle id="color" class="cls-5" cx="232.5" cy="286.54" r="35.13"/><circle id="color-2" data-name="color" class="cls-3" cx="232.5" cy="286.54" r="18.35"/><path d="M232.5,247.17a39.38,39.38,0,1,0,39.37,39.37A39.38,39.38,0,0,0,232.5,247.17Zm0,70a30.63,30.63,0,1,1,30.62-30.63A30.63,30.63,0,0,1,232.5,317.17Z"/><path d="M232.5,264.67a21.88,21.88,0,1,0,21.87,21.87A21.87,21.87,0,0,0,232.5,264.67Zm0,35a13.13,13.13,0,1,1,13.12-13.13A13.13,13.13,0,0,1,232.5,299.67Z"/><circle id="color-3" data-name="color" class="cls-5" cx="346.12" cy="286.54" r="35.13"/><circle id="color-4" data-name="color" class="cls-3" cx="346.12" cy="286.54" r="18.35"/><path d="M346.12,247.17a39.38,39.38,0,1,0,39.38,39.37A39.37,39.37,0,0,0,346.12,247.17Zm0,70a30.63,30.63,0,1,1,30.63-30.63A30.62,30.62,0,0,1,346.12,317.17Z"/><path d="M346.12,264.67A21.88,21.88,0,1,0,368,286.54,21.87,21.87,0,0,0,346.12,264.67Zm0,35a13.13,13.13,0,1,1,13.13-13.13A13.12,13.12,0,0,1,346.12,299.67Z"/></g><path class="cls-6" d="M284.61,394l12.78,36.1L310.11,394h13.46v49.77H313.28v-13.6l1-23.48-13.43,37.08h-7l-13.4-37.05,1,23.45v13.6H271.21V394Z"/><path class="cls-6" d="M342.78,426.21v17.53H332.53V394h19.41A22.42,22.42,0,0,1,361.8,396a15.11,15.11,0,0,1,6.55,5.82,16.34,16.34,0,0,1,2.29,8.6q0,7.32-5,11.53t-13.86,4.23Zm0-8.31h9.16q4.06,0,6.2-1.91a7,7,0,0,0,2.14-5.47,8.25,8.25,0,0,0-2.15-5.92,8.09,8.09,0,0,0-5.95-2.32h-9.4Z"/></g></svg>