<svg viewBox="0 0 512 512" xmlns="http://www.w3.org/2000/svg"><g opacity=".5"><path d="m256 509a253 253 0 0 1 -178.9-431.9 253 253 0 0 1 357.8 357.8 251.37 251.37 0 0 1 -178.9 74.1z" fill="#eee"/><path d="m256 6a250.07 250.07 0 0 1 97.31 480.36 250.07 250.07 0 0 1 -194.62-460.72 248.53 248.53 0 0 1 97.31-19.64m0-6c-141.38 0-256 114.62-256 256s114.62 256 256 256 256-114.62 256-256-114.62-256-256-256z" fill="#ccc"/></g><rect fill="#ccccca" height="18.73" rx="4.82" width="36.89" x="269.82" y="314.74"/><path d="m338.79 319.85a31.36 31.36 0 0 1 9.7-18.73h-102.28a31.47 31.47 0 0 1 9.7 18.73h5.4v-.29a13.35 13.35 0 0 1 13.34-13.33h27.24a13.35 13.35 0 0 1 13.33 13.33v.29z" fill="#ccccca"/><path d="m415.11 292.32v4.54a.29.29 0 0 0 .28.28h4.82v-5.14h-4.82a.29.29 0 0 0 -.28.32z" fill="#ffb531"/><circle cx="369.99" cy="324.1" fill="#3d4d63" r="22.98" transform="matrix(.38268343 -.92387953 .92387953 .38268343 -71.03 541.9)"/><path d="m374.53 260.26a17.9 17.9 0 0 1 -17.88-17.88v-22.7a4.26 4.26 0 0 1 4.26-4.26h41.65l-.29-.73a14 14 0 0 0 -13-8.92h-37.44a4.84 4.84 0 0 0 -4.83 4.83v82h23a31.55 31.55 0 0 1 31.21 27.29 3.48 3.48 0 0 1 .57 0h18.16a.28.28 0 0 0 .28-.29v-13.9h-4.82a8.81 8.81 0 0 1 -8.8-8.8v-4.54a8.81 8.81 0 0 1 8.8-8.8h4.82v-22.23l-.41-1.07z" fill="#ffb531"/><circle cx="224.71" cy="324.1" fill="#3d4d63" r="22.98" transform="matrix(.38268343 -.92387953 .92387953 .38268343 -160.72 407.67)"/><path d="m203.2 301.12h-11.47a31.71 31.71 0 0 1 5.73 7.2 32 32 0 0 1 5.74-7.2z" fill="#ccccca"/><path d="m374.53 251.74h42l-10.7-27.8h-40.67v18.44a9.38 9.38 0 0 0 9.37 9.36z" fill="#4db7e5"/><path d="m319.76 292.6h18.73v-82c0-.1 0-.19 0-.28h-18.73z" fill="#f57e00"/><path d="m147.52 292.6h163.73v-100.16a.29.29 0 0 0 -.28-.29h-163.45a.29.29 0 0 0 -.28.29v99.88a.28.28 0 0 0 .28.28z" fill="#ffb531"/><circle cx="170.22" cy="324.1" fill="#3d4d63" r="22.98" transform="matrix(.9870804 -.16022575 .16022575 .9870804 -49.72 31.45)"/><g fill="#ccccca" stroke="#000" stroke-miterlimit="10" stroke-width="5"><path d="m170.22 314.1a10 10 0 1 0 10 10 10 10 0 0 0 -10-10z"/><path d="m224.7 314.1a10 10 0 1 0 10 10 10 10 0 0 0 -10-10z"/><path d="m370 314.1a10 10 0 1 0 10 10 10 10 0 0 0 -10-10z"/></g><path d="m428.72 260.44a2.44 2.44 0 0 0 0-.27 1.1 1.1 0 0 1 0-.18 1.85 1.85 0 0 0 0-.23 1.74 1.74 0 0 0 0-.22.85.85 0 0 0 0-.17l-.09-.26v-.1l-18.22-47.38a22.56 22.56 0 0 0 -20.92-14.37h-37.66a13.29 13.29 0 0 0 -10 4.54h-8.44v-26.42a17.78 17.78 0 0 0 -5.23-12.64l-5.09-5.09a4.26 4.26 0 0 0 -6 6l5.09 5.09a9.3 9.3 0 0 1 2.74 6.62v26.44h-5.11v-9.36a8.8 8.8 0 0 0 -8.79-8.8h-163.48a8.8 8.8 0 0 0 -8.79 8.8v99.88a8.8 8.8 0 0 0 8.79 8.8h1.2a31.48 31.48 0 1 0 48.74 38.76 31.48 31.48 0 0 0 58.45-11.52h5.4v.28a13.35 13.35 0 0 0 13.34 13.36h27.24a13.35 13.35 0 0 0 13.33-13.34v-.28h23.57a31.49 31.49 0 0 0 62.41-.05 3.45 3.45 0 0 0 .57.05h18.16a8.81 8.81 0 0 0 8.8-8.8v-59s-.01-.11-.01-.14zm-8.51 36.7h-4.82a.29.29 0 0 1 -.28-.28v-4.54a.29.29 0 0 1 .28-.28h4.82zm-3.68-45.4h-42a9.38 9.38 0 0 1 -9.37-9.36v-18.44h40.67zm-78-41.43v.29 82h-18.77v-82.29zm-191 82.29a.28.28 0 0 1 -.28-.28v-99.88a.29.29 0 0 1 .28-.29h163.47a.29.29 0 0 1 .28.29v100.16zm55.68 8.52a32 32 0 0 0 -5.74 7.2 31.71 31.71 0 0 0 -5.73-7.2zm-33 46a23 23 0 1 1 23-23 23 23 0 0 1 -22.99 22.97zm54.49 0a23 23 0 1 1 23-23 23 23 0 0 1 -22.99 22.97zm82-18.45a4.83 4.83 0 0 1 -4.82 4.83h-27.23a4.84 4.84 0 0 1 -4.83-4.83v-9.08a4.83 4.83 0 0 1 4.83-4.82h27.24a4.82 4.82 0 0 1 4.82 4.82zm-4.82-22.42h-27.23a13.36 13.36 0 0 0 -13.34 13.34v.29h-5.4a31.47 31.47 0 0 0 -9.7-18.73h102.28a31.36 31.36 0 0 0 -9.7 18.73h-23.57v-.29a13.35 13.35 0 0 0 -13.33-13.37zm68.12 40.84a23 23 0 1 1 23-23 23 23 0 0 1 -23 23zm49.94-27.24h-18.17a3.48 3.48 0 0 0 -.57 0 31.55 31.55 0 0 0 -31.2-27.25h-23v-82a4.84 4.84 0 0 1 4.83-4.83h37.47a14 14 0 0 1 13 8.92l.29.73h-41.68a4.26 4.26 0 0 0 -4.26 4.26v22.7a17.9 17.9 0 0 0 17.88 17.88h45.27l.41 1.07v22.19h-4.82a8.81 8.81 0 0 0 -8.8 8.8v4.54a8.81 8.81 0 0 0 8.8 8.8h4.82v13.9a.28.28 0 0 1 -.28.29z"/><path d="m279.19 319.85a4.25 4.25 0 1 0 3 1.24 4.27 4.27 0 0 0 -3-1.24z"/><path d="m161.14 228.48h136.21a4.26 4.26 0 0 0 0-8.52h-136.21a4.26 4.26 0 0 0 0 8.52z"/><path d="m161.14 264.8h136.21a4.26 4.26 0 0 0 0-8.52h-136.21a4.26 4.26 0 0 0 0 8.52z"/><path d="m117.39 287h8.53v18.55l8.53-2.77v-15.78h4.26a8.52 8.52 0 0 0 8.53-8.52v-29.81a4.27 4.27 0 1 0 -8.53 0v4.26h-46.91v-4.26a4.26 4.26 0 1 0 -8.52 0v8.52a.11.11 0 0 0 0 .08 4.45 4.45 0 0 0 .28 1.45c0 .12.11.22.17.34a4.59 4.59 0 0 0 .24.5l10.32 15.44 5.08 7.6.42.62a8.55 8.55 0 0 0 7.11 3.78z"/><path d="m106.87 278.5-11.36-17.04h43.2v17.06z" fill="#ffcb73"/></svg>