<svg xmlns="http://www.w3.org/2000/svg" viewBox="0 0 1280 640"><defs><style>.cls-1{fill:#eee;}.cls-2{fill:#bf2810;}.cls-3,.cls-9{fill:#ed441d;}.cls-4{fill:#f98b78;}.cls-5{fill:#3d4d63;}.cls-6{fill:#ccccca;}.cls-7{fill:#f70d0d;}.cls-8{fill:#c4270e;}.cls-8,.cls-9{stroke:#000;stroke-miterlimit:10;stroke-width:10px;}.cls-10{fill:#828282;}.cls-11{fill:#5a5a5a;}.cls-12{fill:#282828;}</style></defs><title>jd-2b-01-activate</title><g id="Equipments"><ellipse class="cls-1" cx="640" cy="319.75" rx="638" ry="317.75"/><path d="M875,412.22h10.26v34.45a16.43,16.43,0,0,1-2.11,8.4,14.3,14.3,0,0,1-5.93,5.62,18.52,18.52,0,0,1-8.64,2q-7.9,0-12.31-4t-4.41-11.37H862.2c0,2.44.52,4.24,1.54,5.4s2.64,1.74,4.86,1.74a5.89,5.89,0,0,0,4.68-2,8.55,8.55,0,0,0,1.74-5.75Z"/><path d="M894.06,462V412.22h15.31a23.24,23.24,0,0,1,11.74,3,20.57,20.57,0,0,1,8.09,8.41A26,26,0,0,1,932.1,436v2.29a26.06,26.06,0,0,1-2.85,12.34,20.49,20.49,0,0,1-8,8.37,23.55,23.55,0,0,1-11.73,3Zm10.25-41.46v33.22h5q6,0,9.19-3.93t3.25-11.25v-2.63q0-7.59-3.14-11.5t-9.2-3.91Z"/><path d="M958.11,444.66H938.87v-8h19.24Z"/><path d="M999.74,462H965.63v-6.77l16.1-17.16a38.87,38.87,0,0,0,4.9-6.32,10.06,10.06,0,0,0,1.59-5.13,7.57,7.57,0,0,0-1.67-5.21,6,6,0,0,0-4.79-1.9,6.52,6.52,0,0,0-5.28,2.31,9.18,9.18,0,0,0-1.93,6.07h-9.91a16.31,16.31,0,0,1,2.17-8.31,15.31,15.31,0,0,1,6.14-5.9,18.68,18.68,0,0,1,9-2.13q7.68,0,11.94,3.69t4.26,10.42a16.66,16.66,0,0,1-1.92,7.52,41.2,41.2,0,0,1-6.56,8.92L978.35,454h21.39Z"/><path d="M1006.85,462V412.22h17.43q9.06,0,13.74,3.47t4.69,10.17a11.24,11.24,0,0,1-1.88,6.44,10.92,10.92,0,0,1-5.23,4.09,10.5,10.5,0,0,1,6,3.86,11.43,11.43,0,0,1,2.2,7.11q0,7.17-4.58,10.87t-13,3.76Zm10.26-28.92h7.58q7.77-.13,7.76-6.19c0-2.25-.65-3.88-2-4.87s-3.38-1.48-6.21-1.48h-7.17Zm0,7.25v13.43h8.78a8.49,8.49,0,0,0,5.66-1.73,5.93,5.93,0,0,0,2-4.76q0-6.84-7.07-6.94Z"/><g id="icon-jumbo_drill"><rect class="cls-2" x="404.8" y="361.33" width="102.24" height="51.69"/><path d="M502,366.33V408H409.8V366.33H502m10-10H399.8V418H512V356.33Z"/><g id="color"><path class="cls-3" d="M500.37,404.68a41.05,41.05,0,0,1,4.71-.26H689.51a43.25,43.25,0,0,1,4.69.29h.39l23.23-19.36-23.66-16.81A20.18,20.18,0,1,1,701.62,358l20.21,14.35V320.36H586.06v32.33a12.93,12.93,0,0,1-12.93,12.93H518a6.42,6.42,0,0,1-4.59-1.89l-24-24a12.73,12.73,0,0,1-3.77-9.12V320.36H472.75V382L500,404.68Z"/><path class="cls-4" d="M683,346.23a6.47,6.47,0,1,0,6.47,6.46A6.46,6.46,0,0,0,683,346.23Z"/></g><path d="M628.39,339.76v19.4a6.47,6.47,0,0,0,12.93,0v-19.4a6.47,6.47,0,0,0-12.93,0Z"/><path d="M609,339.76v19.4a6.47,6.47,0,0,0,12.93,0v-19.4a6.47,6.47,0,0,0-12.93,0Z"/><path d="M560.2,391.49h19.39a6.47,6.47,0,1,0,0-12.94H560.2a6.47,6.47,0,0,0,0,12.94Z"/><path d="M701.07,417.54l27.66-24.46s6-4.54,6-11.58V320.36a12.93,12.93,0,0,0-12.94-12.93H586.06V276.31a12.93,12.93,0,0,0-12.93-12.93H498.61a12.93,12.93,0,0,0-12.93,12.93v31.12H472.75a12.93,12.93,0,0,0-12.93,12.93V385a6.48,6.48,0,0,0,2.32,5l31.91,28.07ZM498.61,289.24V276.31h74.52v47.84l-13.49-13.48,5.13-5.13a6.46,6.46,0,0,0-9.14-9.14l-19.4,19.39a6.47,6.47,0,1,0,9.14,9.15l5.13-5.13,22.63,22.63v10.25H520.68l-22.07-22.07V289.24ZM721.83,372.3,701.62,358a19.4,19.4,0,1,0-7.46,10.59l23.66,16.81-23.23,19.36h-.39a43.25,43.25,0,0,0-4.69-.29H505.08a41.05,41.05,0,0,0-4.71.26H500L472.75,382V320.36h12.93v10.28a12.73,12.73,0,0,0,3.77,9.12l24,24a6.42,6.42,0,0,0,4.59,1.89h55.12a12.93,12.93,0,0,0,12.93-12.93V320.36H721.83Zm-32.32-19.61a6.47,6.47,0,1,1-6.47-6.46A6.47,6.47,0,0,1,689.51,352.69Z"/><path class="cls-3" d="M431.82,385V315.36a12.93,12.93,0,0,1,12.93-12.93V276.31H254.48L177.55,292A31.27,31.27,0,0,0,150.83,323v38.11a31.27,31.27,0,0,0,24.46,30.53l88.44,26.44H466.05L434.14,390A6.48,6.48,0,0,1,431.82,385Z"/><path d="M434.75,286.31v8.42a23,23,0,0,0-12.93,20.63V385a16.43,16.43,0,0,0,5.8,12.55l11.92,10.49H265.19l-87-26-.34-.1-.34-.08a21.16,21.16,0,0,1-16.64-20.77V323A21.4,21.4,0,0,1,179,301.93l.27,0,.28-.05,75.93-15.53H434.75m10-10H254.48L177.55,292A31.27,31.27,0,0,0,150.83,323v38.11a31.27,31.27,0,0,0,24.46,30.53l88.44,26.44H466.05L434.14,390a6.48,6.48,0,0,1-2.32-5V315.36a12.93,12.93,0,0,1,12.93-12.93V276.31Z"/><circle id="color-2" data-name="color" class="cls-5" cx="643.4" cy="423.5" r="42.84"/><circle id="color-3" data-name="color" class="cls-6" cx="643.4" cy="423.5" r="22.38"/><path d="M643.4,375.49a48,48,0,1,0,48,48A48,48,0,0,0,643.4,375.49Zm0,85.36a37.35,37.35,0,1,1,37.35-37.35A37.35,37.35,0,0,1,643.4,460.85Z"/><path d="M643.4,396.83a26.68,26.68,0,1,0,26.68,26.67A26.67,26.67,0,0,0,643.4,396.83Zm0,42.68a16,16,0,1,1,16-16A16,16,0,0,1,643.4,439.51Z"/><circle id="color-4" data-name="color" class="cls-5" cx="339.64" cy="423.5" r="42.84"/><circle id="color-5" data-name="color" class="cls-6" cx="339.64" cy="423.5" r="22.38"/><path d="M339.64,375.49a48,48,0,1,0,48,48A48,48,0,0,0,339.64,375.49Zm0,85.36A37.35,37.35,0,1,1,377,423.5,37.35,37.35,0,0,1,339.64,460.85Z"/><path d="M339.64,396.83a26.68,26.68,0,1,0,26.67,26.67A26.67,26.67,0,0,0,339.64,396.83Zm0,42.68a16,16,0,1,1,16-16A16,16,0,0,1,339.64,439.51Z"/><polygon class="cls-7" points="155.83 351.33 155.83 326.33 268.52 326.33 288.21 311.11 426.81 311.11 426.81 336.11 295.04 336.11 275.35 351.33 155.83 351.33"/><path d="M421.8,316.11v15H293.33l-2.7,2.09-17,13.13H160.83v-15h109.4l2.7-2.09,17-13.13H421.8m10-10H286.5l-19.68,15.22h-116v35H277.06l19.68-15.22H431.8v-35Z"/><path class="cls-8" d="M599.06,253.52v61h42.26V245.58a9.35,9.35,0,0,0-9.35-9.35H616.34Z"/><rect class="cls-9" x="795.12" y="82.63" width="26" height="372.92" rx="10.35" transform="translate(1077.21 -539.03) rotate(90)"/><polygon class="cls-9" points="905.35 236.23 895.35 216.63 1015.35 216.63 1005.35 236.23 905.35 236.23"/><circle class="cls-9" cx="955.35" cy="245.16" r="16.78"/><rect class="cls-9" x="756.47" y="205.7" width="372.7" height="10.29"/><path class="cls-9" d="M1116,197.84h16a5,5,0,0,1,5,5v5.29a0,0,0,0,1,0,0h-26a0,0,0,0,1,0,0v-5.29A5,5,0,0,1,1116,197.84Z" transform="translate(1327.01 -921.05) rotate(90)"/><path class="cls-9" d="M744.11,188.34h35a5,5,0,0,1,5,5v5.29a0,0,0,0,1,0,0h-45a0,0,0,0,1,0,0v-5.29A5,5,0,0,1,744.11,188.34Z" transform="translate(955.1 -568.13) rotate(90)"/><path class="cls-10" d="M771.7,176.62H885a3.43,3.43,0,0,1,2,.68l4.54,3.41a1.37,1.37,0,0,1,0,2.19L887,186.3a3.43,3.43,0,0,1-2,.68H771.7Z"/><path class="cls-11" d="M771.7,180.77H886.12l6,.89a1.29,1.29,0,0,0-.53-.95L887,177.3a3.43,3.43,0,0,0-2-.68H771.7Z"/><path class="cls-12" d="M810.65,175l4.27,19a1.37,1.37,0,0,1-1.34,1.67h-1.46a9,9,0,0,1-8.77-7l-4.26-19a1.36,1.36,0,0,1,1.33-1.67h1.47A9,9,0,0,1,810.65,175Z"/><path class="cls-12" d="M831.73,175,836,194a1.37,1.37,0,0,1-1.34,1.67H833.2a9,9,0,0,1-8.77-7l-4.27-19A1.37,1.37,0,0,1,821.5,168H823A9,9,0,0,1,831.73,175Z"/><path class="cls-12" d="M853.15,175l4.27,19a1.37,1.37,0,0,1-1.33,1.67h-1.47a9,9,0,0,1-8.77-7l-4.26-19a1.36,1.36,0,0,1,1.33-1.67h1.47A9,9,0,0,1,853.15,175Z"/><path class="cls-12" d="M874.92,175l4.26,19a1.37,1.37,0,0,1-1.33,1.67h-1.47a9,9,0,0,1-8.76-7l-4.27-19a1.37,1.37,0,0,1,1.33-1.67h1.47A9,9,0,0,1,874.92,175Z"/></g></g></svg>