<svg viewBox="0 0 512 512" xmlns="http://www.w3.org/2000/svg"><circle cx="256" cy="256" fill="#ffb530" r="256"/><path d="m125.66 275.29h13.93a44.81 44.81 0 0 1 19.86-4.82 43.61 43.61 0 0 1 33.79 16.2v-28.67l-16.48-16.5a9.54 9.54 0 0 1 -2.83-6.82v-7.68h-48.27z" fill="#ffb531"/><path d="m183.59 164.26h67.59v9.66h-67.59z" fill="#419bc2"/><path d="m251.17 251.16v-7.66l-16.89-16.9-3.83 3.83a4.83 4.83 0 1 1 -6.83-6.82l14.48-14.49a4.83 4.83 0 0 1 6.83 6.83l-3.83 3.83 10.07 10.07v-46.28h-67.58v51.11l16.48 16.48z" fill="#4db7e5"/><path d="m376.69 286.95-9.66 9.65v26.97 9.66h9.66z" fill="#ccccca"/><path d="m202.9 260.81h19.31v9.66h-19.31z" fill="#f57e00"/><path d="m193.24 313.92a33.79 33.79 0 1 0 -33.79 33.79 33.79 33.79 0 0 0 33.79-33.79z" fill="#3d4d63"/><path d="m144.97 183.57h9.66v33.79h-9.66z"/><path d="m289.79 347.71a28.84 28.84 0 1 0 -28.63-33.12 22.2 22.2 0 0 0 -.33 4.15 29 29 0 0 0 28.96 28.97z" fill="#3d4d63"/><path d="m294.62 227v14.5h26.65a9.6 9.6 0 0 1 7.54 3.63l9.26 11.58v-20.92a14.48 14.48 0 0 1 -8.77-8.79z" fill="#ffb531"/><g fill="#f57e00"><path d="m294.62 251.16v9.65h17.05a9.64 9.64 0 0 1 7.41 3.47l38.3 46v-13.98l-36.12-45.14z"/><path d="m202.9 299.43h19.31v9.66h-19.31z"/><path d="m202.9 280.12h19.31v9.66h-19.31z"/></g><circle cx="342.9" cy="222.19" fill="#ccccca" r="4.83"/><path d="m252.46 309a37.56 37.56 0 0 1 4.47-10.47l.09-.14a38.82 38.82 0 0 1 27.4-17.87 3.35 3.35 0 0 1 .55-.11v-53.41h-24.14v24.14a9.66 9.66 0 0 1 -9.66 9.65h-19.31v48.28h20.6z" fill="#ffb531"/><path d="m275.31 318.74a14.49 14.49 0 1 0 14.48-14.48 14.49 14.49 0 0 0 -14.48 14.48z" fill="#ccccca"/><path d="m159.45 294.61a19.31 19.31 0 1 0 19.31 19.31 19.3 19.3 0 0 0 -19.31-19.31z" fill="#ccccca"/><path d="m275.31 318.74a14.49 14.49 0 1 0 14.48-14.48 14.49 14.49 0 0 0 -14.48 14.48zm19.31 0a4.83 4.83 0 1 1 -4.83-4.82 4.83 4.83 0 0 1 4.83 4.82z"/><path d="m159.45 294.61a19.31 19.31 0 1 0 19.31 19.31 19.3 19.3 0 0 0 -19.31-19.31zm0 29a9.66 9.66 0 1 1 9.65-9.65 9.66 9.66 0 0 1 -9.65 9.61z"/><path d="m391.17 333.23h-4.83v-53.11h4.83a4.83 4.83 0 1 0 0-9.65h-9.65a2.65 2.65 0 0 0 -.3.06 6.44 6.44 0 0 0 -1.73.42 4.52 4.52 0 0 0 -1.37.92l-15.51 15.49-14.89-18.58v-33a14.45 14.45 0 1 0 -18.42-18.43h-68.47v-53.1a9.66 9.66 0 0 0 -9.66-9.65h-67.58a9.65 9.65 0 0 0 -9.66 9.65v53.1h-9.65v-33.78a9.66 9.66 0 0 0 -9.66-9.65v-4.83a14.48 14.48 0 0 0 -14.48-14.48 4.83 4.83 0 1 0 0 9.65 4.83 4.83 0 0 1 4.83 4.83v4.83a9.65 9.65 0 0 0 -9.66 9.65v33.79h-9.65a9.66 9.66 0 0 0 -9.66 9.64v48.3a9.65 9.65 0 0 0 9.66 9.65h1.53a43.4 43.4 0 1 0 75.42 33.79h48.56a38.62 38.62 0 1 0 43.45-38.28v-10h17.05l45.71 54.85v7.91a9.65 9.65 0 0 0 9.65 9.65h24.14a4.83 4.83 0 1 0 0-9.65zm-62.36-88.1a9.6 9.6 0 0 0 -7.54-3.63h-26.65v-14.5h34.68a14.48 14.48 0 0 0 8.77 8.77v20.92zm14.09-27.77a4.83 4.83 0 1 1 -4.83 4.83 4.83 4.83 0 0 1 4.83-4.83zm-140 62.76h19.31v9.66h-19.31zm19.31-9.65h-19.31v-9.66h19.31zm4.79-19.31h-27l-16.48-16.48v-51.11h67.58v46.28l-10-10.07 3.83-3.83a4.83 4.83 0 0 0 -6.83-6.83l-14.48 14.49a4.83 4.83 0 1 0 6.83 6.82l3.83-3.83 16.89 16.9v7.66zm-43.44-86.9h67.58v9.66h-67.55zm-38.56 19.31h9.65v33.79h-9.65zm-19.34 43.43h48.27v7.66a9.54 9.54 0 0 0 2.83 6.82l16.48 16.52v28.69a43.61 43.61 0 0 0 -33.79-16.2 44.69 44.69 0 0 0 -19.86 4.83h-13.93zm33.79 120.69a33.8 33.8 0 1 1 33.79-33.79 33.79 33.79 0 0 1 -33.79 33.81zm43.45-38.62v-9.66h19.31v9.66zm29 0v-48.26h19.31a9.66 9.66 0 0 0 9.66-9.65v-24.16h24.13v53.41a3.35 3.35 0 0 0 -.55.11 38.82 38.82 0 0 0 -27.45 17.89l-.09.14a37.56 37.56 0 0 0 -4.45 10.45v.08zm86.9 9.65a29 29 0 1 1 -57.93 0 22.2 22.2 0 0 1 .33-4.15 29 29 0 0 1 57.6 4.15zm.32-54.46a9.64 9.64 0 0 0 -7.41-3.47h-17.09v-9.65h26.64l36.12 45.14v13.94zm47.88 59.31v-27l9.66-9.65v46.28h-9.66z"/><path d="m140.14 246.33h14.48a4.83 4.83 0 0 0 0-9.66h-14.48a4.83 4.83 0 1 0 0 9.66z"/><path d="m154.62 260.81a4.83 4.83 0 1 0 0-9.65h-14.48a4.83 4.83 0 1 0 0 9.65z"/></svg>