<svg viewBox="0 0 512 512" xmlns="http://www.w3.org/2000/svg"><circle cx="256" cy="256" fill="#ffb530" r="256"/><g fill="#f57e00"><path d="m167.62 210.23-17.62-39.6a4.44 4.44 0 0 0 -4.2-2.61l-8.8.36.36 8.8 5.81-.24 13.64 30.68h-15.21v8.8h14.88l-13.2 26.4h-5v8.8h7.72a4.4 4.4 0 0 0 3.94-2.44l17.6-35.2a4.43 4.43 0 0 0 .08-3.75z"/><path d="m188.58 342.72 141.62-28.58 1.75 8.62-141.63 28.58z"/><path d="m181.2 203.22h17.6v17.6h-17.6z"/><path d="m313.2 203.22h17.6v17.6h-17.6z"/><path d="m181.2 291.22h149.6v17.6h-149.6z"/></g><path d="m137.2 163.62a8.8 8.8 0 0 1 8.8 8.8v79.2a8.8 8.8 0 0 1 -17.6 0v-79.2a8.8 8.8 0 0 1 8.8-8.8z" fill="#ffb531"/><path d="m137.2 234a8.8 8.8 0 0 1 -8.8-8.8v26.4a8.8 8.8 0 0 0 17.6 0v-26.4a8.8 8.8 0 0 1 -8.8 8.8z" fill="#ffa912"/><path d="m286.8 141.62h-61.6l-26.4 61.6v35.2a35.2 35.2 0 0 0 35.2 35.2h44a35.2 35.2 0 0 0 35.2-35.2v-35.2z" fill="#ffb531"/><path d="m286.8 141.62h-26.4l26.4 61.6v35.2a35.2 35.2 0 0 1 -35.2 35.2h26.4a35.2 35.2 0 0 0 35.2-35.2v-35.2z" fill="#ffa912"/><path d="m230 164 2.81-6.55 8.09 3.47-2.9 6.58z" fill="#ffcb73"/><path d="m219.56 188.28 7.55-17.6 8.08 3.47-7.54 17.6z" fill="#ffcb73"/><path d="m163.6 185.62h17.6v154h-17.6z" fill="#ffb531"/><path d="m330.8 185.62h17.6v154h-17.6z" fill="#ffb531"/><path d="m383.6 273.62h-35.2v-88h22l13.2 17.6z" fill="#ffb531"/><path d="m203.2 339.62a30.8 30.8 0 1 1 -30.8-30.8 30.8 30.8 0 0 1 30.8 30.8z" fill="#3d4d63"/><path d="m185.6 339.62a13.2 13.2 0 1 1 -13.2-13.2 13.2 13.2 0 0 1 13.2 13.2z" fill="#e0e0de"/><path d="m176.8 339.62a4.4 4.4 0 1 1 -4.4-4.4 4.4 4.4 0 0 1 4.4 4.4z" fill="#ccccca"/><path d="m370.4 339.62a30.8 30.8 0 1 1 -30.8-30.8 30.8 30.8 0 0 1 30.8 30.8z" fill="#3d4d63"/><path d="m352.8 339.62a13.2 13.2 0 1 1 -13.2-13.2 13.2 13.2 0 0 1 13.2 13.2z" fill="#e0e0de"/><path d="m198.8 203.22h114.4v17.6h-114.4z" fill="#ffcb73"/><path d="m348.4 273.62h17.6v17.6h-17.6z" fill="#f57e00"/><path d="m361.6 207.62h8.8v8.8h-8.8z" fill="#348fd9"/><path d="m361.6 225.22h8.8v8.78h-8.8z" fill="#348fd9"/><path d="m348.4 185.62h8.8v88h-8.8z" fill="#ffa912"/><path d="m344 339.62a4.4 4.4 0 1 1 -4.4-4.4 4.4 4.4 0 0 1 4.4 4.4z" fill="#ccccca"/><path d="m198.8 220.82h114.4v8.8h-114.4z" fill="#ffa912"/><path d="m230 164 2.81-6.55 8.09 3.47-2.9 6.58z"/><path d="m219.56 188.28 7.55-17.6 8.08 3.47-7.54 17.6z"/><path d="m373.92 183a4.39 4.39 0 0 0 -3.52-1.76h-39.6a4.4 4.4 0 0 0 -4.4 4.4v13.2h-10.3l-25.26-58.94a4.4 4.4 0 0 0 -4-2.66h-61.64a4.4 4.4 0 0 0 -4 2.66l-25.3 58.92h-10.3v-13.2a4.4 4.4 0 0 0 -4.4-4.4h-17.6a4.4 4.4 0 0 0 -4.4 4.4v5.67l-8.92-20.08a13.17 13.17 0 0 0 -26.28 1.21v79.2a13.2 13.2 0 0 0 26.4 0v-3.36l8.8-17.6v76.34a35.2 35.2 0 1 0 47.39 40.82l99.88-20a35.2 35.2 0 1 0 46.33-20.82v-11.38h13.2a4.4 4.4 0 0 0 4.4-4.4v-13.22h13.2a4.4 4.4 0 0 0 4.4-4.4v-70.4a4.41 4.41 0 0 0 -.88-2.64zm-232.32 68.62a4.4 4.4 0 0 1 -8.8 0v-79.2a4.4 4.4 0 0 1 8.8 0zm8.8-23v-12.2h6.08zm0-21v-14.47l6.43 14.47zm184.8 83.6v-101.22h8.8v114.7a32.42 32.42 0 0 0 -8.8 0zm-17.6-83.6h8.8v8.8h-8.8zm-89.5-61.62h55.8l22.63 52.8h-101.06zm-24.9 61.6h105.6v8.8h-105.6zm0 17.6h105.6v13.2a30.84 30.84 0 0 1 -30.8 30.8h-44a30.84 30.84 0 0 1 -30.8-30.8zm-17.6-17.6h8.8v8.8h-8.8zm0 17.6h8.8v13.2a39.65 39.65 0 0 0 39.6 39.6h44a39.65 39.65 0 0 0 39.6-39.6v-13.2h8.8v61.6h-140.8zm0 70.4h140.8v8.8h-140.8zm-17.6-105.6h8.8v114.7a32.42 32.42 0 0 0 -8.8 0zm4.4 176a26.4 26.4 0 1 1 26.4-26.4 26.4 26.4 0 0 1 -26.4 26.4zm35.15-27.36a35.06 35.06 0 0 0 -11.94-25.44h120.78a35.76 35.76 0 0 0 -4.33 4.54zm158.45 1a26.4 26.4 0 1 1 -26.4-26.4 26.4 26.4 0 0 1 26.4 26.38zm-4.4-52.8h-8.8v-8.84h8.8zm17.6-17.6h-26.4v-79.24h15.4l11 14.66z"/><path d="m172.4 326.42a13.2 13.2 0 1 0 13.2 13.2 13.2 13.2 0 0 0 -13.2-13.2zm0 17.6a4.4 4.4 0 1 1 4.4-4.4 4.4 4.4 0 0 1 -4.4 4.38z"/><path d="m326.4 339.62a13.2 13.2 0 1 0 13.2-13.2 13.2 13.2 0 0 0 -13.2 13.2zm17.6 0a4.4 4.4 0 1 1 -4.4-4.4 4.4 4.4 0 0 1 4.4 4.4z"/><path d="m361.6 207.62h8.8v8.8h-8.8z"/><path d="m361.6 225.22h8.8v8.78h-8.8z"/></svg>