<svg xmlns="http://www.w3.org/2000/svg" viewBox="0 0 768 512"><defs><style>.cls-1{fill:#f7887f;}.cls-2{fill:#ffb531;}.cls-3{fill:#419bc2;}.cls-4{fill:#4db7e5;}.cls-5{fill:#ccccca;}.cls-6{fill:#f57e00;}.cls-7{fill:#3d4d63;}</style></defs><title>wld-01-activate</title><g id="Equipments"><g id="base"><ellipse class="cls-1" cx="385" cy="256" rx="382" ry="253.34"/></g><g id="icon-wheel_loader"><g id="color"><path class="cls-2" d="M184.57,250.12H202a56.06,56.06,0,0,1,24.82-6,54.5,54.5,0,0,1,42.24,20.26V228.48l-20.6-20.6a12,12,0,0,1-3.54-8.54v-9.57H184.57Z"/><rect class="cls-3" x="256.98" y="111.33" width="84.48" height="12.07"/><path class="cls-4" d="M341.47,220v-9.57l-21.13-21.12L315.56,194a6,6,0,1,1-8.53-8.53l18.1-18.11a6,6,0,0,1,8.53,8.54l-4.78,4.78,12.59,12.59V135.46H257v63.88L277.59,220h63.88Z"/><polygon class="cls-5" points="507.5 256.15 486.29 276.75 486.29 310.46 486.29 322.53 591.47 322.53 566.47 256.15 507.5 256.15"/><rect class="cls-6" x="281.12" y="232.02" width="24.14" height="12.07"/><path class="cls-7" d="M269.05,298.39a42.24,42.24,0,1,0-42.24,42.25A42.24,42.24,0,0,0,269.05,298.39Z"/><rect class="cls-5" x="208.71" y="135.46" width="12.07" height="42.24"/><path class="cls-7" d="M389.74,340.64A36.06,36.06,0,1,0,354,299.24a28.19,28.19,0,0,0-.43,5.19A36.22,36.22,0,0,0,389.74,340.64Z"/><path class="cls-2" d="M395.78,189.77v18.11h33.31a12,12,0,0,1,9.42,4.53l11.58,14.48V200.73a18,18,0,0,1-11-11Z"/><path class="cls-6" d="M395.78,220V232h21.3a12,12,0,0,1,9.27,4.34l47.87,57.44V276.38L429.08,220Z"/><rect class="cls-6" x="281.12" y="280.29" width="24.14" height="12.07"/><rect class="cls-6" x="281.12" y="256.15" width="24.14" height="12.07"/><circle class="cls-5" cx="456.12" cy="183.74" r="6.03"/><path class="cls-2" d="M343.07,292.28a47.07,47.07,0,0,1,5.59-13.09l.11-.18A48.49,48.49,0,0,1,383,256.68a4,4,0,0,1,.69-.15V189.77H353.53V220A12.07,12.07,0,0,1,341.47,232H317.33v60.34h25.74Z"/></g><path class="cls-5" d="M371.64,304.43a18.1,18.1,0,1,0,18.1-18.1A18.1,18.1,0,0,0,371.64,304.43Z"/><path class="cls-5" d="M226.81,274.26A24.14,24.14,0,1,0,251,298.39,24.13,24.13,0,0,0,226.81,274.26Z"/><path d="M371.64,304.43a18.1,18.1,0,1,0,18.1-18.1A18.1,18.1,0,0,0,371.64,304.43Zm24.14,0a6,6,0,1,1-6-6A6,6,0,0,1,395.78,304.43Z"/><path d="M226.81,274.26A24.14,24.14,0,1,0,251,298.39,24.13,24.13,0,0,0,226.81,274.26Zm0,36.2a12.07,12.07,0,1,1,12.07-12.07A12.07,12.07,0,0,1,226.81,310.46Z"/><path d="M202.67,213.91h18.11a6,6,0,0,0,0-12.07H202.67a6,6,0,0,0,0,12.07Z"/><path d="M220.78,232a6,6,0,0,0,0-12.07H202.67a6,6,0,0,0,0,12.07Z"/><path d="M597.12,326.54h0l-.1-.23c0-.06,0-.11-.07-.17l-30.27-70a6,6,0,0,0-.24-12H504.4c-.14,0-.24.07-.38.08a8,8,0,0,0-2.16.52,6,6,0,0,0-1.71,1.15l-19.39,19.38L462.16,242V200.73a18.06,18.06,0,1,0-23-23h-85.6V111.33a12.06,12.06,0,0,0-12.06-12.07H257a12.07,12.07,0,0,0-12.07,12.07v66.38H232.84V135.46a12.07,12.07,0,0,0-12.06-12.07v-6a18.1,18.1,0,0,0-18.11-18.1,6,6,0,0,0,0,12.07,6,6,0,0,1,6,6v6a12.07,12.07,0,0,0-12.07,12.07v42.25H184.57a12.06,12.06,0,0,0-12.07,12.06v60.35a12.07,12.07,0,0,0,12.07,12.07h1.91a54.25,54.25,0,1,0,94.28,42.24h60.71a48.27,48.27,0,1,0,54.31-47.86V244.08h21.3l57.14,68.57v9.88a12.07,12.07,0,0,0,12.07,12.07H591.47a6,6,0,0,0,6-6A5.9,5.9,0,0,0,597.12,326.54ZM257,111.33h84.49v12.06H257Zm-48.27,24.13h12.07v42.25H208.71Zm18.1,205.18a42.25,42.25,0,1,1,42.24-42.25A42.24,42.24,0,0,1,226.81,340.64Zm42.24-76.3a54.5,54.5,0,0,0-42.24-20.26,56.06,56.06,0,0,0-24.82,6H184.57V189.77h60.34v9.57a12,12,0,0,0,3.54,8.54l20.6,20.6Zm36.21,28H281.12V280.29h24.14Zm0-24.14H281.12V256.15h24.14Zm0-24.14H281.12V232h24.14ZM277.58,220,257,199.34V135.46h84.49v57.85l-12.59-12.59,4.78-4.78a6,6,0,0,0-8.53-8.54L307,185.51a6,6,0,1,0,8.53,8.53l4.78-4.78,21.13,21.12V220H277.58Zm71.08,59.24a47.07,47.07,0,0,0-5.59,13.09v.09H317.33V232h24.14A12.07,12.07,0,0,0,353.53,220V189.77h30.18v66.76a4,4,0,0,0-.69.15A48.49,48.49,0,0,0,348.77,279ZM426,304.43a36.21,36.21,0,1,1-72.42,0,28.19,28.19,0,0,1,.43-5.19,36.21,36.21,0,0,1,72,5.19Zm30.17-126.72a6,6,0,1,1-6,6A6,6,0,0,1,456.12,177.71Zm-60.34,12.06h43.35a18,18,0,0,0,11,11v26.16l-11.58-14.48a12,12,0,0,0-9.42-4.53H395.78Zm78.44,104-47.87-57.44a12,12,0,0,0-9.27-4.34h-21.3V220h33.3l45.14,56.43Zm24.14,28.73H486.29V276.76l21.21-20.61h46.08l28.69,66.38H498.36Z"/></g><path d="M355.9,439.38,362.6,404h10.22l-11,49.77H351.45l-8.1-33.29-8.1,33.29H324.93l-11-49.77h10.22l6.73,35.35L339.05,404h8.68Z"/><path d="M388.61,445.5h21.77v8.24h-32V404h10.26Z"/><path d="M416.26,453.74V404h15.31a23.24,23.24,0,0,1,11.74,3,20.54,20.54,0,0,1,8.08,8.41,25.87,25.87,0,0,1,2.91,12.39V430a26.06,26.06,0,0,1-2.85,12.34,20.49,20.49,0,0,1-8.05,8.37,23.47,23.47,0,0,1-11.73,3Zm10.25-41.46V445.5h5q6,0,9.19-3.93t3.25-11.24V427.7q0-7.59-3.15-11.51t-9.19-3.91Z"/></g></svg>