<svg viewBox="0 0 512 512" xmlns="http://www.w3.org/2000/svg"><circle cx="256" cy="256" fill="#ffb530" r="256"/><path d="m384 294.31h11.15v-54.06h-43.15a10.8 10.8 0 0 1 -10.81-10.81v-10.81a10.81 10.81 0 0 1 10.81-10.81h43.24a16.22 16.22 0 0 0 -16.24-16.21h-48.67v64.86h10.81a43.3 43.3 0 0 1 42.86 37.84z" fill="#ffb531"/><path d="m124.77 256.42 165.18.05a45.19 45.19 0 0 0 7.95-27 44.83 44.83 0 0 0 -7.95-27h-24.48c0 .42-.07.84-.13 1.25s0 .62-.1.91a10.8 10.8 0 0 1 -10.58 8.65h-33.78a10.81 10.81 0 0 1 -10.81-10.81h-85.3a45.17 45.17 0 0 0 -7.94 27 44.8 44.8 0 0 0 7.94 26.95z" fill="#ccccca"/><path d="m220.88 191.61h33.78v10.81h-33.78z" fill="#ffb531"/><path d="m351.95 218.63h10.81v10.81h-10.81z" fill="#4db7e5"/><path d="m373.57 218.63h21.62v10.81h-21.62z" fill="#4db7e5"/><circle cx="337.14" cy="301.2" fill="#3d4d63" r="26.77"/><circle cx="337.14" cy="301.2" fill="#ccccca" r="13.98"/><path d="m337.14 271.2a30 30 0 1 0 30 30 30 30 0 0 0 -30-30zm0 53.34a23.34 23.34 0 1 1 23.33-23.34 23.33 23.33 0 0 1 -23.33 23.34z"/><path d="m337.14 284.54a16.67 16.67 0 1 0 16.67 16.66 16.66 16.66 0 0 0 -16.67-16.66zm0 26.66a10 10 0 1 1 10-10 10 10 0 0 1 -10 10z"/><circle cx="270.14" cy="301.2" fill="#3d4d63" r="26.77"/><circle cx="270.14" cy="301.2" fill="#ccccca" r="13.98"/><path d="m270.14 271.2a30 30 0 1 0 30 30 30 30 0 0 0 -30-30zm0 53.34a23.34 23.34 0 1 1 23.33-23.34 23.34 23.34 0 0 1 -23.33 23.34z"/><path d="m270.14 284.54a16.67 16.67 0 1 0 16.66 16.66 16.66 16.66 0 0 0 -16.66-16.66zm0 26.66a10 10 0 1 1 10-10 10 10 0 0 1 -10 10z"/><circle cx="202.14" cy="301.2" fill="#3d4d63" r="26.77"/><circle cx="202.14" cy="301.2" fill="#ccccca" r="13.98"/><path d="m202.14 271.2a30 30 0 1 0 30 30 30 30 0 0 0 -30-30zm0 53.34a23.34 23.34 0 1 1 23.33-23.34 23.34 23.34 0 0 1 -23.33 23.34z"/><path d="m202.14 284.54a16.67 16.67 0 1 0 16.66 16.66 16.66 16.66 0 0 0 -16.66-16.66zm0 26.66a10 10 0 1 1 10-10 10 10 0 0 1 -10 10z"/><circle cx="136.14" cy="301.2" fill="#3d4d63" r="26.77"/><circle cx="136.14" cy="301.2" fill="#ccccca" r="13.98"/><path d="m136.14 271.2a30 30 0 1 0 30 30 30 30 0 0 0 -30-30zm0 53.34a23.34 23.34 0 1 1 23.33-23.34 23.34 23.34 0 0 1 -23.33 23.34z"/><path d="m136.14 284.54a16.67 16.67 0 1 0 16.66 16.66 16.66 16.66 0 0 0 -16.66-16.66zm0 26.66a10 10 0 1 1 10-10 10 10 0 0 1 -10 10z"/><path d="m379 180.8h-48.67a10.81 10.81 0 0 0 -10.81 10.81v64.86h-17a58.92 58.92 0 0 0 6.19-27 55.77 55.77 0 0 0 -10-33.28 10.6 10.6 0 0 0 -8.77-4.55h-24.47a10.81 10.81 0 0 0 -10.81-10.81h-33.78a10.81 10.81 0 0 0 -10.81 10.81h-85.3a10.54 10.54 0 0 0 -8.65 4.38 55.82 55.82 0 0 0 -10.12 33.42 55.7 55.7 0 0 0 10 33.29 10.62 10.62 0 0 0 8.77 4.55h216.37a32.47 32.47 0 0 1 32.43 32.43 5.41 5.41 0 0 0 5.4 5.41h16.22a10.81 10.81 0 0 0 10.81-10.81v-86.49a27.06 27.06 0 0 0 -27-27.02zm-158.12 10.81h33.78v10.81h-33.78zm-104 37.83a45.17 45.17 0 0 1 7.94-27h85.3a10.81 10.81 0 0 0 10.81 10.81h33.78a10.8 10.8 0 0 0 10.58-8.65c.06-.29.06-.61.1-.91s.11-.83.13-1.25h24.48a44.83 44.83 0 0 1 7.95 27 45.19 45.19 0 0 1 -7.95 27l-165.18-.05a44.8 44.8 0 0 1 -7.99-26.95zm267.12 64.87a43.3 43.3 0 0 0 -42.9-37.84h-10.77v-64.86h48.67a16.22 16.22 0 0 1 16.22 16.21h-43.22a10.81 10.81 0 0 0 -10.81 10.81v10.81a10.8 10.8 0 0 0 10.81 10.81h43.24v54.06zm-32-64.87v-10.81h10.81v10.81zm21.62-10.81h21.62v10.81h-21.67z"/><path d="m199.26 213.23h-60.81a5.41 5.41 0 1 0 0 10.81h60.81a5.41 5.41 0 0 0 0-10.81z"/><path d="m281.68 234.85h-44.59a5.41 5.41 0 0 0 0 10.81h44.59a5.41 5.41 0 1 0 0-10.81z"/></svg>