<?xml version="1.0" encoding="utf-8"?>
<!-- Generator: Adobe Illustrator 23.0.3, SVG Export Plug-In . SVG Version: 6.00 Build 0)  -->
<svg version="1.1" id="Layer_1" xmlns="http://www.w3.org/2000/svg" xmlns:xlink="http://www.w3.org/1999/xlink" x="0px" y="0px"
	 viewBox="0 0 75 75" style="enable-background:new 0 0 75 75;" xml:space="preserve">
<style type="text/css">
	.st0{fill-rule:evenodd;clip-rule:evenodd;fill:#3C9AD6;}
	.st1{fill-rule:evenodd;clip-rule:evenodd;fill:#FFFFFF;}
</style>
<path class="st0" d="M37.5,2.5c19.3,0,35,15.7,35,35s-15.7,35-35,35c-19.3,0-35-15.7-35-35S18.2,2.5,37.5,2.5z"/>
<path class="st1" d="M37.5,0C16.8,0,0,16.8,0,37.5S16.8,75,37.5,75S75,58.2,75,37.5S58.2,0,37.5,0z M51,38.5c0,1.1-0.9,2-2,2H26
	c-1.1,0-2-0.9-2-2v-2c0-1.1,0.9-2,2-2h23c1.1,0,2,0.9,2,2V38.5z"/>
</svg>
