<?xml version="1.0" encoding="utf-8"?>
<!-- Generator: Adobe Illustrator 23.0.3, SVG Export Plug-In . SVG Version: 6.00 Build 0)  -->
<svg version="1.1" id="Capa_1" xmlns="http://www.w3.org/2000/svg" xmlns:xlink="http://www.w3.org/1999/xlink" x="0px" y="0px"
	 viewBox="0 0 489.8 489.8" style="enable-background:new 0 0 489.8 489.8;" xml:space="preserve">
<style type="text/css">
	.st0{fill:#1D95E2;}
</style>
<g id="XMLID_198_">
	<g id="XMLID_201_">
		<path id="XMLID_202_" class="st0" d="M275.2,212.8c3.6,3.6,8.7,5.1,13.6,4.2l138.6-26c6.3-1.2,11.4-5.7,13.2-11.8
			c1.9-6.1,0.2-12.7-4.3-17.2l-22-22L483,71.5c5.6-5.6,5.6-14.6,0-20.2L435.8,4.2c-5.6-5.6-14.6-5.6-20.2,0l-68.6,68.6l-22-22
			c-4.5-4.5-11.2-6.1-17.2-4.2c-6.1,1.9-10.6,7-11.8,13.3l-25.2,139.3C270,204.1,271.6,209.2,275.2,212.8z"/>
	</g>
	<g id="XMLID_199_">
		<path id="XMLID_200_" class="st0" d="M142.8,417l22,22c4.5,4.5,11.2,6.1,17.2,4.2c6.1-1.9,10.6-7,11.8-13.3L219,290.6
			c0.9-5-0.7-10.1-4.3-13.6c-3.6-3.6-8.7-5.1-13.6-4.2l-138.6,26c-6.3,1.2-11.4,5.7-13.2,11.8c-1.9,6.1-0.2,12.7,4.3,17.2l22,22
			L6.8,418.2c-5.6,5.6-5.6,14.6,0,20.2L54,485.6c5.6,5.6,14.6,5.6,20.2,0L142.8,417z"/>
	</g>
</g>
</svg>
