<?xml version="1.0" encoding="utf-8"?>
<!-- Generator: Adobe Illustrator 23.0.3, SVG Export Plug-In . SVG Version: 6.00 Build 0)  -->
<svg version="1.1" id="Layer_1" xmlns="http://www.w3.org/2000/svg" xmlns:xlink="http://www.w3.org/1999/xlink" x="0px" y="0px"
	 viewBox="0 0 512 512" style="enable-background:new 0 0 512 512;" xml:space="preserve">
<style type="text/css">
	.st0{fill:#9196A9;}
	.st1{fill:#BF5B00;}
	.st2{fill:#DCE1EA;}
	.st3{fill:#BEC3D1;}
	.st4{fill:#E38100;}
</style>
<path class="st0" d="M230.4,349.9h51.2v85.3h-51.2V349.9z"/>
<path class="st1" d="M213.3,418.1h85.3v42.7h-85.3V418.1z"/>
<path class="st2" d="M119.5,452.3h273.1c14.1,0,25.6,11.5,25.6,25.6c0,14.1-11.5,25.6-25.6,25.6H119.5c-14.1,0-25.6-11.5-25.6-25.6
	C93.9,463.7,105.3,452.3,119.5,452.3z"/>
<path class="st2" d="M435.2,187.7c0,99-80.2,179.2-179.2,179.2c-99,0-179.2-80.2-179.2-179.2C76.8,88.8,157,8.5,256,8.5
	C355,8.5,435.2,88.8,435.2,187.7z"/>
<path class="st3" d="M373.8,52.9c61.9,70.9,58.2,177.7-8.3,244.3c-66.6,66.6-173.3,70.2-244.3,8.3c43.9,50.6,112.4,72.4,177.5,56.6
	c65.1-15.8,115.9-66.6,131.7-131.7C446.1,165.3,424.3,96.8,373.8,52.9z"/>
<g>
	<path class="st4" d="M401.1,187.7c0,20.9,9.6,40.6,26,53.5c10.9-34.9,10.9-72.2,0-107.1C410.6,147.1,401.1,166.9,401.1,187.7z"/>
	<path class="st4" d="M366.9,187.7c0,61.3-49.7,110.9-110.9,110.9S145.1,249,145.1,187.7S194.7,76.8,256,76.8
		S366.9,126.5,366.9,187.7z"/>
	<path class="st4" d="M85,241.3c16.4-12.9,26-32.6,26-53.5c0-20.9-9.6-40.6-26-53.5C74.1,169.1,74.1,206.4,85,241.3z"/>
</g>
<path class="st1" d="M434.4,171.8c-0.3-3.1-0.6-6.2-1.1-9.3c-0.2-1.1-0.3-2.1-0.4-3.2c-0.6-3.9-1.3-7.7-2.2-11.4
	c-0.3-1.2-0.6-2.3-0.9-3.4c-0.6-2.6-1.4-5.2-2.1-7.8c-0.2-0.8-0.5-1.6-0.8-2.4c-4,3.2-7.7,6.8-10.9,10.8c4,25.8,2.1,52.2-5.6,77.1
	c4.3,7.3,9.9,13.8,16.5,19.1c0.2-0.6,0.3-1.2,0.5-1.8c1.4-4.5,2.5-9,3.5-13.7c0.4-1.7,0.7-3.4,1-5.1c0.7-3.8,1.3-7.6,1.7-11.5
	c0.2-1.7,0.4-3.3,0.6-5c0.5-5.4,0.9-10.9,0.9-16.5c0-4.2-0.2-8.3-0.5-12.4C434.6,174.2,434.5,173,434.4,171.8z"/>
<path class="st3" d="M394.6,452.5c6.7,7.5,8.4,18.3,4.2,27.4c-4.1,9.2-13.3,15.1-23.4,15H102.4c-0.7,0-1.4-0.1-2.1-0.2
	c4.8,5.5,11.8,8.7,19.1,8.7h273.1c13.7,0,24.9-10.8,25.5-24.5C418.6,465.3,408.3,453.6,394.6,452.5z"/>
<path class="st2" d="M307.2,187.7c0,28.3-22.9,51.2-51.2,51.2c-28.3,0-51.2-22.9-51.2-51.2c0-28.3,22.9-51.2,51.2-51.2
	C284.3,136.5,307.2,159.5,307.2,187.7z"/>
<path class="st3" d="M287.6,147.6c16.1,20.3,14.4,49.5-3.9,67.9c-18.4,18.4-47.5,20-67.9,3.9c12.2,15.5,32.2,22.7,51.5,18.3
	s34.3-19.4,38.6-38.6C310.3,179.8,303.2,159.8,287.6,147.6z"/>
<path class="st0" d="M273.1,187.7c0,9.4-7.6,17.1-17.1,17.1c-9.4,0-17.1-7.6-17.1-17.1c0-9.4,7.6-17.1,17.1-17.1
	C265.4,170.7,273.1,178.3,273.1,187.7z"/>
<path d="M375.5,187.7c0-66-53.5-119.5-119.5-119.5s-119.5,53.5-119.5,119.5S190,307.2,256,307.2C322,307.1,375.4,253.7,375.5,187.7z
	 M153.6,187.7c0-56.6,45.8-102.4,102.4-102.4s102.4,45.8,102.4,102.4S312.6,290.1,256,290.1C199.5,290.1,153.7,244.3,153.6,187.7z"
	/>
<path d="M315.7,187.7c0-33-26.7-59.7-59.7-59.7c-33,0-59.7,26.7-59.7,59.7c0,33,26.7,59.7,59.7,59.7
	C289,247.4,315.7,220.7,315.7,187.7z M213.3,187.7c0-23.6,19.1-42.7,42.7-42.7c23.6,0,42.7,19.1,42.7,42.7
	c0,23.6-19.1,42.7-42.7,42.7C232.5,230.4,213.4,211.3,213.3,187.7z"/>
<path d="M185.3,193.8c3.3-3.4,3.3-8.8,0-12.1c-2.5-2.4-6.1-3.1-9.3-1.8c-1,0.4-2,1-2.8,1.8c-3.3,3.3-3.3,8.8,0,12.1
	C176.5,197.1,181.9,197.1,185.3,193.8z"/>
<path d="M191,214c-2.1-0.9-4.4-0.9-6.5,0c-1,0.4-2,1-2.8,1.8c-3.3,3.4-3.3,8.8,0,12.1c0.8,0.8,1.8,1.4,2.8,1.8
	c2.1,0.9,4.4,0.9,6.5,0c1-0.4,2-1,2.8-1.8c3.3-3.4,3.3-8.8,0-12.1C193,215,192,214.4,191,214z"/>
<path d="M187.7,162.1c1.1,0,2.2-0.2,3.2-0.7c1-0.4,2-1,2.8-1.8c3.3-3.4,3.3-8.8,0-12.1c-0.8-0.8-1.8-1.4-2.8-1.8
	c-3.2-1.3-6.8-0.6-9.3,1.8c-0.8,0.8-1.4,1.8-1.8,2.8c-0.4,1-0.7,2.1-0.7,3.2c0,2.3,0.9,4.4,2.5,6.1
	C183.3,161.2,185.5,162.1,187.7,162.1z"/>
<path d="M329.6,179.9c-1,0.4-2,1-2.8,1.8c-3.3,3.4-3.3,8.8,0,12.1c0.8,0.8,1.8,1.4,2.8,1.8c1,0.4,2.1,0.7,3.2,0.7
	c2.3,0,4.4-0.9,6.1-2.5c0.3-0.4,0.7-0.9,1-1.4c0.3-0.4,0.6-0.9,0.8-1.4c0.2-0.5,0.4-1,0.5-1.5c0.1-0.6,0.2-1.1,0.2-1.7
	c0-2.3-0.9-4.4-2.5-6.1C336.4,179.3,332.7,178.6,329.6,179.9z"/>
<path d="M318.2,215.8c-3.3,3.3-3.3,8.7,0,12.1c3.3,3.3,8.7,3.3,12,0c3.3-3.3,3.3-8.7,0-12.1C326.9,212.7,321.6,212.7,318.2,215.8z"
	/>
<path d="M324.3,162.1c2.3,0,4.4-0.9,6.1-2.5c0.3-0.4,0.7-0.9,1-1.4c0.3-0.4,0.6-0.9,0.8-1.4c0.2-0.5,0.4-1,0.5-1.5
	c0.1-0.6,0.2-1.1,0.2-1.7c0-4.7-3.8-8.5-8.5-8.5s-8.5,3.8-8.5,8.5C315.7,158.3,319.6,162.1,324.3,162.1z"/>
<path d="M281.6,187.7c0-14.1-11.5-25.6-25.6-25.6c-14.1,0-25.6,11.5-25.6,25.6c0,14.1,11.5,25.6,25.6,25.6
	C270.1,213.3,281.6,201.9,281.6,187.7z M247.5,187.7c0-4.7,3.8-8.5,8.5-8.5s8.5,3.8,8.5,8.5c0,4.7-3.8,8.5-8.5,8.5
	S247.5,192.4,247.5,187.7z"/>
<path d="M249.9,48.7c1.6,1.6,3.8,2.4,6.1,2.5c1.1,0,2.2-0.2,3.2-0.7c1-0.4,2-1,2.8-1.8c0.8-0.8,1.4-1.8,1.8-2.8
	c0.4-1,0.7-2.1,0.7-3.2c0-2.3-0.9-4.4-2.5-6.1c-0.8-0.8-1.8-1.4-2.8-1.8c-3.2-1.3-6.8-0.6-9.3,1.8c-1.6,1.6-2.4,3.8-2.5,6.1
	c0,1.1,0.2,2.2,0.7,3.2C248.6,46.9,249.2,47.9,249.9,48.7z"/>
<path d="M435.1,243.9l0.1-0.1c0.1-0.3,0.1-0.5,0.2-0.8c1.1-3.7,2.1-7.4,3-11.2c0.3-1.1,0.5-2.3,0.8-3.4c0.9-4,1.7-8,2.3-12.1
	c0-0.2,0-0.4,0.1-0.6c0.6-4,1-8,1.4-12.1c0.1-1.1,0.2-2.1,0.2-3.2c0.3-4.2,0.5-8.5,0.5-12.7c0-4.3-0.2-8.5-0.5-12.7
	c-0.1-1.1-0.2-2.1-0.2-3.2c-0.3-4.1-0.8-8.1-1.4-12.1c0-0.2,0-0.4-0.1-0.6c-0.6-4.1-1.4-8.1-2.3-12.1c-0.3-1.2-0.5-2.3-0.8-3.4
	c-0.9-3.8-1.9-7.5-3-11.2c-0.1-0.3-0.1-0.5-0.2-0.8l-0.1-0.1C410.6,53.3,338.1,0,256,0S101.4,53.3,76.9,131.6l-0.1,0.1
	c-0.1,0.3-0.1,0.5-0.2,0.8c-1.1,3.7-2.1,7.4-3,11.2c-0.3,1.1-0.5,2.3-0.8,3.4c-0.8,4-1.7,8-2.3,12.1c0,0.2,0,0.4-0.1,0.6
	c-0.6,4-1,8-1.4,12.1c-0.1,1.1-0.2,2.1-0.2,3.2c-0.3,4.2-0.5,8.5-0.5,12.7c0,4.3,0.2,8.5,0.5,12.7c0.1,1.1,0.2,2.1,0.2,3.2
	c0.3,4.1,0.8,8.1,1.4,12.1c0,0.2,0,0.4,0.1,0.6c0.6,4.1,1.4,8.1,2.3,12.1c0.3,1.1,0.5,2.3,0.8,3.4c0.9,3.8,1.9,7.5,3,11.2
	c0.1,0.3,0.1,0.5,0.2,0.8l0.1,0.1c20.9,66.3,76.7,115.7,145,128.4v37.3h-8.5c-4.7,0-8.5,3.8-8.5,8.5v25.6h-85.3
	c-18.8,0-34.1,15.3-34.1,34.1c0,18.9,15.3,34.1,34.1,34.1h273.1c18.9,0,34.1-15.3,34.1-34.1c0-18.9-15.3-34.1-34.1-34.1h-85.3v-25.6
	c0-4.7-3.8-8.5-8.5-8.5h-8.5v-37.3C358.5,359.5,414.2,310.2,435.1,243.9z M423,152.6c0.1,0.7,0.2,1.3,0.4,2c1,5,1.8,10.1,2.3,15.3
	c0.1,0.5,0.1,0.9,0.1,1.4c0.5,5.4,0.9,10.9,0.9,16.5c0,5.6-0.3,11.1-0.9,16.5c0,0.4-0.1,0.9-0.1,1.3c-0.5,5.2-1.4,10.2-2.3,15.3
	c-0.1,0.7-0.2,1.3-0.4,2c-0.1,0.7-0.4,1.3-0.5,1.9c-17.2-21.7-17.2-52.4,0-74C422.7,151.4,422.9,152,423,152.6z M89,222.9
	c-0.1-0.7-0.2-1.3-0.4-2c-1-5-1.8-10.1-2.3-15.3c-0.1-0.5-0.1-0.9-0.1-1.3c-0.5-5.4-0.8-10.9-0.8-16.5c0-5.6,0.3-11.1,0.9-16.5
	c0-0.4,0.1-0.9,0.1-1.4c0.5-5.2,1.3-10.2,2.3-15.3c0.1-0.7,0.2-1.3,0.4-2c0.1-0.7,0.3-1.3,0.5-1.9c17.2,21.7,17.2,52.4,0,74
	C89.4,224.1,89.1,223.5,89,222.9z M95,243.8c15.6-14.4,24.5-34.8,24.5-56c0-21.3-8.9-41.6-24.5-56c23.8-68.6,88.4-114.6,161-114.6
	s137.3,46,161,114.6c-15.6,14.4-24.5,34.8-24.5,56c0,21.3,8.9,41.6,24.5,56c-23.8,68.6-88.4,114.6-161,114.6S118.7,312.4,95,243.8z
	 M409.6,477.9c0,9.4-7.6,17.1-17.1,17.1H119.5c-9.4,0-17.1-7.6-17.1-17.1c0-9.4,7.6-17.1,17.1-17.1h273.1
	C402,460.8,409.6,468.4,409.6,477.9z M221.9,443.7v-17.1h68.3v17.1H221.9z M273.1,409.6h-34.1v-34.9c5.6,0.5,11.3,0.8,17.1,0.8
	c5.8,0,11.4-0.3,17.1-0.8V409.6z"/>
</svg>
