<?xml version="1.0" encoding="utf-8"?>
<!-- Generator: Adobe Illustrator 23.0.3, SVG Export Plug-In . SVG Version: 6.00 Build 0)  -->
<svg version="1.1" id="Capa_1" xmlns="http://www.w3.org/2000/svg" xmlns:xlink="http://www.w3.org/1999/xlink" x="0px" y="0px"
	 viewBox="0 0 489.8 489.8" style="enable-background:new 0 0 489.8 489.8;" xml:space="preserve">
<style type="text/css">
	.st0{fill:#1D95E2;}
</style>
<g id="XMLID_198_">
	<g id="XMLID_201_">
		<path id="XMLID_202_" class="st0" d="M482.7,4.5c-3.6-3.6-8.7-5.1-13.6-4.2l-138.6,26c-6.3,1.2-11.4,5.7-13.2,11.8
			c-1.9,6.1-0.2,12.7,4.3,17.2l22,22l-68.6,68.6c-5.6,5.6-5.6,14.6,0,20.2l47.2,47.1c5.6,5.6,14.6,5.6,20.2,0l68.6-68.6l22,22
			c4.5,4.5,11.2,6.1,17.2,4.2c6.1-1.9,10.6-7,11.8-13.3L487,18.1C487.9,13.1,486.3,8,482.7,4.5z"/>
	</g>
	<g id="XMLID_199_">
		<path id="XMLID_200_" class="st0" d="M79,345.3l-22-22c-4.5-4.5-11.2-6.1-17.2-4.2c-6.1,1.9-10.6,7-11.8,13.3L2.8,471.7
			c-0.9,5,0.7,10.1,4.3,13.6c3.6,3.6,8.7,5.1,13.6,4.2l138.6-26c6.3-1.2,11.4-5.7,13.2-11.8c1.9-6.1,0.2-12.7-4.3-17.2l-22-22
			l68.7-68.5c5.6-5.6,5.6-14.6,0-20.2l-47.3-47.2c-5.6-5.6-14.6-5.6-20.2,0L79,345.3z"/>
	</g>
</g>
</svg>
