<?xml version="1.0" encoding="utf-8"?>
<!-- Generator: Adobe Illustrator 23.0.3, SVG Export Plug-In . SVG Version: 6.00 Build 0)  -->
<svg version="1.1" id="Layer_1" xmlns="http://www.w3.org/2000/svg" xmlns:xlink="http://www.w3.org/1999/xlink" x="0px" y="0px"
	 viewBox="0 0 512 512" style="enable-background:new 0 0 512 512;" xml:space="preserve">
<style type="text/css">
	.st0{fill:#FFFFFF;}
</style>
<path class="st0" d="M512,256c0,68.4-26.6,132.7-75,181c-3.9,3.9-9,5.9-14.1,5.9c-5.1,0-10.2-2-14.1-5.9c-7.8-7.8-7.8-20.5,0-28.3
	c84.2-84.2,84.2-221.2,0-305.5s-221.2-84.2-305.5,0s-84.2,221.2,0,305.5c7.8,7.8,7.8,20.5,0,28.3c-7.8,7.8-20.5,7.8-28.3,0
	C26.6,388.7,0,324.4,0,256S26.6,123.3,75,75S187.6,0,256,0s132.7,26.6,181,75S512,187.6,512,256z M188.1,188.1
	c-24.2,24.2-33.7,59.8-24.8,92.9c2.9,10.7,13.8,17,24.5,14.1c10.7-2.9,17-13.8,14.1-24.5c-5.2-19.3,0.3-40.1,14.5-54.2
	c21.8-21.8,57.4-21.8,79.2,0c14.1,14.1,19.7,34.9,14.5,54.2c-2.9,10.7,3.4,21.6,14.1,24.5c1.7,0.5,3.5,0.7,5.2,0.7
	c8.8,0,16.9-5.9,19.3-14.8c8.9-33.1-0.6-68.7-24.8-92.9C286.5,150.7,225.5,150.7,188.1,188.1z M431.8,248.1
	c-2-44-20.2-85.4-51.4-116.6c-68.6-68.6-180.3-68.6-248.9,0c-63.4,63.3-69.1,163.9-13.4,233.9c6.9,8.6,19.5,10.1,28.1,3.2
	c8.6-6.9,10.1-19.5,3.2-28.1c-43-54.1-38.6-131.8,10.4-180.7c53-53,139.3-53,192.3,0c49.9,49.9,53.6,128.4,8.8,182.7
	c-7,8.5-5.8,21.1,2.7,28.2c3.7,3.1,8.2,4.6,12.7,4.6c5.8,0,11.5-2.5,15.4-7.3C419.5,334.4,433.8,291.9,431.8,248.1z M324,472h-48
	V256c0-11-9-20-20-20s-20,9-20,20v216h-48c-11,0-20,9-20,20s9,20,20,20h136c11,0,20-9,20-20S335,472,324,472z"/>
</svg>
