<?xml version="1.0" encoding="utf-8"?>
<!-- Generator: Adobe Illustrator 23.0.3, SVG Export Plug-In . SVG Version: 6.00 Build 0)  -->
<svg version="1.1" id="Layer_1" xmlns="http://www.w3.org/2000/svg" xmlns:xlink="http://www.w3.org/1999/xlink" x="0px" y="0px"
	 viewBox="0 0 511 512" style="enable-background:new 0 0 511 512;" xml:space="preserve">
<style type="text/css">
	.st0{fill:#FFFFFF;}
</style>
<path class="st0" d="M289.6,334.5c-9.4,0-17.1,7.6-17.1,17.1c0,9.4,7.6,17.1,17.1,17.1s17.1-7.6,17.1-17.1
	C306.7,342.2,299.1,334.5,289.6,334.5z"/>
<path class="st0" d="M50.7,436.9h409.6c28.2,0,51.2-23,51.2-51.2c0-43,0-228.5,0-259.4c0-28.2-23-51.2-51.2-51.2H50.7
	c-28.2,0-51.2,23-51.2,51.2v259.4C-0.5,413.9,22.5,436.9,50.7,436.9z M477.4,211.6H33.6v-34.1h443.7V211.6z M460.3,402.8H50.7
	c-9.4,0-17.1-7.7-17.1-17.1V245.8h443.7v139.9C477.4,395.1,469.7,402.8,460.3,402.8z M50.7,109.2h409.6c9.4,0,17.1,7.7,17.1,17.1
	v17.1H33.6v-17.1C33.6,116.9,41.3,109.2,50.7,109.2z"/>
<path class="st0" d="M426.2,334.5h-68.3c-9.4,0-17.1,7.6-17.1,17.1c0,9.4,7.6,17.1,17.1,17.1h68.3c9.4,0,17.1-7.6,17.1-17.1
	C443.2,342.1,435.6,334.5,426.2,334.5z"/>
</svg>
