<?xml version="1.0" encoding="utf-8"?>
<!-- Generator: Adobe Illustrator 23.0.3, SVG Export Plug-In . SVG Version: 6.00 Build 0)  -->
<svg version="1.1" id="Layer_1" xmlns="http://www.w3.org/2000/svg" xmlns:xlink="http://www.w3.org/1999/xlink" x="0px" y="0px"
	 viewBox="0 0 512 512" style="enable-background:new 0 0 512 512;" xml:space="preserve">
<style type="text/css">
	.st0{fill:#FFFFFF;}
</style>
<path class="st0" d="M107,162v285.7c0,7.9,6.4,14.3,14.3,14.3h271.4c7.9,0,14.3-6.4,14.3-14.3v-300c0-0.3-0.2-0.6-0.2-0.9
	c-0.1-1.3-0.3-2.5-0.8-3.8c-0.2-0.5-0.3-0.9-0.5-1.3c-0.7-1.5-1.6-2.9-2.8-4.1c0,0,0,0,0,0l-71.4-71.4c0,0,0,0,0,0
	c-1.2-1.2-2.6-2.1-4.1-2.8c-0.4-0.2-0.8-0.3-1.3-0.5c-1.3-0.4-2.5-0.7-3.9-0.8c-0.3,0-0.5-0.2-0.8-0.2h-200
	c-7.9,0-14.3,6.4-14.3,14.3v57.1V162z M335.6,110.8l22.7,22.7h-22.7V110.8z M135.6,433.4V90.6H307v57.1c0,7.9,6.4,14.3,14.3,14.3
	h57.1v271.4H135.6z"/>
<path class="st0" d="M320.4,247.7H191.8c-7.9,0-14.3-6.4-14.3-14.3c0-7.9,6.4-14.3,14.3-14.3h128.6c7.9,0,14.3,6.4,14.3,14.3
	C334.7,241.3,328.3,247.7,320.4,247.7z"/>
<path class="st0" d="M320.4,304.9H191.8c-7.9,0-14.3-6.4-14.3-14.3c0-7.9,6.4-14.3,14.3-14.3h128.6c7.9,0,14.3,6.4,14.3,14.3
	C334.7,298.5,328.3,304.9,320.4,304.9z"/>
<path class="st0" d="M320.4,362H191.8c-7.9,0-14.3-6.4-14.3-14.3c0-7.9,6.4-14.3,14.3-14.3h128.6c7.9,0,14.3,6.4,14.3,14.3
	C334.7,355.6,328.3,362,320.4,362z"/>
</svg>
