<?xml version="1.0" encoding="utf-8"?>
<!-- Generator: Adobe Illustrator 23.0.3, SVG Export Plug-In . SVG Version: 6.00 Build 0)  -->
<svg version="1.1" id="Layer_1" xmlns="http://www.w3.org/2000/svg" xmlns:xlink="http://www.w3.org/1999/xlink" x="0px" y="0px"
	 viewBox="0 0 512 512" style="enable-background:new 0 0 512 512;" xml:space="preserve">
<style type="text/css">
	.st0{fill:#FFFFFF;}
</style>
<path class="st0" d="M454.3,70c-0.7-6.5-5.8-11.6-12.3-12.3c-44.6-5-87.8,1-128.4,17.8c-37.9,15.7-74,40.9-107.1,75
	c-16.3,16.8-32.2,36-47.1,57.1c-23.3-0.5-48.7,10.2-66.6,28.1l-32.8,32.8c-4.4,4.4-5.3,11.3-2.2,16.8c3.1,5.4,9.6,8.1,15.6,6.5
	c7.5-2,19.6-4.3,31.3-4.9c2.5-0.1,4.9-0.1,7.1-0.1c-2.6,5.1-5,9.8-6.9,13.7c-2.8,5.6-5,9.9-5.9,11.4c-3.5,5.5-2.7,12.6,1.9,17.2
	l17.6,17.6c-26.6,36.8-27.4,56-27.2,59.5c0.3,8.7,7.7,13.4,14.5,13.4c19.1,0,46.2-18.1,58.6-27.1l18.5,18.5
	c4.6,4.6,11.9,5.4,17.3,1.9c1.8-1.2,6.7-3.6,12.8-6.8c3.3-1.7,6.9-3.5,10.8-5.6c-0.1,9.4-1.5,22.4-4,39.5c-0.9,6,2,11.7,7.5,14.4
	c2,1,4.2,1.5,6.4,1.5c3.6,0,7-1.4,9.7-4.1l32.8-32.8c16.9-16.9,27-42.1,26.7-66c22.4-15.7,42.7-32.4,60.1-49.6
	c33.7-33,58.5-68.9,73.9-106.6C453.4,156.9,459.2,114.1,454.3,70z M251,385.9c7.2-4.1,14.3-8.3,21.2-12.5
	c-3.2,10-8.7,19.2-15.5,26.1l-5,5C251.9,397.2,251.7,391,251,385.9z M422.3,151.8c-13.1-4.6-26-13-37.5-24.6
	c-11.6-11.6-20-24.5-24.6-37.7c21.7-5,44.4-6.8,67.5-5.2C429.2,107.3,427.4,130,422.3,151.8z M200.1,362.6l12.4,12.4
	c-5.8,3-9.5,5-13.2,6.8c-1.4,0.7-2.7,1.4-4.1,2.1l-9-9C190.8,371.1,195.4,366.9,200.1,362.6z M233.8,292.9l0-2
	c0-7.7-6.2-13.9-13.9-13.9c-1,0-1.9,0-2.9,0c-16.1-0.1-32.7-0.1-49.3,13.9l-17-17c52.9-92.3,114.4-151.6,182.7-176.5
	c5.9,17.5,16.8,34.6,31.6,49.4c14.8,14.8,31.8,25.7,49.2,31.6c-25,68-84.4,129.4-176.4,182.6l-18-18
	C233.9,326.7,233.8,311,233.8,292.9z M148.3,310.8c-4.3,4.7-8.5,9.4-12.3,13.9l-8-8c0.3-0.6,0.7-1.3,1-2c2-3.9,4.3-8.7,7.8-15.3
	L148.3,310.8z M112.5,255.3c7.3-7.3,16.6-13.1,26.4-16.5c-4.3,7-8.5,14.2-12.7,21.5c-5-1-10.6-1.4-16.8-1.4c-0.1,0-0.3,0-0.4,0
	L112.5,255.3z M205.9,304.9c-0.5,8.6-2.5,15.6-9.4,22.5c-31.1,31.1-53.5,47.1-68.2,55.3c8.3-15,24.3-37.7,55.1-68.4v0
	C190.4,307.3,197.2,305.3,205.9,304.9z"/>
<path class="st0" d="M352,160L352,160c-23.5-23.5-61.7-23.5-85.2,0c-23.5,23.5-23.5,61.7,0,85.2c11.7,11.7,27.2,17.6,42.6,17.6
	s30.9-5.9,42.6-17.6C375.5,221.7,375.5,183.5,352,160z M332.3,225.5c-6.1,6.1-14.3,9.5-22.9,9.5c-8.7,0-16.8-3.4-22.9-9.5
	c-12.6-12.6-12.6-33.2,0-45.9c6.3-6.3,14.6-9.5,22.9-9.5c8.3,0,16.6,3.2,22.9,9.5C345,192.3,345,212.9,332.3,225.5z"/>
</svg>
