<?xml version="1.0" encoding="utf-8"?>
<!-- Generator: Adobe Illustrator 23.0.3, SVG Export Plug-In . SVG Version: 6.00 Build 0)  -->
<svg version="1.1" id="Capa_1" xmlns="http://www.w3.org/2000/svg" xmlns:xlink="http://www.w3.org/1999/xlink" x="0px" y="0px"
	 viewBox="0 0 480 480" style="enable-background:new 0 0 480 480;" xml:space="preserve">
<style type="text/css">
	.st0{fill:#1D95E2;}
</style>
<g>
	<path class="st0" d="M240.4,439.9c8.2,0,14.9-6.7,14.9-14.9v-77l3-0.9c24.7-7.8,41.9-31.3,41.9-57.1c0-25.9-17.2-49.4-41.9-57.1
		l-3-0.9V54.9c0-8.2-6.7-14.9-14.9-14.9c-8.2,0-14.9,6.7-14.9,14.9v176.9l-3,0.9c-24.7,7.8-41.9,31.3-41.9,57.1
		c0,25.9,17.2,49.4,41.9,57.1l3,0.9v77C225.5,433.2,232.2,439.9,240.4,439.9z M210.4,289.9c0-16.5,13.4-30,30-30
		c16.5,0,30,13.4,30,30c0,16.5-13.4,30-30,30C223.9,319.9,210.4,306.5,210.4,289.9z"/>
	<path class="st0" d="M105.4,439.9c8.2,0,14.9-6.7,14.9-14.9V255.5l3-0.9c24.7-7.8,41.9-31.3,41.9-57.1c0-25.8-17.2-49.3-41.9-57.1
		l-3-0.9V54.9c0-8.2-6.7-14.9-14.9-14.9s-14.9,6.7-14.9,14.9v84.5l-3,0.9c-24.7,7.8-41.9,31.3-41.9,57.1c0,25.9,17.2,49.4,41.9,57.1
		l3,0.9V425C90.5,433.2,97.2,439.9,105.4,439.9z M75.5,197.5c0-16.5,13.4-30,30-30s30,13.4,30,30s-13.4,30-30,30
		S75.5,214,75.5,197.5z"/>
	<path class="st0" d="M374.6,440c8.2,0,14.9-6.7,14.9-14.9V255.5l3-0.9c24.7-7.8,41.9-31.3,41.9-57.1c0-25.8-17.2-49.3-41.9-57.1
		l-3-0.9V54.9c0-8.2-6.7-14.9-14.9-14.9c-8.2,0-14.9,6.7-14.9,14.9v84.5l-3,0.9c-24.7,7.8-41.9,31.3-41.9,57.1
		c0,25.9,17.2,49.4,41.9,57.1l3,0.9v169.5C359.6,433.3,366.3,440,374.6,440z M344.6,197.5c0-16.5,13.4-30,30-30
		c16.5,0,30,13.4,30,30s-13.4,30-30,30C358,227.5,344.6,214,344.6,197.5z"/>
</g>
</svg>
