<?xml version="1.0" encoding="utf-8"?>
<!-- Generator: Adobe Illustrator 23.0.3, SVG Export Plug-In . SVG Version: 6.00 Build 0)  -->
<svg version="1.1" id="Layer_1" xmlns="http://www.w3.org/2000/svg" xmlns:xlink="http://www.w3.org/1999/xlink" x="0px" y="0px"
	 viewBox="0 0 512 512" style="enable-background:new 0 0 512 512;" xml:space="preserve">
<style type="text/css">
	.st0{fill:#FFFFFF;}
</style>
<g>
	<path class="st0" d="M63.9,101.1c-5.9,3.2-9.5,9.4-9.5,16.1v129.2c0.1,109.8,65.2,209.1,165.8,253.1l25,10.9c4.6,2,10,2,14.6,0
		l28.2-12.2c102.7-43.2,169.1-143.1,169.1-254.5V117.3c0-6.8-3.7-13-9.7-16.2L261.8,2.2c-2.7-1.5-5.7-2.2-8.7-2.2
		c-3,0-6.1,0.8-8.8,2.3L63.9,101.1z M253.3,39.3l167.1,89v115.6c0,96.6-57.6,183.2-146.7,220.6l-21.1,9.1l-17.7-7.7
		C147.6,427.7,91.2,341.6,91.1,246.4V128.1L253.3,39.3z"/>
	<path class="st0" d="M209.8,318.1c4.4,5.2,10.7,7.8,17.1,7.8c5,0,10-1.6,14.1-5l113.6-92.5c4.7-3.8,7.6-9.2,8.2-15.1
		c0.6-6-1.1-11.8-4.9-16.5c-3.8-4.6-9.1-7.5-15.1-8.2c-6-0.6-11.8,1.1-16.5,4.9l-96.7,78.6l-34.6-40.5c-3.9-4.6-9.3-7.3-15.3-7.8
		c-6-0.5-11.8,1.4-16.3,5.3c-4.6,3.9-7.3,9.3-7.8,15.3c-0.5,6,1.4,11.8,5.3,16.3L209.8,318.1z"/>
</g>
</svg>
