<?xml version="1.0" encoding="utf-8"?>
<!-- Generator: Adobe Illustrator 23.0.3, SVG Export Plug-In . SVG Version: 6.00 Build 0)  -->
<svg version="1.1" id="Capa_1" xmlns="http://www.w3.org/2000/svg" xmlns:xlink="http://www.w3.org/1999/xlink" x="0px" y="0px"
	 viewBox="0 0 512 512" style="enable-background:new 0 0 512 512;" xml:space="preserve">
<style type="text/css">
	.st0{fill:#FFFFFF;}
</style>
<g>
	<g>
		<g>
			<path class="st0" d="M182.4,352H45.6C20.4,352,0,372.4,0,397.6v68.7C0,491.6,20.4,512,45.6,512h136.7c25.2,0,45.6-20.4,45.6-45.6
				v-68.7C228,372.4,207.6,352,182.4,352z M162.4,472H65.6C51.5,472,40,460.5,40,446.4v-28.7c0-14.2,11.5-25.6,25.6-25.6h96.7
				c14.2,0,25.6,11.5,25.6,25.6v28.7C188,460.5,176.5,472,162.4,472z"/>
			<path class="st0" d="M182.4,0H45.6C20.4,0,0,20.4,0,45.6v214.7C0,285.6,20.4,306,45.6,306h136.7c25.2,0,45.6-20.4,45.6-45.6V45.6
				C228,20.4,207.6,0,182.4,0z M162.4,266H65.6C51.5,266,40,254.5,40,240.4V65.6C40,51.5,51.5,40,65.6,40h96.7
				c14.2,0,25.6,11.5,25.6,25.6v174.7C188,254.5,176.5,266,162.4,266z"/>
			<path class="st0" d="M466.4,0H329.6C304.4,0,284,20.4,284,45.6v68.7c0,25.2,20.4,45.6,45.6,45.6h136.7
				c25.2,0,45.6-20.4,45.6-45.6V45.6C512,20.4,491.6,0,466.4,0z M446.4,120h-96.7c-14.2,0-25.6-11.5-25.6-25.6V65.6
				c0-14.2,11.5-25.6,25.6-25.6h96.7c14.2,0,25.6,11.5,25.6,25.6v28.7C472,108.5,460.5,120,446.4,120z"/>
			<path class="st0" d="M466.4,206H329.6c-25.2,0-45.6,20.4-45.6,45.6v214.7c0,25.2,20.4,45.6,45.6,45.6h136.7
				c25.2,0,45.6-20.4,45.6-45.6V251.6C512,226.4,491.6,206,466.4,206z M446.4,472h-96.7c-14.2,0-25.6-11.5-25.6-25.6V271.6
				c0-14.2,11.5-25.6,25.6-25.6h96.7c14.2,0,25.6,11.5,25.6,25.6v174.7C472,460.5,460.5,472,446.4,472z"/>
		</g>
	</g>
</g>
</svg>
